<?xml version="1.0" encoding="utf-8"?>
<!-- Generator: Adobe Illustrator 22.1.0, SVG Export Plug-In . SVG Version: 6.00 Build 0)  -->
<svg version="1.1" id="Layer_1" xmlns="http://www.w3.org/2000/svg" xmlns:xlink="http://www.w3.org/1999/xlink" x="0px" y="0px"
	 viewBox="0 0 294 55" style="enable-background:new 0 0 294 55;" xml:space="preserve">
<style type="text/css">
	.st0{fill:#FFFFFF;}
	.st1{fill:#3A3A3A;}
</style>
<path class="st0" d="M257.8,24.4c6.5,0.7,13-0.5,20.3,0.5c-2.7,1.3-4.7,0.5-6.6,0.8c-1.8,0.3-3.9-0.6-5.5,1.2c0.9,0.9,2,1.2,3.1,1.3
	c2.7,0.2,5.3,1.5,8,1.5c0.3,0,0.3,0.5-0.1,0.8c-0.3,0.3-1.4,0.4,0,0.9c2.3,0.8,2.6,1.9,0.9,3.3c-1.3,1-1.8,2.3-2.4,3.5
	c-0.8,1.5-1.9,2-3.5,2c-4.2-0.1-8.4,0-12.7,0c-16.5,0-33.1-0.1-49.6,0.1c-6,0-12,0.9-18,0.7c-5.7-0.3-11.3-0.3-17-0.5
	c-9.4-0.4-18.8-0.5-28.2,0.4c-8.4,0.8-16.8,1.3-25.2,1.4c-6.5,0-12.9-1.1-19.4-1.2c-6.7-0.1-13.3-0.2-19.9,0.9
	c-2.1,0.3-4.2,0.2-6.3,0.2c-15.2,0-30.5-0.1-45.7,0.1c-3.4,0-6.8,0.2-10.1-0.1c-0.8-0.1-1.6-0.2-2.4-0.5c-1.3-0.5-1.8-2.3-3.6-2.2
	c-1.4,0.1-2.9,0-5.1,0c3.2-2.5,6.5-2.2,9.4-3.3c-1.1-1.7-2.8-1.5-4.3-1.7c-1.4-0.2-3.9,1.1-4-1.3c-0.1-1.7,2.3-1.2,3.7-1.4
	c0.9-0.2,1.5-0.6,1.8-1.5c0.5-1.8,1.3-3.3,3.5-3.5c1.8-2.5,4.5-2,7.1-2c1.5,0,3.1-0.1,5.2-0.2c-1.8-1.6-3.4-1.6-5-1.6
	c-1.8,0-3.6-0.1-5.3-0.3c-1.6-0.2-3.1-0.7-4.1-2.3c-0.5-0.8-1.4-1.2-2.2-1.9c-0.5-0.4-1.2-0.7-1.1-1.5c0.1-1,0.9-0.6,1.5-0.7
	c0.5-0.1,1,0.1,1.4-0.1c0.4-0.2,0.8-0.5,1-0.9c0.5-0.9-0.3-1-0.9-1.3c-0.4-0.2-0.9-0.4-1.3-0.7c-0.6-0.4-0.8-1.1-0.6-1.7
	c0.2-0.6,0.7-1.1,1.4-1.2c2.6-0.1,5.2-0.4,7.8,0.1c2.6,0.5,5.1,0.6,7.7,0.7c1.8,0.1,3.5,0.3,5.2-0.7c0.6-0.3,1.6-0.3,2.4-0.2
	c3.9,0.4,7.8-0.1,11.6,0.7c1.2,0.3,2.6,0.1,3.8-0.2c1.6-0.3,3.2-0.6,4.8-0.4c4.8,0.5,9.7-0.2,14.5-0.1c4.9,0.1,9.7,0.2,14.6-0.1
	c4.8-0.2,9.6-0.4,14.5-0.1c8.2,0.5,16.5,0.2,24.8,0c5.2-0.2,10.3-0.9,15.5-0.7c0.6,0,1.4,0,1.9-0.2c3.5-1.5,7-0.8,10.5-0.3
	c1,0.1,1.9,0.3,2.9,0.3c9.9,0,19.8,0,29.7,0c3.9,0,7.7-1,11.6-0.8c4,0.1,8,1.2,12,1c1.3-0.1,2.6,0.2,3.9,0.2
	c11.5-0.1,23,0.1,34.5-0.5c6.5-0.4,13-0.1,19.4-1.1c2.1-0.3,3.9,0.2,5.4,1.5c0.3,0.3,0.5,0.9,0.4,1.3c-0.1,0.4-0.5,0.9-0.8,1
	c-0.7,0.2-1.6,0.3-2.4,0.4c-3,0.4-6.1,0.7-9.3,1.1c0.7,1.2,1.7,0.8,2.5,0.9c1.3,0.1,2.2,0.5,2.2,2c0,1.2,0.9,1.7,1.9,1.7
	c1.3,0,2.6-0.3,3.9-0.4c2.6-0.2,3.4,0.8,3.3,3.5c-0.1,1.9-0.8,2.5-2.4,1.9c-3.2-1.2-6.4-0.8-9.6-0.7c-1.3,0-2.5,0-3.5,1.2
	C260.5,24.2,258.8,23.3,257.8,24.4z M38.8,36.7c-2.6,0-5.3,0-8,0c-0.2,0-0.5,0.4-0.5,0.6c0,0.2,0.3,0.6,0.5,0.6
	C33.6,38.3,36.5,38.5,38.8,36.7z"/>
<path class="st0" d="M259.8,25.4c6.5,0.7,13-0.5,20.3,0.5c-2.7,1.3-4.7,0.5-6.6,0.8c-1.8,0.3-3.9-0.6-5.5,1.2c0.9,0.9,2,1.2,3.1,1.3
	c2.7,0.2,5.3,1.5,8,1.5c0.3,0,0.3,0.5-0.1,0.8c-0.3,0.3-1.4,0.4,0,0.9c2.3,0.8,2.6,1.9,0.9,3.3c-1.3,1-1.8,2.3-2.4,3.5
	c-0.8,1.5-1.9,2-3.5,2c-4.2-0.1-8.4,0-12.7,0c-16.5,0-33.1-0.1-49.6,0.1c-6,0-12,0.9-18,0.7c-5.7-0.3-11.3-0.3-17-0.5
	c-9.4-0.4-18.8-0.5-28.2,0.4c-8.4,0.8-16.8,1.3-25.2,1.4c-6.5,0-12.9-1.1-19.4-1.2c-6.7-0.1-13.3-0.2-19.9,0.9
	c-2.1,0.3-4.2,0.2-6.3,0.2c-15.2,0-30.5-0.1-45.7,0.1c-3.4,0-6.8,0.2-10.1-0.1c-0.8-0.1-1.6-0.2-2.4-0.5c-1.3-0.5-1.8-2.3-3.6-2.2
	c-1.4,0.1-2.9,0-5.1,0c3.2-2.5,6.5-2.2,9.4-3.3c-1.1-1.7-2.8-1.5-4.3-1.7c-1.4-0.2-3.9,1.1-4-1.3c-0.1-1.7,2.3-1.2,3.7-1.4
	c0.9-0.2,1.5-0.6,1.8-1.5c0.5-1.8,1.3-3.3,3.5-3.5c1.8-2.5,4.5-2,7.1-2c1.5,0,3.1-0.1,5.2-0.2c-1.8-1.6-3.4-1.6-5-1.6
	c-1.8,0-3.6-0.1-5.3-0.3c-1.6-0.2-3.1-0.7-4.1-2.3c-0.5-0.8-1.4-1.2-2.2-1.9c-0.5-0.4-1.2-0.7-1.1-1.5c0.1-1,0.9-0.6,1.5-0.7
	c0.5-0.1,1,0.1,1.4-0.1c0.4-0.2,0.8-0.5,1-0.9c0.5-0.9-0.3-1-0.9-1.3c-0.4-0.2-0.9-0.4-1.3-0.7c-0.6-0.4-0.8-1.1-0.6-1.7
	c0.2-0.6,0.7-1.1,1.4-1.2c2.6-0.1,5.2-0.4,7.8,0.1c2.6,0.5,5.1,0.6,7.7,0.7c1.8,0.1,3.5,0.3,5.2-0.7c0.6-0.3,1.6-0.3,2.4-0.2
	c3.9,0.4,7.8-0.1,11.6,0.7c1.2,0.3,2.6,0.1,3.8-0.2c1.6-0.3,3.2-0.6,4.8-0.4c4.8,0.5,9.7-0.2,14.5-0.1c4.9,0.1,9.7,0.2,14.6-0.1
	c4.8-0.2,9.6-0.4,14.5-0.1c8.2,0.5,16.5,0.2,24.8,0c5.2-0.2,10.3-0.9,15.5-0.7c0.6,0,1.4,0,1.9-0.2c3.5-1.5,7-0.8,10.5-0.3
	c1,0.1,1.9,0.3,2.9,0.3c9.9,0,19.8,0,29.7,0c3.9,0,7.7-1,11.6-0.8c4,0.1,8,1.2,12,1c1.3-0.1,2.6,0.2,3.9,0.2
	c11.5-0.1,23,0.1,34.5-0.5c6.5-0.4,13-0.1,19.4-1.1c2.1-0.3,3.9,0.2,5.4,1.5c0.3,0.3,0.5,0.9,0.4,1.3c-0.1,0.4-0.5,0.9-0.8,1
	c-0.7,0.2-1.6,0.3-2.4,0.4c-3,0.4-6.1,0.7-9.3,1.1c0.7,1.2,1.7,0.8,2.5,0.9c1.3,0.1,2.2,0.5,2.2,2c0,1.2,0.9,1.7,1.9,1.7
	c1.3,0,2.6-0.3,3.9-0.4c2.6-0.2,3.4,0.8,3.3,3.5c-0.1,1.9-0.8,2.5-2.4,1.9c-3.2-1.2-6.4-0.8-9.6-0.7c-1.3,0-2.5,0-3.5,1.2
	C262.5,25.2,260.8,24.3,259.8,25.4z M40.8,37.7c-2.6,0-5.3,0-8,0c-0.2,0-0.5,0.4-0.5,0.6c0,0.2,0.3,0.6,0.5,0.6
	C35.6,39.3,38.5,39.5,40.8,37.7z"/>
<g>
	<path class="st1" d="M90.5,7.3c0.2-0.2,0.4-0.3,0.7-0.4c0.1,0,0.1,0,0.2,0.1s0.1,0.1,0.2,0.1c0.2,0,0.5,0.1,0.8,0.2
		c0.3,0.1,0.6,0.3,0.9,0.6c0.3,0.3,0.6,0.5,0.8,0.8c0.1,0.1,0.3,0.3,0.4,0.4s0.2,0.3,0.3,0.4c0.3,0.4,0.5,0.8,0.6,1.3
		c0.1,0.3,0.1,0.6,0,1s-0.1,0.7-0.1,1.2c-0.1,0.3-0.1,0.5-0.1,0.6S95.1,14,95,14.2c-0.1,0.3-0.1,0.7-0.2,1c-0.1,0.3-0.1,0.7-0.2,1
		c0.1,0.4,0.1,0.7,0.1,1.1c0,0.4,0.1,0.7,0.1,1.1l0.1,1c-0.1,0.6-0.3,1.2-0.4,1.8c-0.1,0.6-0.3,1.2-0.4,1.8
		c-0.1,0.2-0.1,0.4-0.1,0.5c0,0.1,0,0.3,0,0.4c0.1,0,0.2,0,0.2,0c0,0,0,0,0.1,0c0,0,0,0,0.1,0c0,0,0.1,0,0.3-0.1l0.6-0.3l1-0.2
		c0.2,0.1,0.3,0.2,0.4,0.6c0.1,0.3,0.1,0.6,0.1,0.7c0,0.2-0.1,0.4-0.4,0.7c-0.3,0.2-0.7,0.3-1.3,0.5l-0.7,0.3L93.9,27
		c-0.2,0.1-0.3,0.2-0.4,0.4c-0.1,0.2-0.2,0.5-0.3,1c-0.2,1.1-0.3,2.4-0.4,4c0,0.1,0,0.2,0,0.4s0,0.3-0.1,0.5c-0.1,0.3-0.2,0.7-0.2,1
		c0,0.3,0,0.6,0,0.9c0,0.3,0,0.5,0,0.8c0,0.3,0,0.5,0,0.8c0,0.1,0,0.3,0,0.6c0,0.2,0,0.3-0.1,0.5c0,0.2,0,0.4,0,0.5
		c0,0.3,0,0.6,0,0.9c0,0.3,0,0.6,0,0.9c0,0.1,0,0.2,0,0.3c0,0.1,0,0.2,0,0.3c0,0.5,0,0.9,0.1,1.2s0.1,0.7,0.1,1
		c0.1,0.1,0.1,0.3,0.1,0.5s0.1,0.4,0.1,0.5l0.1,0.7c0.1,0.4,0.1,0.7,0,1c-0.1,0.3-0.1,0.6,0,0.9c0,0.3,0.1,0.5,0.3,0.6
		c0,0.2,0,0.4,0,0.5c0,0.4-0.1,0.7-0.1,1c0,0.3-0.1,0.6-0.1,1c-0.1,0.1-0.2,0.1-0.3,0.1c-0.1,0-0.3,0.1-0.4,0.1
		c-0.2,0.1-0.3,0.1-0.3,0.1L91.5,50c-0.2,0-0.3,0-0.5,0.1c-0.2,0-0.3,0-0.4,0c-0.5,0-0.8-0.1-1.2-0.3c-0.3-0.2-0.6-0.6-0.8-1.2
		c-0.1-0.1-0.2-0.3-0.3-0.4c-0.1-0.2-0.2-0.3-0.3-0.5l-0.6-1c-0.1-0.2-0.2-0.3-0.3-0.4c-0.1-0.1-0.2-0.2-0.2-0.3l-0.2-0.4
		c-0.1-0.3-0.1-0.6-0.2-0.9c-0.1-0.3-0.1-0.6-0.2-0.9c-0.1-0.4-0.1-0.7-0.2-1.1c-0.1-0.4-0.1-0.7-0.2-1.1c0-0.2,0-0.4-0.1-0.7
		c0-0.2,0-0.5,0-0.7l-0.1-0.7c-0.1-0.2-0.1-0.3-0.1-0.4c0-0.2,0-0.5,0.1-0.9s0.1-0.8,0.2-1.2c0-0.2,0.1-0.4,0.1-0.6
		c0-0.2,0-0.3,0-0.5c0-0.4,0-0.7,0.1-1.1c0-0.4,0-0.7,0.1-1.1c0.1-0.8,0.2-1.5,0.3-2.1s0.2-1.2,0.3-1.7c0.1-0.5,0.2-0.8,0.3-1.1
		c0.1-0.3,0.1-0.5,0.1-0.6c0-0.1-0.1-0.1-0.4-0.2c-0.2,0-0.3,0-0.4,0.1l-1.8,0.4l-1.5,0.3c-0.5,0-1.2,0-1.9,0.1
		c-0.7,0-1.3,0-1.8,0.1c-0.2,0.3-0.4,0.5-0.6,0.8s-0.4,0.5-0.6,0.8c-0.3,0.4-0.6,0.7-0.8,1.1s-0.5,0.7-0.7,1.1
		c-0.3,0.2-0.5,0.4-0.8,0.7c-0.2,0.2-0.4,0.4-0.6,0.6L75.5,34c-0.4,0.4-0.7,0.8-1,1.3l-1.1,1.9l-0.1,0.1l-0.6,1.1
		c-0.1,0.2-0.2,0.4-0.3,0.5c-0.1,0.2-0.2,0.3-0.4,0.5c-0.2,0.3-0.4,0.5-0.5,0.8s-0.3,0.5-0.5,0.7l-0.4,0.6c-0.3,0.3-0.6,0.6-0.8,1
		c-0.1,0.1-0.2,0.2-0.3,0.3c-0.1,0.1-0.2,0.2-0.3,0.3h0c-0.5,0.4-0.8,0.5-1,0.5c-0.2,0-0.4-0.2-0.4-0.6c0,0,0-0.1,0-0.1
		c0-0.1,0.1-0.2,0.1-0.3c0-0.1,0.1-0.2,0.1-0.4c0,0,0,0,0,0c0,0,0,0,0,0c0-0.1,0-0.1,0-0.1c0,0,0.1-0.1,0.1-0.1l0.2-0.6l0.4-0.4
		c0.3-0.3,0.5-0.6,0.8-0.9c0.3-0.3,0.5-0.7,0.8-1l0.1-0.2l0.8-1l1.1-1.8c0.3-0.4,0.6-0.9,0.8-1.3c0.3-0.5,0.5-0.9,0.8-1.4l0.9-1.4
		c0.4-0.6,0.7-1.1,0.9-1.5c0.2-0.4,0.4-0.7,0.6-1c-0.2,0-0.4,0-0.5,0c-0.2,0-0.4,0-0.5,0c-0.5-0.1-0.8-0.3-0.8-0.5
		c-0.1-0.1-0.2-0.2-0.2-0.3c0-0.2,0.2-0.5,0.6-0.8c0.1-0.1,0.3-0.2,0.4-0.3s0.3-0.2,0.5-0.3c0.2,0.1,0.4,0.1,0.6,0
		c0.2-0.1,0.4-0.1,0.6-0.1c0.3,0,0.5,0,0.7-0.1c0.2-0.1,0.4-0.2,0.6-0.3c0.2-0.4,0.5-1,0.9-1.7c0.5-0.8,0.9-1.6,1.4-2.5
		c0.4-0.7,0.8-1.4,1.2-2c0.4-0.7,0.8-1.4,1-2.1l0.8-1.1c0.3-0.4,0.7-0.8,1-1.2c0.3-0.4,0.7-0.9,1.1-1.4c1-1.3,1.8-2.5,2.5-3.4
		c0.7-1,1.2-1.8,1.6-2.6C90,8.5,90,8.4,90.1,8.3c0.1-0.1,0.1-0.2,0.2-0.3L90.5,7.3z M90.1,11.4c0-0.1-0.1-0.1-0.1-0.1
		c0,0-0.1-0.1-0.1-0.1c-0.2,0.3-0.4,0.6-0.6,1c-0.2,0.3-0.5,0.6-0.6,0.9c-0.1,0.1-0.2,0.3-0.4,0.6c-0.1,0.2-0.2,0.4-0.3,0.5
		c-0.1,0.1-0.3,0.3-0.4,0.5c-0.1,0.2-0.3,0.4-0.4,0.6L86.6,16c-0.1,0.2-0.2,0.4-0.3,0.6c-0.1,0.2-0.2,0.4-0.3,0.5
		c-0.1,0.2-0.2,0.3-0.3,0.5c-0.1,0.2-0.2,0.3-0.3,0.5c-0.2,0.2-0.3,0.4-0.4,0.8c-0.2,0.4-0.4,0.9-0.6,1.3l-0.9,1.6
		c-0.3,0.6-0.7,1.3-1,2c-0.4,0.7-0.7,1.4-1,2.1c-0.3,0.5-0.4,0.8-0.4,1c0.1,0,0.1,0,0.2,0s0.2,0,0.3,0c0.3,0,0.7-0.1,1.1-0.2
		c0.4-0.1,0.8-0.2,1.1-0.2c0.1,0,0.2,0,0.2,0h0.4c0.3-0.1,0.6-0.1,0.8-0.1c0.3,0,0.5-0.1,0.7-0.1c0.2-0.1,0.4-0.1,0.6-0.2
		c0.2-0.1,0.3-0.1,0.5-0.2l0.9-0.2c0-0.2,0-0.5,0.1-0.7s0-0.5,0.1-0.8c0.1-0.3,0.1-0.5,0.1-0.7c0-0.2,0-0.3,0-0.3
		c0.1-0.6,0.2-1.2,0.3-1.8c0.1-0.6,0.2-1.3,0.4-1.9c0.1-0.7,0.3-1.3,0.4-1.9s0.2-1.2,0.3-1.7c0.1-0.4,0.1-0.7,0.2-1.1
		c0-0.3,0.1-0.6,0.1-0.8c0.1-0.5,0.1-0.9,0.1-1.3C90.1,12.1,90.1,11.8,90.1,11.4z"/>
	<path class="st1" d="M112.5,31.6c0,0.5,0,1.1-0.2,1.7c-0.2,0.6-0.4,1.2-0.7,1.7c-0.3,0.6-0.6,1.1-0.9,1.7c-0.3,0.5-0.6,1-0.9,1.4
		c0.3,0,0.7-0.2,1.1-0.4s0.8-0.5,1.2-0.9c0.4-0.4,0.8-0.8,1.1-1.2c0.4-0.5,0.7-0.9,1-1.4c0.1-0.2,0.4-0.6,0.7-1c0.3-0.5,0.6-1,1-1.5
		c0.4-0.5,0.7-1,1-1.4s0.6-0.7,0.7-0.8c0,0,0,0,0,0h0.1c0.1,0.1,0.1,0.2,0.1,0.5c0,0.2-0.1,0.5-0.2,0.8c-0.1,0.3-0.2,0.6-0.3,0.8
		c-0.1,0.3-0.3,0.5-0.4,0.7c-0.1,0.2-0.3,0.5-0.6,0.9c-0.3,0.4-0.5,0.8-0.8,1.2s-0.6,0.9-0.9,1.3c-0.3,0.4-0.5,0.7-0.7,1
		c-0.3,0.6-0.8,1.1-1.3,1.4c-0.5,0.3-1.1,0.6-1.7,0.9l-1.6,0.7l-0.5,0.2c-0.2,0.2-0.4,0.4-0.6,0.5c-0.2,0.1-0.5,0.3-0.7,0.4h0
		l-0.3,0.2h0c-0.2,0.2-0.4,0.3-0.7,0.5c-0.3,0.2-0.6,0.3-1,0.5c-0.4,0.1-0.8,0.3-1.2,0.3c-0.4,0.1-0.8,0.1-1.2,0.1
		c-0.2,0-0.5-0.1-0.8-0.2s-0.6-0.2-0.9-0.4c-0.3-0.2-0.6-0.3-0.8-0.6c-0.2-0.2-0.3-0.4-0.4-0.7c0-0.2,0-0.4,0.1-0.5
		c0.1-0.1,0.2-0.3,0.3-0.5l0.2-0.2c0.9-0.4,1.9-0.9,2.9-1.5c1-0.6,1.9-1.4,2.6-2.2c0.1-0.2,0.3-0.5,0.4-0.7s0.2-0.5,0.3-0.8
		c0.1-0.3,0.3-0.7,0.4-1.2c0.1-0.4,0.2-0.9,0.3-1.3c0.1-0.5,0.2-0.9,0.2-1.3c0.1-0.4,0.1-0.8,0.1-1.1c-0.1-0.3-0.1-0.6-0.2-0.8
		s-0.2-0.3-0.5-0.3c-0.1,0-0.3,0-0.6,0.1c-0.3,0.1-0.5,0.2-0.8,0.3l-1,0.4c-0.2,0-0.4,0.2-0.7,0.5s-0.5,0.7-0.7,1.1
		c-0.1,0.2-0.3,0.4-0.4,0.5s-0.2,0.2-0.2,0.3l-0.4,0.4c-0.1,0.1-0.2,0.2-0.2,0.2c-0.1,0.1-0.1,0.1-0.1,0.2s-0.1,0.2-0.1,0.3
		c0,0.1-0.1,0.3-0.1,0.5l-0.4,1.5l-0.5,1.3l-0.4,0.6c-0.2,0.2-0.3,0.4-0.5,0.7c-0.2,0.3-0.3,0.5-0.3,0.8c0,0.1-0.1,0.5-0.2,1
		c-0.1,0.5-0.2,1-0.4,1.6s-0.3,1-0.5,1.5c-0.2,0.4-0.3,0.6-0.5,0.6c-0.2,0-0.4-0.1-0.7-0.2c-0.3-0.2-0.6-0.4-0.9-0.6
		c-0.3-0.2-0.6-0.5-0.8-0.8c-0.3-0.3-0.4-0.6-0.4-1v-0.8c0.1-0.9,0.2-2,0.4-3.1c0.2-1.1,0.5-2.3,0.7-3.4l0.5-2.5l1-3.2
		c0.1-0.1,0.1-0.3,0.1-0.4c0-0.1,0.1-0.3,0.1-0.5c0.1-0.4,0.2-0.8,0.3-1.2c0.2-0.5,0.4-1.2,0.6-2.1c0.2-0.9,0.4-1.8,0.6-2.7
		c0.2-1,0.3-1.9,0.4-2.8s0.2-1.6,0.3-2.1c0-0.2,0.1-0.6,0.2-1c0.1-0.4,0.2-0.9,0.3-1.3s0.2-0.8,0.3-1.2s0.2-0.6,0.3-0.6l0.2-0.1h0.2
		c0.5,0,1,0.1,1.5,0.3c0.5,0.2,1,0.5,1.4,0.9c0.4,0.4,0.8,0.9,1.1,1.4c0.3,0.5,0.4,1.1,0.4,1.8s-0.1,1.3-0.4,1.9v0.2
		c0,0.3,0,0.6-0.1,0.9c0,0.3-0.1,0.6-0.1,1l-0.4,1.7c-0.1,0.2-0.2,0.5-0.3,1c-0.1,0.5-0.3,1.1-0.4,1.7c-0.1,0.6-0.3,1.2-0.4,1.8
		c-0.1,0.6-0.1,1-0.1,1.3c0,0.1,0,0.3,0.1,0.4c0,0.1,0,0.3,0.1,0.4l-0.1,0.4l0.3-0.1c0.3-0.3,0.7-0.5,1.3-0.6
		c0.5-0.1,1.1-0.2,1.8-0.1h0.3c0.1,0,0.1,0,0.1,0c0,0,0.1,0,0.1,0c0.3,0,0.6,0.1,0.9,0.3c0.3,0.2,0.7,0.4,1,0.7c0.3,0.3,0.7,0.6,1,1
		c0.3,0.4,0.6,0.7,0.8,1.1c0.1,0.2,0.2,0.3,0.2,0.5c0,0.1,0.1,0.3,0.1,0.4c0,0.1,0,0.1,0,0.1C112.3,31,112.4,31.2,112.5,31.6z"/>
	<path class="st1" d="M127.1,37.2c-0.1,0-0.3,0-0.4,0c-0.1,0-0.2,0-0.4-0.1l-0.1,0.1l-0.3,0.4c-0.1,0.1-0.2,0.2-0.3,0.2
		s-0.2,0.2-0.3,0.4c0,0,0,0.1,0,0.1v0c-0.1,0.2-0.3,0.5-0.6,0.7c-0.3,0.3-0.6,0.5-0.8,0.6c-0.1,0.1-0.2,0.1-0.2,0.2
		c-0.1,0.1-0.1,0.1-0.2,0.2c-0.2,0.1-0.4,0.2-0.5,0.3s-0.4,0.2-0.6,0.2c-0.3,0.1-0.7,0.2-1,0.2s-0.6,0-1,0l-0.4-0.2l-0.5-0.3
		l-0.2-0.1c-0.1,0-0.1,0-0.1,0s-0.1,0-0.1,0c-0.1,0-0.3,0-0.5-0.1c-0.8-0.4-1.5-0.9-2.1-1.6c-0.7-0.8-1-1.8-1.1-2.9
		c0-0.2,0-0.5,0-0.9c0-0.4,0-0.7,0-1.1c0-0.4,0-0.7,0.1-1.1c0-0.3,0.1-0.6,0.1-0.8c0.1-0.7,0.2-1.3,0.4-1.9c0.2-0.4,0.4-0.8,0.6-1.2
		c0.3-0.4,0.5-0.8,0.8-1.2c0.4-0.6,0.8-1.1,1.2-1.5v0c0.3-0.3,0.6-0.7,1-0.9c0.3-0.3,0.7-0.5,1.1-0.7l0.2-0.1c0.3-0.2,0.7-0.4,1-0.5
		c0.3-0.1,0.7-0.2,1-0.3c0.4-0.1,0.7-0.1,0.9,0c0.3,0,0.5,0.1,0.8,0.2l0.1,0.1c0.4,0.2,0.8,0.4,1.2,0.6c0.4,0.2,0.7,0.4,1,0.7
		c0.3,0.3,0.5,0.5,0.7,0.9c0.2,0.3,0.3,0.7,0.3,1.1c0.1,0.1,0,0.3-0.2,0.4c-0.2,0.1-0.5,0.2-1,0.1c-0.3,0-0.7,0.1-1.1,0.3
		c-0.4,0.2-0.9,0.4-1.3,0.6c-0.5,0.2-0.9,0.5-1.3,0.8c-0.4,0.3-0.8,0.6-1,0.9c-0.3,0.4-0.6,0.8-0.8,1.3s-0.5,1-0.7,1.5
		c-0.1,0.1-0.1,0.4-0.2,0.8c-0.1,0.4-0.1,0.8-0.2,1.2l-0.1,0.7v0.2c-0.1,0.3-0.1,0.7-0.2,1c-0.1,0.3-0.1,0.6-0.1,0.8
		c0,0.3,0.1,0.6,0.2,0.9c0.2,0.4,0.3,0.6,0.5,0.6c0.3,0.2,0.7,0.2,1.1,0.2c0.2,0,0.4,0,0.7-0.1c0.2-0.1,0.5-0.1,0.7-0.2
		c0.1-0.1,0.2-0.1,0.3-0.2c0.1-0.1,0.2-0.2,0.3-0.3c0.1-0.1,0.2-0.2,0.2-0.3s0.2-0.2,0.3-0.2c0.4-0.3,0.7-0.6,0.9-1
		c0.2-0.4,0.4-0.7,0.4-0.9c-0.4-0.2-0.7-0.7-1.1-1.4c-0.4-0.7-0.6-1.4-0.7-2.1c0.1-0.7,0.2-1.3,0.3-1.6c0.1-0.4,0.3-0.6,0.4-0.8
		c0.1-0.2,0.3-0.3,0.5-0.3c0.2,0,0.4,0,0.5,0c0.3,0,0.6,0.1,1,0.2c0.4,0.1,0.6,0.4,0.7,0.8h0.2c0.1,0.1,0.1,0.2,0.1,0.5
		c0.1,0.1,0.1,0.3,0.1,0.4c0,0.1,0,0.3,0,0.5l0.1,0.1l0.1,0.2c0.1,0.2,0.2,0.3,0.2,0.4c0,0.1-0.1,0.3-0.1,0.4l-0.1,0.3l0,0.3
		l0.1,0.6c0,0.1-0.1,0.3-0.3,0.6c-0.2,0.3-0.3,0.6-0.5,0.9h0.2c0.1,0,0.2,0,0.4,0c0.3,0.1,0.6,0,0.9-0.3c0.3-0.2,0.6-0.5,0.9-0.9
		c0.3-0.3,0.6-0.7,0.9-1c0.3-0.4,0.7-0.8,1-1.2c0.1-0.1,0.1-0.1,0.1-0.1c0.1-0.2,0.2-0.3,0.3-0.5c0.1-0.2,0.2-0.4,0.3-0.6
		c0.4-0.6,0.8-1.3,1.2-1.9c0.1-0.1,0.2-0.1,0.4-0.1c0.1,0,0.3,0,0.4,0.1s0.2,0.2,0.2,0.3c0,0.1-0.1,0.3-0.2,0.6l0,0
		c-0.2,0.7-0.6,1.5-1.2,2.3c-0.5,0.8-1.1,1.6-1.8,2.3c-0.6,0.7-1.3,1.3-2,1.8S127.6,37.3,127.1,37.2z M125.8,35l0.2-0.4l0.2-0.6
		c0-0.1,0.1-0.2,0.1-0.3c0.1-0.1,0.1-0.1,0.1-0.2c0,0,0,0,0-0.1c0,0,0,0,0-0.1l-0.2-0.9c-0.1-0.3-0.2-0.7-0.5-0.9
		c-0.1,0-0.1-0.1-0.2-0.1s-0.1-0.1-0.2-0.1c0,0,0,0-0.1,0.1l-0.1,0.3c0,0.1,0,0.1,0,0.2s-0.1,0.2-0.1,0.3c0,0.1,0,0.3-0.1,0.6
		c0,0.2,0.1,0.7,0.3,1.2v0.3L125.8,35z"/>
	<path class="st1" d="M141.2,38.8c-0.3-0.2-0.6-0.5-0.8-0.8s-0.4-0.6-0.5-1c-0.1-0.4-0.2-0.7-0.2-1.1c0-0.2,0-0.4,0-0.5
		c0-0.2,0-0.3,0.1-0.5c-0.1-0.1-0.1-0.2-0.1-0.5c0-0.3,0.1-0.5,0.1-0.9c0-0.2,0.1-0.4,0.1-0.6c0-0.2,0.1-0.3,0.1-0.5
		c0-0.2,0.1-0.3,0.1-0.5c-0.1-0.1-0.2,0-0.3,0.3c-0.2,0.3-0.3,0.6-0.5,0.8l-0.3,0.6c-0.1,0.1-0.2,0.3-0.3,0.5
		c-0.1,0.2-0.1,0.4-0.2,0.5c-0.1,0.2-0.2,0.4-0.3,0.7c-0.1,0.2-0.3,0.4-0.4,0.6c-0.6,0.7-1.2,1.4-1.9,2.1s-1.4,1-2,1
		c-0.5,0-1-0.2-1.5-0.6c-0.5-0.4-0.8-1-0.9-1.8c-0.1-0.3,0-0.7,0.1-1.2c-0.1-0.2-0.2-0.3-0.2-0.5c0-0.1-0.1-0.3-0.1-0.5l-0.1-1.2
		c0.1-0.1,0.1-0.3,0.2-0.4s0.1-0.3,0.2-0.5l0.4-0.9l-0.1-1c0.1-0.5,0.2-1.1,0.3-1.7c0.1-0.6,0.1-1.1,0.2-1.7c0-0.2,0-0.4,0.1-0.6
		s0-0.4,0.1-0.6c0-0.1,0-0.3,0.1-0.5s0.1-0.4,0.1-0.5c0.1-0.3,0.2-0.6,0.2-0.8l0,0c0,0,0-0.1,0-0.1c0,0,0-0.1,0-0.1
		c-0.1-0.2,0.1-0.3,0.3-0.3c0.6,0,1,0.1,1.2,0.3c0.2,0.2,0.3,0.4,0.5,0.7c0.1,0.2,0.2,0.4,0.3,0.5c0.1,0.2,0.3,0.3,0.6,0.5
		c0.6,0.3,1,0.7,1.2,1.2c0.2,0.5,0.3,0.9,0.3,1.2l-0.2,0.6c-0.1,0.5-0.3,0.9-0.4,1.4s-0.2,0.9-0.3,1.5c-0.1,0.4-0.2,0.8-0.4,1.2
		c-0.1,0.4-0.3,0.8-0.4,1.2c-0.2,0.7-0.5,1.3-0.7,1.9c-0.2,0.6-0.3,1-0.2,1.2c0,0.2,0,0.3,0.1,0.3c0.2-0.2,0.6-0.5,1-1
		c0.4-0.5,0.9-1.1,1.3-1.7c0.5-0.7,0.9-1.4,1.4-2.2c0.5-0.8,0.9-1.6,1.3-2.3l0.2-0.3c0.2-0.4,0.5-0.9,0.7-1.4
		c0.3-0.5,0.4-0.9,0.3-1.3V27c0,0,0,0,0-0.1c0,0,0,0,0-0.1c0.1-0.3,0.3-0.6,0.4-1c0.1-0.4,0.2-0.7,0.4-1c0.1-0.4,0.3-0.8,0.4-1.1
		c0.1-0.3,0.2-0.4,0.4-0.4c0.2,0,0.4,0.1,0.6,0.2c0.2,0.1,0.5,0.3,0.7,0.5c0.2,0.2,0.4,0.5,0.6,0.8c0.2,0.3,0.3,0.6,0.3,1
		c0.1,0.2,0.1,0.5,0,0.9c0.3,0.3,0.6,0.6,0.7,0.7c0.1,0.2,0.2,0.4,0.2,0.7c-0.2,0.9-0.4,1.9-0.7,2.9l-0.1,0.5l0.1,0.7l-0.4,0.9
		c-0.1,0.3-0.3,0.6-0.4,1c-0.1,0.3-0.2,0.6-0.2,0.8c0,0.1,0,0.2,0,0.2c0,0.1,0,0.1,0,0.2s0,0.1,0,0.2c0,0,0,0.1,0,0.1
		c-0.2,0.5-0.4,0.9-0.5,1.2c-0.1,0.4-0.2,0.7-0.2,0.9l0.2,0.2c0.2,0,0.4-0.2,0.7-0.4c0.3-0.2,0.6-0.6,0.9-0.9
		c0.3-0.4,0.7-0.8,1.1-1.3c0.4-0.5,0.7-0.9,1-1.4l0.4-0.7c0.3-0.5,0.6-0.9,0.8-1.3c0.2-0.4,0.5-0.8,0.8-1.3l0.1-0.3
		c0.1-0.2,0.2-0.5,0.3-0.8c0.1-0.3,0.2-0.6,0.4-0.9s0.3-0.5,0.5-0.7c0.2-0.2,0.4-0.3,0.6-0.3c0.2,0,0.4,0.1,0.4,0.4
		c0,0.1,0,0.1,0,0.2s0,0.2-0.1,0.3c0,0.1-0.1,0.2-0.2,0.4c-0.1,0.2-0.3,0.5-0.4,0.8c-0.2,0.3-0.2,0.6-0.2,0.8
		c-0.1,0.3-0.3,0.6-0.5,0.9c-0.2,0.3-0.4,0.7-0.6,1c-0.1,0.5-0.3,0.9-0.6,1.3l-1.6,2.2v0c-0.1,0.1-0.1,0.2-0.1,0.3
		c0,0.1-0.1,0.1-0.1,0.2c-0.1,0.1-0.1,0.1-0.1,0.1s-0.1,0.1-0.1,0.1c-0.2,0.4-0.5,0.8-0.9,1.1c-0.4,0.3-0.7,0.6-1.1,0.8
		c-0.4,0.2-0.7,0.4-1,0.5c-0.3,0.1-0.6,0.2-0.7,0.2c-0.1,0-0.3,0-0.5-0.1h0C141.8,39.2,141.5,39.1,141.2,38.8z"/>
	<path class="st1" d="M157,20.3c-0.1,0.3-0.1,0.7-0.2,1c-0.1,0.3-0.1,0.7-0.2,1c-0.1,0.5-0.2,1.1-0.3,1.7c-0.1,0.6-0.3,1.1-0.4,1.6
		l0.1,0.9l-1.1,3.2c-0.5,1.3-0.8,2.6-1.2,3.7c-0.3,1.1-0.5,2-0.4,2.7c0,0.3,0.1,0.5,0.2,0.6c0.2-0.1,0.4-0.2,0.7-0.5
		c0.3-0.2,0.6-0.5,0.9-0.8c0.3-0.3,0.7-0.7,1-1c0.3-0.4,0.6-0.7,0.9-1.1c0.1-0.1,0.2-0.3,0.3-0.4s0.2-0.3,0.4-0.4
		c0.3-0.4,0.6-0.8,1-1.2c0.3-0.4,0.6-0.8,0.8-1.2l0.2-0.4v0c0.1-0.2,0.3-0.6,0.5-1c0.2-0.4,0.4-0.8,0.7-1.2s0.4-0.7,0.6-1
		c0.2-0.3,0.4-0.4,0.5-0.4c0.1,0,0.2,0,0.2,0.1c0.1,0.1,0.1,0.2,0.1,0.3c0,0.1,0,0.2,0,0.4v0l0,0c0.1,0.1,0.1,0.2,0.1,0.3
		c-0.1,0.5-0.5,1.4-1.2,2.7c-0.7,1.3-1.7,2.6-2.9,4.1l-1.4,1.8c-0.7,0.8-1.4,1.5-2.1,2.1c-0.7,0.6-1.3,0.9-1.9,0.9
		c-0.6,0-1-0.1-1.4-0.4c-0.3-0.3-0.6-0.6-0.8-1c-0.2-0.2-0.4-0.4-0.7-0.6s-0.4-0.5-0.7-0.7c-0.2-0.2-0.4-0.5-0.6-0.7
		c-0.2-0.3-0.3-0.5-0.3-0.7c-0.1-0.7,0.1-1.7,0.3-3s0.7-2.6,1.2-3.9c0-0.1,0-0.1,0-0.2c0-0.1,0-0.1,0-0.2l0.2-0.7
		c0.1-0.3,0.1-0.5,0.2-0.8c0.1-0.3,0.1-0.5,0.2-0.7v0c0.2-0.5,0.3-1.1,0.4-1.6c0.1-0.6,0.2-1.1,0.3-1.6c0.1-0.3,0.1-0.6,0.1-0.9
		c0-0.3,0.1-0.6,0.1-0.9l-2.2-0.2c-0.9-0.1-1.7-0.2-2.4-0.4c-0.8-0.2-1.5-0.4-2-0.6c-0.6-0.2-1.1-0.5-1.4-0.8
		c-0.4-0.3-0.6-0.6-0.7-0.9c0-0.2,0.1-0.3,0.3-0.3c0.1-0.1,0.3-0.1,0.4,0.1l0.6-0.1c0.6,0.2,1.4,0.5,2.2,0.7
		c0.9,0.2,1.9,0.4,3.1,0.5l1.4,0.1c0.2,0,0.4,0,0.7,0c0.3,0,0.5,0,0.7,0.1l1-2.6v0c0.1-0.3,0.2-0.6,0.3-0.8c0.1-0.1,0.1-0.3,0.2-0.4
		c0.1-0.1,0.1-0.3,0.1-0.4c0.1-0.5,0.1-0.9,0.2-1.4c0-0.5,0.1-0.9,0.1-1.4c0.1-0.8,0.2-1.5,0.3-2.1c0.1-0.6,0.3-0.9,0.7-0.9
		c0.2,0,0.4,0.1,0.7,0.2c0.3,0.1,0.6,0.4,0.9,0.6c0.3,0.3,0.6,0.6,0.8,1c0.3,0.4,0.4,0.9,0.5,1.4V12l0.2,0.8
		c0.1,0.2,0.1,0.4,0.2,0.7c0.1,0.2,0.2,0.4,0.3,0.5V14c-0.2,0.7-0.3,1.4-0.5,2.2c-0.2,0.8-0.4,1.6-0.7,2.5l3.2,0.2
		c0.1,0,0.2,0,0.3,0h0.4c1.1,0.1,2,0.3,2.8,0.6c0.8,0.3,1.5,0.6,2,0.9s0.9,0.7,1.2,1s0.4,0.7,0.5,1c0.1,0.3,0,0.4-0.2,0.5
		c-0.2,0-0.3,0-0.5,0h-0.4c-0.1-0.2-0.2-0.5-0.6-0.7c-0.3-0.2-0.8-0.4-1.3-0.6c-0.5-0.2-1.2-0.4-1.8-0.5s-1.4-0.3-2.1-0.3
		c-0.2,0-0.3,0-0.4,0h-0.2L157,20.3z"/>
	<path class="st1" d="M175.5,12.9c0-0.1,0-0.2,0-0.4c0-0.2,0-0.3,0-0.4c-0.1-0.1-0.1-0.2,0-0.5c0.1-0.2,0.1-0.5,0.2-0.7
		c0.1-0.2,0.1-0.5,0.1-0.7c0-0.2,0-0.4-0.1-0.5c-0.1-0.2-0.2-0.3-0.2-0.5c0-0.1,0-0.3,0.1-0.4c0-0.1,0.1-0.3,0.1-0.5
		c0-0.2,0-0.3,0-0.6c-0.1-0.2-0.1-0.5-0.2-0.8s-0.1-0.5-0.1-0.7l0-0.3c-0.1-0.1-0.1-0.3-0.1-0.4s-0.1-0.2-0.1-0.3
		C175,5.3,175,5.2,175,5.1s0-0.1,0-0.2c0-0.2,0-0.3,0-0.4l0.2-0.1c0.2-0.2,0.4-0.3,0.7-0.3c0.1,0,0.2,0,0.3,0c0.1,0,0.1,0,0.2,0
		c0.1,0,0.1,0,0.2-0.1c0.1,0,0.3,0,0.5-0.1h0.8c0.2,0,0.2,0,0.2,0s0,0.1-0.1,0.2s-0.1,0.1-0.1,0.2s0,0,0.1,0
		c0.2-0.1,0.5-0.2,0.7-0.2c0.3,0.1,0.5,0.1,0.6,0.2c0.2,0,0.3,0.2,0.5,0.4c0.1,0.1,0.3,0.3,0.4,0.5c0.1,0.2,0.3,0.4,0.5,0.6
		c0.2,0.2,0.3,0.5,0.4,0.8c0.1,0.4,0.2,0.7,0.2,1.1c0.1,0.4,0.1,0.7,0.2,1c0.1,0.3,0.1,0.5,0.2,0.6c0,0.1,0,0.2-0.1,0.3
		c-0.1,0.1-0.1,0.2-0.1,0.3c0.2,0.4,0.4,0.8,0.5,1.2s0.1,1,0.2,1.5l0.2-0.2c0.3-0.5,0.5-0.9,0.8-1.3c0.2-0.4,0.4-0.7,0.6-1
		c0.2-0.4,0.5-0.8,0.8-1.3c0.3-0.5,0.7-1,1.2-1.7c0.3-0.5,0.7-1,1.2-1.6l0.4-0.4l0.1-0.2l1-1c0.4-0.3,0.8-0.5,1.3-0.7
		c0.2-0.1,0.5-0.1,0.9,0c0.1,0,0.3,0.1,0.4,0.1c0.1,0.1,0.3,0.2,0.5,0.3l0.2,0.1c0.2,0.1,0.5,0.3,0.7,0.5s0.4,0.4,0.7,0.7
		c0.1,0.2,0.3,0.4,0.4,0.6c0.2,0.2,0.3,0.4,0.4,0.7c0.1,0.3,0.3,0.5,0.4,0.8c0.1,0.3,0.2,0.5,0.3,0.8c0.1,0.3,0.1,0.5,0.2,0.8
		c0.1,0.3,0.1,0.5,0.2,0.8c0,0.2,0,0.3,0,0.5s0,0.3,0,0.5c0.1,1.4,0.1,2.8,0,4c0,0.2,0,0.3,0,0.5c0,0.1,0,0.3,0,0.4
		c-0.1,0.1-0.1,0.3-0.1,0.4c0,0.2,0,0.3-0.1,0.4c-0.1,0.5-0.2,1-0.2,1.3c0.1-0.1,0.1-0.2,0.2-0.4c0.1-0.1,0.2-0.3,0.3-0.4
		c0,0,0-0.1,0-0.1s0-0.1,0.1-0.1l0.4-0.8c0.2-0.3,0.4-0.6,0.6-1c0.2-0.4,0.4-0.7,0.6-1.1c0.1-0.1,0.2-0.3,0.2-0.4s0.2-0.3,0.2-0.4
		c0.1-0.1,0.2-0.2,0.2-0.4c0.1-0.1,0.2-0.3,0.2-0.4l0.4-0.8l1.1-1.6c0.1-0.1,0.2-0.3,0.3-0.4c0.1-0.1,0.2-0.3,0.3-0.4
		c0.6-0.8,1.3-1.5,1.9-2C202,7,202,7,202.1,6.9c0.1,0,0.1-0.1,0.2-0.1c0.3-0.4,0.7-0.7,1.2-0.9c0.5-0.3,0.9-0.4,1.4-0.5h0.3
		c0.1,0,0.1,0,0.2-0.1c0.1,0,0.1,0,0.2,0c0.3,0,0.5,0.1,0.7,0.1c0.2,0.1,0.4,0.2,0.6,0.3c0.2,0.1,0.3,0.1,0.4,0.2
		c0.1,0.1,0.2,0.1,0.2,0.2l0.2,0.2l0,0c0,0,0,0,0,0l0.4,0.4c0.3,0.4,0.5,0.7,0.6,0.8c0,0.1,0,0.1,0.1,0.2c0,0.1,0.1,0.2,0.1,0.4
		c0.1,0.2,0.3,0.4,0.4,0.6c0.1,0.2,0.2,0.4,0.3,0.7c0.1,1.3,0.1,2.6,0,4c-0.1,0.6-0.1,1.1-0.1,1.7c0,0.6-0.1,1.2-0.2,1.9
		c-0.1,0.3-0.1,0.6-0.1,0.9s-0.1,0.6-0.1,1s-0.1,0.6-0.2,0.8l-0.1,0.4c-0.1,0.3-0.1,0.5-0.2,0.8c-0.1,0.3-0.1,0.5-0.1,0.8l-0.4,1.7
		c-0.1,0.3-0.1,0.5-0.1,0.5c0,0,0,0,0,0.1c0,0,0,0.1-0.1,0.2c-0.1,0.1-0.1,0.4-0.2,0.9l-0.4,1.3l-0.2,0.8l-0.4,0.7l0,1.2
		c-0.1,0.2-0.1,0.3-0.1,0.3s-0.1,0.1-0.1,0.3l-0.3,0.4c0,0,0.1,0.1,0.2,0.2s0.1,0.2,0.1,0.3c-0.1,0.1-0.1,0.4-0.2,0.8
		c0,0.1,0,0.2,0,0.3c0,0.1,0,0.2,0,0.2l-0.1,0.3c-0.1,0.1-0.1,0.3-0.2,0.4c-0.1,0.2-0.2,0.3-0.2,0.5c-0.1,0.5-0.2,0.9-0.2,1.2
		c0,0.3,0,0.7-0.1,1.1c-0.1,0.5-0.1,1-0.2,1.5c0,0.5,0,1,0,1.5c0,0.3,0,0.6,0,0.9c0,0.2,0,0.4,0.1,0.6c0.1,0.5,0.2,0.9,0.4,1.1
		l0.1,0.1c0,0.1,0,0.3,0.1,0.4c0.1,0.2,0.2,0.3,0.4,0.3c0.2,0.1,0.4,0,0.6-0.2c0.4-0.1,0.7-0.4,1.1-0.8c0.3-0.4,0.6-0.8,0.9-1.1
		l0.6-0.8l0.2-0.4c0.1-0.2,0.2-0.3,0.2-0.4s0.1-0.2,0.2-0.3l1.7-2.6l0.5-0.8c0.4-0.6,0.6-0.9,0.6-1l0.2-0.4L213,33
		c0.2-0.3,0.3-0.6,0.4-0.7c0.1-0.1,0.2-0.3,0.3-0.4c0.1-0.2,0.2-0.3,0.3-0.3c0.1,0.3,0.1,0.6,0.1,0.8c0,0,0,0,0,0.1c0,0,0,0,0,0.1
		c-0.1,0.2-0.1,0.4-0.2,0.5c-0.1,0.1-0.2,0.3-0.2,0.5l-0.2,0.4l-0.4,0.7c-0.1,0.1-0.1,0.2-0.2,0.3s-0.1,0.2-0.2,0.2
		c-0.1,0.1-0.2,0.3-0.3,0.5c-0.1,0.2-0.3,0.5-0.5,0.9c-0.2,0.4-0.5,0.9-0.8,1.3c-0.3,0.5-0.6,0.9-0.9,1.4c-0.3,0.5-0.5,0.8-0.7,1.1
		l-0.8,0.9l-0.1,0.2c-0.2,0.3-0.4,0.6-0.7,0.9s-0.5,0.6-0.8,0.9l-0.4,0.4c-0.4,0.5-0.7,0.9-1,1.1c-0.3,0.2-0.5,0.3-0.8,0.4
		c-0.2,0-0.4,0-0.6,0.1l-0.2,0.1c-0.1,0-0.1,0-0.2,0l-0.4,0.1c-0.4,0.1-0.7,0.2-0.9,0.2c-0.2,0-0.4-0.1-0.6-0.2
		c-0.2-0.1-0.4-0.2-0.6-0.4c-0.1,0-0.3-0.1-0.5-0.2c-0.4-0.3-0.8-0.7-1.2-1.2c-0.4-0.5-0.7-1-1-1.6l-0.3-0.8
		c-0.4-0.8-0.7-1.9-0.8-3.1s-0.1-2.7,0-4.3c0-0.1,0-0.2,0-0.3s0-0.2,0-0.3c0-0.5,0.1-1,0.1-1.5c0.1-0.5,0.1-1,0.2-1.4l0.1-0.8
		c0.1-0.3,0.1-0.6,0.1-0.7s0-0.2,0-0.2s0-0.1,0-0.1s0.1-0.2,0.1-0.5l0.1-0.4l0.4-1.7l0.2-0.5l0.4-1.5c0.1-0.2,0.1-0.3,0.1-0.5
		s0.1-0.3,0.1-0.5l0.2-0.9l0.5-2l0.5-2l0.9-3l0.2-0.6c0.1-0.5,0.2-0.8,0.3-1c0.1-0.2,0.1-0.4,0.2-0.5c0-0.1,0-0.2,0.1-0.3
		c0.1-0.1,0.1-0.3,0.2-0.5s0.1-0.5,0.2-0.7c0.1-0.3,0.1-0.5,0.2-0.6l0.1-0.4c0-0.2,0-0.3,0.1-0.4c0-0.1,0-0.2,0-0.3
		c-0.3-0.1-0.6,0-1,0.3l-0.2,0.1c-0.2,0.1-0.3,0.1-0.4,0.3c-0.1,0.1-0.3,0.3-0.4,0.4l-0.6,0.7c-0.1,0.1-0.1,0.1-0.2,0.2
		c-0.1,0.1-0.2,0.2-0.3,0.4c-0.1,0.1-0.2,0.2-0.2,0.2l-0.2,0.2c-0.2,0.2-0.4,0.6-0.6,1c-0.2,0.4-0.4,0.9-0.7,1.5l-0.8,1.6l-0.2,0.4
		l-0.7,1.4c-0.1,0.1-0.2,0.3-0.2,0.4c-0.1,0.1-0.2,0.3-0.2,0.5l-0.2,0.4l-0.4,0.8l-0.3,0.7l-0.2,0.4c-0.1,0.1-0.1,0.2-0.2,0.3
		c-0.1,0.1-0.1,0.2-0.2,0.4l-0.3,1c-0.1,0.3-0.2,0.6-0.3,0.9s-0.2,0.6-0.3,0.9l-0.2,0.6c-0.1,0.5-0.2,0.8-0.3,1.1
		c-0.1,0.3-0.2,0.5-0.3,0.7c-0.1,0.3-0.2,0.5-0.3,0.7c-0.1,0.2-0.2,0.3-0.2,0.4c-0.1,0.1-0.1,0.2-0.1,0.3s-0.1,0.3-0.1,0.4l-0.3,0.8
		c0,0.1-0.1,0.2-0.1,0.4s-0.1,0.3-0.1,0.5c-0.1,0.2-0.1,0.4-0.3,0.5l-0.2,0.3c-0.1,0.1-0.1,0.3-0.2,0.6c-0.1,0.2-0.1,0.5-0.2,0.7
		c-0.1,0.3-0.1,0.5-0.2,0.7c-0.1,0.2-0.2,0.3-0.3,0.4c-0.1,0.1-0.2,0.1-0.3,0s-0.3-0.1-0.5-0.1c-0.2-0.1-0.3-0.1-0.5-0.2
		c-0.2-0.1-0.3-0.1-0.4-0.1h-0.2c-0.7-0.1-1.2-0.4-1.5-0.9c0-0.1-0.1-0.3-0.1-0.4c0-0.1-0.1-0.3-0.1-0.5c-0.1-0.1-0.1-0.2-0.2-0.5
		c0-0.3,0-0.6,0-0.9l0-0.3c0-0.2,0.1-0.7,0.3-1.5c0.1-0.9,0.3-1.9,0.6-3.1l0.4-2l0.2-1.5c0.1-0.6,0.2-1.2,0.2-1.8s0.1-1.1,0.2-1.7
		l0.1-0.5l0.3-3.7c0-0.3,0-0.7,0.1-1c0-0.3,0-0.6,0-0.9l0-0.4v-2L189.3,9c0-0.2,0-0.4-0.1-0.6V8.2c-0.1-0.4-0.2-0.6-0.3-0.7
		c-0.1,0-0.3,0-0.4,0.1c-0.1,0.1-0.3,0.2-0.5,0.4c-0.1,0.1-0.3,0.3-0.5,0.5L187,9.2l-0.4,0.4l-0.4,0.6c-0.1,0.1-0.1,0.2-0.2,0.3
		c-0.1,0.1-0.1,0.2-0.1,0.2l-0.6,0.7c-0.1,0-0.1,0.1-0.1,0.1c0,0,0,0.1-0.1,0.1c-0.1,0.1-0.2,0.2-0.3,0.3c-0.1,0.1-0.2,0.2-0.2,0.3
		l-0.2,0.2c-0.1,0.1-0.1,0.3-0.2,0.4c-0.1,0.1-0.2,0.3-0.3,0.4l-0.6,1l-0.6,1.4c-0.1,0.3-0.2,0.5-0.4,0.8c-0.2,0.2-0.3,0.4-0.3,0.6
		c-0.1,0.2-0.2,0.4-0.2,0.6c0,0.1,0,0.3-0.1,0.4c0,0.1,0,0.2,0,0.3c0,0,0,0,0,0l-0.1,0.4c-0.1,0.4-0.2,0.9-0.3,1.4
		c-0.1,0.5-0.2,1.1-0.3,1.6c-0.1,0.7-0.2,1.4-0.3,2.1c-0.1,0.7-0.2,1.2-0.2,1.6c0,0.1,0,0.3,0,0.5s0,0.5,0,0.8c0,0.1,0,0.2,0,0.3
		s0,0.1,0,0.2c0,0.2,0,0.3,0,0.4s0,0.1,0,0.1v0c0,0.2,0,0.4,0,0.6c0,0.3,0,0.4,0,0.6c0,0.3,0,0.5-0.1,0.8c0,0.1,0,0.2,0,0.3
		c0,0.1,0,0.1,0,0.1c0,0,0,0,0,0.1l-0.1,0.7c0,0.1-0.1,0.3-0.1,0.6c0,0.3-0.1,0.6-0.1,0.9c0,0.3-0.1,0.6-0.1,0.9
		c0,0.3-0.1,0.6-0.1,0.7l-0.2,0.5c0,0.1-0.1,0.3-0.1,0.4c0,0.1-0.1,0.2-0.1,0.3c0,0,0,0,0,0v0.1c0,0.1,0,0.3-0.1,0.5
		c-0.1,0.2-0.2,0.4-0.3,0.6l-0.3,0.8l-0.2,0.6c-0.1,0.1-0.1,0.2-0.2,0.3c-0.1,0.1-0.2,0.2-0.2,0.2l-0.3,0.5
		c-0.1,0.1-0.1,0.3-0.2,0.4s-0.2,0.2-0.3,0.3c-0.2,0.1-0.3,0.2-0.6,0.1c-0.1,0-0.2,0-0.3,0.1s-0.2,0-0.4,0c-0.1,0-0.2,0-0.2-0.1
		c-0.1-0.1-0.2-0.2-0.3-0.3c-0.1-0.1-0.2-0.2-0.3-0.3c-0.1-0.1-0.2-0.1-0.3-0.1c-0.3-0.1-0.5-0.1-0.6-0.2l-0.4-0.1
		c-0.2-0.1-0.4-0.2-0.5-0.5c-0.2-0.3-0.3-0.5-0.4-0.7l-0.2-0.2c-0.2-0.2-0.3-0.5-0.4-0.9c-0.1-0.3-0.1-0.7-0.2-1.2v-0.5
		c0-0.2,0-0.3,0-0.5c0-0.2,0-0.3,0-0.5l0.1-0.9c0-0.2,0-0.3,0-0.4v-0.1l0-0.2l0.1-0.8l0.2-1.3l0.3-2.5l0-0.4l0-0.9l0-0.2l0-0.6
		c0.2-1.1,0.3-2.1,0.5-3.2c0.1-1,0.3-2,0.4-3l0.1-1.1c0.1-0.4,0.1-0.8,0.1-1.1c0-0.4,0.1-0.8,0.1-1.1c0-0.4,0.1-0.8,0.3-1.2
		c0.1-0.4,0.2-0.7,0.2-1l0.1-0.5L175.5,12.9z M180.7,27.6v-0.2c0.1,0.3,0.1,0.4,0,0.4v0V27.6z"/>
	<path class="st1" d="M227.9,29.7c0.1-0.1,0.3-0.2,0.4-0.2c0.3,0,0.5,0.2,0.6,0.5c0,0.2-0.1,0.5-0.2,0.7c-0.2,0.3-0.4,0.6-0.7,1
		c-0.1,0.2-0.3,0.6-0.6,1.1c-0.3,0.5-0.6,0.9-0.9,1.3l-0.1,0.3c0,0.1-0.1,0.2-0.2,0.3c-0.1,0.1-0.2,0.2-0.2,0.3
		c-0.1,0.2-0.3,0.3-0.4,0.5s-0.3,0.4-0.5,0.6c-0.2,0.2-0.4,0.5-0.6,0.8c-0.2,0.3-0.4,0.6-0.6,0.9l-0.4,0.5c-0.2,0.3-0.5,0.6-0.7,0.9
		c-0.3,0.3-0.5,0.5-0.8,0.7l-0.6,0.4c-0.7,0.5-1.4,0.8-2,1.2c-0.7,0.3-1.4,0.5-2.2,0.5c-0.2,0-0.4,0-0.7,0c-0.3,0-0.6-0.1-0.9-0.1
		c-0.3-0.1-0.6-0.1-0.9-0.2c-0.3-0.1-0.6-0.2-0.8-0.4h0c-0.4-0.1-0.8-0.4-1.2-0.8c-0.4-0.4-0.7-1.1-0.8-2c-0.2-0.4-0.4-0.7-0.4-1
		l-0.1-0.2c0-0.4,0-0.8,0.1-1.2c0.1-0.4,0.1-0.9,0.2-1.3v-0.2c0.1-0.1,0.1-0.2,0.1-0.3l0.1-0.4c0.1-0.4,0.2-0.7,0.3-1.1
		c0.1-0.4,0.3-0.8,0.5-1.2l0.4-0.6l0-0.1v0c0.1-0.2,0.2-0.3,0.3-0.5c0.1-0.2,0.2-0.4,0.4-0.6c0.1-0.2,0.3-0.4,0.4-0.6
		c0.1-0.2,0.3-0.3,0.4-0.4c0.4-0.4,0.8-0.8,1.2-1.2c0.5-0.4,0.9-0.6,1.2-0.7v-0.1c-0.1-0.2-0.1-0.3,0-0.4c0.3-0.3,0.6-0.5,1-0.8
		c0.4-0.3,0.7-0.4,0.9-0.4c0.1,0,0.2,0,0.3,0c0.1,0,0.3,0,0.4,0c0.2,0,0.3,0,0.3,0.1c0.1,0,0.2,0,0.3,0c0.1,0,0.2,0,0.3,0
		c0.1,0,0.3,0,0.7,0.1c0.3,0.1,0.7,0.2,1.1,0.5c0.4,0.2,0.7,0.6,1.1,1c0.3,0.4,0.5,1,0.6,1.6c0,0.6-0.1,1.2-0.4,1.8
		c0,0.1-0.1,0.2-0.2,0.4c-0.1,0.2-0.2,0.4-0.4,0.7c-0.1,0.3-0.3,0.5-0.5,0.7s-0.3,0.4-0.5,0.6l-0.2,0.2c-0.3,0.4-0.6,0.7-0.9,1
		c-0.3,0.3-0.7,0.6-1,0.9c-0.1,0.1-0.3,0.3-0.6,0.5s-0.5,0.4-0.8,0.6c-0.3,0.2-0.5,0.4-0.8,0.6c-0.2,0.2-0.4,0.3-0.5,0.3l-0.9,0.5
		c-0.2,0.3-0.4,0.5-0.4,0.7c0,0.2,0,0.4,0,0.7l0.1,0.6c0,0.2,0.2,0.4,0.5,0.5c0.3,0.1,0.6,0.2,1,0.2c0.3,0,0.7-0.1,1.2-0.3
		c0.5-0.2,1.1-0.5,1.7-0.8c0.6-0.4,1.3-0.8,1.9-1.4c0.7-0.5,1.3-1.2,1.8-1.9c0.1-0.1,0.1-0.3,0.2-0.4c0.1-0.1,0.2-0.2,0.2-0.3
		l0.6-0.8c0.2-0.3,0.5-0.7,0.8-1.1c0.3-0.4,0.5-0.8,0.8-1.2c0.3-0.4,0.5-0.8,0.7-1.1C227.8,30.2,227.9,30,227.9,29.7L227.9,29.7z
		 M222.6,29c-0.1-0.1-0.2-0.2-0.4-0.3c-0.2,0.1-0.5,0.3-0.9,0.6c-0.4,0.4-0.8,0.8-1.1,1.2l-0.3,0.2l-0.2,0.4l-0.1,0.2
		c-0.7,0.9-1.3,1.8-1.8,2.6c-0.5,0.8-0.8,1.4-0.9,1.8c0.4-0.2,0.8-0.4,1.1-0.7l0.4-0.3l0.7-0.5c1-0.9,1.8-1.7,2.5-2.6
		C222.1,30.7,222.5,29.8,222.6,29z"/>
</g>
</svg>
