<?xml version="1.0" encoding="utf-8"?>
<!-- Generator: Adobe Illustrator 22.1.0, SVG Export Plug-In . SVG Version: 6.00 Build 0)  -->
<svg version="1.1" id="Layer_1" xmlns="http://www.w3.org/2000/svg" xmlns:xlink="http://www.w3.org/1999/xlink" x="0px" y="0px"
	 viewBox="0 0 270 47.2" style="enable-background:new 0 0 270 47.2;" xml:space="preserve">
<style type="text/css">
	.st0{fill:#FFFFFF;}
	.st1{fill:#3A3A3A;}
</style>
<path class="st0" d="M245.6,22.2c6.5,0.7,13-0.5,20.3,0.5c-2.7,1.3-4.7,0.5-6.6,0.8c-1.8,0.3-3.9-0.6-5.5,1.2c0.9,0.9,2,1.2,3.1,1.3
	c2.7,0.2,5.3,1.5,8,1.5c0.3,0,0.3,0.5-0.1,0.8c-0.3,0.3-1.4,0.4,0,0.9c2.3,0.8,2.6,1.9,0.9,3.3c-1.3,1-1.8,2.3-2.4,3.5
	c-0.8,1.5-1.9,2-3.5,2c-4.2-0.1-8.4,0-12.7,0c-16.5,0-33.1-0.1-49.6,0.1c-6,0-12,0.9-18,0.7c-5.7-0.3-11.3-0.3-17-0.5
	c-9.4-0.4-18.8-0.5-28.2,0.4c-8.4,0.8-16.8,1.3-25.2,1.4c-6.5,0-12.9-1.1-19.4-1.2c-6.7-0.1-13.3-0.2-19.9,0.9
	c-2.1,0.3-4.2,0.2-6.3,0.2c-15.2,0-30.5-0.1-45.7,0.1c-3.4,0-6.8,0.2-10.1-0.1c-0.8-0.1-1.6-0.2-2.4-0.5c-1.3-0.5-1.8-2.3-3.6-2.2
	c-1.4,0.1-2.9,0-5.1,0c3.2-2.5,6.5-2.2,9.4-3.3C5,32,3.3,32.2,1.7,32c-1.4-0.2-3.9,1.1-4-1.3c-0.1-1.7,2.3-1.2,3.7-1.4
	c0.9-0.2,1.5-0.6,1.8-1.5c0.5-1.8,1.3-3.3,3.5-3.5c1.8-2.5,4.5-2,7.1-2c1.5,0,3.1-0.1,5.2-0.2c-1.8-1.6-3.4-1.6-5-1.6
	c-1.8,0-3.6-0.1-5.3-0.3C7,20,5.5,19.6,4.5,17.9c-0.5-0.8-1.4-1.2-2.2-1.9c-0.5-0.4-1.2-0.7-1.1-1.5c0.1-1,0.9-0.6,1.5-0.7
	c0.5-0.1,1,0.1,1.4-0.1c0.4-0.2,0.8-0.5,1-0.9c0.5-0.9-0.3-1-0.9-1.3c-0.4-0.2-0.9-0.4-1.3-0.7c-0.6-0.4-0.8-1.1-0.6-1.7
	C2.8,8.6,3.3,8.1,4,8c2.6-0.1,5.2-0.4,7.8,0.1c2.6,0.5,5.1,0.6,7.7,0.7c1.8,0.1,3.5,0.3,5.2-0.7C25.3,7.8,26.3,7.9,27,8
	c3.9,0.4,7.8-0.1,11.6,0.7c1.2,0.3,2.6,0.1,3.8-0.2c1.6-0.3,3.2-0.6,4.8-0.4C52.2,8.7,57,7.9,61.9,8c4.9,0.1,9.7,0.2,14.6-0.1
	c4.8-0.2,9.6-0.4,14.5-0.1c8.2,0.5,16.5,0.2,24.8,0c5.2-0.2,10.3-0.9,15.5-0.7c0.6,0,1.4,0,1.9-0.2c3.5-1.5,7-0.8,10.5-0.3
	c1,0.1,1.9,0.3,2.9,0.3c9.9,0,19.8,0,29.7,0c3.9,0,7.7-1,11.6-0.8c4,0.1,8,1.2,12,1c1.3-0.1,2.6,0.2,3.9,0.2
	c11.5-0.1,23,0.1,34.5-0.5c6.5-0.4,13-0.1,19.4-1.1c2.1-0.3,3.9,0.2,5.4,1.5c0.3,0.3,0.5,0.9,0.4,1.3c-0.1,0.4-0.5,0.9-0.8,1
	c-0.7,0.2-1.6,0.3-2.4,0.4c-3,0.4-6.1,0.7-9.3,1.1c0.7,1.2,1.7,0.8,2.5,0.9c1.3,0.1,2.2,0.5,2.2,2c0,1.2,0.9,1.7,1.9,1.7
	c1.3,0,2.6-0.3,3.9-0.4c2.6-0.2,3.4,0.8,3.3,3.5c-0.1,1.9-0.8,2.5-2.4,1.9c-3.2-1.2-6.4-0.8-9.6-0.7c-1.3,0-2.5,0-3.5,1.2
	C248.3,22.1,246.6,21.1,245.6,22.2z M26.6,34.5c-2.6,0-5.3,0-8,0c-0.2,0-0.5,0.4-0.5,0.6c0,0.2,0.3,0.6,0.5,0.6
	C21.4,36.1,24.3,36.3,26.6,34.5z"/>
<g>
	<path class="st1" d="M107.7,25c0,0.2,0,0.4,0,0.6c0,0.1,0,0.4-0.1,0.7c-0.1,0.1-0.2,0.3-0.2,0.4c-0.1,0.1-0.1,0.2-0.1,0.2
		c0,0,0,0.1,0,0.1l-0.1,0.2c0,0-0.1,0.1-0.1,0.2c-0.1,0.1-0.1,0.2-0.2,0.4c-0.1,0.1-0.2,0.2-0.2,0.4c-0.1,0.1-0.1,0.2-0.1,0.2
		c-0.2,0.3-0.3,0.5-0.4,0.7c-0.1,0.2-0.2,0.4-0.4,0.7v0.1l-0.1,0.2c0,0-0.1,0.1-0.1,0.1c0,0.1,0,0.1,0,0.1c0,0.1,0,0.2,0,0.3
		s-0.1,0.2-0.2,0.4c-0.1,0.1-0.2,0.3-0.2,0.4c-0.1,0.2-0.2,0.3-0.3,0.5c-0.1,0.2-0.2,0.3-0.4,0.5c-0.2,0.2-0.3,0.3-0.5,0.4
		c0,0,0,0.1,0,0.2s-0.1,0.2-0.1,0.3c-0.1,0.1-0.3,0.3-0.5,0.5c-0.2,0.2-0.3,0.4-0.4,0.5c-0.2,0.3-0.4,0.5-0.5,0.7
		c-0.1,0.2-0.3,0.4-0.4,0.5s-0.3,0.3-0.4,0.4c-0.1,0.1-0.3,0.3-0.5,0.4l-0.5,0.7c-0.2,0.2-0.5,0.5-0.7,0.7c-0.2,0.2-0.4,0.4-0.6,0.6
		c-0.5,0.5-1,0.7-1.5,0.8c-0.5,0.1-0.9,0.2-1.4,0.2c0,0-0.1,0.1-0.1,0.1c-0.1,0-0.1,0-0.1,0c-0.3,0-0.6,0-1.1-0.2
		c-0.4-0.1-0.8-0.3-1.3-0.5c-0.4-0.2-0.8-0.4-1.2-0.7c-0.4-0.2-0.7-0.5-0.9-0.6c-0.2-0.2-0.5-0.5-0.7-0.8c-0.2-0.3-0.5-0.7-0.8-1.2
		c-0.2-0.5-0.4-0.9-0.6-1.3c-0.2-0.4-0.3-0.9-0.4-1.4c-0.1-0.3-0.1-0.6-0.2-1c-0.1-0.3-0.1-0.7-0.1-1.1c0-0.3-0.1-0.8-0.1-1.3
		s0-1,0-1.5c0-0.5,0-1,0-1.4c0-0.4,0-0.8,0.1-1.1l0.1-1c0-0.1,0-0.2,0-0.3c0-0.1,0-0.2,0.1-0.4l0.2-1.1c0.1-1.1,0.3-2.2,0.5-3.1
		c0.2-1,0.5-1.8,0.8-2.5c0-0.1,0.1-0.2,0.1-0.4c0.1-0.1,0.1-0.3,0.1-0.4c0.2-0.5,0.4-1.1,0.7-1.6s0.5-1.1,0.8-1.6
		c0.3-0.5,0.6-1,0.9-1.4c0.3-0.4,0.6-0.7,0.9-1l0.3-0.2c0.3-0.3,0.7-0.5,1-0.7c0.3-0.2,0.6-0.4,1-0.6c0.5-0.2,1-0.4,1.5-0.5
		c0.5-0.1,0.9-0.1,1.3-0.1c0.7-0.2,1.5-0.2,2.4,0c0.1,0,0.3,0.1,0.4,0.2c0.1,0.1,0.3,0.1,0.4,0.2c0.2,0.1,0.5,0.2,0.7,0.3
		c0.2,0.1,0.4,0.2,0.6,0.3c0.1,0.1,0.2,0.1,0.3,0.2c0.1,0.1,0.2,0.1,0.3,0.2c0.4,0.4,0.7,1,0.7,1.8c0,0.3,0,0.5-0.1,0.7
		c-0.1,0.2-0.2,0.5-0.3,0.7c0,0.1,0,0.2,0,0.3c0,0.1,0,0.1,0.1,0c-0.2,0.5-0.5,0.7-0.9,0.9c-0.4,0.1-0.7,0.1-1,0
		c0,0-0.1-0.1-0.1-0.1s-0.1-0.1-0.1-0.1c-0.1,0-0.1-0.1-0.2-0.1c-0.1,0-0.1-0.1-0.2-0.2c0,0-0.1-0.1-0.1-0.1
		c0.2-0.2,0.4-0.6,0.5-1.2c0.2-0.7,0.1-1.2-0.1-1.7c0-0.1-0.1-0.2-0.1-0.3c0-0.1-0.1-0.2-0.2-0.2c-0.1-0.1-0.2-0.2-0.3-0.2
		c-0.1-0.1-0.3-0.2-0.4-0.2c-0.2,0-0.4,0-0.5,0c-0.1,0-0.3,0.1-0.5,0.2c-0.3,0.2-0.7,0.5-1,1c-0.2,0.2-0.3,0.5-0.5,0.7
		c-0.2,0.2-0.3,0.5-0.4,0.7c-0.1,0.2-0.2,0.5-0.3,0.8c-0.1,0.3-0.2,0.7-0.4,1c0,0.2-0.1,0.4-0.1,0.5c0,0.2-0.1,0.3-0.2,0.3
		c0,0.1-0.1,0.3-0.2,0.5c-0.1,0.2-0.1,0.3-0.2,0.5c0,0.2-0.1,0.3-0.2,0.5c-0.1,0.2-0.2,0.4-0.3,0.6c-0.1,0.4-0.3,0.9-0.5,1.5
		s-0.4,1.2-0.5,1.9c-0.1,0.4-0.2,0.9-0.3,1.5c-0.1,0.6-0.2,1.2-0.2,1.8c0,0.5-0.1,0.9-0.1,1.2c-0.1,0.4-0.1,0.6-0.1,0.8
		c0,0.3-0.1,0.5-0.1,0.7c-0.1,0.2-0.1,0.4-0.1,0.5c0,0.1,0,0.3,0,0.4c0,0.2,0.1,0.3,0.1,0.6c0,0.4,0,0.9,0.2,1.4
		c0,0.1,0.1,0.2,0.1,0.5s0,0.5,0,0.8c0,0.3,0,0.6,0,0.9c0,0.3,0,0.5,0.1,0.7c0.2,0.5,0.4,1,0.6,1.4s0.4,0.7,0.5,1c0,0,0.1,0,0.1,0.1
		c0,0.1,0.1,0.2,0.1,0.3c0.1,0.2,0.2,0.3,0.3,0.5c0.1,0.1,0.2,0.2,0.3,0.2c0.1,0.1,0.3,0.2,0.4,0.3c0.2,0.1,0.3,0.3,0.5,0.4
		c0.2,0.1,0.3,0.3,0.5,0.3c0.2,0.1,0.3,0.1,0.5,0.1c0.1-0.1,0.3-0.3,0.5-0.6c0.2-0.3,0.4-0.6,0.5-0.7c0.2-0.1,0.5-0.2,0.7-0.4
		c0.2-0.2,0.4-0.4,0.6-0.6c0.2-0.2,0.4-0.4,0.5-0.7c0.2-0.2,0.3-0.4,0.5-0.6c0-0.1,0.1-0.2,0.2-0.4c0.1-0.2,0.2-0.4,0.4-0.5
		c0.2-0.4,0.5-0.7,0.7-1c0.2-0.3,0.4-0.6,0.5-0.9c0.4-0.8,0.7-1.5,1-2c0.3-0.6,0.4-1,0.5-1.2c0.1-0.4,0.3-0.8,0.6-1.1
		s0.4-0.5,0.7-0.6c0.2-0.1,0.4-0.2,0.5-0.2C107.6,24.9,107.7,24.9,107.7,25z"/>
	<path class="st1" d="M113.1,33.2c-0.2,0-0.4,0-0.6-0.1c0,0.1-0.1,0.1-0.1,0.2c-0.1,0-0.1,0.1-0.2,0.1c-0.1,0.1-0.2,0.1-0.2,0.2
		c-0.1,0.1-0.2,0.2-0.2,0.5c-0.1,0.3-0.4,0.6-0.6,0.8c-0.3,0.3-0.6,0.5-0.9,0.7c-0.3,0.2-0.7,0.3-1,0.5c-0.4,0.1-0.7,0.2-1,0.2H108
		c0,0,0,0-0.1,0c0,0,0,0-0.1,0l-0.4-0.1l-0.2-0.1l-0.2-0.1h-0.2c-0.7-0.1-1.4-0.5-2-1.1c-0.6-0.7-0.9-1.4-1-2.3c0-0.3,0-0.6,0-0.9
		c0-0.3,0.1-0.5,0.1-0.8c0,0,0-0.1,0-0.1c0,0,0-0.1,0-0.1c0-0.4,0-0.8,0.2-1.4c0.2-0.5,0.4-1.1,0.8-1.7c0.3-0.6,0.7-1.1,1.2-1.6
		c0.5-0.5,1-0.9,1.6-1.2l0.2-0.1c0.3-0.2,0.7-0.4,1.1-0.5c0.4-0.1,0.7-0.2,1-0.2c0.2,0,0.3,0,0.5,0c0.1,0,0.3,0.1,0.4,0.1
		c0.6,0.3,1.1,0.6,1.5,1c0.4,0.4,0.6,0.8,0.7,1.4v0c0,0.1,0,0.2,0,0.3c0,0.1-0.3,0.2-0.7,0.2h-0.2c-0.6,0.1-1.3,0.3-1.8,0.8
		s-1.1,1.1-1.5,1.8c-0.4,0.7-0.8,1.4-1.1,2.1c-0.3,0.7-0.4,1.4-0.4,2c0,0.2,0.1,0.4,0.2,0.6c0.1,0.2,0.2,0.4,0.4,0.6
		c0.2,0.2,0.3,0.3,0.5,0.5c0.2,0.1,0.3,0.2,0.5,0.2c0.1,0,0.2,0,0.2-0.1c0.1,0,0.1-0.1,0.2-0.1c0.1,0,0.1-0.1,0.2-0.1
		c0.1-0.1,0.2-0.1,0.3-0.1c0.2-0.1,0.4-0.2,0.6-0.5c0.2-0.2,0.4-0.5,0.6-0.7c0.2-0.3,0.3-0.5,0.5-0.8s0.2-0.4,0.3-0.6
		c-0.2-0.3-0.4-0.6-0.5-0.8c-0.1-0.2-0.2-0.4-0.2-0.6c0-0.2,0-0.4,0-0.6c0-0.2,0-0.4,0-0.7c0-0.5,0-0.9,0.2-1.3
		c0.2-0.3,0.4-0.5,0.7-0.5c0,0,0.1,0,0.1,0c0,0,0.1,0,0.1,0c0.2,0,0.3,0,0.5,0c0.1,0,0.2,0.1,0.3,0.3h0.1c0,0,0.1,0.1,0.1,0.2
		c0.1,0.1,0.1,0.3,0.1,0.5c0,0,0,0.1,0,0.2c0,0.1,0.1,0.2,0.1,0.2c0,0,0,0.1,0,0.3c0,0.2-0.1,0.4,0,0.4v0.1c0,0,0,0,0,0.1
		c0,0,0,0,0,0.1v0.1l0,0v0c0,0,0,0.1,0,0.2c0,0.1,0,0.2,0,0.2s0,0.2,0,0.2l-0.1,0.3c0,0.1-0.1,0.3-0.1,0.4c-0.1,0.1-0.1,0.3-0.2,0.4
		l0,0.1c0,0.1,0.1,0.1,0.2,0.2s0.2,0.1,0.4,0.1c0.2,0,0.4-0.1,0.7-0.2c0.3-0.2,0.5-0.3,0.7-0.6c0.3-0.4,0.6-0.8,0.9-1.3
		c0.3-0.5,0.6-1,0.8-1.4c0,0,0.1-0.1,0.1-0.2c0-0.1,0.1-0.2,0.2-0.4c0.1-0.3,0.3-0.6,0.4-0.9s0.3-0.5,0.5-0.5c0.2,0,0.3,0.1,0.4,0.4
		l-0.2,0.4h0c-0.1,0.6-0.4,1.3-0.7,2c-0.4,0.7-0.8,1.4-1.2,1.9c-0.5,0.6-1,1-1.5,1.3C114.1,33.3,113.6,33.4,113.1,33.2z M112.1,31.3
		L112.1,31.3c0,0,0.1-0.1,0.1-0.2s0-0.2,0.1-0.3v-0.4c0-0.1,0-0.2-0.1-0.3c0-0.1-0.1-0.2-0.2-0.2c0,0,0,0-0.1,0.1c0,0.1,0,0.1,0,0.2
		c0,0,0,0.1,0,0.1c0,0.1,0,0.2,0,0.3v0c0,0,0.1,0.1,0.1,0.2c0,0.1,0.1,0.2,0.1,0.3L112.1,31.3z"/>
	<path class="st1" d="M123.7,34.7c-0.5-0.2-0.9-0.5-1.2-1.1c-0.3-0.6-0.5-1.3-0.6-2.1c0-0.5,0.1-1.1,0.3-2c0.2-0.8,0.5-1.7,0.9-2.7
		c0,0,0.1-0.1,0.2-0.3c0.1-0.2,0.2-0.3,0.3-0.4c0.1-0.2,0.2-0.4,0.3-0.6s0.1-0.4,0.1-0.5l0.1-0.2c0.1-0.1,0.1-0.2,0.1-0.2
		c0,0,0,0,0-0.1c-0.1,0.1-0.3,0.2-0.4,0.4c-0.1,0-0.2,0-0.4,0.1c-0.2,0.1-0.3,0.2-0.5,0.4s-0.3,0.3-0.5,0.5
		c-0.2,0.2-0.3,0.4-0.3,0.6c-0.4,0.5-0.8,1.1-1.1,1.7c-0.3,0.6-0.6,1.2-0.8,1.8c-0.1,0.2-0.1,0.3-0.2,0.5c-0.1,0.1-0.1,0.3-0.2,0.4
		c0,0.1,0,0.2,0,0.3c0,0.1-0.1,0.2-0.1,0.4c0,0.1-0.1,0.2-0.1,0.3c0,0.1,0,0.2,0,0.3c0,0.1,0,0.2,0,0.2v0c-0.2,0.4-0.4,0.8-0.4,1.1
		c-0.1,0.3-0.1,0.6-0.2,0.8c0,0.2-0.1,0.4-0.1,0.5c0,0.1-0.1,0.2-0.2,0.2h-0.1l-0.5-0.2c-0.1,0.3-0.2,0.4-0.4,0.4
		c-0.2,0-0.5-0.2-0.9-0.6c-0.3-0.4-0.6-0.8-0.7-1.3l-0.1-0.1c0-0.1,0-0.2,0-0.3c0-0.1,0-0.2,0-0.3c0-0.1,0-0.3,0.1-0.4
		c0-0.1,0-0.3,0-0.5c0-0.1,0-0.3-0.1-0.5h0c0,0-0.1-0.1-0.1-0.1c0-0.3,0.1-0.6,0.2-0.9s0.1-0.6,0.2-0.9c0,0,0-0.1,0-0.1
		c0,0,0,0,0-0.1c0,0,0,0,0-0.1c0,0,0-0.1,0-0.1v-0.4l0.6-1.8l0-0.1c0,0,0-0.1,0-0.2l0.7-1.9c0.2-0.5,0.3-0.9,0.5-1.3
		c0.1-0.4,0.2-0.8,0.1-1.1c0-0.3,0.1-0.4,0.3-0.4c0.1,0,0.3,0,0.5,0.1c0.2,0.1,0.4,0.2,0.6,0.3c0.2,0.1,0.4,0.3,0.6,0.4
		s0.3,0.3,0.5,0.4l0,0.2c0,0.2,0.1,0.3,0.1,0.4c0,0.1,0.1,0.2,0.1,0.3s0.1,0.2,0.1,0.4c0.1,0.1,0.1,0.3,0.2,0.5
		c0.1,0.2,0.1,0.4,0.1,0.7l-0.1,0.4l0.3-0.3c0.2-0.3,0.5-0.6,0.9-0.9s0.7-0.7,1.1-1c0.4-0.3,0.7-0.6,1.1-0.8s0.7-0.3,0.9-0.3
		c0.2,0,0.4,0.1,0.6,0.2s0.4,0.3,0.5,0.5c0.2,0.2,0.3,0.5,0.4,0.7c0.1,0.3,0.2,0.5,0.2,0.8c0,0.2,0,0.5,0,0.7
		c0.1,0.1,0.2,0.2,0.2,0.3s0.1,0.2,0.2,0.4c0,0.2-0.1,0.4-0.2,0.6c-0.1,0.2-0.1,0.3-0.2,0.5l-0.4,1.2l-0.1,0.5v0l-1,2.6
		c0,0,0,0.1,0,0.1c0,0,0,0,0,0.1c-0.2,0.4-0.3,0.8-0.4,1.1c-0.1,0.3-0.2,0.6-0.2,0.8c0,0,0,0.1,0,0.1c0,0,0,0,0,0.1
		c0.2,0,0.5-0.2,0.9-0.4c0.3-0.2,0.7-0.5,1-0.8c0.3-0.3,0.7-0.7,1-1.1c0.3-0.4,0.6-0.8,0.9-1.3c0.1-0.2,0.2-0.4,0.3-0.6
		c0.1-0.2,0.2-0.4,0.3-0.7c0.1-0.3,0.3-0.6,0.5-0.9c0.2-0.3,0.3-0.6,0.5-0.9c0.2-0.3,0.3-0.5,0.5-0.7c0.2-0.2,0.3-0.2,0.4-0.2
		s0.2,0,0.2,0.1c0.1,0.1,0.1,0.2,0.1,0.2c0,0.1,0,0.3-0.1,0.4l-0.3,0.7l-0.2,0.6c-0.1,0.2-0.2,0.4-0.3,0.6c-0.1,0.2-0.2,0.4-0.4,0.7
		l-1.1,1.8l0,0c-0.1,0.2-0.2,0.4-0.4,0.6c-0.2,0.2-0.3,0.4-0.5,0.7c-0.2,0.2-0.4,0.4-0.6,0.6c-0.2,0.2-0.4,0.3-0.6,0.4h0
		c-0.1,0.1-0.2,0.2-0.3,0.3c-0.2,0.1-0.3,0.3-0.5,0.4c-0.2,0.1-0.3,0.2-0.5,0.3c-0.2,0.1-0.3,0.1-0.3,0.1s-0.2,0-0.3-0.1l-0.2,0
		c-0.1,0-0.2,0-0.3,0c-0.1,0-0.2,0-0.3,0C124.2,34.8,123.9,34.8,123.7,34.7z M121.2,26.1C121.2,26.1,121.2,26.1,121.2,26.1
		C121.2,26,121.2,26,121.2,26.1L121.2,26.1z"/>
	<path class="st1" d="M137.2,16.6c-0.1,0.6-0.3,1.1-0.4,1.7c-0.2,0.6-0.4,1.3-0.6,2l2.6,0.1c0.1,0,0.2,0,0.3,0s0.2,0,0.3,0
		c0.9,0.1,1.6,0.2,2.2,0.4c0.6,0.2,1.1,0.4,1.5,0.7c0.4,0.2,0.7,0.5,0.9,0.8c0.2,0.3,0.3,0.5,0.3,0.7c0,0.2,0,0.3-0.1,0.3
		c-0.1,0-0.2,0-0.3,0c0,0-0.1,0-0.1,0c0,0-0.1,0-0.1,0c0-0.2-0.2-0.4-0.5-0.5c-0.3-0.2-0.6-0.3-1-0.5s-0.9-0.3-1.4-0.4
		c-0.5-0.1-1.1-0.2-1.7-0.3c-0.1,0-0.2,0-0.2,0c-0.1,0-0.1,0-0.2,0l-2.7-0.1c-0.2,0.7-0.3,1.4-0.4,2.1c-0.1,0.7-0.2,1.4-0.4,2.1
		l0.1,0.7c-0.2,0.8-0.5,1.5-0.8,2.3c-0.3,0.7-0.5,1.4-0.7,2.1c-0.2,0.6-0.4,1.2-0.5,1.8c-0.1,0.5-0.2,1-0.1,1.4
		c0,0.2,0.1,0.4,0.2,0.6c0.1,0,0.3-0.1,0.5-0.3s0.5-0.4,0.7-0.6s0.5-0.5,0.8-0.8c0.3-0.3,0.5-0.6,0.8-0.9c0.3-0.4,0.7-0.8,1.1-1.3
		c0.4-0.5,0.7-0.9,0.8-1.3c0,0,0.1-0.2,0.3-0.5c0.2-0.3,0.3-0.7,0.5-1c0.2-0.4,0.4-0.7,0.6-1s0.3-0.4,0.4-0.4c0.1,0,0.2,0.1,0.2,0.2
		c0,0.1,0,0.2-0.1,0.3c0,0,0.1,0.1,0.1,0.2c-0.1,0.4-0.4,1.1-0.9,2.1s-1.3,2-2.2,3.2l-1.1,1.4c-0.5,0.6-1.1,1.1-1.6,1.6
		c-0.5,0.5-1,0.7-1.4,0.7c-0.4,0-0.8-0.1-1-0.3c-0.2-0.2-0.4-0.5-0.6-0.8c-0.2-0.1-0.3-0.3-0.5-0.5c-0.2-0.2-0.4-0.4-0.5-0.5
		c-0.2-0.2-0.3-0.4-0.4-0.5c-0.1-0.2-0.2-0.3-0.2-0.5c0-0.5,0-1.3,0.2-2.2c0.2-1,0.5-2,0.9-3.1l0-0.3c0.1-0.3,0.1-0.6,0.2-0.8
		s0.1-0.5,0.2-0.8c0.2-0.6,0.3-1.3,0.4-1.9c0.1-0.7,0.2-1.3,0.4-2l-1.8-0.2c-0.7-0.1-1.3-0.2-1.9-0.3s-1.1-0.3-1.6-0.4
		c-0.4-0.2-0.8-0.4-1.1-0.6c-0.3-0.2-0.4-0.5-0.4-0.7c0-0.1,0.1-0.2,0.2-0.2c0,0,0.1,0,0.1,0c0,0,0.1,0,0.2,0.1l0.4-0.1
		c0.5,0.2,1,0.4,1.7,0.5c0.6,0.2,1.4,0.3,2.4,0.4c0.4,0,0.8,0.1,1.2,0.1s0.7,0,1,0.1l0,0.2l0.8-2.2c0.1-0.2,0.1-0.4,0.2-0.7
		c0.1-0.2,0.2-0.4,0.2-0.7c0.1-0.5,0.1-1,0.2-1.6s0.1-1,0.1-1.4c0-0.4,0.1-0.8,0.2-1c0.1-0.3,0.2-0.4,0.4-0.4c0.1,0,0.3,0.1,0.6,0.2
		c0.2,0.1,0.5,0.3,0.7,0.4c0.2,0.2,0.4,0.5,0.6,0.8c0.2,0.3,0.3,0.7,0.3,1.1c0,0.1,0,0.2,0,0.2c0,0.1,0,0.2,0,0.3
		c0,0.1,0.1,0.2,0.1,0.3c0,0.1,0.1,0.3,0.1,0.4c0,0.2,0.1,0.3,0.1,0.4C137.1,16.4,137.1,16.5,137.2,16.6z"/>
	<path class="st1" d="M145.5,23.6c0.3,0.1,0.5,0.3,0.8,0.5c0.3,0.2,0.5,0.4,0.7,0.6c0.2,0.2,0.3,0.4,0.3,0.5c0,0.3-0.1,0.5-0.4,0.6
		c0,0-0.1,0-0.2,0c-0.4,0-0.8,0.1-1.4,0.2c-0.6,0.1-1.1,0.4-1.4,0.8l-0.6,0.5c-0.3,0.2-0.6,0.5-0.9,0.8c-0.3,0.3-0.5,0.6-0.5,1
		c-0.2,0.2-0.3,0.5-0.4,0.7c-0.1,0.2-0.2,0.5-0.3,0.7l-0.3,0.6c-0.1,0.2-0.2,0.4-0.3,0.6c-0.1,0.2-0.2,0.4-0.3,0.7l0,0.2v0
		c0,0.1-0.1,0.2-0.1,0.4c0,0.1,0,0.2,0,0.3l0,0l0.1,0.3c0,0.1,0,0.2,0.1,0.4c0,0.1,0.1,0.2,0.1,0.2c0,0.3,0.1,0.5,0.3,0.5h0.1
		c0.1,0,0.3,0,0.5-0.1s0.5-0.3,0.8-0.7c0.2-0.4,0.5-0.8,0.8-1.3s0.5-1,0.7-1.4c0.2-0.4,0.3-0.7,0.5-1c0.2-0.3,0.3-0.6,0.5-0.8
		c0.1-0.1,0.1-0.3,0.2-0.4c0.1-0.2,0.1-0.3,0.1-0.5c0.1-0.2,0.1-0.3,0.2-0.4c0.1-0.1,0.1-0.2,0.2-0.2c0.1-0.1,0.1-0.2,0.2-0.5
		c0-0.1,0.1-0.2,0.3-0.3c0.2-0.1,0.5-0.1,0.7-0.1c0.1,0,0.2,0,0.2,0c0.1,0,0.1,0,0.2,0c0.3,0,0.5,0,0.8,0c0.2,0,0.5,0.2,0.7,0.4
		c0,0,0,0.1,0,0.1v0l0.1,0h0c0.1,0.1,0.2,0.1,0.2,0.2c0.1,0.1,0.1,0.2,0.1,0.3c0,0,0,0.2-0.1,0.4c-0.1,0.2-0.2,0.4-0.2,0.6
		c-0.1,0.2-0.1,0.3-0.2,0.4c0,0.1-0.1,0.2-0.1,0.2c0,0.1,0,0.2-0.1,0.3c0,0.1-0.1,0.2-0.1,0.4c-0.1,0.2-0.1,0.4-0.1,0.8
		c0,0.2-0.1,0.5-0.1,0.7c-0.1,0.2-0.1,0.4-0.2,0.6c0,0.1-0.1,0.2-0.1,0.4s-0.1,0.3-0.1,0.4l-0.4,1.1c-0.2,0.4-0.3,0.7-0.3,0.8
		c0,0,0.1,0.1,0.2,0.1s0.2,0,0.3,0c0.2,0,0.4-0.1,0.6-0.2c0.2-0.2,0.5-0.4,0.7-0.6s0.4-0.5,0.7-0.8c0.2-0.3,0.4-0.5,0.5-0.8l0.9-1.6
		c0.1-0.1,0.2-0.3,0.3-0.4c0.1-0.2,0.2-0.4,0.3-0.6c0.1-0.1,0.2-0.3,0.3-0.5c0.1-0.2,0.2-0.3,0.3-0.5l0.7-1.2
		c0.1-0.1,0.2-0.2,0.4-0.2c0.2,0,0.3,0.1,0.3,0.3c0,0.1,0,0.2,0,0.3c0,0.1-0.1,0.3-0.3,0.5c-0.1,0.2-0.3,0.4-0.5,0.7
		c-0.2,0.3-0.4,0.7-0.7,1.1c-0.1,0.1-0.3,0.4-0.5,0.7c-0.2,0.3-0.4,0.7-0.7,1c-0.2,0.4-0.5,0.8-0.7,1.2s-0.4,0.6-0.5,0.8
		c-0.1,0.1-0.2,0.3-0.4,0.5c-0.2,0.2-0.4,0.4-0.6,0.6s-0.4,0.4-0.7,0.5c-0.2,0.1-0.4,0.2-0.5,0.2l-0.2,0.1c-0.1,0-0.2,0.1-0.4,0.1
		s-0.2,0.1-0.4,0.1c-0.2,0-0.5-0.1-0.7-0.2c-0.2-0.1-0.5-0.3-0.7-0.5c-0.2-0.2-0.4-0.4-0.5-0.7c-0.1-0.2-0.2-0.4-0.3-0.6
		c-0.1-0.3-0.2-0.6-0.2-0.9c0-0.1,0-0.2,0-0.3s0-0.2,0-0.3c0-0.1,0-0.2,0-0.2c0-0.1,0-0.2,0-0.3l0-0.2c0,0,0,0,0,0s0,0,0,0
		c0-0.1,0-0.1,0-0.1c0,0,0,0,0,0l-0.4,0.7v0l-0.6,1.2c-0.1,0.1-0.1,0.2-0.2,0.2c0,0.1-0.1,0.1-0.1,0.2c-0.2,0.3-0.3,0.5-0.5,0.7
		s-0.4,0.4-0.6,0.4l-0.1,0.1c-0.2,0.2-0.4,0.3-0.6,0.4c-0.2,0.1-0.3,0.2-0.5,0.2c-0.4,0-0.8-0.1-1.2-0.2c-0.4-0.1-0.8-0.3-1.2-0.5
		s-0.7-0.6-0.9-1s-0.4-0.9-0.5-1.4c0-0.4,0-0.7,0.1-1.1c0.1-0.4,0.2-0.8,0.3-1.3c0.1-0.4,0.3-0.9,0.5-1.3s0.4-0.8,0.7-1.2l0.3-0.6
		c0.2-0.3,0.5-0.6,0.7-0.9c0.2-0.3,0.5-0.5,0.7-0.8c0.4-0.5,0.9-0.8,1.3-1.1l0.5-0.2h0c0.4-0.3,0.9-0.5,1.5-0.7
		c0.6-0.2,1.1-0.3,1.4-0.3h0.2C144.9,23.4,145.2,23.5,145.5,23.6z"/>
	<path class="st1" d="M154.7,37.5c-1.3-0.1-2.3-0.6-3-1.5s-1.1-2.1-1.3-3.4c0-0.4,0-0.8,0.1-1.4c0.1-0.6,0.2-1.1,0.4-1.6
		c0.3-0.7,0.6-1.5,1-2.2c0.4-0.7,0.8-1.4,1.2-2c0.4-0.6,0.9-1,1.3-1.4c0.4-0.4,0.9-0.5,1.3-0.5c0.4,0,0.6,0.1,0.8,0.2
		c0.2,0.1,0.3,0.3,0.3,0.4l0.3-0.2c0.1,0,0.1-0.1,0.2-0.1s0.1-0.1,0.3-0.2c0.1,0,0.2,0.2,0.4,0.5c0.2,0.3,0.4,0.8,0.5,1.4
		c0,0.5,0,0.8-0.1,1s-0.2,0.4-0.3,0.6c-0.1,0.1-0.2,0.3-0.2,0.5c-0.1,0.2-0.1,0.5-0.1,0.8c0,0.1-0.1,0.2-0.2,0.2
		c-0.1,0-0.2,0.1-0.4,0.1c-0.2,0-0.5-0.1-0.6-0.2c-0.2-0.1-0.3-0.3-0.5-0.4c-0.1-0.2-0.2-0.3-0.3-0.5c-0.1-0.2-0.1-0.4-0.2-0.5
		c0,0,0,0.1,0,0s0,0,0,0l-0.2,0.4v0l-0.1,0.4l-0.2,0.4l-0.4,0.7l-0.9,1.9c-0.2,0.5-0.4,1-0.5,1.5c-0.1,0.5-0.2,1.1-0.1,1.7
		c0.1,0.6,0.2,1.1,0.5,1.6s0.6,0.7,1.1,0.7c0.1,0,0.2,0,0.4-0.1c0,0,0.1,0,0.1,0c0,0,0.1,0,0.1,0c0.2,0,0.5-0.1,0.9-0.4
		c0.3-0.2,0.7-0.6,1-0.9c0.3-0.4,0.7-0.8,1-1.3s0.7-1,1.1-1.4l0.4-0.6c0.1-0.2,0.2-0.4,0.4-0.6s0.2-0.4,0.4-0.7
		c0.3-0.5,0.6-1,0.8-1.4c0.3-0.4,0.5-0.6,0.7-0.6c0.2,0,0.4,0.1,0.4,0.4c0,0.1-0.1,0.5-0.4,1.1c-0.3,0.6-0.8,1.4-1.5,2.3l-0.3,0.4
		c-0.2,0.2-0.3,0.4-0.5,0.7c-0.1,0.2-0.2,0.3-0.4,0.5l-0.3,0.4c-0.2,0.3-0.4,0.5-0.6,0.8c-0.2,0.2-0.3,0.5-0.5,0.8
		c-0.7,0.8-1.3,1.3-1.9,1.6C155.9,37.3,155.3,37.5,154.7,37.5z"/>
	<path class="st1" d="M168,20.5c0,0.3-0.1,0.5-0.1,0.8c0,0.3-0.1,0.5-0.1,0.8c-0.1,0.4-0.1,0.8-0.2,1.3c-0.1,0.4-0.2,0.9-0.3,1.2
		l0.1,0.7l-0.8,2.5c-0.4,1-0.7,2-0.9,2.9s-0.4,1.6-0.3,2.1c0,0.2,0.1,0.4,0.2,0.5c0.1-0.1,0.3-0.2,0.5-0.4c0.2-0.2,0.5-0.4,0.7-0.7
		c0.3-0.2,0.5-0.5,0.8-0.8c0.3-0.3,0.5-0.6,0.7-0.8c0.1-0.1,0.2-0.2,0.3-0.3c0.1-0.1,0.2-0.2,0.3-0.3c0.2-0.3,0.5-0.6,0.7-1
		s0.4-0.7,0.6-1l0.2-0.3v0c0.1-0.2,0.2-0.4,0.4-0.7c0.2-0.3,0.3-0.6,0.5-0.9s0.3-0.6,0.5-0.8c0.2-0.2,0.3-0.3,0.4-0.3
		c0.1,0,0.1,0,0.2,0.1c0.1,0.1,0.1,0.1,0.1,0.2c0,0.1,0,0.2,0,0.3v0l0,0c0,0.1,0.1,0.1,0.1,0.2c-0.1,0.4-0.4,1.1-0.9,2.1
		c-0.5,1-1.3,2-2.2,3.2l-1.1,1.4c-0.5,0.6-1.1,1.1-1.6,1.6c-0.5,0.5-1,0.7-1.4,0.7c-0.5,0-0.8-0.1-1.1-0.3c-0.2-0.2-0.4-0.5-0.6-0.8
		c-0.2-0.1-0.3-0.3-0.5-0.5s-0.3-0.4-0.5-0.5c-0.2-0.2-0.3-0.4-0.4-0.6c-0.1-0.2-0.2-0.4-0.2-0.5c0-0.6,0-1.3,0.3-2.3
		c0.2-1,0.5-2,0.9-3.1c0,0,0-0.1,0-0.1c0-0.1,0-0.1,0-0.1l0.1-0.5c0-0.2,0.1-0.4,0.1-0.6s0.1-0.4,0.2-0.5v0c0.1-0.4,0.2-0.8,0.3-1.3
		c0.1-0.4,0.2-0.9,0.2-1.3c0-0.2,0.1-0.4,0.1-0.7c0-0.2,0.1-0.4,0.1-0.7l-1.7-0.2c-0.7-0.1-1.3-0.2-1.9-0.3
		c-0.6-0.1-1.1-0.3-1.6-0.5c-0.5-0.2-0.8-0.4-1.1-0.6s-0.5-0.4-0.5-0.7c0-0.2,0.1-0.2,0.2-0.2c0.1-0.1,0.2-0.1,0.3,0.1l0.4-0.1
		c0.5,0.2,1,0.4,1.7,0.5c0.7,0.2,1.5,0.3,2.4,0.4l1.1,0.1c0.2,0,0.3,0,0.5,0c0.2,0,0.4,0,0.5,0l0.7-2v0c0.1-0.3,0.1-0.5,0.2-0.7
		c0-0.1,0.1-0.2,0.1-0.3c0-0.1,0.1-0.2,0.1-0.3c0.1-0.4,0.1-0.7,0.1-1.1s0.1-0.7,0.1-1.1c0.1-0.6,0.1-1.2,0.2-1.7
		c0.1-0.5,0.3-0.7,0.5-0.7c0.1,0,0.3,0.1,0.6,0.2c0.2,0.1,0.5,0.3,0.7,0.5c0.2,0.2,0.5,0.5,0.7,0.8c0.2,0.3,0.3,0.7,0.4,1.1v0.5
		l0.2,0.6c0,0.2,0.1,0.3,0.1,0.5c0.1,0.2,0.1,0.3,0.2,0.4v0.1c-0.1,0.5-0.3,1.1-0.4,1.7c-0.2,0.6-0.3,1.2-0.5,1.9l2.5,0.1
		c0.1,0,0.2,0,0.2,0h0.3c0.8,0.1,1.6,0.2,2.2,0.4s1.1,0.4,1.5,0.7c0.4,0.2,0.7,0.5,0.9,0.8c0.2,0.3,0.3,0.5,0.4,0.7
		c0,0.2,0,0.3-0.1,0.4c-0.1,0-0.3,0-0.4,0h-0.3c0-0.2-0.2-0.4-0.4-0.5c-0.3-0.2-0.6-0.3-1-0.5c-0.4-0.2-0.9-0.3-1.4-0.4
		c-0.5-0.1-1.1-0.2-1.7-0.3c-0.1,0-0.2,0-0.3,0h-0.2L168,20.5z"/>
</g>
</svg>
