<?xml version="1.0" encoding="utf-8"?>
<!-- Generator: Adobe Illustrator 22.1.0, SVG Export Plug-In . SVG Version: 6.00 Build 0)  -->
<svg version="1.1" id="Layer_1" xmlns="http://www.w3.org/2000/svg" xmlns:xlink="http://www.w3.org/1999/xlink" x="0px" y="0px"
	 viewBox="0 0 408 237.6" style="enable-background:new 0 0 408 237.6;" xml:space="preserve">
<style type="text/css">
	.st0{fill:none;stroke:#000000;stroke-width:0.5;stroke-miterlimit:10;}
	.st1{fill:#FFFFFF;}
	.st2{fill:#47372D;}
	.st3{fill:#F6F7F5;}
	.st4{fill:none;}
	.st5{font-family:'Neutraface2Condensed-Medium';}
	.st6{font-size:41.2421px;}
	.st7{letter-spacing:4;}
	.st8{font-family:'AdleryPro';}
	.st9{font-size:34.6434px;}
	.st10{letter-spacing:3;}
	.st11{font-family:'Lato-Light';}
	.st12{font-size:18px;}
</style>
<rect x="75.7" y="57" class="st0" width="253.5" height="90.4"/>
<path class="st1" d="M331.4,114.9c7.1,0.8,14.1-0.6,22.1,0.5c-3,1.4-5.1,0.6-7.1,0.8c-2,0.3-4.3-0.6-6,1.3c1,1,2.1,1.3,3.4,1.4
	c3,0.2,5.7,1.6,8.7,1.6c0.3,0,0.3,0.6-0.1,0.8c-0.3,0.3-1.5,0.4,0,0.9c2.5,0.8,2.8,2.1,1,3.5c-1.4,1.1-1.9,2.5-2.6,3.8
	c-0.8,1.6-2,2.2-3.8,2.2c-4.6-0.1-9.2,0-13.7,0c-18,0-36-0.1-53.9,0.1c-6.5,0.1-13,1-19.5,0.7c-6.1-0.3-12.3-0.3-18.5-0.5
	c-10.2-0.4-20.4-0.6-30.6,0.4c-9.1,0.9-18.2,1.4-27.4,1.5c-7.1,0-14-1.1-21.1-1.3c-7.2-0.1-14.4-0.2-21.6,0.9
	c-2.2,0.3-4.6,0.2-6.9,0.2c-16.6,0-33.1-0.1-49.7,0.1c-3.7,0.1-7.3,0.2-11-0.1c-0.9-0.1-1.8-0.2-2.6-0.5c-1.4-0.6-2-2.5-3.9-2.4
	c-1.6,0.1-3.2,0-5.6,0c3.5-2.8,7.1-2.4,10.2-3.5c-1.2-1.8-3-1.6-4.7-1.9c-1.5-0.2-4.2,1.2-4.3-1.4c-0.1-1.9,2.5-1.3,4-1.5
	c0.9-0.2,1.6-0.7,1.9-1.6c0.6-1.9,1.4-3.6,3.8-3.8c2-2.7,4.9-2.2,7.7-2.1c1.7,0,3.3-0.1,5.6-0.2c-1.9-1.7-3.6-1.7-5.4-1.8
	c-1.9-0.1-3.9-0.1-5.8-0.4c-1.8-0.2-3.4-0.7-4.4-2.5c-0.5-0.8-1.6-1.4-2.4-2c-0.5-0.4-1.3-0.8-1.1-1.6c0.1-1,1-0.7,1.6-0.7
	c0.5-0.1,1.1,0.1,1.5-0.1c0.4-0.2,0.9-0.6,1.1-1c0.5-1-0.4-1.1-1-1.4c-0.5-0.2-1-0.5-1.4-0.8c-0.6-0.5-0.9-1.2-0.6-1.8
	c0.2-0.7,0.8-1.2,1.5-1.3c2.8-0.2,5.6-0.4,8.4,0.1c2.8,0.6,5.6,0.7,8.4,0.8c2,0.1,3.8,0.3,5.7-0.7c0.7-0.4,1.7-0.3,2.6-0.3
	c4.2,0.4,8.5-0.1,12.6,0.8c1.3,0.3,2.8,0.1,4.2-0.2c1.7-0.4,3.5-0.6,5.2-0.4c5.3,0.6,10.5-0.3,15.8-0.1c5.3,0.1,10.6,0.2,15.9-0.1
	c5.2-0.2,10.4-0.4,15.7-0.1c9,0.5,18,0.2,26.9,0c5.6-0.2,11.2-1,16.9-0.8c0.7,0,1.5,0.1,2.1-0.2c3.8-1.7,7.6-0.9,11.4-0.4
	c1,0.1,2.1,0.3,3.1,0.3c10.7,0,21.5,0,32.2,0c4.2,0,8.3-1,12.6-0.9c4.4,0.1,8.6,1.3,13,1.1c1.4-0.1,2.8,0.2,4.2,0.2
	c12.5-0.1,25,0.1,37.5-0.6c7-0.4,14.1-0.1,21.1-1.2c2.2-0.3,4.2,0.2,5.9,1.6c0.3,0.3,0.6,1,0.5,1.4c-0.1,0.4-0.5,1-0.9,1.1
	c-0.8,0.3-1.7,0.3-2.6,0.4c-3.3,0.4-6.6,0.8-10.1,1.2c0.8,1.3,1.9,0.9,2.7,1c1.4,0.1,2.4,0.5,2.4,2.2c0,1.3,1,1.9,2.1,1.9
	c1.4,0,2.8-0.3,4.2-0.4c2.8-0.2,3.7,0.8,3.6,3.8c-0.1,2-0.8,2.7-2.6,2.1c-3.4-1.3-7-0.9-10.5-0.8c-1.4,0-2.8,0-3.8,1.3
	C334.4,114.8,332.5,113.8,331.4,114.9z M93.5,128.3c-2.8,0-5.7,0-8.7,0c-0.2,0-0.5,0.4-0.6,0.7c0,0.2,0.3,0.6,0.5,0.6
	C87.9,130.1,91,130.2,93.5,128.3z"/>
<path class="st1" d="M368.9,133.7c-0.1,1-0.2,2.2-1.2,3.1c-0.7,0.7-1.6,0.8-2.3,0.2c-0.8-0.6-1.4-1.4-1.6-2.3
	c-0.4-1.3,0.2-2.4,1.5-2.8c0.5-0.2,1.1-0.2,1.6-0.3C368.5,131.4,369,131.9,368.9,133.7z"/>
<path class="st1" d="M355.9,110.2c1.4,0,2,0.5,2.3,1.7c0.1,0.5,0,1.1-0.4,1.4c-0.6,0.5-1.5,0.7-2.1,0.3c-0.6-0.5-1.1-1-1.5-1.6
	c-0.5-0.8,0.1-1.8,1-1.8C355.4,110.2,355.7,110.2,355.9,110.2z"/>
<path class="st2" d="M-820.4,437.8c-0.3,1.1-0.7,2.2-1.3,3.1C-821.6,439.8-821.5,438.6-820.4,437.8z"/>
<path class="st3" d="M-1122.2,392.9c0.9-0.4,1.5-0.7,2.2-0.9c0.2-0.1,0.4,0,0.5,0.2c0,0.1,0,0.3,0,0.4c-0.1,0.3-0.4,0.6-0.8,0.6
	C-1120.9,393.3-1121.4,393.2-1122.2,392.9z"/>
<path class="st3" d="M118.5,129.4c-1.6,1.2-3.6,1.1-5.6,0.9c-0.1,0-0.3-0.3-0.3-0.4c0-0.2,0.2-0.5,0.4-0.5
	C114.8,129.3,116.8,129.4,118.5,129.4z"/>
<rect x="107.6" y="63.6" class="st4" width="200.4" height="33.8"/>
<text transform="matrix(1 0 0 1 107.5938 92.4753)" class="st1 st5 st6 st7">SAVANNAH</text>
<rect x="107" y="104.1" class="st4" width="200.1" height="46.5"/>
<text transform="matrix(1 0 0 1 107.0132 130.0401)" class="st8 st9 st10">MCMAHAN</text>
<rect x="72.3" y="157.3" class="st4" width="243" height="32.3"/>
<text transform="matrix(1 0 0 1 72.2799 170.3876)" class="st1 st11 st12">Photography, Graphic Design</text>
</svg>
