<?xml version="1.0" encoding="utf-8"?>
<!-- Generator: Adobe Illustrator 22.1.0, SVG Export Plug-In . SVG Version: 6.00 Build 0)  -->
<svg version="1.1" id="Layer_1" xmlns="http://www.w3.org/2000/svg" xmlns:xlink="http://www.w3.org/1999/xlink" x="0px" y="0px"
	 viewBox="0 0 408 237.6" style="enable-background:new 0 0 408 237.6;" xml:space="preserve">
<style type="text/css">
	.st0{fill:none;stroke:#000000;stroke-width:0.5;stroke-miterlimit:10;}
	.st1{fill:#FFFFFF;}
	.st2{fill:#47372D;}
	.st3{fill:#F6F7F5;}
	.st4{fill:none;}
	.st5{enable-background:new    ;}
</style>
<path class="st0" d="M75.7,57h253.5v90.4H75.7L75.7,57z"/>
<g>
	<path class="st1" d="M331.4,114.9c7.1,0.8,14.1-0.6,22.1,0.5c-3,1.4-5.1,0.6-7.1,0.8c-2,0.3-4.3-0.6-6,1.3c1,1,2.1,1.3,3.4,1.4
		c3,0.2,5.7,1.6,8.7,1.6c0.3,0,0.3,0.6-0.1,0.8c-0.3,0.3-1.5,0.4,0,0.9c2.5,0.8,2.8,2.1,1,3.5c-1.4,1.1-1.9,2.5-2.6,3.8
		c-0.8,1.6-2,2.2-3.8,2.2c-4.6-0.1-9.2,0-13.7,0c-18,0-36-0.1-53.9,0.1c-6.5,0.1-13,1-19.5,0.7c-6.1-0.3-12.3-0.3-18.5-0.5
		c-10.2-0.4-20.4-0.6-30.6,0.4c-9.1,0.9-18.2,1.4-27.4,1.5c-7.1,0-14-1.1-21.1-1.3c-7.2-0.1-14.4-0.2-21.6,0.9
		c-2.2,0.3-4.6,0.2-6.9,0.2c-16.6,0-33.1-0.1-49.7,0.1c-3.7,0.1-7.3,0.2-11-0.1c-0.9-0.1-1.8-0.2-2.6-0.5c-1.4-0.6-2-2.5-3.9-2.4
		c-1.6,0.1-3.2,0-5.6,0c3.5-2.8,7.1-2.4,10.2-3.5c-1.2-1.8-3-1.6-4.7-1.9c-1.5-0.2-4.2,1.2-4.3-1.4c-0.1-1.9,2.5-1.3,4-1.5
		c0.9-0.2,1.6-0.7,1.9-1.6c0.6-1.9,1.4-3.6,3.8-3.8c2-2.7,4.9-2.2,7.7-2.1c1.7,0,3.3-0.1,5.6-0.2c-1.9-1.7-3.6-1.7-5.4-1.8
		c-1.9-0.1-3.9-0.1-5.8-0.4c-1.8-0.2-3.4-0.7-4.4-2.5c-0.5-0.8-1.6-1.4-2.4-2c-0.5-0.4-1.3-0.8-1.1-1.6c0.1-1,1-0.7,1.6-0.7
		c0.5-0.1,1.1,0.1,1.5-0.1s0.9-0.6,1.1-1c0.5-1-0.4-1.1-1-1.4c-0.5-0.2-1-0.5-1.4-0.8c-0.6-0.5-0.9-1.2-0.6-1.8
		c0.2-0.7,0.8-1.2,1.5-1.3c2.8-0.2,5.6-0.4,8.4,0.1c2.8,0.6,5.6,0.7,8.4,0.8c2,0.1,3.8,0.3,5.7-0.7c0.7-0.4,1.7-0.3,2.6-0.3
		c4.2,0.4,8.5-0.1,12.6,0.8c1.3,0.3,2.8,0.1,4.2-0.2c1.7-0.4,3.5-0.6,5.2-0.4c5.3,0.6,10.5-0.3,15.8-0.1c5.3,0.1,10.6,0.2,15.9-0.1
		c5.2-0.2,10.4-0.4,15.7-0.1c9,0.5,18,0.2,26.9,0c5.6-0.2,11.2-1,16.9-0.8c0.7,0,1.5,0.1,2.1-0.2c3.8-1.7,7.6-0.9,11.4-0.4
		c1,0.1,2.1,0.3,3.1,0.3h32.2c4.2,0,8.3-1,12.6-0.9c4.4,0.1,8.6,1.3,13,1.1c1.4-0.1,2.8,0.2,4.2,0.2c12.5-0.1,25,0.1,37.5-0.6
		c7-0.4,14.1-0.1,21.1-1.2c2.2-0.3,4.2,0.2,5.9,1.6c0.3,0.3,0.6,1,0.5,1.4s-0.5,1-0.9,1.1c-0.8,0.3-1.7,0.3-2.6,0.4
		c-3.3,0.4-6.6,0.8-10.1,1.2c0.8,1.3,1.9,0.9,2.7,1c1.4,0.1,2.4,0.5,2.4,2.2c0,1.3,1,1.9,2.1,1.9c1.4,0,2.8-0.3,4.2-0.4
		c2.8-0.2,3.7,0.8,3.6,3.8c-0.1,2-0.8,2.7-2.6,2.1c-3.4-1.3-7-0.9-10.5-0.8c-1.4,0-2.8,0-3.8,1.3
		C334.4,114.8,332.5,113.8,331.4,114.9L331.4,114.9z M93.5,128.3c-2.8,0-5.7,0-8.7,0c-0.2,0-0.5,0.4-0.6,0.7c0,0.2,0.3,0.6,0.5,0.6
		C87.9,130.1,91,130.2,93.5,128.3z"/>
	<path class="st1" d="M368.9,133.7c-0.1,1-0.2,2.2-1.2,3.1c-0.7,0.7-1.6,0.8-2.3,0.2c-0.8-0.6-1.4-1.4-1.6-2.3
		c-0.4-1.3,0.2-2.4,1.5-2.8c0.5-0.2,1.1-0.2,1.6-0.3C368.5,131.4,369,131.9,368.9,133.7z"/>
	<path class="st1" d="M355.9,110.2c1.4,0,2,0.5,2.3,1.7c0.1,0.5,0,1.1-0.4,1.4c-0.6,0.5-1.5,0.7-2.1,0.3c-0.6-0.5-1.1-1-1.5-1.6
		c-0.5-0.8,0.1-1.8,1-1.8H355.9z"/>
</g>
<path class="st2" d="M-820.4,437.8c-0.3,1.1-0.7,2.2-1.3,3.1C-821.6,439.8-821.5,438.6-820.4,437.8z"/>
<path class="st3" d="M-1122.2,392.9c0.9-0.4,1.5-0.7,2.2-0.9c0.2-0.1,0.4,0,0.5,0.2v0.4c-0.1,0.3-0.4,0.6-0.8,0.6
	C-1120.9,393.3-1121.4,393.2-1122.2,392.9L-1122.2,392.9z"/>
<path class="st3" d="M118.5,129.4c-1.6,1.2-3.6,1.1-5.6,0.9c-0.1,0-0.3-0.3-0.3-0.4c0-0.2,0.2-0.5,0.4-0.5
	C114.8,129.3,116.8,129.4,118.5,129.4z"/>
<path class="st4" d="M107.6,63.6H308v33.8H107.6L107.6,63.6z"/>
<g class="st5">
	<path class="st1" d="M108.2,89.9l1.6-1.8c1.2,1.2,2.6,2.4,5,2.4c2.8,0,4.5-1.8,4.5-4.5v-0.4c0-1.9-1-3.7-3.1-5.5l-3-2.7
		c-2.4-2.1-3.9-4.1-3.9-7V70c0-3.6,2.6-5.9,6.1-5.9c2.5,0,3.8,0.6,5.3,1.8l-1.4,2c-1.1-0.9-2.1-1.5-3.9-1.5c-2.1,0-3.5,1.4-3.5,3.5
		v0.2c0,2.2,1.2,3.5,3.1,5.3l3,2.6c2.5,2.3,3.9,4.5,3.9,7.3V86c0,4.1-2.6,6.8-7.1,6.8C111.6,92.8,109.6,91.4,108.2,89.9z"/>
	<path class="st1" d="M139.4,85.5h-8l-2,6.9h-2.6l8.5-28.3h0.3l8.6,28.3h-2.7L139.4,85.5z M132,83.3h6.7l-2.4-8.4
		c-0.4-1.3-0.8-2.9-0.9-3.4l-0.9,3.4L132,83.3z"/>
	<path class="st1" d="M145.6,64.4h2.6l5,17c0.5,1.6,1,3.9,1.1,4.2c0-0.2,0.6-2.6,1.1-4.2l5-17h2.6l-8.5,28.3h-0.3L145.6,64.4z"/>
	<path class="st1" d="M177.1,85.5h-8l-2,6.9h-2.6l8.5-28.3h0.3l8.6,28.3h-2.7L177.1,85.5z M169.7,83.3h6.7l-2.4-8.4
		c-0.4-1.3-0.8-2.9-0.9-3.4l-0.9,3.4L169.7,83.3z"/>
	<path class="st1" d="M192.1,75c-0.7-1.1-1.6-2.8-1.7-3.1c0,0.1,0.1,2.4,0.1,3.7v16.9H188V64.1h0.4L199.1,82
		c0.7,1.2,1.6,2.9,1.7,3.2c0-0.2-0.1-2.3-0.1-3.8v-17h2.5v28.4h-0.5L192.1,75z"/>
	<path class="st1" d="M215.5,75c-0.7-1.1-1.6-2.8-1.7-3.1c0,0.1,0.1,2.4,0.1,3.7v16.9h-2.5V64.1h0.4L222.5,82
		c0.7,1.2,1.6,2.9,1.7,3.2c0-0.2-0.1-2.3-0.1-3.8v-17h2.5v28.4h-0.5L215.5,75z"/>
	<path class="st1" d="M245.4,85.5h-8l-2,6.9h-2.6l8.5-28.3h0.3l8.6,28.3h-2.7L245.4,85.5z M238,83.3h6.7l-2.4-8.4
		c-0.4-1.3-0.8-2.9-0.9-3.4l-0.9,3.4L238,83.3z"/>
	<path class="st1" d="M256.4,64.4h2.6v13h9.8v-13h2.6v28h-2.6V79.7H259v12.7h-2.6V64.4z"/>
</g>
<path class="st4" d="M107,104.1h200.1v46.5H107V104.1z"/>
<g class="st5">
	<path d="M109.9,107c0,0,0-0.1,0-0.3c0-0.2,0-0.3,0-0.3c0-0.1,0-0.2,0-0.4c0-0.2,0.1-0.4,0.1-0.6c0-0.2,0.1-0.4,0.1-0.6
		c0-0.2,0-0.4-0.1-0.5c-0.1-0.1-0.2-0.3-0.2-0.4c0-0.1,0-0.3,0.1-0.4c0-0.1,0.1-0.3,0.1-0.4c0-0.1,0-0.3,0-0.5
		c0-0.2-0.1-0.5-0.2-0.7c-0.1-0.3-0.1-0.5-0.1-0.6l0-0.3c0-0.1-0.1-0.2-0.1-0.3s-0.1-0.2-0.1-0.2c0-0.1-0.1-0.1-0.1-0.2s0-0.1,0-0.2
		c0-0.1,0-0.2,0-0.3l0.2-0.1c0.2-0.2,0.4-0.2,0.6-0.2c0.1,0,0.2,0,0.2,0c0,0,0.1,0,0.1,0c0,0,0.1,0,0.2-0.1c0.1,0,0.2,0,0.4-0.1h0.7
		c0.1,0,0.2,0,0.2,0s0,0.1-0.1,0.2c0,0.1-0.1,0.1-0.1,0.2s0,0,0.1,0c0.2-0.1,0.4-0.1,0.6-0.1c0.2,0,0.4,0.1,0.6,0.2
		c0.1,0,0.3,0.1,0.5,0.3c0.1,0.1,0.2,0.2,0.4,0.4c0.1,0.2,0.3,0.3,0.4,0.5c0.1,0.2,0.2,0.4,0.3,0.7c0.1,0.3,0.1,0.6,0.2,0.9
		c0.1,0.3,0.1,0.6,0.2,0.9c0,0.3,0.1,0.5,0.1,0.6c0,0.1,0,0.2-0.1,0.3c-0.1,0.1-0.1,0.2-0.1,0.3c0.2,0.3,0.3,0.7,0.4,1.1
		c0.1,0.4,0.1,0.8,0.2,1.3l0.2-0.1c0.3-0.4,0.5-0.8,0.7-1.1c0.2-0.3,0.4-0.6,0.5-0.8c0.2-0.3,0.4-0.7,0.7-1.1
		c0.3-0.4,0.6-0.9,1.1-1.5c0.3-0.4,0.6-0.9,1-1.4l0.3-0.4l0.1-0.1l0.9-0.9c0.3-0.3,0.7-0.5,1.1-0.6c0.2-0.1,0.5-0.1,0.8,0
		c0.1,0,0.2,0.1,0.4,0.1c0.1,0.1,0.3,0.1,0.4,0.2l0.1,0.1c0.2,0.1,0.4,0.2,0.6,0.4c0.2,0.2,0.4,0.3,0.6,0.6c0.1,0.2,0.2,0.4,0.4,0.5
		s0.3,0.4,0.4,0.6c0.1,0.2,0.2,0.5,0.3,0.7s0.2,0.5,0.2,0.7c0,0.2,0.1,0.5,0.2,0.7c0.1,0.2,0.1,0.4,0.2,0.7c0,0.1,0,0.3,0,0.4
		s0,0.3,0,0.5c0,1.2,0,2.4,0,3.5c0,0.1,0,0.3,0,0.4c0,0.1,0,0.2,0,0.4c0,0.1-0.1,0.2-0.1,0.4c0,0.1,0,0.3-0.1,0.4
		c-0.1,0.5-0.2,0.8-0.2,1.1c0-0.1,0.1-0.2,0.2-0.3c0.1-0.1,0.1-0.2,0.2-0.4c0,0,0,0,0-0.1s0,0,0.1-0.1l0.3-0.7
		c0.2-0.3,0.4-0.5,0.5-0.8c0.2-0.3,0.4-0.6,0.5-1c0.1-0.1,0.1-0.2,0.2-0.4c0.1-0.1,0.1-0.3,0.2-0.4c0.1-0.1,0.1-0.2,0.2-0.3
		c0.1-0.1,0.1-0.2,0.2-0.3l0.4-0.7l1-1.4c0.1-0.1,0.2-0.2,0.2-0.3c0.1-0.1,0.1-0.2,0.2-0.3c0.6-0.7,1.1-1.3,1.6-1.8
		c0,0,0.1-0.1,0.1-0.1s0.1-0.1,0.1-0.1c0.3-0.3,0.6-0.6,1-0.8c0.4-0.2,0.8-0.4,1.2-0.4h0.2c0.1,0,0.1,0,0.2-0.1c0,0,0.1,0,0.1,0
		c0.3,0,0.5,0.1,0.6,0.1c0.2,0.1,0.4,0.1,0.5,0.2c0.2,0,0.3,0.1,0.3,0.1c0.1,0,0.1,0.1,0.2,0.2l0.1,0.2l0,0c0,0,0,0,0,0l0.3,0.3
		c0.3,0.3,0.5,0.6,0.5,0.7c0,0,0,0.1,0.1,0.2s0.1,0.2,0.1,0.3c0.1,0.2,0.2,0.4,0.3,0.6c0.1,0.2,0.2,0.4,0.3,0.6
		c0.1,1.1,0.1,2.2,0,3.4c0,0.5-0.1,1-0.1,1.5s-0.1,1.1-0.2,1.6c0,0.3-0.1,0.5-0.1,0.8c0,0.3-0.1,0.6-0.1,0.8c0,0.3-0.1,0.5-0.1,0.7
		l-0.1,0.4c0,0.2-0.1,0.5-0.1,0.7c0,0.2-0.1,0.4-0.1,0.7l-0.3,1.5c-0.1,0.3-0.1,0.4-0.1,0.5c0,0,0,0,0,0.1c0,0,0,0.1-0.1,0.2
		c0,0.1-0.1,0.3-0.2,0.8l-0.3,1.1l-0.2,0.7l-0.4,0.6l0,1c0,0.2-0.1,0.3-0.1,0.3c0,0,0,0.1-0.1,0.2l-0.2,0.3c0,0,0.1,0.1,0.1,0.2
		c0.1,0.1,0.1,0.2,0.1,0.2c0,0.1-0.1,0.4-0.1,0.7c0,0.1,0,0.2,0,0.3c0,0.1,0,0.1,0,0.2l-0.1,0.3c0,0.1-0.1,0.2-0.2,0.4
		c-0.1,0.2-0.2,0.3-0.2,0.4c-0.1,0.4-0.1,0.7-0.2,1c0,0.3,0,0.6-0.1,0.9c-0.1,0.5-0.1,0.9-0.1,1.3c0,0.4,0,0.9,0,1.3
		c0,0.3,0,0.6,0,0.8c0,0.2,0,0.4,0.1,0.5c0.1,0.5,0.2,0.8,0.3,1l0.1,0.1c0,0.1,0,0.2,0.1,0.4c0.1,0.1,0.2,0.2,0.3,0.2
		c0.2,0,0.4,0,0.6-0.2c0.3-0.1,0.6-0.3,0.9-0.7c0.3-0.3,0.5-0.7,0.8-1l0.5-0.7l0.2-0.3c0.1-0.1,0.1-0.2,0.2-0.3
		c0.1-0.1,0.1-0.2,0.2-0.3l1.5-2.3l0.4-0.7c0.4-0.5,0.6-0.8,0.6-0.9l0.1-0.3l0.2-0.2c0.2-0.3,0.3-0.5,0.4-0.6
		c0.1-0.1,0.2-0.2,0.2-0.3c0.1-0.1,0.2-0.2,0.3-0.2c0.1,0.3,0.1,0.5,0.1,0.7c0,0,0,0,0,0.1c0,0,0,0,0,0.1c0,0.2-0.1,0.3-0.2,0.4
		s-0.1,0.3-0.2,0.4l-0.1,0.4l-0.3,0.6c0,0.1-0.1,0.2-0.1,0.2c0,0.1-0.1,0.1-0.1,0.2c0,0.1-0.1,0.3-0.3,0.5c-0.1,0.2-0.2,0.5-0.5,0.8
		c-0.2,0.4-0.4,0.7-0.7,1.1c-0.3,0.4-0.5,0.8-0.7,1.2c-0.2,0.4-0.4,0.7-0.6,1l-0.7,0.8l-0.1,0.2c-0.2,0.3-0.4,0.5-0.6,0.8
		s-0.5,0.5-0.7,0.7l-0.3,0.3c-0.3,0.4-0.6,0.8-0.9,0.9c-0.3,0.2-0.5,0.3-0.7,0.3c-0.2,0-0.4,0-0.5,0.1l-0.2,0.1c0,0-0.1,0-0.1,0
		l-0.3,0.1c-0.3,0.1-0.6,0.2-0.8,0.1c-0.2,0-0.4-0.1-0.5-0.2c-0.2-0.1-0.3-0.2-0.5-0.3c-0.1,0-0.3,0-0.5-0.1c-0.4-0.3-0.7-0.6-1-1
		c-0.3-0.4-0.6-0.9-0.8-1.4l-0.3-0.7c-0.3-0.7-0.6-1.6-0.7-2.7c-0.1-1.1-0.1-2.3,0-3.7c0-0.1,0-0.1,0-0.2c0-0.1,0-0.2,0-0.2
		c0-0.4,0.1-0.9,0.1-1.3s0.1-0.8,0.1-1.2l0.1-0.7c0-0.3,0.1-0.5,0.1-0.6s0-0.1,0-0.2c0,0,0-0.1,0-0.1s0.1-0.2,0.1-0.5l0.1-0.3
		l0.4-1.5l0.1-0.4l0.3-1.3c0-0.1,0.1-0.3,0.1-0.4s0.1-0.3,0.1-0.4l0.2-0.8l0.4-1.7l0.5-1.7l0.8-2.6l0.1-0.6c0.1-0.4,0.2-0.7,0.3-0.9
		s0.1-0.3,0.1-0.4c0,0,0-0.1,0.1-0.3s0.1-0.3,0.1-0.5c0-0.2,0.1-0.4,0.2-0.6c0.1-0.2,0.1-0.4,0.1-0.5l0.1-0.3c0-0.1,0-0.3,0.1-0.4
		c0-0.1,0-0.2,0-0.2c-0.3-0.1-0.5,0-0.9,0.2l-0.2,0.1c-0.1,0-0.3,0.1-0.4,0.2c-0.1,0.1-0.2,0.2-0.3,0.4l-0.6,0.6
		c0,0-0.1,0.1-0.2,0.2c-0.1,0.1-0.2,0.2-0.3,0.3c-0.1,0.1-0.2,0.2-0.2,0.2l-0.1,0.1c-0.2,0.2-0.4,0.5-0.5,0.9
		c-0.2,0.4-0.4,0.8-0.6,1.3l-0.7,1.4l-0.2,0.4l-0.6,1.2c-0.1,0.1-0.1,0.2-0.2,0.4s-0.1,0.3-0.2,0.4l-0.1,0.3l-0.3,0.7l-0.2,0.6
		l-0.2,0.3c0,0.1-0.1,0.2-0.2,0.3c-0.1,0.1-0.1,0.2-0.2,0.3l-0.2,0.9c-0.1,0.3-0.2,0.5-0.2,0.8s-0.1,0.5-0.2,0.8l-0.1,0.5
		c-0.1,0.4-0.2,0.7-0.3,0.9c-0.1,0.2-0.2,0.4-0.3,0.6c-0.1,0.2-0.2,0.4-0.3,0.6c-0.1,0.2-0.1,0.3-0.2,0.4c0,0.1-0.1,0.2-0.1,0.3
		c0,0.1-0.1,0.2-0.1,0.4l-0.2,0.7c0,0.1-0.1,0.2-0.1,0.3c0,0.1-0.1,0.3-0.1,0.5c0,0.2-0.1,0.3-0.2,0.5l-0.2,0.3
		c-0.1,0.1-0.1,0.3-0.2,0.5c0,0.2-0.1,0.4-0.1,0.6c0,0.2-0.1,0.4-0.2,0.6c-0.1,0.2-0.2,0.3-0.3,0.4c-0.1,0-0.2,0.1-0.3,0
		c-0.1,0-0.3-0.1-0.4-0.1c-0.1,0-0.3-0.1-0.4-0.2s-0.2-0.1-0.3-0.1h-0.2c-0.6,0-1.1-0.3-1.3-0.8c0-0.1,0-0.2-0.1-0.4
		c0-0.1,0-0.3-0.1-0.4c-0.1,0-0.1-0.2-0.2-0.5s0-0.5,0-0.8l0-0.2c0-0.1,0.1-0.6,0.2-1.3c0.1-0.8,0.3-1.7,0.5-2.7l0.3-1.8l0.2-1.3
		c0.1-0.5,0.2-1,0.2-1.5c0-0.5,0.1-1,0.1-1.4l0.1-0.5l0.3-3.2c0-0.3,0-0.6,0.1-0.8c0-0.3,0-0.5,0-0.8l0-0.4v-1.7l-0.1-1.2
		c0-0.2,0-0.4-0.1-0.6V103c0-0.3-0.1-0.5-0.3-0.6c-0.1,0-0.2,0-0.3,0.1s-0.3,0.2-0.4,0.4c-0.1,0.1-0.3,0.2-0.5,0.5l-0.5,0.6
		l-0.3,0.3l-0.3,0.5c0,0.1-0.1,0.2-0.1,0.3c0,0.1-0.1,0.1-0.1,0.2l-0.5,0.6c0,0-0.1,0-0.1,0.1c0,0,0,0-0.1,0.1
		c-0.1,0.1-0.1,0.2-0.2,0.3c-0.1,0.1-0.1,0.2-0.2,0.3l-0.1,0.2c0,0.1-0.1,0.2-0.2,0.3c-0.1,0.1-0.1,0.2-0.2,0.3l-0.5,0.9l-0.5,1.2
		c-0.1,0.3-0.2,0.5-0.3,0.7c-0.1,0.2-0.2,0.3-0.2,0.5c-0.1,0.2-0.2,0.3-0.2,0.6c0,0.1,0,0.2-0.1,0.3c0,0.1,0,0.2,0,0.3c0,0,0,0,0,0
		l-0.1,0.3c-0.1,0.4-0.2,0.8-0.3,1.2s-0.2,0.9-0.2,1.4c-0.1,0.6-0.2,1.2-0.3,1.8c-0.1,0.6-0.1,1-0.2,1.4c0,0.1,0,0.2,0,0.4
		c0,0.2,0,0.4,0,0.7c0,0.1,0,0.2,0,0.3s0,0.1,0,0.2c0,0.2,0,0.3,0,0.3c0,0,0,0.1,0,0.1v0c0,0.1,0,0.3,0,0.5c0,0.2,0,0.4,0,0.5
		c0,0.2,0,0.5-0.1,0.7c0,0.1,0,0.2,0,0.2c0,0,0,0.1,0,0.1c0,0,0,0,0,0.1l-0.1,0.6c0,0.1,0,0.3-0.1,0.5c0,0.2-0.1,0.5-0.1,0.7
		c0,0.3-0.1,0.5-0.1,0.8c0,0.3-0.1,0.5-0.1,0.6l-0.1,0.5c0,0.1-0.1,0.2-0.1,0.3c0,0.1-0.1,0.2-0.1,0.3c0,0,0,0,0,0v0.1
		c0,0.1,0,0.3-0.1,0.4c-0.1,0.2-0.2,0.3-0.3,0.5l-0.3,0.7l-0.2,0.6c0,0.1-0.1,0.2-0.2,0.3c-0.1,0.1-0.1,0.2-0.2,0.2l-0.3,0.5
		c0,0.1-0.1,0.2-0.2,0.3c-0.1,0.1-0.2,0.2-0.2,0.2c-0.1,0.1-0.3,0.2-0.5,0.1c-0.1,0-0.2,0-0.3,0.1s-0.2,0-0.3,0
		c-0.1,0-0.1,0-0.2-0.1s-0.1-0.1-0.2-0.2c-0.1-0.1-0.2-0.2-0.2-0.2c-0.1-0.1-0.2-0.1-0.2-0.1c-0.2,0-0.4-0.1-0.5-0.1l-0.3-0.1
		c-0.2-0.1-0.3-0.2-0.5-0.4c-0.1-0.2-0.3-0.4-0.3-0.6l-0.1-0.2c-0.2-0.2-0.3-0.5-0.3-0.7c-0.1-0.3-0.1-0.6-0.2-1.1V126
		c0-0.1,0-0.3,0-0.4c0-0.1,0-0.3,0-0.4l0.1-0.8c0-0.2,0-0.3,0-0.4v-0.1l0-0.2l0.1-0.7l0.1-1.1l0.3-2.2l0-0.3l0-0.8l0-0.1l0-0.5
		c0.2-0.9,0.3-1.8,0.4-2.7c0.1-0.9,0.2-1.8,0.3-2.6l0.1-1c0-0.3,0.1-0.7,0.1-1s0.1-0.7,0.1-1c0-0.4,0.1-0.7,0.2-1
		c0.1-0.3,0.2-0.6,0.2-0.9l0.1-0.4L109.9,107z M114.4,119.8v-0.2c0.1,0.3,0.1,0.4,0,0.3v0V119.8z"/>
	<path d="M166.5,119.8c0.1,0.1,0.2,0.3,0.1,0.6c0,0.2-0.1,0.3-0.2,0.4c-0.1,0.1-0.1,0.2-0.2,0.3c0,0,0,0,0,0.1c0,0,0,0.1-0.1,0.1
		c0,0.1-0.1,0.3-0.2,0.7c-0.1,0.3-0.2,0.6-0.3,0.7c0,0-0.1,0.1-0.1,0.2c-0.1,0.1-0.1,0.2-0.2,0.4s-0.1,0.3-0.2,0.4s-0.1,0.2-0.1,0.3
		l-0.3,0.6l-0.1,0.1c0,0,0,0,0,0.1c0,0,0,0,0,0.1c0,0.2-0.1,0.4-0.2,0.5c-0.1,0.2-0.2,0.3-0.3,0.5c0,0.1-0.1,0.1-0.1,0.2
		c0,0.1-0.1,0.2-0.2,0.3c-0.4,0.6-0.9,1.2-1.6,1.8c0,0.1,0,0.2-0.1,0.3c0,0-0.1,0.1-0.2,0.2c-0.1,0.1-0.2,0.2-0.2,0.3
		c-0.4,0.5-0.8,0.9-1.2,1.3c-0.4,0.3-0.8,0.7-1.4,1c-0.1,0.1-0.3,0.2-0.4,0.3c-0.1,0.1-0.3,0.2-0.5,0.3c-0.3,0.2-0.5,0.4-0.7,0.5
		c-0.2,0.2-0.4,0.3-0.7,0.4c-0.6,0.3-1.2,0.6-1.8,0.7c-0.6,0.1-1.2,0.2-1.7,0.2c0,0-0.1,0-0.2,0c-0.4,0-0.8,0-1.3-0.1
		c-0.5-0.1-0.9-0.2-1.4-0.4s-0.9-0.4-1.3-0.6c-0.4-0.2-0.8-0.5-1.1-0.7c-0.6-0.5-1.2-1.1-1.8-2c-0.3-0.5-0.5-0.9-0.7-1.3
		c-0.2-0.4-0.4-0.9-0.5-1.4c-0.3-0.8-0.4-1.7-0.5-2.7c0-0.1,0-0.1,0-0.2s0-0.1,0-0.2v-1.8c0-0.5,0-1,0-1.4c0-0.5,0.1-0.9,0.1-1.3
		l0.2-1.1l0.1-0.7c0-0.1,0-0.2,0-0.3c0-0.1,0.1-0.3,0.1-0.4c0-0.1,0.1-0.3,0.1-0.5l0.2-1.3c0.1-0.6,0.3-1.2,0.5-1.9
		c0.2-0.7,0.5-1.4,0.8-2.1c0.1-0.3,0.3-0.7,0.5-1.1c0.5-1,1-2.1,1.7-3.1c0.7-1,1.4-1.8,2.2-2.5l0.2-0.1c0.3-0.3,0.8-0.6,1.2-0.9
		c0.3-0.2,0.7-0.4,1.2-0.7c1.2-0.5,2.3-0.8,3.4-0.7c0.3-0.1,0.7-0.1,1.1-0.1c0.4,0,0.8,0.1,1.1,0.1c0.6,0.1,1.1,0.2,1.5,0.4
		c0.4,0.2,0.9,0.4,1.5,0.6c0.6,0.1,1,0.3,1.3,0.6c0.2,0.3,0.3,0.6,0.5,0.9c0.1,0.3,0.2,0.7,0.1,1.1c0,0.4-0.1,0.7-0.2,1.1
		c-0.1,0.4-0.3,0.7-0.5,1.1c-0.1,0.2-0.2,0.4-0.2,0.5c0,0.2-0.1,0.3-0.2,0.5l-0.1,0.1c-0.2,0.4-0.2,0.7-0.1,0.9
		c0,0.1-0.1,0.2-0.3,0.3c-0.1,0.1-0.3,0.1-0.4,0.2c-0.1,0-0.2,0.1-0.4,0.1c-0.1,0-0.2,0.1-0.2,0.1c-0.1,0-0.3,0-0.4-0.1
		c-0.1-0.1-0.2-0.2-0.4-0.3c-0.1-0.1-0.2-0.2-0.3-0.4c-0.1-0.1-0.2-0.2-0.2-0.3c0,0,0-0.1-0.1-0.2c0-0.1,0-0.2-0.1-0.3
		c-0.2-0.7-0.3-1.2-0.2-1.5c0.1-0.3,0.3-0.5,0.5-0.7c0.3-0.1,0.6-0.3,0.9-0.4c0.4-0.1,0.7-0.3,1-0.6c0.2-0.2,0.2-0.4,0-0.7
		c-0.2-0.3-0.4-0.5-0.7-0.7c-0.3-0.2-0.6-0.4-1-0.5c-0.4-0.1-0.7-0.2-1-0.1c-0.2,0-0.5-0.1-0.7-0.1c-0.2,0-0.4,0-0.6,0.1
		c-0.1,0.1-0.3,0.2-0.5,0.3c-0.2,0.2-0.3,0.3-0.5,0.5c-0.2,0.2-0.3,0.4-0.5,0.5c-0.2,0.2-0.3,0.3-0.5,0.4c-0.1,0.1-0.2,0.2-0.3,0.4
		c-0.1,0.1-0.2,0.3-0.2,0.4c-0.3,0.4-0.6,0.8-0.9,1.3c-0.1,0.2-0.2,0.4-0.3,0.5s-0.2,0.3-0.3,0.4c0,0.1-0.1,0.2-0.1,0.2
		s-0.1,0.2-0.1,0.3c-0.1,0.2-0.2,0.4-0.4,0.6c-0.1,0.2-0.2,0.4-0.4,0.6c-0.3,0.5-0.6,1-0.9,1.6c-0.3,0.6-0.6,1.3-0.8,1.9
		c-0.2,0.5-0.4,1.1-0.6,1.8c-0.2,0.7-0.4,1.3-0.5,2c0,0.5,0,0.9-0.1,1.1c-0.1,0.6-0.2,1-0.3,1.4c-0.1,0.4-0.2,0.8-0.1,1.3
		c-0.1,0.7-0.1,1.4,0,2.2c0,0.2,0,0.4,0,0.6c0,0.2,0,0.5,0,0.8s0,0.6,0,0.8s0,0.5,0.1,0.7c0.1,0.5,0.2,0.9,0.4,1.3
		c0.1,0.4,0.3,0.8,0.5,1.1c0.2,0.4,0.4,0.7,0.6,0.9c0.3,0.3,0.6,0.6,1,0.8c0.1,0,0.2,0.1,0.4,0.1c0.1,0,0.3,0.1,0.5,0.1
		c0.1,0.1,0.2,0.1,0.3,0.1c0.1,0.1,0.3,0.2,0.6,0.4c0.2,0.2,0.5,0.3,0.7,0.2c0.4-0.1,0.8-0.3,1.2-0.5c0.4-0.3,0.8-0.5,1.1-0.7
		c0.7-0.2,1.3-0.6,1.8-1.1c0.5-0.5,1-1,1.5-1.4c0.1-0.1,0.2-0.3,0.4-0.5c0.1-0.2,0.3-0.4,0.5-0.6c0.3-0.4,0.6-0.7,0.8-1.1
		c0.3-0.4,0.5-0.7,0.7-1c0.4-0.7,0.7-1.4,1-1.9c0.3-0.6,0.5-1,0.6-1.4c0-0.5,0.1-0.8,0.3-1.1s0.3-0.5,0.4-0.6
		c0.1-0.1,0.3-0.2,0.4-0.2s0.2,0.1,0.2,0.2L166.5,119.8z"/>
	<path d="M167.4,107c0,0,0-0.1,0-0.3c0-0.2,0-0.3,0-0.3c0-0.1,0-0.2,0-0.4c0-0.2,0.1-0.4,0.1-0.6c0-0.2,0.1-0.4,0.1-0.6
		c0-0.2,0-0.4-0.1-0.5c-0.1-0.1-0.2-0.3-0.2-0.4c0-0.1,0-0.3,0.1-0.4c0-0.1,0.1-0.3,0.1-0.4c0-0.1,0-0.3,0-0.5
		c0-0.2-0.1-0.5-0.2-0.7c-0.1-0.3-0.1-0.5-0.1-0.6l0-0.3c0-0.1-0.1-0.2-0.1-0.3s-0.1-0.2-0.1-0.2c0-0.1-0.1-0.1-0.1-0.2s0-0.1,0-0.2
		c0-0.1,0-0.2,0-0.3l0.2-0.1c0.2-0.2,0.4-0.2,0.6-0.2c0.1,0,0.2,0,0.2,0c0,0,0.1,0,0.1,0c0,0,0.1,0,0.2-0.1c0.1,0,0.2,0,0.4-0.1h0.7
		c0.1,0,0.2,0,0.2,0s0,0.1-0.1,0.2c0,0.1-0.1,0.1-0.1,0.2s0,0,0.1,0c0.2-0.1,0.4-0.1,0.6-0.1c0.2,0,0.4,0.1,0.6,0.2
		c0.1,0,0.3,0.1,0.5,0.3c0.1,0.1,0.2,0.2,0.4,0.4c0.1,0.2,0.3,0.3,0.4,0.5c0.1,0.2,0.2,0.4,0.3,0.7c0.1,0.3,0.1,0.6,0.2,0.9
		c0.1,0.3,0.1,0.6,0.2,0.9c0,0.3,0.1,0.5,0.1,0.6c0,0.1,0,0.2-0.1,0.3c-0.1,0.1-0.1,0.2-0.1,0.3c0.2,0.3,0.3,0.7,0.4,1.1
		c0.1,0.4,0.1,0.8,0.2,1.3l0.2-0.1c0.3-0.4,0.5-0.8,0.7-1.1c0.2-0.3,0.4-0.6,0.5-0.8c0.2-0.3,0.4-0.7,0.7-1.1
		c0.3-0.4,0.6-0.9,1.1-1.5c0.3-0.4,0.6-0.9,1-1.4l0.3-0.4l0.1-0.1l0.9-0.9c0.3-0.3,0.7-0.5,1.1-0.6c0.2-0.1,0.5-0.1,0.8,0
		c0.1,0,0.2,0.1,0.4,0.1c0.1,0.1,0.3,0.1,0.4,0.2l0.1,0.1c0.2,0.1,0.4,0.2,0.6,0.4c0.2,0.2,0.4,0.3,0.6,0.6c0.1,0.2,0.2,0.4,0.4,0.5
		s0.3,0.4,0.4,0.6c0.1,0.2,0.2,0.5,0.3,0.7s0.2,0.5,0.2,0.7c0,0.2,0.1,0.5,0.2,0.7c0.1,0.2,0.1,0.4,0.2,0.7c0,0.1,0,0.3,0,0.4
		s0,0.3,0,0.5c0,1.2,0,2.4,0,3.5c0,0.1,0,0.3,0,0.4c0,0.1,0,0.2,0,0.4c0,0.1-0.1,0.2-0.1,0.4c0,0.1,0,0.3-0.1,0.4
		c-0.1,0.5-0.2,0.8-0.2,1.1c0-0.1,0.1-0.2,0.2-0.3c0.1-0.1,0.1-0.2,0.2-0.4c0,0,0,0,0-0.1s0,0,0.1-0.1l0.3-0.7
		c0.2-0.3,0.4-0.5,0.5-0.8c0.2-0.3,0.4-0.6,0.5-1c0.1-0.1,0.1-0.2,0.2-0.4c0.1-0.1,0.1-0.3,0.2-0.4c0.1-0.1,0.1-0.2,0.2-0.3
		c0.1-0.1,0.1-0.2,0.2-0.3l0.4-0.7l1-1.4c0.1-0.1,0.2-0.2,0.2-0.3c0.1-0.1,0.1-0.2,0.2-0.3c0.6-0.7,1.1-1.3,1.6-1.8
		c0,0,0.1-0.1,0.1-0.1s0.1-0.1,0.1-0.1c0.3-0.3,0.6-0.6,1-0.8c0.4-0.2,0.8-0.4,1.2-0.4h0.2c0.1,0,0.1,0,0.2-0.1c0,0,0.1,0,0.1,0
		c0.3,0,0.5,0.1,0.6,0.1c0.2,0.1,0.4,0.1,0.5,0.2c0.2,0,0.3,0.1,0.3,0.1c0.1,0,0.1,0.1,0.2,0.2l0.1,0.2l0,0c0,0,0,0,0,0l0.3,0.3
		c0.3,0.3,0.5,0.6,0.5,0.7c0,0,0,0.1,0.1,0.2s0.1,0.2,0.1,0.3c0.1,0.2,0.2,0.4,0.3,0.6c0.1,0.2,0.2,0.4,0.3,0.6
		c0.1,1.1,0.1,2.2,0,3.4c0,0.5-0.1,1-0.1,1.5s-0.1,1.1-0.2,1.6c0,0.3-0.1,0.5-0.1,0.8c0,0.3-0.1,0.6-0.1,0.8c0,0.3-0.1,0.5-0.1,0.7
		l-0.1,0.4c0,0.2-0.1,0.5-0.1,0.7c0,0.2-0.1,0.4-0.1,0.7l-0.3,1.5c-0.1,0.3-0.1,0.4-0.1,0.5c0,0,0,0,0,0.1c0,0,0,0.1-0.1,0.2
		c0,0.1-0.1,0.3-0.2,0.8l-0.3,1.1l-0.2,0.7l-0.4,0.6l0,1c0,0.2-0.1,0.3-0.1,0.3c0,0,0,0.1-0.1,0.2l-0.2,0.3c0,0,0.1,0.1,0.1,0.2
		c0.1,0.1,0.1,0.2,0.1,0.2c0,0.1-0.1,0.4-0.1,0.7c0,0.1,0,0.2,0,0.3c0,0.1,0,0.1,0,0.2l-0.1,0.3c0,0.1-0.1,0.2-0.2,0.4
		c-0.1,0.2-0.2,0.3-0.2,0.4c-0.1,0.4-0.1,0.7-0.2,1c0,0.3,0,0.6-0.1,0.9c-0.1,0.5-0.1,0.9-0.1,1.3c0,0.4,0,0.9,0,1.3
		c0,0.3,0,0.6,0,0.8c0,0.2,0,0.4,0.1,0.5c0.1,0.5,0.2,0.8,0.3,1l0.1,0.1c0,0.1,0,0.2,0.1,0.4c0.1,0.1,0.2,0.2,0.3,0.2
		c0.2,0,0.4,0,0.6-0.2c0.3-0.1,0.6-0.3,0.9-0.7c0.3-0.3,0.5-0.7,0.8-1l0.5-0.7l0.2-0.3c0.1-0.1,0.1-0.2,0.2-0.3
		c0.1-0.1,0.1-0.2,0.2-0.3l1.5-2.3l0.4-0.7c0.4-0.5,0.6-0.8,0.6-0.9l0.1-0.3l0.2-0.2c0.2-0.3,0.3-0.5,0.4-0.6
		c0.1-0.1,0.2-0.2,0.2-0.3c0.1-0.1,0.2-0.2,0.3-0.2c0.1,0.3,0.1,0.5,0.1,0.7c0,0,0,0,0,0.1c0,0,0,0,0,0.1c0,0.2-0.1,0.3-0.2,0.4
		s-0.1,0.3-0.2,0.4l-0.1,0.4l-0.3,0.6c0,0.1-0.1,0.2-0.1,0.2c0,0.1-0.1,0.1-0.1,0.2c0,0.1-0.1,0.3-0.3,0.5c-0.1,0.2-0.2,0.5-0.5,0.8
		c-0.2,0.4-0.4,0.7-0.7,1.1c-0.3,0.4-0.5,0.8-0.7,1.2c-0.2,0.4-0.4,0.7-0.6,1l-0.7,0.8l-0.1,0.2c-0.2,0.3-0.4,0.5-0.6,0.8
		s-0.5,0.5-0.7,0.7l-0.3,0.3c-0.3,0.4-0.6,0.8-0.9,0.9c-0.3,0.2-0.5,0.3-0.7,0.3c-0.2,0-0.4,0-0.5,0.1l-0.2,0.1c0,0-0.1,0-0.1,0
		l-0.3,0.1c-0.3,0.1-0.6,0.2-0.8,0.1c-0.2,0-0.4-0.1-0.5-0.2c-0.2-0.1-0.3-0.2-0.5-0.3c-0.1,0-0.3,0-0.5-0.1c-0.4-0.3-0.7-0.6-1-1
		c-0.3-0.4-0.6-0.9-0.8-1.4l-0.3-0.7c-0.3-0.7-0.6-1.6-0.7-2.7c-0.1-1.1-0.1-2.3,0-3.7c0-0.1,0-0.1,0-0.2c0-0.1,0-0.2,0-0.2
		c0-0.4,0.1-0.9,0.1-1.3s0.1-0.8,0.1-1.2l0.1-0.7c0-0.3,0.1-0.5,0.1-0.6s0-0.1,0-0.2c0,0,0-0.1,0-0.1s0.1-0.2,0.1-0.5l0.1-0.3
		l0.4-1.5l0.1-0.4l0.3-1.3c0-0.1,0.1-0.3,0.1-0.4s0.1-0.3,0.1-0.4l0.2-0.8l0.4-1.7l0.5-1.7l0.8-2.6l0.1-0.6c0.1-0.4,0.2-0.7,0.3-0.9
		s0.1-0.3,0.1-0.4c0,0,0-0.1,0.1-0.3s0.1-0.3,0.1-0.5c0-0.2,0.1-0.4,0.2-0.6c0.1-0.2,0.1-0.4,0.1-0.5l0.1-0.3c0-0.1,0-0.3,0.1-0.4
		c0-0.1,0-0.2,0-0.2c-0.3-0.1-0.5,0-0.9,0.2l-0.2,0.1c-0.1,0-0.3,0.1-0.4,0.2c-0.1,0.1-0.2,0.2-0.3,0.4l-0.6,0.6
		c0,0-0.1,0.1-0.2,0.2c-0.1,0.1-0.2,0.2-0.3,0.3c-0.1,0.1-0.2,0.2-0.2,0.2l-0.1,0.1c-0.2,0.2-0.4,0.5-0.5,0.9
		c-0.2,0.4-0.4,0.8-0.6,1.3l-0.7,1.4l-0.2,0.4l-0.6,1.2c-0.1,0.1-0.1,0.2-0.2,0.4s-0.1,0.3-0.2,0.4l-0.1,0.3l-0.3,0.7l-0.2,0.6
		l-0.2,0.3c0,0.1-0.1,0.2-0.2,0.3c-0.1,0.1-0.1,0.2-0.2,0.3l-0.2,0.9c-0.1,0.3-0.2,0.5-0.2,0.8s-0.1,0.5-0.2,0.8l-0.1,0.5
		c-0.1,0.4-0.2,0.7-0.3,0.9c-0.1,0.2-0.2,0.4-0.3,0.6c-0.1,0.2-0.2,0.4-0.3,0.6c-0.1,0.2-0.1,0.3-0.2,0.4c0,0.1-0.1,0.2-0.1,0.3
		c0,0.1-0.1,0.2-0.1,0.4l-0.2,0.7c0,0.1-0.1,0.2-0.1,0.3c0,0.1-0.1,0.3-0.1,0.5c0,0.2-0.1,0.3-0.2,0.5l-0.2,0.3
		c-0.1,0.1-0.1,0.3-0.2,0.5c0,0.2-0.1,0.4-0.1,0.6c0,0.2-0.1,0.4-0.2,0.6c-0.1,0.2-0.2,0.3-0.3,0.4c-0.1,0-0.2,0.1-0.3,0
		c-0.1,0-0.3-0.1-0.4-0.1c-0.1,0-0.3-0.1-0.4-0.2s-0.2-0.1-0.3-0.1H179c-0.6,0-1.1-0.3-1.3-0.8c0-0.1,0-0.2-0.1-0.4
		c0-0.1,0-0.3-0.1-0.4c-0.1,0-0.1-0.2-0.2-0.5s0-0.5,0-0.8l0-0.2c0-0.1,0.1-0.6,0.2-1.3c0.1-0.8,0.3-1.7,0.5-2.7l0.3-1.8l0.2-1.3
		c0.1-0.5,0.2-1,0.2-1.5c0-0.5,0.1-1,0.1-1.4l0.1-0.5l0.3-3.2c0-0.3,0-0.6,0.1-0.8c0-0.3,0-0.5,0-0.8l0-0.4v-1.7l-0.1-1.2
		c0-0.2,0-0.4-0.1-0.6V103c0-0.3-0.1-0.5-0.3-0.6c-0.1,0-0.2,0-0.3,0.1s-0.3,0.2-0.4,0.4c-0.1,0.1-0.3,0.2-0.5,0.5l-0.5,0.6
		l-0.3,0.3l-0.3,0.5c0,0.1-0.1,0.2-0.1,0.3c0,0.1-0.1,0.1-0.1,0.2l-0.5,0.6c0,0-0.1,0-0.1,0.1c0,0,0,0-0.1,0.1
		c-0.1,0.1-0.1,0.2-0.2,0.3c-0.1,0.1-0.1,0.2-0.2,0.3l-0.1,0.2c0,0.1-0.1,0.2-0.2,0.3c-0.1,0.1-0.1,0.2-0.2,0.3l-0.5,0.9l-0.5,1.2
		c-0.1,0.3-0.2,0.5-0.3,0.7c-0.1,0.2-0.2,0.3-0.2,0.5c-0.1,0.2-0.2,0.3-0.2,0.6c0,0.1,0,0.2-0.1,0.3c0,0.1,0,0.2,0,0.3c0,0,0,0,0,0
		l-0.1,0.3c-0.1,0.4-0.2,0.8-0.3,1.2s-0.2,0.9-0.2,1.4c-0.1,0.6-0.2,1.2-0.3,1.8c-0.1,0.6-0.1,1-0.2,1.4c0,0.1,0,0.2,0,0.4
		c0,0.2,0,0.4,0,0.7c0,0.1,0,0.2,0,0.3s0,0.1,0,0.2c0,0.2,0,0.3,0,0.3c0,0,0,0.1,0,0.1v0c0,0.1,0,0.3,0,0.5c0,0.2,0,0.4,0,0.5
		c0,0.2,0,0.5-0.1,0.7c0,0.1,0,0.2,0,0.2c0,0,0,0.1,0,0.1c0,0,0,0,0,0.1l-0.1,0.6c0,0.1,0,0.3-0.1,0.5c0,0.2-0.1,0.5-0.1,0.7
		c0,0.3-0.1,0.5-0.1,0.8c0,0.3-0.1,0.5-0.1,0.6l-0.1,0.5c0,0.1-0.1,0.2-0.1,0.3c0,0.1-0.1,0.2-0.1,0.3c0,0,0,0,0,0v0.1
		c0,0.1,0,0.3-0.1,0.4c-0.1,0.2-0.2,0.3-0.3,0.5l-0.3,0.7l-0.2,0.6c0,0.1-0.1,0.2-0.2,0.3c-0.1,0.1-0.1,0.2-0.2,0.2l-0.3,0.5
		c0,0.1-0.1,0.2-0.2,0.3c-0.1,0.1-0.2,0.2-0.2,0.2c-0.1,0.1-0.3,0.2-0.5,0.1c-0.1,0-0.2,0-0.3,0.1s-0.2,0-0.3,0
		c-0.1,0-0.1,0-0.2-0.1s-0.1-0.1-0.2-0.2c-0.1-0.1-0.2-0.2-0.2-0.2c-0.1-0.1-0.2-0.1-0.2-0.1c-0.2,0-0.4-0.1-0.5-0.1l-0.3-0.1
		c-0.2-0.1-0.3-0.2-0.5-0.4c-0.1-0.2-0.3-0.4-0.3-0.6l-0.1-0.2c-0.2-0.2-0.3-0.5-0.3-0.7c-0.1-0.3-0.1-0.6-0.2-1.1V126
		c0-0.1,0-0.3,0-0.4c0-0.1,0-0.3,0-0.4l0.1-0.8c0-0.2,0-0.3,0-0.4v-0.1l0-0.2l0.1-0.7l0.1-1.1l0.3-2.2l0-0.3l0-0.8l0-0.1l0-0.5
		c0.2-0.9,0.3-1.8,0.4-2.7c0.1-0.9,0.2-1.8,0.3-2.6l0.1-1c0-0.3,0.1-0.7,0.1-1s0.1-0.7,0.1-1c0-0.4,0.1-0.7,0.2-1
		c0.1-0.3,0.2-0.6,0.2-0.9l0.1-0.4L167.4,107z M171.9,119.8v-0.2c0.1,0.3,0.1,0.4,0,0.3v0V119.8z"/>
	<path d="M216.4,105.4c0.1-0.2,0.3-0.3,0.6-0.3c0,0,0.1,0,0.1,0.1c0,0.1,0.1,0.1,0.1,0.1c0.2,0,0.5,0.1,0.7,0.2
		c0.3,0.1,0.5,0.3,0.8,0.5c0.3,0.2,0.5,0.5,0.7,0.7c0.1,0.1,0.2,0.2,0.3,0.4c0.1,0.1,0.2,0.3,0.2,0.4c0.2,0.3,0.4,0.7,0.6,1.1
		c0,0.3,0.1,0.6,0,0.8c0,0.3-0.1,0.6-0.1,1.1c0,0.3-0.1,0.4-0.1,0.5c0,0.1-0.1,0.2-0.1,0.4c0,0.3-0.1,0.6-0.1,0.9
		c0,0.3-0.1,0.6-0.2,0.9c0,0.3,0.1,0.6,0.1,1c0,0.3,0.1,0.6,0.1,1l0.1,0.9c-0.1,0.5-0.2,1.1-0.3,1.6s-0.2,1.1-0.3,1.6
		c0,0.2-0.1,0.3-0.1,0.5c0,0.1,0,0.2,0,0.4c0.1,0,0.1,0,0.2,0c0,0,0,0,0.1,0s0,0,0.1,0c0,0,0.1,0,0.3-0.1l0.5-0.2l0.9-0.1
		c0.2,0,0.3,0.2,0.4,0.5c0.1,0.3,0.1,0.5,0.1,0.6c0,0.2-0.1,0.4-0.3,0.6c-0.2,0.1-0.6,0.3-1.1,0.4l-0.6,0.2l-0.5,0.6
		c-0.1,0.1-0.2,0.2-0.3,0.4s-0.2,0.5-0.2,0.9c-0.1,0.9-0.2,2.1-0.3,3.5c0,0.1,0,0.2,0,0.3s0,0.3-0.1,0.4c-0.1,0.3-0.1,0.6-0.2,0.8
		s0,0.5,0,0.8s0,0.5,0,0.7c0,0.2,0,0.4,0,0.7c0,0.1,0,0.3,0,0.5c0,0.1,0,0.3-0.1,0.4s0,0.3,0,0.5c0,0.3,0,0.5,0,0.7s0,0.5,0,0.7
		c0,0.1,0,0.2,0,0.3s0,0.2,0,0.3c0,0.4,0,0.8,0.1,1.1c0,0.3,0.1,0.6,0.1,0.9c0,0.1,0.1,0.2,0.1,0.4c0,0.2,0.1,0.3,0.1,0.5l0.1,0.6
		c0,0.3,0,0.6,0,0.9s0,0.5,0,0.7c0,0.2,0.1,0.4,0.2,0.6c0,0.2,0,0.3,0,0.4c0,0.3-0.1,0.6-0.1,0.9c0,0.2-0.1,0.5-0.1,0.8
		c0,0-0.1,0.1-0.3,0.1c-0.1,0-0.2,0.1-0.3,0.1c-0.1,0-0.2,0.1-0.2,0.1l-0.5,0.1c-0.1,0-0.3,0-0.4,0.1c-0.1,0-0.3,0-0.4,0
		c-0.4,0-0.7-0.1-1-0.3c-0.3-0.2-0.5-0.5-0.7-1.1c-0.1-0.1-0.2-0.2-0.3-0.4s-0.2-0.3-0.3-0.5l-0.5-0.8c-0.1-0.1-0.2-0.3-0.2-0.4
		c-0.1-0.1-0.1-0.2-0.2-0.3l-0.1-0.4c-0.1-0.3-0.1-0.5-0.2-0.7c0-0.2-0.1-0.5-0.1-0.7c0-0.3-0.1-0.6-0.1-1c0-0.3-0.1-0.6-0.1-1
		c0-0.2,0-0.4-0.1-0.6s0-0.4,0-0.6l-0.1-0.6c0-0.1-0.1-0.2-0.1-0.3c0-0.2,0-0.4,0.1-0.8c0.1-0.3,0.1-0.7,0.2-1c0-0.2,0-0.4,0.1-0.5
		c0-0.2,0-0.3,0-0.4c0-0.3,0-0.6,0.1-1c0-0.3,0-0.6,0.1-1c0.1-0.7,0.2-1.3,0.2-1.9c0.1-0.6,0.2-1,0.2-1.4c0.1-0.4,0.2-0.7,0.2-1
		c0.1-0.2,0.1-0.4,0.1-0.5c0,0-0.1-0.1-0.3-0.1c-0.1,0-0.2,0-0.3,0.1l-1.6,0.3l-1.3,0.3c-0.5,0-1,0-1.6,0.1c-0.6,0-1.1,0-1.6,0.1
		c-0.2,0.2-0.4,0.5-0.5,0.7c-0.2,0.2-0.3,0.5-0.5,0.7c-0.3,0.3-0.5,0.6-0.7,0.9c-0.2,0.3-0.4,0.6-0.6,0.9c-0.2,0.2-0.5,0.4-0.7,0.6
		c-0.2,0.2-0.4,0.4-0.5,0.5l-0.1,0.1c-0.3,0.3-0.6,0.7-0.9,1.1l-0.9,1.6l-0.1,0.1l-0.6,1c-0.1,0.2-0.2,0.3-0.3,0.5
		c-0.1,0.2-0.2,0.3-0.3,0.4c-0.2,0.2-0.3,0.5-0.5,0.7s-0.3,0.4-0.4,0.6l-0.3,0.6c-0.3,0.3-0.5,0.5-0.7,0.8c-0.1,0.1-0.2,0.2-0.3,0.3
		c-0.1,0.1-0.2,0.2-0.3,0.2h0l0,0c-0.4,0.3-0.7,0.4-0.8,0.4c-0.2,0-0.3-0.2-0.3-0.5c0,0,0,0,0-0.1c0-0.1,0-0.2,0.1-0.3
		c0-0.1,0.1-0.2,0.1-0.3c0,0,0,0,0,0c0,0,0,0,0,0c0,0,0-0.1,0-0.1c0,0,0-0.1,0.1-0.1l0.2-0.5l0.3-0.3c0.2-0.3,0.5-0.5,0.7-0.8
		c0.2-0.3,0.5-0.6,0.7-0.8l0.1-0.1l0.7-0.8l1-1.5c0.3-0.4,0.5-0.8,0.7-1.2c0.2-0.4,0.5-0.8,0.7-1.2l0.8-1.2c0.3-0.5,0.6-0.9,0.8-1.3
		c0.2-0.4,0.4-0.6,0.5-0.8c-0.2,0-0.3,0-0.5,0c-0.2,0-0.3,0-0.5,0c-0.4-0.1-0.7-0.3-0.7-0.5c-0.1-0.1-0.2-0.2-0.1-0.3
		c0-0.2,0.2-0.4,0.5-0.7c0.1-0.1,0.2-0.2,0.4-0.3c0.1-0.1,0.3-0.1,0.4-0.2c0.2,0,0.4,0,0.6,0c0.2,0,0.4-0.1,0.6-0.1
		c0.3,0,0.5,0,0.6-0.1c0.2,0,0.4-0.1,0.5-0.3c0.1-0.3,0.4-0.8,0.8-1.5c0.4-0.7,0.8-1.4,1.2-2.2c0.3-0.6,0.7-1.2,1-1.8
		c0.4-0.6,0.7-1.2,0.9-1.8l0.7-0.9c0.3-0.3,0.6-0.7,0.9-1c0.3-0.4,0.6-0.8,1-1.2c0.8-1.2,1.5-2.1,2.1-3c0.6-0.8,1.1-1.6,1.4-2.3
		c0-0.1,0.1-0.2,0.1-0.3c0-0.1,0.1-0.2,0.1-0.3L216.4,105.4z M197.8,136.4L197.8,136.4L197.8,136.4L197.8,136.4z M216,109
		c0,0-0.1-0.1-0.1-0.1c0,0-0.1-0.1-0.1-0.1c-0.2,0.3-0.3,0.5-0.6,0.8c-0.2,0.3-0.4,0.6-0.6,0.8c-0.1,0.1-0.2,0.3-0.3,0.5
		c-0.1,0.2-0.2,0.4-0.3,0.5c-0.1,0.1-0.2,0.3-0.4,0.4c-0.1,0.2-0.2,0.3-0.3,0.5L213,113c-0.1,0.2-0.2,0.3-0.2,0.5
		c-0.1,0.2-0.2,0.3-0.2,0.5c-0.1,0.1-0.1,0.3-0.2,0.4c-0.1,0.1-0.2,0.3-0.3,0.4c-0.2,0.2-0.3,0.4-0.4,0.7c-0.1,0.4-0.3,0.7-0.6,1.1
		l-0.8,1.4c-0.3,0.6-0.6,1.1-0.9,1.8c-0.3,0.6-0.6,1.2-0.9,1.8c-0.2,0.4-0.3,0.7-0.3,0.9c0,0,0.1,0,0.2,0c0.1,0,0.1,0,0.3,0
		c0.3,0,0.6-0.1,1-0.2c0.4-0.1,0.7-0.2,0.9-0.2c0.1,0,0.1,0,0.2,0h0.4c0.3,0,0.5-0.1,0.7-0.1c0.2,0,0.4-0.1,0.6-0.1
		c0.2,0,0.3-0.1,0.5-0.1c0.1,0,0.3-0.1,0.5-0.1l0.8-0.2c0-0.2,0-0.4,0.1-0.6c0-0.2,0-0.4,0.1-0.7c0-0.2,0.1-0.4,0.1-0.6
		c0-0.2,0-0.3,0-0.2c0.1-0.5,0.2-1,0.3-1.6c0.1-0.6,0.2-1.1,0.3-1.7c0.1-0.6,0.2-1.1,0.3-1.6c0.1-0.5,0.2-1,0.3-1.5
		c0.1-0.3,0.1-0.6,0.2-0.9c0-0.3,0.1-0.5,0.1-0.7c0-0.4,0.1-0.8,0.1-1.1C216,109.6,216,109.3,216,109z"/>
	<path d="M249.6,117.3C249.6,117.3,249.6,117.4,249.6,117.3c0.2,0.2,0.2,0.3,0.2,0.4c0,0.1-0.1,0.2-0.1,0.2
		c-0.2,0.3-0.4,0.4-0.6,0.5c-0.2,0.3-0.4,0.5-0.6,0.6c-0.2,0.1-0.5,0.1-0.7,0c-0.3,0-0.5-0.1-0.8-0.1c-0.3,0-0.5,0.1-0.7,0.2
		c0,0.1-0.1,0.2-0.1,0.4c-0.1,0.2-0.1,0.6-0.2,1.3l-0.5,2.6c-0.1,0.3-0.1,0.7-0.2,1c-0.1,0.4-0.1,0.7-0.2,1
		c-0.1,0.3-0.1,0.6-0.1,0.7c0,0.1,0,0.2,0.1,0.3c0,0.5,0.1,1,0,1.5c0,0.5-0.1,1.1-0.1,1.7c-0.1,0.5-0.1,0.8-0.1,0.9
		c0.1,0.2,0.1,0.4,0.1,0.6c0,0.2-0.1,0.5-0.2,0.7l-0.2,0.3c0,0,0-0.1-0.1,0c0,0-0.1,0.1-0.1,0.2c0,0.1-0.1,0.3-0.1,0.6
		s-0.1,0.5-0.2,0.7s-0.2,0.5-0.3,0.8l-0.1,0.1c-0.1,0.1-0.1,0.2-0.1,0.3l-0.1,0.3c0,0,0.1,0,0.1,0.1c0,0,0,0.1,0,0.1
		c0,0.2-0.1,0.3-0.2,0.3c-0.2,0-0.3,0.1-0.3,0.1s-0.1,0.2-0.2,0.3c-0.1,0.1-0.1,0.2-0.2,0.4s-0.1,0.3-0.2,0.4
		c-0.1,0.3-0.2,0.5-0.4,0.7c-0.2,0.2-0.4,0.4-0.7,0.6c-0.1,0.1-0.2,0.2-0.2,0.3v0.1c-0.3,0.1-0.5,0.2-0.7,0.2
		c-0.2,0.1-0.4,0-0.7-0.2c-0.2-0.2-0.3-0.5-0.4-0.7c-0.2-0.4-0.2-0.7-0.2-1.1c0-0.3,0.1-0.7,0.1-1c0-0.4,0.1-0.8,0.2-1.3
		s0.1-1,0.2-1.6c0.1-0.6,0.1-1.4,0.2-2.3c0.1-0.6,0.2-1.3,0.3-2.1c0.1-0.8,0.2-1.5,0.4-2.4c0.2-1.3,0.5-2.5,0.7-3.7
		c0.2-1.2,0.5-2.2,0.6-3c0.1-0.5,0.1-0.7-0.2-0.8c-0.2,0.1-0.6,0.2-1.1,0.2c-0.5,0-0.9,0.1-1.2,0c-0.3,0-0.5,0-0.7,0
		c-0.2,0-0.4,0.1-0.6,0.2c-0.3,0-0.6,0.1-1.1,0.1c-0.5,0-1,0-1.5,0c-0.4,0-0.8,0-1.2,0c-0.4,0-0.8,0.1-1,0.2c0,0.2,0,0.5-0.1,0.7
		c0,0.1,0,0.3,0,0.5c0,0.4-0.1,0.8-0.1,1.2c0,0.4-0.1,0.9-0.2,1.3c-0.1,0.5-0.2,1-0.3,1.6c-0.1,0.6-0.2,1.2-0.4,1.9
		c-0.1,0.6-0.3,1-0.3,1.4c-0.1,0.4-0.2,0.7-0.3,1c-0.1,0.3-0.2,0.6-0.3,0.9c-0.1,0.3-0.2,0.6-0.3,0.9c-0.3,0.8-0.5,1.5-0.8,2
		c-0.3,0.5-0.6,1.1-1.1,1.7c0,0-0.1,0.1-0.1,0.2s-0.1,0.1-0.1,0.2c0,0-0.1,0-0.1,0c0,0-0.1,0-0.1,0c0,0-0.1,0.1-0.3,0.2
		s-0.3,0.3-0.5,0.4c-0.2,0.2-0.4,0.3-0.6,0.4c-0.2,0.1-0.3,0.2-0.5,0.3c-0.4,0.3-0.9,0.5-1.4,0.7c-0.2,0-0.4,0.1-0.6,0.2l-0.4,0.1
		c-0.2,0-0.3,0-0.4,0c-0.1,0-0.2-0.1-0.2-0.2c-0.1,0-0.1-0.1-0.2-0.1c0,0-0.1,0-0.2,0c-0.1,0-0.2,0-0.2,0s-0.1,0-0.2,0l-0.2,0.1
		c-0.3,0.1-0.5,0.1-0.6,0c-0.2-0.1-0.2-0.2-0.3-0.4c-0.1-0.2-0.1-0.3-0.1-0.6c0-0.1,0.1-0.2,0.2-0.3c0.1-0.1,0.2-0.2,0.3-0.3
		c0.1,0,0.2-0.1,0.3-0.2c0.1-0.1,0.1-0.1,0-0.1c-0.1-0.1,0-0.2,0.2-0.2c0.1,0,0.2,0,0.2-0.1c0-0.1,0.1-0.2,0.1-0.4
		c0-0.2,0.1-0.4,0.2-0.7c0.1-0.3,0.2-0.5,0.3-0.7c0.1-0.3,0.2-0.7,0.4-1.1c0.1-0.4,0.3-0.9,0.5-1.5c0.2-0.8,0.5-1.8,0.8-2.9
		c0.3-1.1,0.6-2.4,1-3.9c0.1-0.2,0.2-0.6,0.3-1c0.1-0.4,0.2-0.9,0.3-1.3c0.1-0.4,0.2-0.8,0.2-1.1c0.1-0.3,0.1-0.5,0.1-0.5
		c-0.1,0-0.2,0.1-0.2,0c0,0-0.1,0-0.1,0s-0.1,0-0.1,0c-0.2,0-0.4,0-0.6,0.1c-0.2,0-0.4,0.1-0.7,0.3c-0.5,0.2-0.8,0.3-1,0.3
		c-0.2,0-0.3,0-0.5-0.2c-0.1,0-0.3,0-0.4,0c-0.1,0-0.3,0-0.4,0c-0.1,0-0.2,0-0.2-0.1c0-0.2,0-0.4,0.1-0.5c0.1-0.2,0.2-0.4,0.2-0.6
		c0,0,0.1-0.1,0.1,0c0,0,0.1,0.1,0.1,0.1c0,0,0,0.1,0.1,0.1c0,0,0,0,0,0c0-0.1,0.1-0.1,0.4-0.1c0.1-0.1,0.2-0.2,0.3-0.3
		c0.1-0.1,0.3-0.2,0.5-0.3c0.1-0.2,0.2-0.2,0.2-0.2s0.1,0.1,0.1,0.1c0,0.1,0.1,0.1,0.1,0.1c0,0,0.1,0,0.2-0.1l0.8-0.3
		c0.1,0,0.2-0.1,0.4-0.1c0.1,0,0.3-0.1,0.5-0.1c0.1,0,0.3,0,0.4-0.1c0.1,0,0.2-0.1,0.2-0.1c0,0,0.1-0.2,0.1-0.6
		c0-0.4,0.1-0.8,0.1-1.3c0.1-0.5,0.1-1,0.2-1.5c0.1-0.5,0.1-0.9,0.2-1.2c0-0.3,0.1-0.7,0.2-1.2c0.1-0.5,0.2-1.1,0.2-1.6
		c0-0.2,0-0.5,0.1-0.9c0.1-0.6,0.2-1.3,0.3-2c0.1-0.7,0.2-1.4,0.3-2.1c0.1-0.8,0.2-1.5,0.3-2c0.1-0.5,0.2-0.9,0.2-1.3
		c0.1-0.3,0.1-0.6,0.1-0.8c0-0.2,0.1-0.4,0.1-0.7l0.1-0.3l0-0.1c0-0.2,0-0.3,0.1-0.5c0.2-0.4,0.5-0.6,0.9-0.6c0.2,0,0.4-0.1,0.6-0.1
		c0.2,0,0.4,0,0.6,0.1c0.3,0.1,0.7,0.3,1,0.7c0.3,0.3,0.6,0.8,0.8,1.4c0.2,0.3,0.3,0.5,0.4,0.8c0.1,0.3,0.1,0.8,0.1,1.5
		c0,0.3,0,0.7,0,1.1c0,0.4,0,0.7-0.1,1c0,0.1,0,0.3,0,0.6c0,0.3,0,0.6-0.1,0.9c0,0.3-0.1,0.6-0.1,1c0,0.3-0.1,0.6-0.1,0.8
		c0,0.3-0.1,0.5-0.1,0.6c0,0.1,0,0.2,0.1,0.3c0,0,0.1-0.1,0.1-0.3l0.1-0.3l0.1,0.1c0,0.1,0.1,0.2,0.1,0.3c0,0.1,0,0.2,0,0.2
		c0,0.1,0.1,0.2,0.1,0.4c0,0.1,0,0.2,0,0.3c0,0.5-0.1,1.1-0.2,1.7s-0.2,1.4-0.5,2.3c0,0,0,0.1,0.1,0.1c0,0.1,0.1,0.1,0.1,0.2
		c0,0.1,0,0.2,0,0.4c-0.1,0.1-0.1,0.2-0.2,0.3s0,0.1-0.1,0.2c0,0,0,0,0,0.1c0,0.1,0,0.1,0,0.1c0,0.2-0.1,0.4-0.1,0.6
		c0,0.2-0.1,0.4-0.2,0.6c0,0.2-0.1,0.3-0.1,0.4c0,0.1,0,0.2,0,0.3l0.6,0h1c0.2,0,0.4,0,0.6,0s0.4,0,0.7,0l1,0c0.3,0,0.7-0.1,1.1-0.1
		c0.4,0,0.7,0,1,0c0.2,0,0.4,0,0.6,0c0.2,0,0.4,0,0.5,0c0.4,0,0.7,0,0.9-0.1c0.2,0,0.4-0.1,0.5-0.1c0-0.3,0.1-0.5,0.2-0.9
		s0.2-0.7,0.2-1.1c0.1-0.3,0.2-0.7,0.3-1.2c0.1-0.5,0.2-0.9,0.4-1.3c0.2-0.8,0.4-1.7,0.6-2.6s0.5-1.8,0.7-2.6
		c0.1-0.5,0.2-1.1,0.4-1.6c0.1-0.5,0.3-1,0.4-1.3c0.3-0.5,0.5-1,0.6-1.5c0.1-0.5,0.2-0.9,0.3-1.1c0.1-0.3,0.3-0.6,0.6-0.9
		c0.3-0.3,0.6-0.5,1-0.6c0.2,0,0.3-0.1,0.5,0c0.2,0,0.3,0.1,0.4,0.1c0.1,0.1,0.2,0.3,0.2,0.5c0,0.2,0,0.6-0.2,1
		c-0.1,0.5-0.2,0.7-0.1,0.8s0.1,0.2,0.1,0.2c0.1,0.1,0.1,0.2,0.1,0.2l0,0c0,0.1,0,0.2,0,0.3c-0.1,0-0.2,0.1-0.3,0.2
		c-0.1,0-0.1,0-0.1,0c0,0.1-0.1,0.3-0.2,0.6c-0.1,0.2-0.1,0.3-0.1,0.4v0.1c0,0.1-0.1,0.2-0.1,0.4s-0.1,0.3-0.2,0.5l-0.1,0.7l0,0.9
		c0,0.1,0.1,0.2,0.1,0.3s0,0.2-0.1,0.4c-0.1,0.3-0.2,0.6-0.3,0.8c-0.1,0.3-0.1,0.5-0.1,0.5l-0.1,0.8l0,0.7c0,0-0.1,0.2-0.1,0.3
		c0,0.2-0.1,0.4-0.1,0.6l-0.1,0.5c0,0.2,0,0.3-0.1,0.4c0,0.1,0,0.2,0,0.3c0,0.2,0,0.5,0,0.9c0,0.4-0.1,0.9-0.1,1.5l-0.1,1.4l0.7,0
		c0.2,0,0.4,0.1,0.7,0.1c0.2,0,0.4,0.1,0.6,0.2c0.1,0.1,0.2,0.1,0.4,0.1s0.3,0,0.3-0.1c0.2,0,0.3,0,0.3,0c0,0,0,0,0,0.1
		C249.6,117.2,249.6,117.2,249.6,117.3C249.6,117.3,249.6,117.3,249.6,117.3z M244.6,132.5c0,0,0-0.1,0-0.2V132.5z M249.6,117.4
		C249.6,117.4,249.6,117.3,249.6,117.4L249.6,117.4z"/>
	<path d="M264.9,105.4c0.1-0.2,0.3-0.3,0.6-0.3c0,0,0.1,0,0.1,0.1c0,0.1,0.1,0.1,0.1,0.1c0.2,0,0.5,0.1,0.7,0.2
		c0.3,0.1,0.5,0.3,0.8,0.5c0.3,0.2,0.5,0.5,0.7,0.7c0.1,0.1,0.2,0.2,0.3,0.4s0.2,0.3,0.2,0.4c0.2,0.3,0.4,0.7,0.6,1.1
		c0,0.3,0.1,0.6,0,0.8c0,0.3-0.1,0.6-0.1,1.1c0,0.3-0.1,0.4-0.1,0.5s-0.1,0.2-0.1,0.4c0,0.3-0.1,0.6-0.1,0.9c0,0.3-0.1,0.6-0.2,0.9
		c0,0.3,0.1,0.6,0.1,1c0,0.3,0.1,0.6,0.1,1l0.1,0.9c-0.1,0.5-0.2,1.1-0.3,1.6s-0.2,1.1-0.3,1.6c0,0.2-0.1,0.3-0.1,0.5
		c0,0.1,0,0.2,0,0.4c0.1,0,0.2,0,0.2,0c0,0,0,0,0.1,0s0,0,0.1,0c0,0,0.1,0,0.3-0.1l0.5-0.2l0.9-0.1c0.2,0,0.3,0.2,0.4,0.5
		c0.1,0.3,0.1,0.5,0.1,0.6c0,0.2-0.1,0.4-0.3,0.6c-0.2,0.1-0.6,0.3-1.1,0.4l-0.6,0.2l-0.5,0.6c-0.1,0.1-0.2,0.2-0.3,0.4
		c-0.1,0.2-0.2,0.5-0.2,0.9c-0.1,0.9-0.2,2.1-0.3,3.5c0,0.1,0,0.2,0,0.3s0,0.3-0.1,0.4c-0.1,0.3-0.1,0.6-0.2,0.8s0,0.5,0,0.8
		s0,0.5,0,0.7c0,0.2,0,0.4,0,0.7c0,0.1,0,0.3,0,0.5c0,0.1,0,0.3-0.1,0.4c0,0.2,0,0.3,0,0.5c0,0.3,0,0.5,0,0.7s0,0.5,0,0.7
		c0,0.1,0,0.2,0,0.3s0,0.2,0,0.3c0,0.4,0,0.8,0.1,1.1c0,0.3,0.1,0.6,0.1,0.9c0,0.1,0.1,0.2,0.1,0.4c0,0.2,0.1,0.3,0.1,0.5l0.1,0.6
		c0,0.3,0,0.6,0,0.9s0,0.5,0,0.7c0,0.2,0.1,0.4,0.2,0.6c0,0.2,0,0.3,0,0.4c0,0.3-0.1,0.6-0.1,0.9c0,0.2-0.1,0.5-0.1,0.8
		c0,0-0.1,0.1-0.3,0.1c-0.1,0-0.2,0.1-0.3,0.1c-0.1,0-0.2,0.1-0.2,0.1l-0.5,0.1c-0.1,0-0.3,0-0.4,0.1s-0.3,0-0.4,0
		c-0.4,0-0.7-0.1-1-0.3s-0.5-0.5-0.7-1.1c-0.1-0.1-0.2-0.2-0.3-0.4s-0.2-0.3-0.3-0.5l-0.5-0.8c-0.1-0.1-0.2-0.3-0.2-0.4
		c-0.1-0.1-0.1-0.2-0.2-0.3l-0.1-0.4c-0.1-0.3-0.1-0.5-0.2-0.7c0-0.2-0.1-0.5-0.1-0.7c0-0.3-0.1-0.6-0.1-1c0-0.3-0.1-0.6-0.1-1
		c0-0.2,0-0.4-0.1-0.6s0-0.4,0-0.6l-0.1-0.6c0-0.1-0.1-0.2-0.1-0.3c0-0.2,0-0.4,0.1-0.8c0.1-0.3,0.1-0.7,0.2-1c0-0.2,0-0.4,0.1-0.5
		s0-0.3,0-0.4c0-0.3,0-0.6,0.1-1c0-0.3,0-0.6,0.1-1c0.1-0.7,0.1-1.3,0.2-1.9c0.1-0.6,0.2-1,0.2-1.4c0.1-0.4,0.2-0.7,0.2-1
		c0.1-0.2,0.1-0.4,0.1-0.5c0,0-0.1-0.1-0.3-0.1c-0.1,0-0.2,0-0.3,0.1l-1.6,0.3l-1.3,0.3c-0.5,0-1,0-1.6,0.1c-0.6,0-1.1,0-1.6,0.1
		c-0.2,0.2-0.4,0.5-0.5,0.7c-0.2,0.2-0.3,0.5-0.5,0.7c-0.3,0.3-0.5,0.6-0.7,0.9c-0.2,0.3-0.4,0.6-0.6,0.9c-0.2,0.2-0.5,0.4-0.7,0.6
		s-0.4,0.4-0.5,0.5l-0.1,0.1c-0.3,0.3-0.6,0.7-0.9,1.1l-0.9,1.6l-0.1,0.1l-0.6,1c-0.1,0.2-0.2,0.3-0.3,0.5c-0.1,0.2-0.2,0.3-0.3,0.4
		c-0.2,0.2-0.3,0.5-0.5,0.7s-0.3,0.4-0.4,0.6l-0.3,0.6c-0.3,0.3-0.5,0.5-0.7,0.8c-0.1,0.1-0.2,0.2-0.3,0.3s-0.2,0.2-0.3,0.2h0l0,0
		c-0.4,0.3-0.7,0.4-0.8,0.4c-0.2,0-0.3-0.2-0.3-0.5c0,0,0,0,0-0.1c0-0.1,0-0.2,0.1-0.3c0-0.1,0.1-0.2,0.1-0.3c0,0,0,0,0,0
		c0,0,0,0,0,0c0,0,0-0.1,0-0.1c0,0,0-0.1,0.1-0.1l0.2-0.5l0.3-0.3c0.2-0.3,0.5-0.5,0.7-0.8c0.2-0.3,0.5-0.6,0.7-0.8l0.1-0.1l0.7-0.8
		l1-1.5c0.3-0.4,0.5-0.8,0.7-1.2c0.2-0.4,0.5-0.8,0.7-1.2l0.8-1.2c0.3-0.5,0.6-0.9,0.8-1.3c0.2-0.4,0.4-0.6,0.5-0.8
		c-0.2,0-0.3,0-0.5,0s-0.3,0-0.5,0c-0.4-0.1-0.7-0.3-0.7-0.5c-0.1-0.1-0.2-0.2-0.1-0.3c0-0.2,0.2-0.4,0.5-0.7
		c0.1-0.1,0.2-0.2,0.4-0.3s0.3-0.1,0.4-0.2c0.2,0,0.4,0,0.6,0c0.2,0,0.4-0.1,0.6-0.1c0.3,0,0.5,0,0.6-0.1c0.2,0,0.4-0.1,0.5-0.3
		c0.1-0.3,0.4-0.8,0.8-1.5c0.4-0.7,0.8-1.4,1.2-2.2c0.3-0.6,0.7-1.2,1-1.8c0.4-0.6,0.7-1.2,0.9-1.8l0.7-0.9c0.3-0.3,0.6-0.7,0.9-1
		c0.3-0.4,0.6-0.8,1-1.2c0.8-1.2,1.5-2.1,2.1-3c0.6-0.8,1.1-1.6,1.4-2.3c0-0.1,0.1-0.2,0.1-0.3c0-0.1,0.1-0.2,0.1-0.3L264.9,105.4z
		 M246.3,136.4L246.3,136.4L246.3,136.4L246.3,136.4z M264.5,109c0,0-0.1-0.1-0.1-0.1s-0.1-0.1-0.1-0.1c-0.2,0.3-0.3,0.5-0.6,0.8
		c-0.2,0.3-0.4,0.6-0.6,0.8c-0.1,0.1-0.2,0.3-0.3,0.5c-0.1,0.2-0.2,0.4-0.3,0.5c-0.1,0.1-0.2,0.3-0.4,0.4c-0.1,0.2-0.2,0.3-0.3,0.5
		l-0.4,0.8c-0.1,0.2-0.2,0.3-0.2,0.5c-0.1,0.2-0.2,0.3-0.2,0.5c-0.1,0.1-0.1,0.3-0.2,0.4c-0.1,0.1-0.2,0.3-0.3,0.4
		c-0.2,0.2-0.3,0.4-0.4,0.7c-0.1,0.4-0.3,0.7-0.6,1.1l-0.8,1.4c-0.3,0.6-0.6,1.1-0.9,1.8c-0.3,0.6-0.6,1.2-0.9,1.8
		c-0.2,0.4-0.3,0.7-0.3,0.9c0,0,0.1,0,0.2,0c0.1,0,0.1,0,0.3,0c0.3,0,0.6-0.1,1-0.2c0.4-0.1,0.7-0.2,0.9-0.2c0.1,0,0.2,0,0.2,0h0.4
		c0.3,0,0.5-0.1,0.7-0.1c0.2,0,0.4-0.1,0.6-0.1c0.2,0,0.3-0.1,0.5-0.1c0.1,0,0.3-0.1,0.5-0.1l0.8-0.2c0-0.2,0-0.4,0.1-0.6
		c0-0.2,0-0.4,0.1-0.7c0-0.2,0.1-0.4,0.1-0.6s0-0.3,0-0.2c0.1-0.5,0.2-1,0.3-1.6c0.1-0.6,0.2-1.1,0.3-1.7c0.1-0.6,0.2-1.1,0.3-1.6
		c0.1-0.5,0.2-1,0.3-1.5c0.1-0.3,0.1-0.6,0.2-0.9c0-0.3,0.1-0.5,0.1-0.7c0-0.4,0.1-0.8,0.1-1.1C264.5,109.6,264.5,109.3,264.5,109z"
		/>
	<path d="M291.7,133.3c-0.1,0.1-0.2,0.3-0.4,0.5c-0.2,0.2-0.3,0.4-0.3,0.4c-0.1,0-0.1,0.1-0.2,0.2c-0.1,0.1-0.2,0.2-0.2,0.4
		c-0.1,0.1-0.2,0.3-0.3,0.4c-0.1,0.1-0.2,0.2-0.4,0.3c-0.2,0.3-0.4,0.6-0.6,0.7c-0.2,0.1-0.3,0.2-0.4,0.2c-0.1,0-0.2,0-0.3,0
		c-0.1,0-0.2,0-0.3,0c-0.1,0-0.1,0-0.2,0l-0.4,0.1c-0.4,0-0.8-0.2-1.1-0.4c-0.3-0.2-0.7-0.6-1.1-1c-0.2-0.1-0.3-0.2-0.4-0.4
		c-0.1-0.1-0.2-0.3-0.3-0.4c-0.3-0.5-0.5-1-0.7-1.5c-0.1-0.6-0.2-1.3-0.2-2.2c0-0.2,0-0.4,0-0.6c0-0.1,0-0.3,0-0.5
		c0-0.2,0-0.4,0-0.7c0-0.3,0-0.7,0.1-1.2c0-0.7,0.1-1.3,0.2-1.9c0.1-0.6,0.1-1.2,0.2-1.6c0-0.4,0.1-0.8,0.1-1.1
		c0-0.3,0.2-0.8,0.4-1.4c0.1-0.4,0.2-0.7,0.2-0.9c0.1-0.2,0.1-0.5,0.2-0.7c0.1-0.2,0.1-0.5,0.2-0.7c0.1-0.3,0.2-0.6,0.2-1
		c0.1-0.5,0.2-0.9,0.3-1.2c0.1-0.3,0.2-0.7,0.3-1c0.1-0.3,0.2-0.7,0.3-1.2c0.1-0.5,0.3-1,0.4-1.8l0.3-1.1c0.2-0.6,0.3-1.1,0.5-1.6
		c0.1-0.5,0.2-0.9,0.3-1.3c0-0.2,0.1-0.5,0.2-0.9s0.2-0.9,0.3-1.3c0.1-0.5,0.2-0.9,0.3-1.4c0.1-0.5,0.1-0.8,0.1-1.1
		c0-0.3-0.1-0.4-0.2-0.4s-0.3-0.1-0.5-0.1c-0.4,0-0.9,0.1-1.3,0.2c-0.4,0.2-0.9,0.5-1.4,1c-0.2,0.2-0.3,0.4-0.4,0.4
		c-0.1,0-0.1,0.1-0.1,0.1s0,0.1,0.1,0.1c0,0,0.1,0,0.1,0.1c0,0.1-0.1,0.2-0.2,0.3c-0.1,0.1-0.3,0.2-0.6,0.3
		c-0.1,0.1-0.3,0.4-0.7,0.7c-0.4,0.4-0.7,0.8-0.9,1.3c-0.2,0.2-0.3,0.4-0.4,0.6c-0.1,0.2-0.2,0.4-0.3,0.7l-0.7,1.2v0.1
		c0,0-0.1,0-0.1,0.1c0,0,0,0-0.1,0.1c-0.3,0.4-0.5,0.9-0.7,1.6c-0.2,0.6-0.4,1.3-0.6,1.9c-0.2,0.6-0.3,1.2-0.4,1.6
		c-0.1,0.5-0.1,0.7-0.1,0.8c0,0,0,0.1-0.1,0.2c0,0.1-0.1,0.2-0.1,0.2c0,0.4-0.1,0.8-0.2,1.1c-0.1,0.3-0.2,0.6-0.2,0.9
		c0,0.1,0,0.3,0.1,0.6c0,0.3,0.1,0.5,0.1,0.5c0,0.4-0.1,0.8-0.1,1.4s-0.1,1-0.2,1.6s-0.2,1-0.2,1.5c-0.1,0.5-0.2,0.8-0.2,1.1
		c-0.1,0.3-0.2,0.7-0.3,1.1c-0.1,0.4-0.2,0.8-0.2,1.1c-0.1,0.4-0.2,0.7-0.2,1c-0.1,0.3-0.2,0.5-0.2,0.7c-0.1,0.1-0.2,0.3-0.2,0.5
		c0,0.2-0.1,0.3-0.2,0.4v-0.1c-0.1,0.1-0.1,0.2-0.2,0.3c0,0.1-0.1,0.1-0.1,0.2v0.1c0,0,0,0,0,0.1s0,0,0,0.1c0,0,0,0,0,0.1
		c0,0-0.1,0-0.2-0.1c-0.1-0.1-0.2-0.1-0.2-0.1c-0.1,0-0.2,0-0.3,0.1c-0.1,0-0.2,0.1-0.2,0.1c-0.1,0-0.3-0.1-0.6-0.2
		c-0.1-0.1-0.3-0.2-0.3-0.2c-0.1,0-0.2,0-0.2,0.1c-0.1,0-0.2,0.1-0.3,0.1c-0.5-0.1-0.8-0.4-1.1-0.8c-0.3-0.4-0.4-0.9-0.4-1.4
		c0-0.1,0-0.2,0-0.3c0,0-0.1-0.1-0.1-0.1c0,0-0.1-0.1-0.1-0.1c-0.1-0.3-0.2-0.6-0.2-1c0-0.4,0.1-1.1,0.2-1.9
		c0.1-0.8,0.3-1.9,0.5-3.2c0.2-1.4,0.3-2.5,0.5-3.3c0.1-0.8,0.2-1.6,0.3-2.2s0.1-1.2,0.2-1.7c0.1-0.5,0.1-1.1,0.2-1.9l0.4-5.1
		l0.1-2.5c0-0.9,0.1-1.6,0.1-2.1c0-0.6,0-1,0.1-1.3c0-0.3,0-0.5,0-0.7c0-0.1,0-0.2,0-0.3c0.2-0.2,0.3-0.4,0.4-0.6
		c0.1-0.2,0.3-0.3,0.6-0.3c0.2,0,0.5,0,0.7,0.1c0.2,0.1,0.4,0.2,0.6,0.4s0.5,0.4,0.8,0.6s0.5,0.5,0.8,0.8c0.2,0.3,0.4,0.6,0.6,0.8
		c0.3,0.6,0.5,1.2,0.7,2s0.2,1.6,0.2,2.5c0,0.4,0,0.8,0,1.2c0,0.4,0,0.9-0.2,1.5l-0.1,1.2c0-0.1,0.1-0.2,0.1-0.3s0.1-0.2,0.2-0.4
		c0-0.1,0.1-0.3,0.2-0.6s0.3-0.7,0.5-1.1c0.2-0.4,0.4-0.8,0.7-1.2c0.2-0.4,0.5-0.8,0.7-1c0.1-0.1,0.2-0.3,0.3-0.5
		c0.2-0.2,0.3-0.4,0.5-0.6c0.3-0.5,0.6-1,1.1-1.4c0.1,0,0.2-0.1,0.3-0.2c0.1-0.1,0.2-0.2,0.2-0.2c0.7-0.7,1.4-1.3,2-1.7
		c0.6-0.4,1-0.7,1.3-1l0.2-0.1c0.2-0.1,0.4-0.1,0.6-0.2c0.2,0,0.5-0.1,0.8-0.1l0.5,0.1h0.1c0.4,0,0.8,0.2,1.2,0.5
		c0.4,0.3,0.7,0.7,1.1,1.2c0.3,0.5,0.6,1,0.8,1.6c0.2,0.6,0.4,1.2,0.5,1.8c0.1,0.5,0.2,0.9,0.3,1.2c0.1,0.3,0.1,0.7,0.1,1.2
		c0,0.3,0,0.5,0,0.8c0,0.3,0,0.5-0.1,0.7c0,0.3-0.1,0.7-0.1,1.2c-0.1,0.5-0.1,1-0.2,1.6c-0.1,0.5-0.1,1.1-0.2,1.5
		c-0.1,0.5-0.1,0.8-0.1,1c0,0,0,0,0,0v0c0,0,0,0,0-0.1s0,0,0-0.1c0,0,0,0,0-0.1c0,0,0,0,0-0.1c0,0,0-0.1,0.1-0.1
		c0,0.3,0,0.8-0.1,1.3c0,0.5-0.1,1.1-0.2,1.6c0,0.1-0.1,0.3-0.1,0.4s0,0.3,0,0.4s0,0.3,0,0.4c0,0.1,0,0.2,0,0.3c0,0-0.1,0.2-0.2,0.6
		c-0.1,0.3-0.2,0.7-0.2,1.2c0,0.3,0,0.5-0.1,0.9c-0.1,0.3-0.1,0.6-0.2,0.9v0.1c0,0.2-0.1,0.2-0.2,0.2c-0.1,0-0.2,0-0.2,0.1
		c0,0-0.1,0.1-0.1,0.1c-0.1,0.1-0.1,0.2-0.2,0.2c0,0-0.1,0.1-0.1,0.1s0,0.1-0.1,0.2c0,0.1,0,0.2,0,0.4c0,0.3,0.1,0.5,0.1,0.6
		c0.1-0.1,0.1-0.1,0.2-0.1c0.1,0,0.1,0.1,0.1,0.2c0,0.2,0,0.4-0.1,0.7c-0.1,0.3-0.2,0.6-0.2,0.8c-0.1,0.3-0.2,0.6-0.4,1
		c0-0.1,0-0.1-0.1-0.1c0,0-0.1,0.1-0.1,0.2s0,0.4,0,0.6c0,0.3,0,0.5,0.1,0.5c0,0.1,0.1,0.2,0.1,0.5c0,0.3,0,0.7,0,1.2
		s-0.1,0.9-0.2,1.2l-0.1,0.4L291.7,133.3z"/>
</g>
<path class="st4" d="M72.3,157.3h243v32.3h-243L72.3,157.3z"/>
<g class="st5">
	<path class="st1" d="M75.4,165.3v5.1h-0.9v-12.7h3.3c1.5,0,2.6,0.3,3.4,1s1.1,1.6,1.1,2.8c0,0.6-0.1,1.1-0.3,1.5s-0.5,0.9-0.9,1.2
		s-0.9,0.6-1.4,0.8c-0.6,0.2-1.2,0.3-1.9,0.3L75.4,165.3z M75.4,164.5h2.4c0.6,0,1.1-0.1,1.5-0.2c0.4-0.2,0.8-0.4,1.1-0.6
		s0.5-0.6,0.7-1s0.2-0.8,0.2-1.2c0-1-0.3-1.7-0.9-2.3s-1.5-0.8-2.7-0.8h-2.4v6.1H75.4z"/>
	<path class="st1" d="M84.4,170.4v-13.1h0.9v5.7c0.4-0.5,0.9-0.9,1.4-1.2s1.1-0.5,1.8-0.5c0.5,0,0.9,0.1,1.3,0.2
		c0.4,0.2,0.7,0.4,0.9,0.7s0.4,0.6,0.6,1.1s0.2,0.9,0.2,1.4v5.7h-0.9v-5.7c0-0.8-0.2-1.5-0.6-2s-1-0.7-1.8-0.7
		c-0.6,0-1.1,0.2-1.6,0.5s-1,0.7-1.4,1.2v6.7L84.4,170.4z"/>
	<path class="st1" d="M97.6,161.3c0.6,0,1.2,0.1,1.7,0.3s0.9,0.5,1.3,0.9s0.6,0.9,0.8,1.5s0.3,1.2,0.3,1.9s-0.1,1.3-0.3,1.9
		s-0.4,1-0.8,1.4c-0.3,0.4-0.8,0.7-1.3,0.9s-1.1,0.3-1.7,0.3s-1.2-0.1-1.7-0.3s-0.9-0.5-1.3-0.9s-0.6-0.9-0.8-1.4
		c-0.2-0.6-0.3-1.2-0.3-1.9s0.1-1.3,0.3-1.9s0.4-1.1,0.8-1.5s0.8-0.7,1.3-0.9S96.9,161.3,97.6,161.3z M97.6,169.8
		c0.5,0,1-0.1,1.4-0.3s0.7-0.4,1-0.8c0.3-0.3,0.5-0.8,0.6-1.2c0.1-0.5,0.2-1,0.2-1.6s-0.1-1.1-0.2-1.6s-0.3-0.9-0.6-1.2
		s-0.6-0.6-1-0.8s-0.9-0.3-1.4-0.3s-1,0.1-1.4,0.3s-0.7,0.5-1,0.8s-0.5,0.8-0.6,1.2c-0.1,0.5-0.2,1-0.2,1.6s0.1,1.1,0.2,1.6
		s0.3,0.9,0.6,1.2s0.6,0.6,1,0.8S97,169.8,97.6,169.8z"/>
	<path class="st1" d="M106.3,170.5c-0.6,0-1.1-0.2-1.4-0.5s-0.5-0.9-0.5-1.6v-6.1h-1.3c-0.1,0-0.1,0-0.2-0.1s-0.1-0.1-0.1-0.2v-0.3
		l1.5-0.1l0.2-3.2c0-0.1,0-0.1,0.1-0.1s0.1-0.1,0.2-0.1h0.4v3.4h2.8v0.6h-2.8v6.1c0,0.2,0,0.5,0.1,0.6c0.1,0.2,0.1,0.3,0.3,0.4
		c0.1,0.1,0.2,0.2,0.4,0.3c0.1,0.1,0.3,0.1,0.5,0.1s0.4,0,0.6-0.1s0.3-0.1,0.4-0.2s0.2-0.1,0.3-0.2s0.1-0.1,0.2-0.1
		c0,0,0.1,0,0.1,0.1l0.2,0.4c-0.2,0.3-0.5,0.5-0.9,0.6C107.1,170.5,106.7,170.5,106.3,170.5L106.3,170.5z"/>
	<path class="st1" d="M113.7,161.3c0.6,0,1.2,0.1,1.7,0.3s0.9,0.5,1.3,0.9s0.6,0.9,0.8,1.5s0.3,1.2,0.3,1.9s-0.1,1.3-0.3,1.9
		s-0.4,1-0.8,1.4c-0.3,0.4-0.8,0.7-1.3,0.9s-1.1,0.3-1.7,0.3s-1.2-0.1-1.7-0.3s-0.9-0.5-1.3-0.9s-0.6-0.9-0.8-1.4
		c-0.2-0.6-0.3-1.2-0.3-1.9s0.1-1.3,0.3-1.9s0.4-1.1,0.8-1.5s0.8-0.7,1.3-0.9S113.1,161.3,113.7,161.3z M113.7,169.8
		c0.5,0,1-0.1,1.4-0.3s0.7-0.4,1-0.8c0.3-0.3,0.5-0.8,0.6-1.2c0.1-0.5,0.2-1,0.2-1.6s-0.1-1.1-0.2-1.6s-0.3-0.9-0.6-1.2
		s-0.6-0.6-1-0.8s-0.9-0.3-1.4-0.3s-1,0.1-1.4,0.3s-0.7,0.5-1,0.8s-0.5,0.8-0.6,1.2c-0.1,0.5-0.2,1-0.2,1.6s0.1,1.1,0.2,1.6
		s0.3,0.9,0.6,1.2s0.6,0.6,1,0.8S113.2,169.8,113.7,169.8z"/>
	<path class="st1" d="M123,161.3c0.4,0,0.8,0,1.1,0.1s0.6,0.2,0.9,0.4h2.3v0.3c0,0.1-0.1,0.2-0.3,0.2l-1.4,0.1
		c0.2,0.2,0.3,0.5,0.4,0.8s0.1,0.6,0.1,0.9c0,0.4-0.1,0.8-0.2,1.2c-0.2,0.4-0.4,0.7-0.7,0.9s-0.6,0.4-1,0.6s-0.8,0.2-1.3,0.2
		s-1-0.1-1.4-0.2c-0.3,0.1-0.4,0.3-0.6,0.5c-0.1,0.2-0.2,0.4-0.2,0.6c0,0.3,0.1,0.5,0.3,0.6s0.4,0.2,0.7,0.3s0.6,0.1,1,0.1
		s0.8,0,1.2,0.1c0.4,0,0.8,0.1,1.2,0.1s0.7,0.1,1,0.3c0.3,0.1,0.5,0.3,0.7,0.6c0.2,0.2,0.3,0.6,0.3,1s-0.1,0.7-0.3,1.1
		c-0.2,0.3-0.5,0.6-0.8,0.9s-0.8,0.5-1.3,0.6s-1.1,0.2-1.7,0.2s-1.2-0.1-1.7-0.2s-0.9-0.3-1.2-0.5s-0.6-0.5-0.7-0.8
		s-0.2-0.6-0.2-0.9c0-0.5,0.2-0.9,0.5-1.2s0.7-0.6,1.3-0.8c-0.3-0.1-0.5-0.2-0.7-0.4s-0.3-0.5-0.3-0.8c0-0.1,0-0.3,0.1-0.4
		s0.1-0.3,0.2-0.4s0.2-0.3,0.3-0.4s0.3-0.2,0.5-0.3c-0.4-0.2-0.8-0.6-1-1s-0.4-0.9-0.4-1.4c0-0.4,0.1-0.8,0.2-1.2
		c0.2-0.4,0.4-0.7,0.6-0.9s0.6-0.4,1-0.6C122.1,161.3,122.5,161.3,123,161.3L123,161.3z M126.3,171c0-0.3-0.1-0.5-0.2-0.7
		s-0.3-0.3-0.6-0.4c-0.2-0.1-0.5-0.2-0.9-0.2c-0.3,0-0.7-0.1-1-0.1c-0.4,0-0.7,0-1.1-0.1c-0.4,0-0.7-0.1-1-0.1
		c-0.2,0.1-0.4,0.2-0.6,0.3s-0.4,0.2-0.5,0.4c-0.1,0.1-0.2,0.3-0.3,0.5s-0.1,0.4-0.1,0.6c0,0.3,0.1,0.5,0.2,0.7s0.3,0.4,0.6,0.6
		s0.6,0.3,1,0.4s0.8,0.1,1.3,0.1s0.9-0.1,1.3-0.2s0.7-0.2,1-0.4s0.5-0.4,0.7-0.7S126.3,171.3,126.3,171L126.3,171z M123,166.4
		c0.4,0,0.7-0.1,1-0.2s0.6-0.3,0.8-0.5s0.4-0.4,0.5-0.7s0.2-0.6,0.2-0.9s-0.1-0.6-0.2-0.9s-0.3-0.5-0.5-0.7s-0.5-0.4-0.8-0.5
		s-0.6-0.2-1-0.2s-0.7,0.1-1,0.2s-0.6,0.3-0.8,0.5s-0.4,0.4-0.5,0.7s-0.2,0.6-0.2,0.9s0.1,0.6,0.2,0.9s0.3,0.5,0.5,0.7
		s0.5,0.4,0.8,0.5C122.3,166.4,122.6,166.4,123,166.4z"/>
	<path class="st1" d="M129.1,170.4v-9h0.5c0.1,0,0.2,0,0.2,0.1s0.1,0.1,0.1,0.2l0.1,1.9c0.3-0.7,0.7-1.3,1.2-1.7s1.1-0.6,1.8-0.6
		c0.3,0,0.5,0,0.7,0.1s0.4,0.1,0.6,0.2l-0.1,0.6c0,0.1-0.1,0.1-0.2,0.1c0,0-0.1,0-0.2,0s-0.1-0.1-0.2-0.1s-0.2-0.1-0.4-0.1
		c-0.1,0-0.3,0-0.5,0c-0.7,0-1.2,0.2-1.7,0.6s-0.8,1-1.1,1.8v5.8L129.1,170.4L129.1,170.4z"/>
	<path class="st1" d="M141.5,170.4c-0.2,0-0.3-0.1-0.3-0.3l-0.1-1.1c-0.2,0.2-0.5,0.5-0.7,0.6c-0.2,0.2-0.5,0.4-0.8,0.5
		s-0.5,0.2-0.9,0.3c-0.3,0.1-0.6,0.1-1,0.1c-0.3,0-0.6,0-0.9-0.1s-0.5-0.2-0.8-0.4c-0.2-0.2-0.4-0.4-0.5-0.7s-0.2-0.6-0.2-1
		s0.1-0.7,0.3-1.1c0.2-0.3,0.6-0.6,1-0.8c0.5-0.2,1.1-0.4,1.8-0.6c0.7-0.1,1.6-0.2,2.6-0.3v-0.9c0-0.8-0.2-1.5-0.5-1.9
		c-0.4-0.4-0.9-0.7-1.6-0.7c-0.4,0-0.8,0.1-1.1,0.2s-0.6,0.3-0.8,0.4s-0.4,0.3-0.5,0.4s-0.2,0.2-0.3,0.2s-0.2-0.1-0.3-0.2l-0.2-0.3
		c0.5-0.5,1-0.8,1.5-1.1c0.5-0.2,1.1-0.4,1.8-0.4c0.5,0,0.9,0.1,1.3,0.2c0.4,0.2,0.7,0.4,0.9,0.7s0.4,0.6,0.5,1s0.2,0.9,0.2,1.4v5.8
		h-0.4V170.4z M137.9,169.9c0.3,0,0.7,0,1-0.1s0.6-0.2,0.8-0.3s0.5-0.3,0.7-0.5s0.4-0.4,0.6-0.6v-2.3c-0.9,0-1.6,0.1-2.2,0.2
		s-1.1,0.2-1.5,0.4s-0.7,0.4-0.9,0.6s-0.3,0.5-0.3,0.9c0,0.3,0,0.6,0.1,0.8s0.2,0.4,0.4,0.5s0.4,0.2,0.6,0.3
		C137.5,169.9,137.7,169.9,137.9,169.9L137.9,169.9z"/>
	<path class="st1" d="M144.6,173.6v-12.1h0.5h0.2c0,0,0.1,0.1,0.1,0.2l0.1,1.4c0.4-0.5,0.9-1,1.4-1.3s1.1-0.5,1.8-0.5
		c1.1,0,2,0.4,2.6,1.1c0.6,0.8,0.9,1.9,0.9,3.4c0,0.7-0.1,1.3-0.3,1.8c-0.2,0.6-0.4,1.1-0.8,1.5s-0.7,0.7-1.2,1
		c-0.5,0.2-1,0.4-1.7,0.4c-0.6,0-1.1-0.1-1.6-0.3c-0.4-0.2-0.8-0.6-1.2-1v4.4L144.6,173.6z M148.3,162c-0.6,0-1.1,0.2-1.6,0.5
		s-0.9,0.7-1.3,1.3v4.7c0.3,0.5,0.7,0.9,1.1,1.1s0.9,0.3,1.4,0.3s1-0.1,1.4-0.3s0.7-0.5,1-0.8c0.3-0.4,0.5-0.8,0.6-1.3
		s0.2-1,0.2-1.6c0-1.3-0.2-2.3-0.7-2.9C150,162.3,149.3,162,148.3,162L148.3,162z"/>
	<path class="st1" d="M154.2,170.4v-13.1h0.9v5.7c0.4-0.5,0.9-0.9,1.4-1.2s1.1-0.5,1.8-0.5c0.5,0,0.9,0.1,1.3,0.2
		c0.4,0.2,0.7,0.4,0.9,0.7s0.4,0.6,0.6,1.1s0.2,0.9,0.2,1.4v5.7h-0.9v-5.7c0-0.8-0.2-1.5-0.6-2s-1-0.7-1.8-0.7
		c-0.6,0-1.1,0.2-1.6,0.5s-1,0.7-1.4,1.2v6.7L154.2,170.4z"/>
	<path class="st1" d="M165.7,173.3c0,0.1-0.1,0.2-0.1,0.2s-0.1,0.1-0.2,0.1h-0.6l1.6-3.5l-3.8-8.6h0.7c0.1,0,0.2,0,0.2,0.1
		c0.1,0,0.1,0.1,0.1,0.1l3,7c0,0.1,0.1,0.2,0.1,0.3s0.1,0.2,0.1,0.3c0-0.1,0.1-0.2,0.1-0.3s0.1-0.2,0.1-0.3l3-7
		c0-0.1,0.1-0.1,0.1-0.2c0.1,0,0.1-0.1,0.2-0.1h0.7L165.7,173.3z"/>
	<path class="st1" d="M170.9,169.6c0-0.2,0.1-0.4,0.2-0.5c0.1-0.2,0.3-0.2,0.6-0.2s0.5,0.1,0.6,0.3s0.2,0.4,0.2,0.7
		c0,0.2,0,0.5-0.1,0.8s-0.2,0.5-0.3,0.8s-0.3,0.5-0.4,0.7c-0.2,0.2-0.4,0.4-0.6,0.6l-0.1-0.1c0,0-0.1-0.1-0.1-0.2v-0.1
		c0,0,0-0.1,0.1-0.1c0.1-0.1,0.1-0.1,0.2-0.3s0.2-0.3,0.3-0.4c0.1-0.2,0.2-0.3,0.3-0.5s0.1-0.4,0.1-0.6h-0.1h-0.1
		c-0.2,0-0.4-0.1-0.5-0.2C171,170,170.9,169.9,170.9,169.6L170.9,169.6z"/>
	<path class="st1" d="M184.3,169.8c0.4,0,0.8,0,1.2-0.1s0.7-0.1,1-0.2s0.6-0.2,0.9-0.3s0.6-0.3,0.8-0.4v-3.4h-2.4
		c-0.1,0-0.1,0-0.2-0.1s-0.1-0.1-0.1-0.1v-0.5h3.5v4.5c-0.3,0.2-0.6,0.4-1,0.6c-0.3,0.2-0.7,0.3-1.1,0.4s-0.8,0.2-1.3,0.3
		c-0.4,0.1-0.9,0.1-1.5,0.1c-0.9,0-1.8-0.2-2.5-0.5c-0.8-0.3-1.4-0.7-2-1.3c-0.5-0.6-1-1.3-1.3-2.1s-0.4-1.7-0.4-2.7
		s0.1-1.9,0.4-2.7s0.7-1.5,1.3-2.1s1.2-1,2-1.3s1.7-0.5,2.7-0.5c0.5,0,0.9,0,1.3,0.1s0.8,0.2,1.1,0.3s0.7,0.3,1,0.5s0.6,0.4,0.9,0.7
		l-0.2,0.4c-0.1,0.1-0.1,0.1-0.2,0.1s-0.1,0-0.2,0s-0.2-0.1-0.4-0.3s-0.4-0.3-0.7-0.4s-0.7-0.3-1.1-0.4s-1-0.2-1.6-0.2
		c-0.8,0-1.6,0.1-2.2,0.4c-0.7,0.3-1.2,0.6-1.7,1.1s-0.8,1.1-1.1,1.8s-0.4,1.5-0.4,2.4s0.1,1.7,0.4,2.4s0.6,1.3,1.1,1.8
		s1,0.9,1.7,1.1C182.8,169.7,183.5,169.8,184.3,169.8L184.3,169.8z"/>
	<path class="st1" d="M191.9,170.4v-9h0.5c0.1,0,0.2,0,0.2,0.1s0.1,0.1,0.1,0.2l0.1,1.9c0.3-0.7,0.7-1.3,1.2-1.7s1.1-0.6,1.8-0.6
		c0.3,0,0.5,0,0.7,0.1s0.4,0.1,0.6,0.2l-0.1,0.6c0,0.1-0.1,0.1-0.2,0.1c0,0-0.1,0-0.2,0s-0.1-0.1-0.2-0.1s-0.2-0.1-0.4-0.1
		c-0.1,0-0.3,0-0.5,0c-0.7,0-1.2,0.2-1.7,0.6s-0.8,1-1.1,1.8v5.8L191.9,170.4L191.9,170.4z"/>
	<path class="st1" d="M204.3,170.4c-0.2,0-0.3-0.1-0.3-0.3l-0.1-1.1c-0.2,0.2-0.5,0.5-0.7,0.6c-0.2,0.2-0.5,0.4-0.8,0.5
		s-0.5,0.2-0.9,0.3c-0.3,0.1-0.6,0.1-1,0.1c-0.3,0-0.6,0-0.9-0.1s-0.5-0.2-0.8-0.4c-0.2-0.2-0.4-0.4-0.5-0.7s-0.2-0.6-0.2-1
		s0.1-0.7,0.3-1.1c0.2-0.3,0.6-0.6,1-0.8c0.5-0.2,1.1-0.4,1.8-0.6c0.7-0.1,1.6-0.2,2.6-0.3v-0.9c0-0.8-0.2-1.5-0.5-1.9
		c-0.4-0.4-0.9-0.7-1.6-0.7c-0.4,0-0.8,0.1-1.1,0.2s-0.6,0.3-0.8,0.4s-0.4,0.3-0.5,0.4s-0.2,0.2-0.3,0.2s-0.2-0.1-0.3-0.2l-0.2-0.3
		c0.5-0.5,1-0.8,1.5-1.1c0.5-0.2,1.1-0.4,1.8-0.4c0.5,0,0.9,0.1,1.3,0.2c0.4,0.2,0.7,0.4,0.9,0.7s0.4,0.6,0.5,1s0.2,0.9,0.2,1.4v5.8
		h-0.4V170.4z M200.7,169.9c0.3,0,0.7,0,1-0.1s0.6-0.2,0.8-0.3s0.5-0.3,0.7-0.5l0.6-0.6v-2.3c-0.9,0-1.6,0.1-2.2,0.2
		s-1.1,0.2-1.5,0.4s-0.7,0.4-0.9,0.6s-0.3,0.5-0.3,0.9c0,0.3,0,0.6,0.1,0.8s0.2,0.4,0.4,0.5l0.6,0.3
		C200.2,169.9,200.4,169.9,200.7,169.9L200.7,169.9z"/>
	<path class="st1" d="M207.3,173.6v-12.1h0.5h0.2c0,0,0.1,0.1,0.1,0.2l0.1,1.4c0.4-0.5,0.9-1,1.4-1.3s1.1-0.5,1.8-0.5
		c1.1,0,2,0.4,2.6,1.1s0.9,1.9,0.9,3.4c0,0.7-0.1,1.3-0.3,1.8c-0.2,0.6-0.4,1.1-0.8,1.5s-0.7,0.7-1.2,1c-0.5,0.2-1,0.4-1.7,0.4
		c-0.6,0-1.1-0.1-1.6-0.3c-0.4-0.2-0.8-0.6-1.2-1v4.4L207.3,173.6z M211.1,162c-0.6,0-1.1,0.2-1.6,0.5s-0.9,0.7-1.3,1.3v4.7
		c0.3,0.5,0.7,0.9,1.1,1.1s0.9,0.3,1.4,0.3s1-0.1,1.4-0.3s0.7-0.5,1-0.8c0.3-0.4,0.5-0.8,0.6-1.3s0.2-1,0.2-1.6
		c0-1.3-0.2-2.3-0.7-2.9C212.7,162.3,212,162,211.1,162L211.1,162z"/>
	<path class="st1" d="M217,170.4v-13.1h0.9v5.7c0.4-0.5,0.9-0.9,1.4-1.2s1.1-0.5,1.8-0.5c0.5,0,0.9,0.1,1.3,0.2
		c0.4,0.2,0.7,0.4,0.9,0.7s0.4,0.6,0.6,1.1c0.1,0.4,0.2,0.9,0.2,1.4v5.7h-0.9v-5.7c0-0.8-0.2-1.5-0.6-2s-1-0.7-1.8-0.7
		c-0.6,0-1.1,0.2-1.6,0.5s-1,0.7-1.3,1.2v6.7L217,170.4z"/>
	<path class="st1" d="M228.2,158.3c0,0.1,0,0.2-0.1,0.3c0,0.1-0.1,0.2-0.2,0.2s-0.2,0.1-0.3,0.2c-0.1,0-0.2,0.1-0.3,0.1
		s-0.2,0-0.3-0.1s-0.2-0.1-0.3-0.2s-0.1-0.2-0.2-0.2s-0.1-0.2-0.1-0.3s0-0.2,0.1-0.3s0.1-0.2,0.2-0.3s0.2-0.1,0.3-0.2
		s0.2-0.1,0.3-0.1s0.2,0,0.3,0.1c0.1,0,0.2,0.1,0.3,0.2s0.1,0.2,0.2,0.3S228.2,158.2,228.2,158.3z M227.8,161.4v9h-0.9v-9H227.8z"/>
	<path class="st1" d="M236.9,162.6C236.8,162.7,236.8,162.7,236.9,162.6c-0.1,0.1-0.1,0.1-0.2,0.1s-0.1,0-0.2-0.1s-0.2-0.2-0.4-0.3
		s-0.4-0.2-0.7-0.3s-0.6-0.1-1-0.1c-0.5,0-1,0.1-1.4,0.3s-0.7,0.4-1,0.8c-0.3,0.3-0.5,0.8-0.6,1.2c-0.1,0.5-0.2,1-0.2,1.6
		s0.1,1.2,0.2,1.7s0.4,0.9,0.6,1.2c0.3,0.3,0.6,0.6,1,0.8s0.8,0.3,1.3,0.3c0.4,0,0.8-0.1,1.1-0.2s0.5-0.2,0.7-0.3s0.3-0.2,0.5-0.3
		s0.2-0.2,0.3-0.2s0.1,0,0.2,0.1l0.2,0.3c-0.1,0.2-0.3,0.3-0.5,0.5s-0.4,0.3-0.7,0.4s-0.5,0.2-0.9,0.3c-0.3,0.1-0.6,0.1-1,0.1
		c-0.6,0-1.1-0.1-1.6-0.3s-0.9-0.5-1.2-0.9s-0.6-0.9-0.8-1.4c-0.2-0.6-0.3-1.2-0.3-1.9s0.1-1.3,0.3-1.9s0.4-1.1,0.8-1.5
		c0.3-0.4,0.8-0.7,1.3-1c0.5-0.2,1.1-0.3,1.7-0.3s1.1,0.1,1.6,0.3s0.8,0.4,1.2,0.8L236.9,162.6z"/>
	<path class="st1" d="M253.8,164c0,1-0.1,1.9-0.4,2.7s-0.7,1.5-1.2,2s-1.2,1-1.9,1.3s-1.6,0.4-2.5,0.4h-4.6v-12.7h4.6
		c0.9,0,1.7,0.1,2.5,0.4s1.4,0.7,1.9,1.3s0.9,1.2,1.2,2S253.8,163,253.8,164z M252.8,164c0-0.9-0.1-1.7-0.4-2.4s-0.6-1.3-1-1.8
		s-1-0.8-1.6-1.1s-1.3-0.4-2.1-0.4H244v11.2h3.7c0.8,0,1.5-0.1,2.1-0.4s1.2-0.6,1.6-1.1s0.8-1.1,1-1.8
		C252.7,165.7,252.8,164.9,252.8,164z"/>
	<path class="st1" d="M259.7,161.3c0.5,0,1,0.1,1.4,0.3s0.8,0.4,1.1,0.8c0.3,0.3,0.6,0.7,0.7,1.2c0.2,0.5,0.3,1,0.3,1.7
		c0,0.1,0,0.2-0.1,0.3c0,0-0.1,0.1-0.2,0.1h-6.5v0.2c0,0.7,0.1,1.3,0.2,1.8s0.4,0.9,0.7,1.3s0.6,0.6,1,0.8s0.9,0.3,1.4,0.3
		s0.8,0,1.2-0.1c0.3-0.1,0.6-0.2,0.8-0.3s0.4-0.2,0.5-0.3s0.2-0.1,0.3-0.1s0.1,0,0.2,0.1l0.2,0.3c-0.1,0.2-0.3,0.3-0.6,0.5
		c-0.2,0.2-0.5,0.3-0.8,0.4s-0.6,0.2-0.9,0.3s-0.7,0.1-1,0.1c-0.6,0-1.2-0.1-1.7-0.3s-0.9-0.5-1.3-0.9s-0.6-0.9-0.8-1.5
		s-0.3-1.3-0.3-2c0-0.6,0.1-1.2,0.3-1.8s0.4-1,0.8-1.4c0.3-0.4,0.8-0.7,1.3-0.9C258.5,161.4,259,161.3,259.7,161.3L259.7,161.3z
		 M259.7,161.9c-0.5,0-0.9,0.1-1.2,0.2c-0.4,0.1-0.7,0.4-0.9,0.6c-0.3,0.3-0.5,0.6-0.6,1s-0.3,0.8-0.3,1.3h5.9
		c0-0.5-0.1-0.9-0.2-1.3s-0.3-0.7-0.6-1c-0.2-0.3-0.5-0.5-0.9-0.6S260.1,161.9,259.7,161.9L259.7,161.9z"/>
	<path class="st1" d="M270.4,162.5c0,0.1-0.1,0.1-0.2,0.1s-0.2,0-0.3-0.1s-0.2-0.2-0.4-0.3s-0.4-0.2-0.6-0.3s-0.6-0.1-0.9-0.1
		s-0.6,0-0.9,0.1s-0.5,0.2-0.7,0.4s-0.3,0.3-0.4,0.5s-0.2,0.4-0.2,0.7s0.1,0.5,0.2,0.7s0.3,0.3,0.6,0.5c0.2,0.1,0.5,0.2,0.8,0.3
		s0.6,0.2,0.9,0.3s0.6,0.2,0.9,0.3s0.6,0.3,0.8,0.4c0.2,0.2,0.4,0.4,0.6,0.6c0.1,0.3,0.2,0.6,0.2,0.9c0,0.4-0.1,0.8-0.2,1.1
		s-0.3,0.6-0.6,0.9c-0.3,0.2-0.6,0.4-1,0.6c-0.4,0.1-0.8,0.2-1.3,0.2c-0.6,0-1.2-0.1-1.6-0.3c-0.5-0.2-0.9-0.5-1.2-0.8l0.2-0.3
		l0.1-0.1h0.2c0.1,0,0.2,0,0.3,0.1s0.3,0.2,0.4,0.3c0.2,0.1,0.4,0.2,0.7,0.3s0.6,0.1,1,0.1s0.7-0.1,1-0.2s0.5-0.2,0.7-0.4
		s0.3-0.4,0.4-0.6s0.1-0.5,0.1-0.8s-0.1-0.5-0.2-0.7s-0.3-0.4-0.6-0.5c-0.2-0.1-0.5-0.3-0.8-0.4s-0.6-0.2-0.9-0.3s-0.6-0.2-0.9-0.3
		s-0.6-0.3-0.8-0.4c-0.2-0.2-0.4-0.4-0.6-0.6c-0.1-0.2-0.2-0.6-0.2-0.9s0.1-0.6,0.2-0.9s0.3-0.6,0.6-0.8s0.6-0.4,0.9-0.5
		c0.4-0.1,0.8-0.2,1.2-0.2c0.5,0,1,0.1,1.5,0.2c0.4,0.2,0.8,0.4,1.2,0.7L270.4,162.5z"/>
	<path class="st1" d="M274.7,158.3c0,0.1,0,0.2-0.1,0.3c0,0.1-0.1,0.2-0.2,0.2s-0.2,0.1-0.3,0.2c-0.1,0-0.2,0.1-0.3,0.1
		s-0.2,0-0.3-0.1s-0.2-0.1-0.3-0.2s-0.1-0.2-0.2-0.2s-0.1-0.2-0.1-0.3s0-0.2,0.1-0.3s0.1-0.2,0.2-0.3s0.2-0.1,0.3-0.2
		s0.2-0.1,0.3-0.1s0.2,0,0.3,0.1c0.1,0,0.2,0.1,0.3,0.2s0.1,0.2,0.2,0.3S274.7,158.2,274.7,158.3z M274.4,161.4v9h-0.9v-9H274.4z"/>
	<path class="st1" d="M280.5,161.3c0.4,0,0.8,0,1.1,0.1s0.6,0.2,0.9,0.4h2.3v0.3c0,0.1-0.1,0.2-0.3,0.2l-1.4,0.1
		c0.2,0.2,0.3,0.5,0.4,0.8s0.1,0.6,0.1,0.9c0,0.4-0.1,0.8-0.2,1.2c-0.2,0.4-0.4,0.7-0.7,0.9s-0.6,0.4-1,0.6
		c-0.4,0.1-0.8,0.2-1.3,0.2s-1-0.1-1.4-0.2c-0.3,0.1-0.5,0.3-0.6,0.5s-0.2,0.4-0.2,0.6c0,0.3,0.1,0.5,0.3,0.6s0.4,0.2,0.7,0.3
		s0.6,0.1,1,0.1s0.8,0,1.2,0.1c0.4,0,0.8,0.1,1.2,0.1s0.7,0.1,1,0.3c0.3,0.1,0.5,0.3,0.7,0.6s0.3,0.6,0.3,1s-0.1,0.7-0.3,1.1
		c-0.2,0.3-0.5,0.6-0.8,0.9s-0.8,0.5-1.3,0.6s-1.1,0.2-1.7,0.2s-1.2-0.1-1.7-0.2s-0.9-0.3-1.2-0.5s-0.6-0.5-0.7-0.8
		s-0.2-0.6-0.2-0.9c0-0.5,0.2-0.9,0.5-1.2s0.7-0.6,1.3-0.8c-0.3-0.1-0.5-0.2-0.7-0.4s-0.3-0.5-0.3-0.8c0-0.1,0-0.3,0.1-0.4
		c0-0.1,0.1-0.3,0.2-0.4s0.2-0.3,0.3-0.4s0.3-0.2,0.5-0.3c-0.4-0.2-0.8-0.6-1-1s-0.4-0.9-0.4-1.4c0-0.4,0.1-0.8,0.2-1.2
		c0.2-0.4,0.4-0.7,0.6-0.9c0.3-0.3,0.6-0.4,1-0.6C279.6,161.3,280,161.3,280.5,161.3L280.5,161.3z M283.8,171c0-0.3-0.1-0.5-0.2-0.7
		s-0.3-0.3-0.6-0.4c-0.2-0.1-0.5-0.2-0.9-0.2s-0.7-0.1-1-0.1c-0.4,0-0.7,0-1.1-0.1c-0.4,0-0.7-0.1-1-0.1c-0.2,0.1-0.4,0.2-0.6,0.3
		s-0.4,0.2-0.5,0.4c-0.1,0.1-0.2,0.3-0.3,0.5s-0.1,0.4-0.1,0.6c0,0.3,0.1,0.5,0.2,0.7s0.3,0.4,0.6,0.6s0.6,0.3,1,0.4
		s0.8,0.1,1.3,0.1s0.9-0.1,1.3-0.2s0.7-0.2,1-0.4s0.5-0.4,0.7-0.7S283.8,171.3,283.8,171L283.8,171z M280.5,166.4
		c0.4,0,0.7-0.1,1-0.2s0.6-0.3,0.8-0.5s0.4-0.4,0.5-0.7s0.2-0.6,0.2-0.9s-0.1-0.6-0.2-0.9s-0.3-0.5-0.5-0.7s-0.5-0.4-0.8-0.5
		s-0.6-0.2-1-0.2s-0.7,0.1-1,0.2s-0.6,0.3-0.8,0.5s-0.4,0.4-0.5,0.7s-0.2,0.6-0.2,0.9s0.1,0.6,0.2,0.9s0.3,0.5,0.5,0.7
		s0.5,0.4,0.8,0.5C279.8,166.4,280.1,166.4,280.5,166.4z"/>
	<path class="st1" d="M286.6,170.4v-9h0.5c0.2,0,0.2,0.1,0.3,0.2l0.1,1.4c0.4-0.5,0.9-0.9,1.4-1.2s1.1-0.5,1.8-0.5
		c0.5,0,0.9,0.1,1.3,0.2c0.4,0.2,0.7,0.4,0.9,0.7s0.4,0.6,0.6,1.1s0.2,0.9,0.2,1.4v5.7h-0.9v-5.7c0-0.8-0.2-1.5-0.6-2
		s-1-0.7-1.8-0.7c-0.6,0-1.1,0.2-1.6,0.5s-1,0.7-1.3,1.2v6.7L286.6,170.4z"/>
</g>
</svg>
