<?xml version="1.0" encoding="utf-8"?>
<!-- Generator: Adobe Illustrator 22.1.0, SVG Export Plug-In . SVG Version: 6.00 Build 0)  -->
<svg version="1.1" id="Layer_1" xmlns="http://www.w3.org/2000/svg" xmlns:xlink="http://www.w3.org/1999/xlink" x="0px" y="0px"
	 viewBox="0 0 294 55" style="enable-background:new 0 0 294 55;" xml:space="preserve">
<style type="text/css">
	.st0{fill:#FFFFFF;}
	.st1{fill:#3A3A3A;}
</style>
<path class="st0" d="M257.8,24.4c6.5,0.7,13-0.5,20.3,0.5c-2.7,1.3-4.7,0.5-6.6,0.8c-1.8,0.3-3.9-0.6-5.5,1.2c0.9,0.9,2,1.2,3.1,1.3
	c2.7,0.2,5.3,1.5,8,1.5c0.3,0,0.3,0.5-0.1,0.8c-0.3,0.3-1.4,0.4,0,0.9c2.3,0.8,2.6,1.9,0.9,3.3c-1.3,1-1.8,2.3-2.4,3.5
	c-0.8,1.5-1.9,2-3.5,2c-4.2-0.1-8.4,0-12.7,0c-16.5,0-33.1-0.1-49.6,0.1c-6,0-12,0.9-18,0.7c-5.7-0.3-11.3-0.3-17-0.5
	c-9.4-0.4-18.8-0.5-28.2,0.4c-8.4,0.8-16.8,1.3-25.2,1.4c-6.5,0-12.9-1.1-19.4-1.2c-6.7-0.1-13.3-0.2-19.9,0.9
	c-2.1,0.3-4.2,0.2-6.3,0.2c-15.2,0-30.5-0.1-45.7,0.1c-3.4,0-6.8,0.2-10.1-0.1c-0.8-0.1-1.6-0.2-2.4-0.5c-1.3-0.5-1.8-2.3-3.6-2.2
	c-1.4,0.1-2.9,0-5.1,0c3.2-2.5,6.5-2.2,9.4-3.3c-1.1-1.7-2.8-1.5-4.3-1.7c-1.4-0.2-3.9,1.1-4-1.3c-0.1-1.7,2.3-1.2,3.7-1.4
	c0.9-0.2,1.5-0.6,1.8-1.5c0.5-1.8,1.3-3.3,3.5-3.5c1.8-2.5,4.5-2,7.1-2c1.5,0,3.1-0.1,5.2-0.2c-1.8-1.6-3.4-1.6-5-1.6
	c-1.8,0-3.6-0.1-5.3-0.3c-1.6-0.2-3.1-0.7-4.1-2.3c-0.5-0.8-1.4-1.2-2.2-1.9c-0.5-0.4-1.2-0.7-1.1-1.5c0.1-1,0.9-0.6,1.5-0.7
	c0.5-0.1,1,0.1,1.4-0.1c0.4-0.2,0.8-0.5,1-0.9c0.5-0.9-0.3-1-0.9-1.3c-0.4-0.2-0.9-0.4-1.3-0.7c-0.6-0.4-0.8-1.1-0.6-1.7
	c0.2-0.6,0.7-1.1,1.4-1.2c2.6-0.1,5.2-0.4,7.8,0.1c2.6,0.5,5.1,0.6,7.7,0.7c1.8,0.1,3.5,0.3,5.2-0.7c0.6-0.3,1.6-0.3,2.4-0.2
	c3.9,0.4,7.8-0.1,11.6,0.7c1.2,0.3,2.6,0.1,3.8-0.2c1.6-0.3,3.2-0.6,4.8-0.4c4.8,0.5,9.7-0.2,14.5-0.1c4.9,0.1,9.7,0.2,14.6-0.1
	c4.8-0.2,9.6-0.4,14.5-0.1c8.2,0.5,16.5,0.2,24.8,0c5.2-0.2,10.3-0.9,15.5-0.7c0.6,0,1.4,0,1.9-0.2c3.5-1.5,7-0.8,10.5-0.3
	c1,0.1,1.9,0.3,2.9,0.3c9.9,0,19.8,0,29.7,0c3.9,0,7.7-1,11.6-0.8c4,0.1,8,1.2,12,1c1.3-0.1,2.6,0.2,3.9,0.2
	c11.5-0.1,23,0.1,34.5-0.5c6.5-0.4,13-0.1,19.4-1.1c2.1-0.3,3.9,0.2,5.4,1.5c0.3,0.3,0.5,0.9,0.4,1.3c-0.1,0.4-0.5,0.9-0.8,1
	c-0.7,0.2-1.6,0.3-2.4,0.4c-3,0.4-6.1,0.7-9.3,1.1c0.7,1.2,1.7,0.8,2.5,0.9c1.3,0.1,2.2,0.5,2.2,2c0,1.2,0.9,1.7,1.9,1.7
	c1.3,0,2.6-0.3,3.9-0.4c2.6-0.2,3.4,0.8,3.3,3.5c-0.1,1.9-0.8,2.5-2.4,1.9c-3.2-1.2-6.4-0.8-9.6-0.7c-1.3,0-2.5,0-3.5,1.2
	C260.5,24.2,258.8,23.3,257.8,24.4z M38.8,36.7c-2.6,0-5.3,0-8,0c-0.2,0-0.5,0.4-0.5,0.6c0,0.2,0.3,0.6,0.5,0.6
	C33.6,38.3,36.5,38.5,38.8,36.7z"/>
<g>
	<path class="st1" d="M92.9,39.9c-0.3-0.3-0.6-0.8-1-1.5c-0.4-0.7-0.7-1.6-0.9-2.8l0-0.2c-0.1-0.2-0.1-0.4,0-0.7
		c0-0.2,0.1-0.5,0.1-0.7c0.2-1.3,0.3-2.7,0.3-4.2c0-1.5,0.1-3.1,0.3-4.8c0-0.3,0-0.5,0-0.8s0-0.5,0-0.8c0-0.5,0-1.1,0.1-1.7l0-2.2
		c-0.1-0.6,0-1.1,0-1.5c0.1-0.5,0.1-0.9,0.2-1.4c0-0.4,0-0.8,0-1.2c0.1-0.4,0.1-0.8,0.2-1.3c0.1-0.4,0.2-0.8,0.2-1.2
		s0.1-0.8,0.1-1.2c0-0.4,0.2-0.8,0.4-1.2c0.2-0.4,0.5-0.7,0.8-1c0.3-0.3,0.7-0.5,1-0.7c0.4-0.2,0.7-0.3,1-0.3c0.2,0,0.4,0,0.6,0.1
		c0.2,0.1,0.3,0.1,0.5,0.2c0.1,0,0.2,0,0.3,0c0.1,0,0.2,0,0.3,0s0.2,0,0.3,0c0.1,0,0.2,0.1,0.2,0.2l-0.4,4.6c0,0.5,0.1,0.6,0.2,0.4
		c0.2-0.3,0.5-0.7,0.8-1.3c0.3-0.6,0.8-1.2,1.2-1.9s1-1.3,1.5-1.7c0-0.3,0.3-0.7,0.7-1s0.9-0.6,1.5-0.7c0.5-0.2,1-0.3,1.5-0.3
		c0.4,0,0.7,0.1,0.7,0.4c1.7,0.5,3.2,1.2,4.4,2.1c1.3,1,2.1,2.4,2.6,4.3c0.1,0.3,0.1,0.7,0.1,1c0,0.3,0.1,0.7,0.1,1
		c0.1,0,0.1,0,0.2,0c0,0,0,0,0,0c0,0,0,0,0,0c0.1,0.5,0.1,0.9,0,1.3s-0.1,0.8-0.2,1.2l-0.6,1.7c-0.2,0.3-0.3,0.7-0.4,1
		c-0.1,0.3-0.3,0.6-0.6,0.8l-0.5,0.4c-0.4,0.3-0.7,0.5-1.1,0.8c-0.3,0.3-0.7,0.5-1,0.8c-0.3,0.2-0.5,0.4-0.7,0.6
		c-0.2,0.1-0.3,0.2-0.4,0.3c-0.3,0.2-0.9,0.4-1.7,0.7c-0.8,0.3-1.8,0.7-2.8,1c-1,0.3-2,0.6-2.9,0.8c-0.9,0.2-1.6,0.4-2.1,0.4
		c-0.2,0-0.4,0-0.5-0.1c-0.2,0-0.3-0.1-0.3-0.1c0,0.1,0,0.1,0,0.2c0.1,0.7,0.1,1.3-0.1,2c-0.2,0.7-0.5,1.4-0.8,2.3
		c-0.1,0.3-0.2,0.6-0.2,1c0,0.3-0.1,0.7-0.3,1c-0.2,0.4-0.4,0.8-0.4,1.2c-0.1,0.4-0.2,0.8-0.2,1.2c-0.1,0.4-0.2,0.7-0.3,1
		s-0.3,0.5-0.7,0.6c-0.2,0.5-0.4,0.9-0.4,1.2c-0.3,0.1-0.5,0.2-0.7,0.5C93.3,39.8,93.1,39.9,92.9,39.9L92.9,39.9z M98.2,23.6
		c0.2,0.5,0.4,1,0.8,1.4c0.3,0,0.8-0.1,1.3-0.3c0.5-0.2,1.1-0.4,1.6-0.6c0.6-0.2,1.1-0.5,1.6-0.8c0.5-0.3,1-0.6,1.4-0.9
		c0.3-0.3,0.6-0.5,0.7-0.8c0.1-0.3,0.3-0.6,0.6-0.8c0.1-0.1,0.2-0.2,0.3-0.4c0.1-0.2,0.2-0.3,0.2-0.5c0.1-0.2,0.1-0.4,0.2-0.6
		c0.1-0.2,0.1-0.3,0.2-0.4c0.2-0.8,0.3-1.5,0.4-2.2s0.2-1.4,0.2-2.1c0-0.5,0-1.1-0.1-1.6c-0.1-0.5-0.2-0.9-0.3-1.2
		c-0.1-0.3-0.2-0.5-0.4-0.7s-0.3-0.4-0.5-0.6c-0.2-0.2-0.4-0.5-0.7-0.8l-0.6-0.6c-0.2-0.1-0.3-0.2-0.5-0.3c-0.1-0.1-0.3-0.1-0.5-0.2
		c-0.5,0.5-1,0.9-1.4,1.4s-0.9,0.9-1.3,1.4c-0.4,0.5-0.8,1-1.1,1.6c-0.3,0.6-0.7,1.2-0.9,2l-0.3,0.8c-0.1,0.2-0.1,0.4-0.1,0.5
		c0,0.2,0,0.3,0,0.5v0.1c-0.2,0.8-0.4,1.5-0.5,2.2c-0.1,0.7-0.2,1.3-0.2,1.8c0,0.6,0,1.1,0,1.5C98.2,22.8,98.2,23.2,98.2,23.6z"/>
	<path class="st1" d="M120.6,35.8c-0.3,0-0.5-0.1-0.8-0.2c-0.1,0.1-0.1,0.2-0.2,0.2s-0.1,0.1-0.2,0.2c-0.1,0.1-0.2,0.2-0.3,0.3
		s-0.2,0.3-0.3,0.6c-0.2,0.4-0.5,0.7-0.8,1.1c-0.4,0.3-0.8,0.6-1.2,0.9s-0.9,0.4-1.3,0.6c-0.5,0.1-0.9,0.2-1.3,0.2h-0.1
		c0,0-0.1,0-0.1,0s-0.1,0-0.1,0l-0.6-0.2l-0.6-0.3h-0.2c-0.9-0.1-1.8-0.6-2.5-1.5c-0.8-0.8-1.2-1.8-1.3-3c0-0.4,0-0.8,0-1.1
		c0-0.3,0.1-0.7,0.1-1c0-0.1,0-0.1,0-0.1c0,0,0-0.1,0-0.1c-0.1-0.5,0-1.1,0.3-1.8c0.2-0.7,0.6-1.4,1-2.2c0.4-0.7,1-1.4,1.6-2.1
		c0.6-0.7,1.3-1.2,2-1.5l0.2-0.2c0.4-0.3,0.9-0.5,1.4-0.6c0.5-0.1,0.9-0.2,1.3-0.2c0.2,0,0.4,0,0.6,0c0.2,0,0.4,0.1,0.6,0.2
		c0.8,0.4,1.4,0.8,1.9,1.2c0.5,0.5,0.8,1.1,0.9,1.8v0c0,0.1,0,0.3,0,0.4c-0.1,0.2-0.3,0.2-0.8,0.2h-0.3c-0.8,0.1-1.6,0.4-2.4,1.1
		c-0.7,0.6-1.4,1.4-2,2.3c-0.6,0.9-1,1.8-1.4,2.8c-0.3,1-0.5,1.8-0.5,2.5c0,0.2,0.1,0.5,0.2,0.7s0.3,0.5,0.5,0.7
		c0.2,0.2,0.4,0.4,0.6,0.6c0.2,0.2,0.4,0.2,0.6,0.2c0.1,0,0.2,0,0.3-0.1c0.1-0.1,0.2-0.1,0.3-0.2c0.1-0.1,0.2-0.1,0.3-0.2
		s0.2-0.1,0.4-0.2c0.2-0.1,0.5-0.3,0.8-0.6c0.3-0.3,0.5-0.6,0.7-0.9s0.4-0.7,0.6-1c0.2-0.3,0.3-0.6,0.3-0.7
		c-0.4-0.5-0.7-0.9-0.8-1.2c-0.1-0.3-0.2-0.6-0.2-0.9c0-0.2,0-0.4,0-0.6c0-0.2,0-0.4,0-0.6c-0.1-0.6,0-1.2,0.2-1.6
		c0.2-0.4,0.5-0.7,1-0.7c0.1,0,0.1,0,0.1,0c0,0,0.1,0,0.1,0c0.2,0,0.4,0,0.6,0s0.3,0.2,0.4,0.4h0.1c0,0,0.1,0.1,0.2,0.3
		s0.2,0.4,0.2,0.6c0,0.1,0,0.1,0,0.3c0.1,0.1,0.1,0.2,0.2,0.2c0.1,0,0.1,0.1,0,0.4c-0.1,0.3-0.1,0.5,0,0.6v0.1c0,0,0,0.1,0,0.1
		c0,0,0,0.1,0,0.1v0.1l0,0v0c0,0,0,0.1,0,0.2c0,0.1,0,0.2,0,0.3c0,0.1,0,0.2,0,0.3l-0.1,0.4c-0.1,0.2-0.1,0.4-0.2,0.5
		c-0.1,0.2-0.2,0.4-0.3,0.5l0,0.1c0.1,0.1,0.1,0.2,0.2,0.2c0.1,0.1,0.3,0.1,0.6,0.1c0.2,0,0.6-0.1,0.9-0.3c0.4-0.2,0.7-0.4,0.9-0.7
		c0.4-0.5,0.8-1,1.2-1.7c0.4-0.7,0.8-1.3,1.1-1.8c0,0,0.1-0.1,0.1-0.2c0.1-0.1,0.1-0.3,0.2-0.5c0.2-0.4,0.3-0.8,0.5-1.2
		s0.4-0.6,0.6-0.6c0.3,0,0.4,0.2,0.5,0.5l-0.2,0.5h0c-0.2,0.8-0.5,1.7-1,2.6c-0.5,0.9-1,1.7-1.6,2.5c-0.6,0.7-1.3,1.3-2,1.7
		C122,35.9,121.3,36,120.6,35.8z M119.4,33.3v0.1c0.1-0.1,0.1-0.3,0.1-0.4c0-0.1,0.1-0.3,0.1-0.4v-0.5c0-0.2-0.1-0.3-0.1-0.4
		c0-0.1-0.1-0.2-0.3-0.2c0,0-0.1,0-0.1,0.1s0,0.2,0,0.2c0,0.1,0,0.1,0,0.2c0,0.1,0,0.2,0,0.4v0c0.1,0.1,0.1,0.1,0.1,0.3
		c0,0.1,0.1,0.2,0.1,0.4L119.4,33.3z"/>
	<path class="st1" d="M93.8,44.9l1.6-0.7c0.7-0.2,1.3-0.4,1.8-0.6c0.5-0.1,0.9-0.2,1.2-0.3c0.3-0.1,0.6-0.1,0.7-0.2
		c0.2,0,0.3-0.1,0.4-0.1c0.1,0,0.3,0,0.6,0s0.6-0.1,1.1-0.2c1.1-0.1,2.4-0.2,3.7-0.3c1.3-0.1,2.7-0.1,4.2-0.1c0.5,0,0.9,0,1.3,0
		c0.4,0,0.9,0,1.3,0c2.3-0.3,4.4-0.5,6.1-0.5c1.1,0,2.2,0.1,3.2,0.2s1.9,0.3,2.7,0.5c0.8,0.2,1.6,0.4,2.4,0.7
		c0.8,0.3,1.5,0.6,2.3,0.9c1,0.1,1.8,0.3,2.5,0.5c0.7,0.3,1.3,0.6,1.8,1c0.5,0.4,0.9,0.7,1.2,1.1s0.6,0.8,0.8,1.1l-0.6,0.6
		c-0.9,1-1.5,1.7-2,2.1c-0.5,0.4-0.8,0.7-1,0.7c-0.2,0-0.4-0.2-0.6-0.5s-0.4-0.7-0.7-1.3c-0.2-0.3-0.6-0.6-1.1-0.9
		c-0.5-0.3-1.1-0.6-1.8-0.8c-0.7-0.3-1.4-0.5-2.2-0.8c-0.8-0.2-1.6-0.5-2.5-0.7c-0.6-0.2-1.2-0.3-1.7-0.5s-1.1-0.3-1.6-0.5
		c-0.9-0.3-1.8-0.5-2.7-0.6s-1.8-0.3-2.7-0.4c-0.9-0.1-1.8-0.2-2.8-0.3c-0.9-0.1-1.9-0.1-3-0.2h-0.4h-0.1c-0.1,0-0.1,0-0.1-0.1
		s-0.1,0-0.1,0c-0.7,0.1-1.5,0.2-2.4,0.2c-0.6,0.1-1.2,0.1-1.8,0.1c-0.6,0-1.1,0.1-1.5,0.2c-0.3,0.1-0.8,0.1-1.3,0.2
		c-0.6,0-1.1,0-1.7,0c-0.5,0-0.9,0-1.3,0s-0.7,0-0.9,0.1C96,45,95.9,45,95.8,45L93.8,44.9z M135,42.5c-1.7-0.1-2.9-0.8-3.9-2
		s-1.5-2.7-1.6-4.5c0-0.2,0-0.5,0-0.8c0.1-0.3,0.1-0.6,0.2-1c0.1-0.3,0.2-0.7,0.2-1c0.1-0.3,0.1-0.7,0.1-1c0-0.7,0.1-1.3,0.4-2
		c0.3-0.7,0.5-1.2,0.8-1.8c0.2-0.4,0.4-0.8,0.6-1.2c0.2-0.4,0.2-0.8,0.2-1.1c0,0,0,0,0,0l0-0.3c0-0.1,0-0.1,0-0.2v0
		c-0.1,0-0.1,0-0.1,0c-0.1,0.1-0.2,0.1-0.2,0.1s-0.1,0.1-0.2,0.1s-0.1,0-0.1,0c-0.1,0.1-0.2,0.1-0.2,0.1c-0.2,0-0.5-0.1-0.8-0.2
		c-0.2-0.1-0.3-0.1-0.6-0.2c-0.2-0.1-0.4-0.1-0.4,0c-0.1,0.1-0.2,0.3-0.3,0.5c-0.1,0.2-0.2,0.4-0.3,0.7c-0.1,0.2-0.1,0.3-0.1,0.4
		c0,0.1-0.1,0.2-0.2,0.3v0l-0.2,0.5l-0.4,0.7c-0.1,0.2-0.2,0.4-0.4,0.7c-0.2,0.3-0.4,0.7-0.7,1c-0.2,0.4-0.5,0.7-0.7,0.9
		c-0.2,0.3-0.3,0.4-0.4,0.4c-0.1,0-0.2-0.1-0.2-0.2c-0.1-0.1-0.1-0.4-0.2-0.8c0,0,0.1-0.2,0.2-0.4c0.1-0.2,0.3-0.5,0.5-0.8
		c0.2-0.3,0.3-0.6,0.5-0.9c0.2-0.3,0.3-0.5,0.4-0.7c0.3-0.5,0.6-1.1,0.9-1.7c0.3-0.6,0.4-1.1,0.4-1.4c0-0.1-0.1-0.2-0.3-0.5
		c-0.2-0.3-0.4-0.5-0.6-0.8c-0.2-0.3-0.4-0.6-0.6-0.8c-0.2-0.3-0.3-0.5-0.3-0.6l0-0.2c-0.1-0.2-0.2-0.3-0.2-0.5c0-0.7,0-1.4,0.2-2.2
		c0.2-0.8,0.4-1.5,0.8-2.2s0.8-1.3,1.3-1.7c0.5-0.5,1.1-0.7,1.8-0.7c0.6,0,1.1,0.2,1.5,0.5c0.4,0.3,0.7,0.8,0.7,1.4
		c0,0.5,0,1-0.2,1.6c-0.1,0.6-0.3,1.2-0.5,1.8c-0.2,0.6-0.4,1.2-0.7,1.7c-0.3,0.6-0.5,1.1-0.7,1.5c-0.1,0.3-0.2,0.5-0.3,0.6
		c-0.1,0.1-0.1,0.2-0.2,0.4l0.1,0c0.1,0,0.1,0.1,0.2,0.2s0.2,0.2,0.4,0.1l0.2,0.3v0c0,0,0,0.1,0,0.1c0.1,0,0.3,0,0.5-0.1h0l1.6-1
		c0.6-0.4,1.1-0.6,1.5-0.8c0.4-0.2,0.7-0.3,0.8-0.3c0.1,0,0.4,0.1,0.7,0.3c0.3,0.2,0.7,0.4,1,0.7c0.3,0.3,0.7,0.6,0.9,1
		c0.3,0.4,0.4,0.7,0.4,1.1c0,0.2,0,0.5-0.2,0.9c-0.2,0.4-0.4,0.8-0.7,1.4c-0.3,0.5-0.6,1.1-0.9,1.7c-0.3,0.7-0.6,1.4-0.9,2.3
		l-0.8,1.9c-0.2,0.9-0.4,1.7-0.4,2.6v0.6l0.1,0.8c0,0.1,0,0.1,0,0.1c0,0,0,0.1-0.1,0.1l0,0.4c0.1,0.4,0.1,0.8,0.2,1.1
		c0.1,0.4,0.2,0.7,0.3,1c0.1,0.3,0.2,0.5,0.4,0.6c0.2,0.1,0.4,0.1,0.7-0.2c0.1,0.1,0.1,0.1,0.3,0.1c0.4,0,0.8-0.2,1.4-0.7
		c0.6-0.5,1.1-1.1,1.7-1.9s1.1-1.6,1.7-2.5c0.5-0.9,1-1.8,1.3-2.7c0.3-0.6,0.5-1.2,0.6-1.8c0.1-0.4,0.3-0.8,0.4-1.1
		c0.1-0.3,0.3-0.6,0.5-0.9c0.1-0.2,0.2-0.2,0.2-0.2c0,0,0,0.1,0,0.3c0,0.1,0,0.2,0,0.3l0.1,0.1h0c0.1,0.1,0.1,0.1,0.1,0.2
		c0,0.1,0,0.2,0,0.5s-0.1,0.5-0.2,0.9c-0.1,0.4-0.3,0.9-0.5,1.5l-0.2,0.7l-0.3,0.6c-0.2,0.5-0.5,1-0.8,1.5c-0.3,0.6-0.5,0.9-0.6,1.1
		l-0.4,0.6c-0.3,0.4-0.5,0.8-0.7,1.2c-0.2,0.4-0.4,0.8-0.6,1.3c-0.5,0.6-0.9,1.1-1.3,1.5c-0.4,0.4-0.9,0.7-1.3,0.9
		c-0.4,0.2-0.8,0.4-1.2,0.4C135.7,42.5,135.3,42.5,135,42.5z M128.7,21.2c0.1,0.3,0.1,0.6,0.2,0.9c0.1,0.3,0.2,0.5,0.3,0.7l0,0.2
		c0.2-0.5,0.4-1,0.6-1.5c0.2-0.5,0.4-1,0.5-1.4s0.3-0.8,0.4-1.2c0.1-0.4,0.1-0.7,0.1-0.9c0-0.2-0.1-0.3-0.2-0.4
		c-0.2,0.1-0.4,0.3-0.6,0.5c-0.2,0.3-0.4,0.6-0.6,1s-0.4,0.7-0.5,1.1C128.8,20.6,128.7,20.9,128.7,21.2z"/>
	<path class="st1" d="M152.5,14.3c-0.2,0.7-0.3,1.5-0.6,2.2c-0.2,0.8-0.5,1.6-0.7,2.5l3.3,0.2c0.1,0,0.2,0,0.4,0c0.1,0,0.3,0,0.4,0
		c1.1,0.1,2.1,0.3,2.9,0.5c0.8,0.2,1.4,0.5,1.9,0.8s0.9,0.7,1.1,1c0.2,0.3,0.4,0.7,0.4,1c0,0.2,0,0.3-0.2,0.4c-0.1,0-0.3,0-0.4,0
		c-0.1,0-0.1,0-0.1,0c0,0-0.1,0-0.1,0c-0.1-0.2-0.3-0.5-0.6-0.7c-0.3-0.2-0.8-0.4-1.3-0.6c-0.5-0.2-1.2-0.4-1.9-0.5
		c-0.7-0.1-1.4-0.3-2.2-0.3c-0.1,0-0.2,0-0.3,0c-0.1,0-0.2,0-0.3,0l-3.5-0.2c-0.2,0.9-0.4,1.8-0.5,2.7s-0.3,1.8-0.6,2.7l0.1,0.9
		c-0.3,1-0.6,2-1,2.9c-0.3,0.9-0.6,1.8-0.9,2.7c-0.3,0.8-0.5,1.6-0.6,2.3c-0.2,0.7-0.2,1.3-0.2,1.8c0,0.3,0.1,0.5,0.3,0.8
		c0.2-0.1,0.4-0.2,0.7-0.4c0.3-0.2,0.6-0.5,0.9-0.8c0.3-0.3,0.7-0.7,1-1.1c0.4-0.4,0.7-0.8,1-1.2c0.4-0.5,0.9-1.1,1.4-1.6
		c0.5-0.6,0.9-1.2,1.1-1.7c0,0,0.1-0.2,0.3-0.6c0.2-0.4,0.4-0.8,0.7-1.3c0.3-0.5,0.5-0.9,0.8-1.3c0.3-0.4,0.4-0.6,0.5-0.6
		c0.1,0,0.2,0.1,0.3,0.3c0,0.1,0,0.2-0.1,0.4c0.1,0.1,0.1,0.1,0.1,0.3c-0.1,0.6-0.5,1.4-1.2,2.7c-0.7,1.2-1.6,2.6-2.8,4.1l-1.4,1.8
		c-0.7,0.8-1.4,1.5-2.1,2s-1.3,0.9-1.8,0.9c-0.6,0-1-0.1-1.3-0.4c-0.3-0.3-0.6-0.6-0.7-1c-0.2-0.2-0.4-0.4-0.7-0.6
		c-0.2-0.2-0.5-0.5-0.7-0.7c-0.2-0.2-0.4-0.5-0.5-0.7c-0.1-0.2-0.2-0.4-0.3-0.7c-0.1-0.7,0.1-1.7,0.3-2.9c0.3-1.2,0.7-2.6,1.2-4
		l0-0.4c0.1-0.4,0.2-0.7,0.3-1.1c0.1-0.3,0.2-0.7,0.3-1c0.2-0.8,0.4-1.6,0.5-2.5c0.1-0.9,0.3-1.7,0.5-2.6l-2.3-0.3
		c-0.9-0.1-1.7-0.2-2.5-0.4c-0.8-0.2-1.5-0.3-2-0.6c-0.6-0.2-1-0.5-1.4-0.8c-0.4-0.3-0.6-0.6-0.6-0.9c0-0.1,0.1-0.2,0.2-0.2
		c0.1,0,0.1,0,0.2,0s0.1,0.1,0.2,0.2l0.6-0.1c0.6,0.3,1.3,0.5,2.2,0.7c0.8,0.2,1.9,0.4,3.1,0.5c0.6,0.1,1.1,0.1,1.5,0.1
		c0.5,0,0.9,0,1.3,0.1l0,0.2l1.1-2.9c0.1-0.3,0.2-0.6,0.3-0.8c0.1-0.3,0.2-0.5,0.3-0.8c0.1-0.7,0.2-1.3,0.3-2
		c0.1-0.7,0.1-1.3,0.2-1.8c0.1-0.5,0.1-1,0.2-1.3c0.1-0.3,0.3-0.5,0.5-0.5c0.2,0,0.4,0.1,0.7,0.2c0.3,0.1,0.6,0.3,0.9,0.6
		c0.3,0.3,0.6,0.6,0.8,1c0.2,0.4,0.4,0.9,0.4,1.4c0,0.1,0,0.2,0,0.3c0,0.1,0,0.2,0,0.4c0.1,0.1,0.1,0.3,0.2,0.4s0.1,0.4,0.2,0.6
		c0.1,0.2,0.1,0.4,0.2,0.6C152.3,14.1,152.4,14.2,152.5,14.3z"/>
	<path class="st1" d="M159.7,36.9c-0.1,0.1-0.3,0.2-0.5,0.3c-0.2,0.1-0.4,0.2-0.6,0.3l0,0l0,0.1c0,0,0,0,0.1,0.1
		c0.1,0.1,0.1,0.1,0.2,0.2c0.1,0.1,0.2,0.1,0.3,0.2c0.1,0.1,0.1,0.1,0.2,0.2l0.1,0.2l0,0c0.2,0.3,0.5,0.6,0.7,0.9
		c0.2,0.3,0.4,0.6,0.5,1l0.1,1.6c0.1,0.4,0.1,0.8,0.1,1.2c0,0.4,0,0.8,0,1.2c0,1.8-0.3,3.2-1,4.2s-1.5,1.6-2.4,1.8c0,0,0,0-0.1,0
		c0,0,0,0-0.1,0h0c-0.7-0.2-1.3-0.4-1.7-0.7c-0.4-0.3-0.8-0.7-1.1-1.2c-0.3-0.5-0.6-1.1-0.8-1.8c-0.2-0.7-0.5-1.5-0.8-2.4V44
		c-0.1-0.3-0.1-0.5,0-0.7l-0.2-1.4l-0.2-0.9c-0.1-0.3-0.1-0.6-0.2-0.8v0l0-0.2c0-0.2,0-0.4-0.1-0.6s0-0.4,0-0.6l-0.1-1l0.1-3.4
		l-0.1-0.3c0-0.1,0-0.2,0-0.3c0-0.1,0-0.2-0.1-0.3v-1.4c0-1,0.1-2,0.2-3.3c0.1-1.2,0.3-2.4,0.5-3.7c0.1-0.8,0.3-1.7,0.5-2.6
		c0.2-0.9,0.4-1.8,0.6-2.7c0.2-0.9,0.4-1.7,0.7-2.5c0.3-0.8,0.5-1.6,0.7-2.3c0.4-1,1-1.9,1.8-2.6c0.8-0.7,1.6-1.3,2.4-1.9
		c0.5-0.3,1-0.6,1.6-0.8c0.6-0.2,1.1-0.4,1.8-0.6c0.1,0,0.2,0,0.3,0s0.2,0,0.3,0c0.6,0,1.2,0.2,1.8,0.6c0.6,0.4,1,1.2,1.3,2.3
		c0.1,0.2,0.1,0.5,0.1,0.7c0,0.2,0,0.4-0.1,0.6c0,0.2-0.1,0.4-0.1,0.6c-0.1,0.2-0.1,0.4-0.1,0.7s-0.1,0.6-0.1,0.9l-0.7,0.4
		c0,0.1,0,0.2,0,0.4c0,0.2,0,0.4-0.1,0.7c-0.1,0.3-0.2,0.7-0.5,1.3h0l-0.4,0.8c-0.1,0.1-0.2,0.3-0.3,0.5c-0.1,0.2-0.2,0.5-0.3,0.7
		c-0.1,0.3-0.3,0.6-0.4,0.8c-0.1,0.3-0.2,0.5-0.4,0.7l-0.6,0.7l-0.4,0.6c-0.1,0.1-0.1,0.2-0.2,0.3c-0.1,0.1-0.1,0.2-0.2,0.3
		l-0.5,0.6c-0.3,0.3-0.6,0.6-0.8,0.9c-0.3,0.3-0.4,0.6-0.6,0.8l-0.5,0.2c-0.1,0.2-0.3,0.4-0.4,0.6c-0.1,0.1-0.1,0.2-0.2,0.3
		c-0.1,0.1-0.1,0.3-0.2,0.5c0,0.1-0.1,0.2-0.2,0.4c-0.1,0.2-0.2,0.3-0.3,0.5c-0.1,0.2-0.2,0.5-0.4,0.8c-0.1,0.2-0.1,0.4-0.2,0.7
		c0,0.3,0,0.6,0,1l-0.1,1.4l-0.2,0.6v0.2c0,0.1,0,0.1,0,0.1c0,0,0,0.1,0,0.1c0,0.1,0.1,0.1,0.1,0.2c0,0.1,0,0.1,0,0.1
		c0.1,0.1,0.1,0.3,0.1,0.6c0,0.1,0,0.3,0,0.4c0,0.1,0,0.2,0,0.4c0,0.1,0,0.3,0,0.4c0,0.1,0,0.2,0,0.4c0,0.1,0,0.2,0,0.3
		c0,0.1,0,0.2,0,0.3c0,0,0,0.1,0,0.1l0.1,0l0.8-0.2c0.4-0.2,1.1-0.6,2.1-1.3c1-0.6,2-1.6,3.1-2.9l0.4-0.5l1.7-2.5
		c0-0.1,0.1-0.1,0.1-0.2c0-0.1,0-0.2,0-0.3c0.1-0.2,0.3-0.3,0.4-0.3c0.2-0.1,0.3-0.1,0.4-0.1c0.1,0.1,0.2,0.2,0.2,0.4
		c0,0.2-0.1,0.4-0.2,0.7l-0.1,0.1c0,0,0,0.1,0,0.1c0,0.1,0,0.2-0.1,0.3v0l-0.2,0.4l-0.3,0.4v0l-0.1,0.4l-0.2,0.3
		c-0.1,0.2-0.2,0.5-0.5,0.9c-0.3,0.4-0.5,0.7-0.7,0.9l-0.7,1c-0.2,0.3-0.4,0.6-0.9,0.8c-0.4,0.3-0.8,0.5-1.2,0.8l-0.8,0.7
		c-0.2,0.2-0.4,0.3-0.6,0.4C160.2,36.6,159.9,36.7,159.7,36.9z M158.4,39.8c-0.1-0.2-0.2-0.3-0.3-0.4s-0.2-0.2-0.4-0.3
		c-0.1,0.6-0.1,1.2-0.1,2c0,1,0,1.9,0.1,2.9c0.1,1,0.2,1.8,0.4,2.4v0.2l0.1,0.3l0.1,0.4c0.1,0.2,0.1,0.3,0.2,0.4s0.1,0.2,0.2,0.1
		c0.2-0.1,0.3-0.2,0.4-0.5c0.1-0.3,0.1-0.6,0.2-0.9c0,0,0,0,0-0.1c0,0,0,0,0-0.1l0-0.5c0-0.2,0-0.5,0-0.7c0-0.3,0-0.5-0.1-0.8
		c0-0.2,0-0.4-0.1-0.7c0-0.2,0-0.4,0-0.7c0-0.1,0-0.1,0-0.2s0-0.1,0-0.2v-0.1l0-0.7c-0.1-0.1-0.1-0.1-0.1-0.1c0,0,0-0.1,0-0.1v0
		l-0.1-0.5c-0.1-0.2-0.1-0.3-0.2-0.5s-0.2-0.4-0.3-0.6l0-0.1L158.4,39.8z M158.4,25.4v0.1V25.4c0.1,0,0.4-0.2,0.8-0.6
		c0.4-0.3,0.9-0.8,1.4-1.3c0.5-0.5,1-1,1.4-1.6s0.8-1.2,1-1.7c0.3-0.5,0.6-1,0.9-1.6c0.3-0.6,0.6-1.2,0.9-1.8
		c0.3-0.6,0.5-1.2,0.6-1.9c0.2-0.6,0.2-1.2,0.2-1.7c0-0.3,0-0.6-0.1-0.9c-0.1-0.5-0.4-1-0.8-1.3c-0.4-0.3-0.9-0.5-1.4-0.4
		c-0.5,0.1-0.8,0.2-1,0.4s-0.4,0.4-0.6,0.7l-0.3,0.6c0,0,0,0,0,0.1c0,0,0,0,0,0.1c0,0.2-0.1,0.3-0.2,0.4c-0.4,0.7-0.7,1.5-0.9,2.4
		c-0.2,0.9-0.5,1.8-0.7,2.7c0,0.2-0.1,0.4-0.1,0.5c0,0.2-0.1,0.4-0.1,0.5c-0.1,0.5-0.2,1.1-0.3,1.7c-0.1,0.6-0.1,1.1-0.2,1.7
		c-0.1,0.5-0.1,1-0.2,1.4c-0.1,0.5-0.1,0.9-0.2,1.3L158.4,25.4z"/>
	<path class="st1" d="M175.1,35.8c-0.3,0-0.5-0.1-0.8-0.2c-0.1,0.1-0.1,0.2-0.2,0.2S174,36,173.9,36c-0.1,0.1-0.2,0.2-0.3,0.3
		s-0.2,0.3-0.3,0.6c-0.2,0.4-0.5,0.7-0.8,1.1c-0.4,0.3-0.8,0.6-1.2,0.9s-0.9,0.4-1.3,0.6c-0.5,0.1-0.9,0.2-1.3,0.2h-0.1
		c0,0-0.1,0-0.1,0s-0.1,0-0.1,0l-0.6-0.2l-0.6-0.3H167c-0.9-0.1-1.8-0.6-2.5-1.5c-0.8-0.8-1.2-1.8-1.3-3c0-0.4,0-0.8,0-1.1
		c0-0.3,0.1-0.7,0.1-1c0-0.1,0-0.1,0-0.1c0,0,0-0.1,0-0.1c-0.1-0.5,0-1.1,0.3-1.8c0.2-0.7,0.6-1.4,1-2.2c0.4-0.7,1-1.4,1.6-2.1
		c0.6-0.7,1.3-1.2,2-1.5l0.2-0.2c0.4-0.3,0.9-0.5,1.4-0.6c0.5-0.1,0.9-0.2,1.3-0.2c0.2,0,0.4,0,0.6,0c0.2,0,0.4,0.1,0.6,0.2
		c0.8,0.4,1.4,0.8,1.9,1.2c0.5,0.5,0.8,1.1,0.9,1.8v0c0,0.1,0,0.3,0,0.4c-0.1,0.2-0.3,0.2-0.8,0.2h-0.3c-0.8,0.1-1.6,0.4-2.4,1.1
		c-0.7,0.6-1.4,1.4-2,2.3c-0.6,0.9-1,1.8-1.4,2.8c-0.3,1-0.5,1.8-0.5,2.5c0,0.2,0.1,0.5,0.2,0.7s0.3,0.5,0.5,0.7
		c0.2,0.2,0.4,0.4,0.6,0.6c0.2,0.2,0.4,0.2,0.6,0.2c0.1,0,0.2,0,0.3-0.1c0.1-0.1,0.2-0.1,0.3-0.2c0.1-0.1,0.2-0.1,0.3-0.2
		s0.2-0.1,0.4-0.2c0.2-0.1,0.5-0.3,0.8-0.6c0.3-0.3,0.5-0.6,0.7-0.9s0.4-0.7,0.6-1c0.2-0.3,0.3-0.6,0.3-0.7
		c-0.4-0.5-0.7-0.9-0.8-1.2c-0.1-0.3-0.2-0.6-0.2-0.9c0-0.2,0-0.4,0-0.6c0-0.2,0-0.4,0-0.6c-0.1-0.6,0-1.2,0.2-1.6
		c0.2-0.4,0.5-0.7,1-0.7c0.1,0,0.1,0,0.1,0c0,0,0.1,0,0.1,0c0.2,0,0.4,0,0.6,0s0.3,0.2,0.4,0.4h0.1c0,0,0.1,0.1,0.2,0.3
		s0.2,0.4,0.2,0.6c0,0.1,0,0.1,0,0.3c0.1,0.1,0.1,0.2,0.2,0.2c0.1,0,0.1,0.1,0,0.4c-0.1,0.3-0.1,0.5,0,0.6v0.1c0,0,0,0.1,0,0.1
		c0,0,0,0.1,0,0.1v0.1l0,0v0c0,0,0,0.1,0,0.2c0,0.1,0,0.2,0,0.3c0,0.1,0,0.2,0,0.3l-0.1,0.4c-0.1,0.2-0.1,0.4-0.2,0.5
		c-0.1,0.2-0.2,0.4-0.3,0.5l0,0.1c0.1,0.1,0.1,0.2,0.2,0.2c0.1,0.1,0.3,0.1,0.6,0.1c0.2,0,0.6-0.1,0.9-0.3c0.4-0.2,0.7-0.4,0.9-0.7
		c0.4-0.5,0.8-1,1.2-1.7c0.4-0.7,0.8-1.3,1.1-1.8c0,0,0.1-0.1,0.1-0.2c0.1-0.1,0.1-0.3,0.2-0.5c0.2-0.4,0.3-0.8,0.5-1.2
		s0.4-0.6,0.6-0.6c0.3,0,0.4,0.2,0.5,0.5l-0.2,0.5h0c-0.2,0.8-0.5,1.7-1,2.6c-0.5,0.9-1,1.7-1.6,2.5c-0.6,0.7-1.3,1.3-2,1.7
		C176.5,35.9,175.8,36,175.1,35.8z M173.9,33.3v0.1c0.1-0.1,0.1-0.3,0.1-0.4c0-0.1,0.1-0.3,0.1-0.4v-0.5c0-0.2-0.1-0.3-0.1-0.4
		c0-0.1-0.1-0.2-0.3-0.2c0,0-0.1,0-0.1,0.1s0,0.2,0,0.2c0,0.1,0,0.1,0,0.2c0,0.1,0,0.2,0,0.4v0c0.1,0.1,0.1,0.1,0.1,0.3
		c0,0.1,0.1,0.2,0.1,0.4L173.9,33.3z"/>
	<path class="st1" d="M183.7,37.1c-0.6-0.1-1.1-0.3-1.6-0.7c-0.4-0.4-0.8-0.8-1.1-1.3c-0.3-0.5-0.5-0.9-0.6-1.4
		c-0.1-0.5-0.2-0.8-0.3-1c-0.1-0.6-0.1-1.2-0.1-1.8c0-1.5,0.2-3.1,0.6-4.9c0-0.2,0-0.5,0-0.9c0-0.5,0.1-1,0.1-1.6
		c0.1-0.6,0.1-1.2,0.2-1.8c0.1-0.6,0.2-1.1,0.3-1.5c0-0.5,0-1,0.1-1.6c0.1-0.5,0.2-1,0.3-1.5c0.1-0.4,0.2-0.8,0.3-1.2
		c0.1-0.4,0.2-0.8,0.2-1.3c0,0,0-0.2,0.1-0.4s0.1-0.5,0.2-0.8l-0.1-0.3c0-0.1,0-0.2,0-0.2c0.1-0.7,0.2-1.4,0.2-2.1
		c0.1-0.7,0.2-1.4,0.3-2.1c0.1-0.6,0.3-1.1,0.5-1.5c0.2-0.4,0.4-0.6,0.6-0.6c0.3,0,0.7,0.2,1.3,0.5c0.6,0.3,1.1,0.8,1.5,1.5
		c0.4,0.2,0.7,0.6,1.1,1c0.4,0.5,0.6,1.1,0.8,1.7c0.1,0.5,0,1.1-0.2,1.8c-0.2,0.8-0.5,1.6-0.8,2.5v0.1c0,0.1,0,0.3,0.1,0.4
		c0,0.1,0,0.2,0,0.4l-1.1,3.7c0.1,0.3,0.1,0.7,0.1,1.1s0.1,0.8,0.1,1.1c0,0.1,0,0.1,0,0.1c0,0,0,0.1,0,0.1v0.2l-1.2,3.5
		c0,0.1,0,0.2,0,0.3v0.1l0.1,0.4c0,0.1,0,0.3,0,0.5c0,0.2,0,0.4,0.1,0.6c-0.2,0.5-0.4,1-0.5,1.5c-0.1,0.5-0.3,0.9-0.4,1.4l0.2,1.3
		c-0.3,1-0.5,1.7-0.4,2.2c0.1,0.2,0.1,0.3,0.3,0.3c0.2,0,0.4-0.2,0.8-0.6c0.4-0.4,0.8-0.9,1.3-1.5c0.5-0.6,0.9-1.3,1.4-2
		c0.5-0.7,0.9-1.5,1.3-2.2h0c0.1-0.1,0.1-0.2,0.1-0.2c0-0.1,0-0.1,0.1-0.2l0.1-0.5v0c0.1-0.1,0.1-0.3,0.2-0.5
		c0.1-0.2,0.2-0.4,0.3-0.7c0.2-0.4,0.4-0.7,0.5-1c0.2-0.3,0.3-0.5,0.4-0.5h0.1c0.1-0.1,0.3-0.2,0.4-0.2c0.2,0,0.3,0.1,0.4,0.3
		c0,0.1,0,0.4-0.1,0.7c-0.1,0.3-0.4,0.9-0.8,1.7h0l-0.2,0.4c-0.2,0.6-0.6,1.4-1.1,2.3c-0.5,0.9-1,1.7-1.5,2.6c0,0,0,0-0.1,0.1
		c-0.1,0.1-0.1,0.2-0.2,0.2c-0.2,0.3-0.4,0.7-0.7,1c-0.2,0.3-0.5,0.7-0.7,1c-0.2,0.3-0.5,0.5-0.7,0.7c-0.2,0.2-0.5,0.3-0.6,0.3
		c0,0-0.1,0-0.1,0s-0.1,0-0.1,0c-0.4,0.3-0.8,0.5-1.1,0.6C184.3,37,184,37.1,183.7,37.1z"/>
	<path class="st1" d="M199,29.3c0.2-0.2,0.5-0.3,0.8-0.3c0.3,0.1,0.3,0.3,0.1,0.7c0.1,0.1,0.1,0.2,0,0.2c0,0,0,0,0,0
		c-0.2,0.2-0.3,0.4-0.4,0.6l-0.3,0.6c-0.2,0.5-0.5,0.9-0.8,1.5s-0.6,1.1-1,1.6v0c-0.1,0.1-0.1,0.2-0.1,0.3v0l-0.3,0.4
		c-0.2,0.4-0.5,0.7-0.8,1.1s-0.6,0.7-0.9,1.1l-0.4,0.4c-0.3,0.4-0.7,0.8-1,1.2l-0.2,0.1c-0.3,0.2-0.6,0.4-0.8,0.5s-0.5,0.3-0.7,0.4
		v0c-0.3,0.2-0.6,0.3-0.9,0.3c-0.3,0-0.6,0-0.8,0c-0.7-0.1-1.3-0.4-1.7-0.9c-0.5-0.5-0.8-1-1-1.6c-0.1-0.3-0.2-0.6-0.2-0.9
		s-0.1-0.6-0.1-0.9c0-0.1,0-0.3-0.1-0.4c0-0.1,0-0.3,0-0.4c0-0.1,0-0.3,0-0.4c0-0.1,0-0.2,0-0.4v-0.7c0.1-0.4,0.1-0.8,0.2-1.2
		c0.1-0.4,0.2-0.8,0.3-1.3l0.1-0.5c0.1-0.3,0.2-0.5,0.2-0.8s0.2-0.5,0.3-0.8c0.2-0.6,0.5-1.2,0.7-1.7c0.2-0.6,0.4-1.1,0.6-1.7
		c0-0.1,0-0.1,0-0.2c0.1-0.7,0.4-1.1,0.8-1.2h0c0.2-0.1,0.3-0.2,0.5-0.2c0.2,0,0.4,0,0.6,0.1c0.4,0.1,0.9,0.4,1.3,0.9
		c0.5,0.5,0.8,1.3,0.9,2.1c0,0.2,0,0.4,0,0.7s-0.1,0.5-0.2,0.8l-0.1,0.3c0,0,0,0.1,0,0.1l0,0.1c0.1,0.2,0.1,0.3,0.1,0.4v0.5
		c0,0.1,0,0.2,0,0.2c0,0.1,0,0.2,0,0.2c-0.1,0.3-0.2,0.6-0.3,0.9c-0.1,0.3-0.2,0.6-0.3,0.8l-0.3,0.6c0,0.1,0,0.1,0,0.1
		c0,0,0,0.1,0,0.1c-0.2,0.5-0.4,1.1-0.6,1.6c-0.2,0.5-0.3,1.1-0.4,1.6v0c0,0.1,0,0.1,0,0.1s0,0.1-0.1,0.2l-0.2,0.2
		c-0.3,0.5-0.4,1-0.4,1.3c0,0.3,0.2,0.5,0.5,0.6c0.2-0.1,0.4-0.2,0.6-0.4c0.3-0.2,0.5-0.4,0.9-0.7c0.2-0.1,0.5-0.3,0.7-0.5
		c0.2-0.2,0.4-0.4,0.6-0.7l0.3-0.3c0.6-0.7,1.2-1.5,1.7-2.4c0.5-0.8,1.1-1.7,1.6-2.6c0.2-0.3,0.4-0.6,0.5-0.9
		C198.8,29.9,198.9,29.6,199,29.3z M194.7,18c-0.5-0.1-1-0.3-1.6-0.6c-0.3-0.2-0.5-0.5-0.8-1c-0.2-0.5-0.3-1-0.3-1.5
		c0-0.4,0-0.8,0.1-1c0.1-0.3,0.3-0.5,0.5-0.7c0.6-0.5,1.2-0.8,1.8-0.8c0.3,0,0.7,0.1,1.2,0.2c0.5,0.2,0.9,0.4,1.3,0.7
		c0.1,0.1,0.2,0.3,0.3,0.4c0.1,0.1,0.1,0.2,0.2,0.4c0.1,0.2,0,0.4,0,0.6s-0.2,0.3-0.3,0.5v0c-0.1,0.1-0.1,0.3-0.2,0.4
		c-0.1,0.1-0.2,0.3-0.3,0.4v0c-0.1,0.1-0.1,0.3-0.2,0.4c-0.1,0.1-0.2,0.3-0.2,0.4c-0.4,0.6-0.6,1-0.8,1.1
		C195.2,17.9,195,18,194.7,18z"/>
	<path class="st1" d="M209.6,36.3c-0.1,0-0.3,0-0.4,0s-0.2,0-0.4-0.1l-0.1,0.1l-0.3,0.4c-0.1,0.1-0.2,0.2-0.3,0.2s-0.2,0.2-0.3,0.4
		c0,0,0,0.1,0,0.1v0c-0.1,0.2-0.3,0.5-0.6,0.7c-0.3,0.3-0.6,0.5-0.8,0.6c-0.1,0.1-0.2,0.1-0.2,0.2c-0.1,0.1-0.1,0.1-0.2,0.2
		c-0.2,0.1-0.4,0.2-0.5,0.3c-0.2,0.1-0.4,0.2-0.6,0.2c-0.3,0.1-0.7,0.2-1,0.2c-0.3,0-0.6,0-1,0l-0.4-0.2l-0.5-0.3l-0.2-0.1
		c-0.1,0-0.1,0-0.1,0c0,0-0.1,0-0.1,0c-0.1,0-0.3,0-0.5-0.1c-0.8-0.4-1.5-0.9-2.1-1.6c-0.7-0.8-1-1.8-1.1-2.9c0-0.2,0-0.5,0-0.9
		s0-0.7,0-1.1c0-0.4,0-0.7,0.1-1.1s0.1-0.6,0.1-0.8c0.1-0.7,0.2-1.3,0.4-1.9c0.2-0.4,0.4-0.8,0.6-1.2c0.3-0.4,0.5-0.8,0.8-1.2
		c0.4-0.6,0.8-1.1,1.2-1.5v0c0.3-0.3,0.6-0.7,1-0.9c0.3-0.3,0.7-0.5,1.1-0.7l0.2-0.1c0.3-0.2,0.7-0.4,1-0.5c0.3-0.1,0.7-0.2,1-0.3
		c0.4-0.1,0.7-0.1,0.9,0c0.3,0,0.5,0.1,0.8,0.2l0.1,0.1c0.4,0.2,0.8,0.4,1.2,0.6c0.4,0.2,0.7,0.4,1,0.7s0.5,0.5,0.7,0.9
		c0.2,0.3,0.3,0.7,0.3,1.1c0.1,0.1,0,0.3-0.2,0.4c-0.2,0.1-0.5,0.2-1,0.1c-0.3,0-0.7,0.1-1.1,0.3c-0.4,0.2-0.9,0.4-1.3,0.6
		c-0.5,0.2-0.9,0.5-1.3,0.8c-0.4,0.3-0.8,0.6-1,0.9c-0.3,0.4-0.6,0.8-0.8,1.3c-0.3,0.5-0.5,1-0.7,1.5c-0.1,0.1-0.1,0.4-0.2,0.8
		c-0.1,0.4-0.1,0.8-0.2,1.2l-0.1,0.7v0.2c-0.1,0.3-0.1,0.7-0.2,1c-0.1,0.3-0.1,0.6-0.1,0.8c0,0.3,0.1,0.6,0.2,0.9
		c0.2,0.4,0.3,0.6,0.5,0.6c0.3,0.2,0.7,0.2,1.1,0.2c0.2,0,0.4,0,0.7-0.1c0.2-0.1,0.5-0.1,0.7-0.2c0.1-0.1,0.2-0.1,0.3-0.2
		c0.1-0.1,0.2-0.2,0.3-0.3c0.1-0.1,0.2-0.2,0.2-0.3c0.1-0.1,0.2-0.2,0.3-0.2c0.4-0.3,0.7-0.6,0.9-1c0.2-0.4,0.4-0.7,0.4-0.9
		c-0.4-0.2-0.7-0.7-1.1-1.4c-0.4-0.7-0.6-1.4-0.7-2.1c0.1-0.7,0.2-1.3,0.3-1.6c0.1-0.4,0.3-0.6,0.4-0.8c0.1-0.2,0.3-0.3,0.5-0.3
		c0.2,0,0.4,0,0.5,0c0.3,0,0.6,0.1,1,0.2c0.4,0.1,0.6,0.4,0.7,0.8h0.2c0.1,0.1,0.1,0.2,0.1,0.5c0.1,0.1,0.1,0.3,0.1,0.4
		c0,0.1,0,0.3,0,0.5l0.1,0.1l0.1,0.2c0.1,0.2,0.2,0.3,0.2,0.4c0,0.1-0.1,0.3-0.1,0.4l-0.1,0.3l0,0.3l0.1,0.6c0,0.1-0.1,0.3-0.3,0.6
		c-0.2,0.3-0.3,0.6-0.5,0.9h0.2c0.1,0,0.2,0,0.4,0c0.3,0.1,0.6,0,0.9-0.3c0.3-0.2,0.6-0.5,0.9-0.9c0.3-0.3,0.6-0.7,0.9-1
		c0.3-0.4,0.7-0.8,1-1.2c0.1-0.1,0.1-0.1,0.1-0.1c0.1-0.2,0.2-0.3,0.3-0.5c0.1-0.2,0.2-0.4,0.3-0.6c0.4-0.6,0.8-1.3,1.2-1.9
		c0.1-0.1,0.2-0.1,0.4-0.1c0.1,0,0.3,0,0.4,0.1c0.1,0.1,0.2,0.2,0.2,0.3c0,0.1-0.1,0.3-0.2,0.6l0,0c-0.2,0.7-0.6,1.5-1.2,2.3
		c-0.5,0.8-1.1,1.6-1.8,2.3c-0.6,0.7-1.3,1.3-2,1.8C210.7,36.1,210.1,36.4,209.6,36.3z M208.3,34.1l0.2-0.4l0.2-0.6
		c0-0.1,0.1-0.2,0.1-0.3c0.1-0.1,0.1-0.1,0.1-0.2c0,0,0,0,0-0.1c0,0,0,0,0-0.1l-0.2-0.9c-0.1-0.3-0.2-0.7-0.5-0.9
		c-0.1,0-0.1-0.1-0.2-0.1s-0.1-0.1-0.2-0.1c0,0,0,0-0.1,0.1l-0.1,0.3c0,0.1,0,0.1,0,0.2c0,0.1-0.1,0.2-0.1,0.3c0,0.1,0,0.3-0.1,0.6
		c0,0.2,0.1,0.7,0.3,1.2v0.3L208.3,34.1z"/>
</g>
</svg>
