<?xml version="1.0" encoding="utf-8"?>
<!-- Generator: Adobe Illustrator 22.1.0, SVG Export Plug-In . SVG Version: 6.00 Build 0)  -->
<svg version="1.1" id="Layer_1" xmlns="http://www.w3.org/2000/svg" xmlns:xlink="http://www.w3.org/1999/xlink" x="0px" y="0px"
	 viewBox="0 0 573 792" style="enable-background:new 0 0 573 792;" xml:space="preserve">
<style type="text/css">
	.st0{fill:none;stroke:#000000;stroke-width:0.5;stroke-miterlimit:10;}
	.st1{fill:#FFFFFF;}
	.st2{fill:#47372D;}
	.st3{fill:#F6F7F5;}
</style>
<rect x="165.7" y="283.5" class="st0" width="253.5" height="90.4"/>
<path class="st1" d="M421.3,341.4c7.1,0.8,14.1-0.6,22.1,0.5c-3,1.4-5.1,0.6-7.1,0.8c-2,0.3-4.3-0.6-6,1.3c1,1,2.1,1.3,3.4,1.4
	c3,0.2,5.7,1.6,8.7,1.6c0.3,0,0.3,0.6-0.1,0.8c-0.3,0.3-1.5,0.4,0,0.9c2.5,0.8,2.8,2.1,1,3.5c-1.4,1.1-1.9,2.5-2.6,3.8
	c-0.8,1.6-2,2.2-3.8,2.2c-4.6-0.1-9.2,0-13.7,0c-18,0-36-0.1-53.9,0.1c-6.5,0.1-13,1-19.5,0.7c-6.1-0.3-12.3-0.3-18.5-0.5
	c-10.2-0.4-20.4-0.6-30.6,0.4c-9.1,0.9-18.2,1.4-27.4,1.5c-7.1,0-14-1.1-21.1-1.3c-7.2-0.1-14.4-0.2-21.6,0.9
	c-2.2,0.3-4.6,0.2-6.9,0.2c-16.6,0-33.1-0.1-49.7,0.1c-3.7,0.1-7.3,0.2-11-0.1c-0.9-0.1-1.8-0.2-2.6-0.5c-1.4-0.6-2-2.5-3.9-2.4
	c-1.6,0.1-3.2,0-5.6,0c3.5-2.8,7.1-2.4,10.2-3.5c-1.2-1.8-3-1.6-4.7-1.9c-1.5-0.2-4.2,1.2-4.3-1.4c-0.1-1.9,2.5-1.3,4-1.5
	c0.9-0.2,1.6-0.7,1.9-1.6c0.6-1.9,1.4-3.6,3.8-3.8c2-2.7,4.9-2.2,7.7-2.1c1.7,0,3.3-0.1,5.6-0.2c-1.9-1.7-3.6-1.7-5.4-1.8
	c-1.9-0.1-3.9-0.1-5.8-0.4c-1.8-0.2-3.4-0.7-4.4-2.5c-0.5-0.8-1.6-1.4-2.4-2c-0.5-0.4-1.3-0.8-1.1-1.6c0.1-1,1-0.7,1.6-0.7
	c0.5-0.1,1.1,0.1,1.5-0.1c0.4-0.2,0.9-0.6,1.1-1c0.5-1-0.4-1.1-1-1.4c-0.5-0.2-1-0.5-1.4-0.8c-0.6-0.5-0.9-1.2-0.6-1.8
	c0.2-0.7,0.8-1.2,1.5-1.3c2.8-0.2,5.6-0.4,8.4,0.1c2.8,0.6,5.6,0.7,8.4,0.8c2,0.1,3.8,0.3,5.7-0.7c0.7-0.4,1.7-0.3,2.6-0.3
	c4.2,0.4,8.5-0.1,12.6,0.8c1.3,0.3,2.8,0.1,4.2-0.2c1.7-0.4,3.5-0.6,5.2-0.4c5.3,0.6,10.5-0.3,15.8-0.1c5.3,0.1,10.6,0.2,15.9-0.1
	c5.2-0.2,10.4-0.4,15.7-0.1c9,0.5,18,0.2,26.9,0c5.6-0.2,11.2-1,16.9-0.8c0.7,0,1.5,0.1,2.1-0.2c3.8-1.7,7.6-0.9,11.4-0.4
	c1,0.1,2.1,0.3,3.1,0.3c10.7,0,21.5,0,32.2,0c4.2,0,8.3-1,12.6-0.9c4.4,0.1,8.6,1.3,13,1.1c1.4-0.1,2.8,0.2,4.2,0.2
	c12.5-0.1,25,0.1,37.5-0.6c7-0.4,14.1-0.1,21.1-1.2c2.2-0.3,4.2,0.2,5.9,1.6c0.3,0.3,0.6,1,0.5,1.4c-0.1,0.4-0.5,1-0.9,1.1
	c-0.8,0.3-1.7,0.3-2.6,0.4c-3.3,0.4-6.6,0.8-10.1,1.2c0.8,1.3,1.9,0.9,2.7,1c1.4,0.1,2.4,0.5,2.4,2.2c0,1.3,1,1.9,2.1,1.9
	c1.4,0,2.8-0.3,4.2-0.4c2.8-0.2,3.7,0.8,3.6,3.8c-0.1,2-0.8,2.7-2.6,2.1c-3.4-1.3-7-0.9-10.5-0.8c-1.4,0-2.8,0-3.8,1.3
	C424.3,341.3,422.5,340.3,421.3,341.4z M183.4,354.8c-2.8,0-5.7,0-8.7,0c-0.2,0-0.5,0.4-0.6,0.7c0,0.2,0.3,0.6,0.5,0.6
	C177.8,356.6,180.9,356.7,183.4,354.8z"/>
<path class="st1" d="M458.8,360.2c-0.1,1-0.2,2.2-1.2,3.1c-0.7,0.7-1.6,0.8-2.3,0.2c-0.8-0.6-1.4-1.4-1.6-2.3
	c-0.4-1.3,0.2-2.4,1.5-2.8c0.5-0.2,1.1-0.2,1.6-0.3C458.4,357.9,459,358.4,458.8,360.2z"/>
<path class="st1" d="M445.8,336.7c1.4,0,2,0.5,2.3,1.7c0.1,0.5,0,1.1-0.4,1.4c-0.6,0.5-1.5,0.7-2.1,0.3c-0.6-0.5-1.1-1-1.5-1.6
	c-0.5-0.8,0.1-1.8,1-1.8C445.4,336.7,445.6,336.7,445.8,336.7z"/>
<path class="st1" d="M413.3,375.5c2.7-1,5.3-1.3,8-0.8c0.2,0,0.4,0.3,0.4,0.4c0.1,0.3-0.1,0.6-0.4,0.7c-0.3,0.1-0.7,0.2-1,0.1
	C418,375.8,415.6,375.7,413.3,375.5z"/>
<path class="st2" d="M-168.1,678.3c-0.3,1.1-0.7,2.2-1.3,3.1C-169.3,680.2-169.2,679-168.1,678.3z"/>
<path class="st3" d="M-469.9,633.4c0.9-0.4,1.5-0.7,2.2-0.9c0.2-0.1,0.4,0,0.5,0.2c0,0.1,0,0.3,0,0.4c-0.1,0.3-0.4,0.6-0.8,0.6
	C-468.6,633.8-469.1,633.7-469.9,633.4z"/>
<path class="st3" d="M208.5,355.9c-1.6,1.2-3.6,1.1-5.6,0.9c-0.1,0-0.3-0.3-0.3-0.4c0-0.2,0.2-0.5,0.4-0.5
	C204.8,355.9,206.7,355.9,208.5,355.9z"/>
<g>
	<path class="st1" d="M198.1,316.4l1.7-1.8c1.2,1.2,2.6,2.4,5,2.4c2.8,0,4.5-1.8,4.5-4.5v-0.4c0-1.9-1-3.7-3.1-5.5l-3-2.7
		c-2.4-2.1-3.9-4.1-3.9-7v-0.3c0-3.6,2.6-5.9,6.1-5.9c2.5,0,3.8,0.6,5.3,1.8l-1.4,2c-1.1-0.9-2.1-1.5-3.9-1.5
		c-2.1,0-3.5,1.4-3.5,3.5v0.2c0,2.2,1.2,3.5,3.1,5.3l3,2.6c2.5,2.3,3.9,4.5,3.9,7.3v0.5c0,4.1-2.6,6.8-7.1,6.8
		C201.5,319.3,199.5,318,198.1,316.4z"/>
	<path class="st1" d="M230.4,312.1h-8l-2,6.9h-2.6l8.5-28.3h0.3l8.6,28.3h-2.7L230.4,312.1z M223.1,309.8h6.7l-2.4-8.4
		c-0.4-1.3-0.8-2.9-0.9-3.4l-0.9,3.4L223.1,309.8z"/>
	<path class="st1" d="M237.8,290.9h2.6l5,17c0.5,1.6,1,3.9,1.1,4.2c0-0.2,0.6-2.6,1.1-4.2l5-17h2.6l-8.5,28.3h-0.3L237.8,290.9z"/>
	<path class="st1" d="M270.5,312.1h-8l-2,6.9h-2.6l8.5-28.3h0.3l8.6,28.3h-2.7L270.5,312.1z M263.1,309.8h6.7l-2.4-8.4
		c-0.4-1.3-0.8-2.9-0.9-3.4l-0.9,3.4L263.1,309.8z"/>
	<path class="st1" d="M286.6,301.5c-0.7-1.1-1.6-2.8-1.7-3.1c0,0.1,0.1,2.4,0.1,3.7V319h-2.5v-28.4h0.4l10.7,17.9
		c0.7,1.2,1.6,2.9,1.7,3.2c0-0.2-0.1-2.3-0.1-3.8v-17h2.5v28.4h-0.5L286.6,301.5z"/>
	<path class="st1" d="M311.2,301.5c-0.7-1.1-1.6-2.8-1.7-3.1c0,0.1,0.1,2.4,0.1,3.7V319h-2.5v-28.4h0.4l10.7,17.9
		c0.7,1.2,1.6,2.9,1.7,3.2c0-0.2-0.1-2.3-0.1-3.8v-17h2.5v28.4h-0.5L311.2,301.5z"/>
	<path class="st1" d="M342.3,312.1h-8l-2,6.9h-2.6l8.5-28.3h0.3L347,319h-2.7L342.3,312.1z M334.9,309.8h6.7l-2.4-8.4
		c-0.4-1.3-0.8-2.9-0.9-3.4l-0.9,3.4L334.9,309.8z"/>
	<path class="st1" d="M354.4,290.9h2.6v13h9.8v-13h2.6v28h-2.6v-12.7H357V319h-2.6V290.9z"/>
</g>
<g>
	<path d="M199.8,333.5c0,0,0-0.1,0-0.3c0-0.2,0-0.3,0-0.3c0-0.1,0-0.2,0-0.4c0-0.2,0.1-0.4,0.1-0.6c0-0.2,0.1-0.4,0.1-0.6
		c0-0.2,0-0.4-0.1-0.5c-0.1-0.1-0.2-0.3-0.2-0.4c0-0.1,0-0.3,0.1-0.4c0-0.1,0.1-0.3,0.1-0.4c0-0.1,0-0.3,0-0.5
		c0-0.2-0.1-0.5-0.2-0.7c-0.1-0.3-0.1-0.5-0.1-0.6l0-0.3c0-0.1-0.1-0.2-0.1-0.3c0-0.1-0.1-0.2-0.1-0.2c0-0.1-0.1-0.1-0.1-0.2
		s0-0.1,0-0.2c0-0.1,0-0.2,0-0.3l0.2-0.1c0.2-0.2,0.4-0.2,0.6-0.2c0.1,0,0.2,0,0.2,0s0.1,0,0.1,0c0,0,0.1,0,0.2-0.1
		c0.1,0,0.2,0,0.4-0.1h0.7c0.1,0,0.2,0,0.2,0s0,0.1-0.1,0.2c0,0.1-0.1,0.1-0.1,0.2c0,0,0,0,0.1,0c0.2-0.1,0.4-0.1,0.6-0.1
		c0.2,0,0.4,0.1,0.6,0.2c0.1,0,0.3,0.1,0.5,0.3c0.1,0.1,0.2,0.2,0.4,0.4c0.1,0.2,0.3,0.3,0.4,0.5c0.1,0.2,0.2,0.4,0.3,0.7
		c0.1,0.3,0.1,0.6,0.2,0.9c0.1,0.3,0.1,0.6,0.2,0.9c0,0.3,0.1,0.5,0.1,0.6c0,0.1,0,0.2-0.1,0.3c-0.1,0.1-0.1,0.2-0.1,0.3
		c0.2,0.3,0.3,0.7,0.4,1.1c0.1,0.4,0.1,0.8,0.2,1.3l0.2-0.1c0.3-0.4,0.5-0.8,0.7-1.1c0.2-0.3,0.4-0.6,0.5-0.8
		c0.2-0.3,0.4-0.7,0.7-1.1c0.3-0.4,0.6-0.9,1.1-1.5c0.3-0.4,0.6-0.9,1-1.4l0.3-0.4l0.1-0.1l0.9-0.9c0.3-0.3,0.7-0.5,1.1-0.6
		c0.2-0.1,0.5-0.1,0.8,0c0.1,0,0.2,0.1,0.4,0.1c0.1,0.1,0.3,0.1,0.4,0.2l0.1,0.1c0.2,0.1,0.4,0.2,0.6,0.4c0.2,0.2,0.4,0.3,0.6,0.6
		c0.1,0.2,0.2,0.4,0.4,0.5s0.3,0.4,0.4,0.6c0.1,0.2,0.2,0.5,0.3,0.7c0.1,0.2,0.2,0.5,0.2,0.7c0,0.2,0.1,0.5,0.2,0.7
		c0.1,0.2,0.1,0.4,0.2,0.7c0,0.1,0,0.3,0,0.4s0,0.3,0,0.5c0,1.2,0,2.4,0,3.5c0,0.1,0,0.3,0,0.4c0,0.1,0,0.2,0,0.4
		c0,0.1-0.1,0.2-0.1,0.4c0,0.1,0,0.3-0.1,0.4c-0.1,0.5-0.2,0.8-0.2,1.1c0-0.1,0.1-0.2,0.2-0.3c0.1-0.1,0.1-0.2,0.2-0.4
		c0,0,0,0,0-0.1c0,0,0,0,0.1-0.1l0.3-0.7c0.2-0.3,0.4-0.5,0.5-0.8c0.2-0.3,0.4-0.6,0.5-1c0.1-0.1,0.1-0.2,0.2-0.4
		c0.1-0.1,0.1-0.3,0.2-0.4c0.1-0.1,0.1-0.2,0.2-0.3c0.1-0.1,0.1-0.2,0.2-0.3l0.4-0.7l1-1.4c0.1-0.1,0.2-0.2,0.2-0.3
		c0.1-0.1,0.1-0.2,0.2-0.3c0.6-0.7,1.1-1.3,1.6-1.8c0,0,0.1-0.1,0.1-0.1c0,0,0.1-0.1,0.1-0.1c0.3-0.3,0.6-0.6,1-0.8
		c0.4-0.2,0.8-0.4,1.2-0.4h0.2c0.1,0,0.1,0,0.2-0.1c0,0,0.1,0,0.1,0c0.3,0,0.5,0.1,0.6,0.1c0.2,0.1,0.4,0.1,0.5,0.2
		c0.2,0,0.3,0.1,0.3,0.1c0.1,0,0.1,0.1,0.2,0.2l0.1,0.2l0,0c0,0,0,0,0,0l0.3,0.3c0.3,0.3,0.5,0.6,0.5,0.7c0,0,0,0.1,0.1,0.2
		c0,0.1,0.1,0.2,0.1,0.3c0.1,0.2,0.2,0.4,0.3,0.6c0.1,0.2,0.2,0.4,0.3,0.6c0.1,1.1,0.1,2.2,0,3.4c0,0.5-0.1,1-0.1,1.5
		c0,0.5-0.1,1.1-0.2,1.6c0,0.3-0.1,0.5-0.1,0.8c0,0.3-0.1,0.6-0.1,0.8c0,0.3-0.1,0.5-0.1,0.7l-0.1,0.4c0,0.2-0.1,0.5-0.1,0.7
		c0,0.2-0.1,0.4-0.1,0.7l-0.3,1.5c-0.1,0.3-0.1,0.4-0.1,0.5c0,0,0,0,0,0.1c0,0,0,0.1-0.1,0.2c0,0.1-0.1,0.3-0.2,0.8l-0.3,1.1
		l-0.2,0.7l-0.4,0.6l0,1c0,0.2-0.1,0.3-0.1,0.3c0,0,0,0.1-0.1,0.2l-0.2,0.3c0,0,0.1,0.1,0.1,0.2c0.1,0.1,0.1,0.2,0.1,0.2
		c0,0.1-0.1,0.4-0.1,0.7c0,0.1,0,0.2,0,0.3c0,0.1,0,0.1,0,0.2l-0.1,0.3c0,0.1-0.1,0.2-0.2,0.4c-0.1,0.2-0.2,0.3-0.2,0.4
		c-0.1,0.4-0.1,0.7-0.2,1c0,0.3,0,0.6-0.1,0.9c-0.1,0.5-0.1,0.9-0.1,1.3c0,0.4,0,0.9,0,1.3c0,0.3,0,0.6,0,0.8s0,0.4,0.1,0.5
		c0.1,0.5,0.2,0.8,0.3,1l0.1,0.1c0,0.1,0,0.2,0.1,0.4c0.1,0.1,0.2,0.2,0.3,0.2c0.2,0,0.4,0,0.6-0.2c0.3-0.1,0.6-0.3,0.9-0.7
		c0.3-0.3,0.5-0.7,0.8-1l0.5-0.7l0.2-0.3c0.1-0.1,0.1-0.2,0.2-0.3c0.1-0.1,0.1-0.2,0.2-0.3l1.5-2.3l0.4-0.7c0.4-0.5,0.6-0.8,0.6-0.9
		l0.1-0.3l0.2-0.2c0.2-0.3,0.3-0.5,0.4-0.6c0.1-0.1,0.2-0.2,0.2-0.3c0.1-0.1,0.2-0.2,0.3-0.2c0.1,0.3,0.1,0.5,0.1,0.7c0,0,0,0,0,0.1
		c0,0,0,0,0,0.1c0,0.2-0.1,0.3-0.2,0.4s-0.1,0.3-0.2,0.4l-0.1,0.4l-0.3,0.6c0,0.1-0.1,0.2-0.1,0.2c0,0.1-0.1,0.1-0.1,0.2
		c0,0.1-0.1,0.3-0.3,0.5c-0.1,0.2-0.2,0.5-0.5,0.8c-0.2,0.4-0.4,0.7-0.7,1.1c-0.3,0.4-0.5,0.8-0.7,1.2c-0.2,0.4-0.4,0.7-0.6,1
		l-0.7,0.8l-0.1,0.2c-0.2,0.3-0.4,0.5-0.6,0.8c-0.2,0.3-0.5,0.5-0.7,0.7l-0.3,0.3c-0.3,0.4-0.6,0.8-0.9,0.9
		c-0.3,0.2-0.5,0.3-0.7,0.3c-0.2,0-0.4,0-0.5,0.1l-0.2,0.1c0,0-0.1,0-0.1,0l-0.3,0.1c-0.3,0.1-0.6,0.2-0.8,0.1
		c-0.2,0-0.4-0.1-0.5-0.2c-0.2-0.1-0.3-0.2-0.5-0.3c-0.1,0-0.3,0-0.5-0.1c-0.4-0.3-0.7-0.6-1-1c-0.3-0.4-0.6-0.9-0.8-1.4l-0.3-0.7
		c-0.3-0.7-0.6-1.6-0.7-2.7c-0.1-1.1-0.1-2.3,0-3.7c0-0.1,0-0.1,0-0.2s0-0.2,0-0.2c0-0.4,0.1-0.9,0.1-1.3c0-0.4,0.1-0.8,0.1-1.2
		l0.1-0.7c0-0.3,0.1-0.5,0.1-0.6c0-0.1,0-0.1,0-0.2c0,0,0-0.1,0-0.1s0.1-0.2,0.1-0.5l0.1-0.3l0.4-1.5l0.1-0.4l0.3-1.3
		c0-0.1,0.1-0.3,0.1-0.4c0-0.1,0.1-0.3,0.1-0.4l0.2-0.8l0.4-1.7l0.5-1.7l0.8-2.6l0.1-0.6c0.1-0.4,0.2-0.7,0.3-0.9s0.1-0.3,0.1-0.4
		c0,0,0-0.1,0.1-0.3c0-0.1,0.1-0.3,0.1-0.5c0-0.2,0.1-0.4,0.2-0.6c0.1-0.2,0.1-0.4,0.1-0.5l0.1-0.3c0-0.1,0-0.3,0.1-0.4s0-0.2,0-0.2
		c-0.3-0.1-0.5,0-0.9,0.2l-0.2,0.1c-0.1,0-0.3,0.1-0.4,0.2c-0.1,0.1-0.2,0.2-0.3,0.4l-0.6,0.6c0,0-0.1,0.1-0.2,0.2
		c-0.1,0.1-0.2,0.2-0.3,0.3c-0.1,0.1-0.2,0.2-0.2,0.2l-0.1,0.1c-0.2,0.2-0.4,0.5-0.5,0.9c-0.2,0.4-0.4,0.8-0.6,1.3l-0.7,1.4
		l-0.2,0.4l-0.6,1.2c-0.1,0.1-0.1,0.2-0.2,0.4c-0.1,0.1-0.1,0.3-0.2,0.4l-0.1,0.3l-0.3,0.7l-0.2,0.6l-0.2,0.3c0,0.1-0.1,0.2-0.2,0.3
		s-0.1,0.2-0.2,0.3l-0.2,0.9c-0.1,0.3-0.2,0.5-0.2,0.8c-0.1,0.3-0.1,0.5-0.2,0.8l-0.1,0.5c-0.1,0.4-0.2,0.7-0.3,0.9
		s-0.2,0.4-0.3,0.6c-0.1,0.2-0.2,0.4-0.3,0.6c-0.1,0.2-0.1,0.3-0.2,0.4c0,0.1-0.1,0.2-0.1,0.3c0,0.1-0.1,0.2-0.1,0.4l-0.2,0.7
		c0,0.1-0.1,0.2-0.1,0.3c0,0.1-0.1,0.3-0.1,0.5c0,0.2-0.1,0.3-0.2,0.5l-0.2,0.3c-0.1,0.1-0.1,0.3-0.2,0.5c0,0.2-0.1,0.4-0.1,0.6
		c0,0.2-0.1,0.4-0.2,0.6s-0.2,0.3-0.3,0.4c-0.1,0-0.2,0.1-0.3,0s-0.3-0.1-0.4-0.1c-0.1,0-0.3-0.1-0.4-0.2c-0.1-0.1-0.2-0.1-0.3-0.1
		h-0.2c-0.6,0-1.1-0.3-1.3-0.8c0-0.1,0-0.2-0.1-0.4c0-0.1,0-0.3-0.1-0.4c-0.1,0-0.1-0.2-0.2-0.5c0-0.3,0-0.5,0-0.8l0-0.2
		c0-0.1,0.1-0.6,0.2-1.3s0.3-1.7,0.5-2.7l0.3-1.8l0.2-1.3c0.1-0.5,0.2-1,0.2-1.5c0-0.5,0.1-1,0.1-1.4l0.1-0.5l0.3-3.2
		c0-0.3,0-0.6,0.1-0.8c0-0.3,0-0.5,0-0.8l0-0.4v-1.7l-0.1-1.2c0-0.2,0-0.4-0.1-0.6v-0.1c0-0.3-0.1-0.5-0.3-0.6c-0.1,0-0.2,0-0.3,0.1
		c-0.1,0.1-0.3,0.2-0.4,0.4c-0.1,0.1-0.3,0.2-0.5,0.5l-0.5,0.6l-0.3,0.3l-0.3,0.5c0,0.1-0.1,0.2-0.1,0.3c0,0.1-0.1,0.1-0.1,0.2
		l-0.5,0.6c0,0-0.1,0-0.1,0.1c0,0,0,0-0.1,0.1c-0.1,0.1-0.1,0.2-0.2,0.3c-0.1,0.1-0.1,0.2-0.2,0.3l-0.1,0.2c0,0.1-0.1,0.2-0.2,0.3
		c-0.1,0.1-0.1,0.2-0.2,0.3l-0.5,0.9l-0.5,1.2c-0.1,0.3-0.2,0.5-0.3,0.7c-0.1,0.2-0.2,0.3-0.2,0.5c-0.1,0.2-0.2,0.3-0.2,0.6
		c0,0.1,0,0.2-0.1,0.3c0,0.1,0,0.2,0,0.3c0,0,0,0,0,0l-0.1,0.3c-0.1,0.4-0.2,0.8-0.3,1.2c-0.1,0.5-0.2,0.9-0.2,1.4
		c-0.1,0.6-0.2,1.2-0.3,1.8s-0.1,1-0.2,1.4c0,0.1,0,0.2,0,0.4c0,0.2,0,0.4,0,0.7c0,0.1,0,0.2,0,0.3s0,0.1,0,0.2c0,0.2,0,0.3,0,0.3
		s0,0.1,0,0.1v0c0,0.1,0,0.3,0,0.5c0,0.2,0,0.4,0,0.5c0,0.2,0,0.5-0.1,0.7c0,0.1,0,0.2,0,0.2c0,0,0,0.1,0,0.1c0,0,0,0,0,0.1
		l-0.1,0.6c0,0.1,0,0.3-0.1,0.5c0,0.2-0.1,0.5-0.1,0.7c0,0.3-0.1,0.5-0.1,0.8c0,0.3-0.1,0.5-0.1,0.6l-0.1,0.5c0,0.1-0.1,0.2-0.1,0.3
		c0,0.1-0.1,0.2-0.1,0.3c0,0,0,0,0,0v0.1c0,0.1,0,0.3-0.1,0.4c-0.1,0.2-0.2,0.3-0.3,0.5l-0.3,0.7l-0.2,0.6c0,0.1-0.1,0.2-0.2,0.3
		s-0.1,0.2-0.2,0.2l-0.3,0.5c0,0.1-0.1,0.2-0.2,0.3c-0.1,0.1-0.2,0.2-0.2,0.2c-0.1,0.1-0.3,0.1-0.5,0.1c-0.1,0-0.2,0-0.3,0.1
		c-0.1,0-0.2,0-0.3,0c-0.1,0-0.1,0-0.2-0.1s-0.1-0.1-0.2-0.2c-0.1-0.1-0.2-0.2-0.2-0.2c-0.1-0.1-0.2-0.1-0.2-0.1
		c-0.2,0-0.4-0.1-0.5-0.1l-0.3-0.1c-0.2-0.1-0.3-0.2-0.5-0.4c-0.1-0.2-0.3-0.4-0.3-0.6l-0.1-0.2c-0.2-0.2-0.3-0.5-0.3-0.7
		c-0.1-0.3-0.1-0.6-0.2-1.1v-0.4c0-0.1,0-0.3,0-0.4c0-0.1,0-0.3,0-0.4l0.1-0.8c0-0.2,0-0.3,0-0.4v-0.1l0-0.2l0.1-0.7l0.1-1.1
		l0.3-2.2l0-0.3l0-0.8l0-0.1l0-0.5c0.2-0.9,0.3-1.8,0.4-2.7c0.1-0.9,0.2-1.8,0.3-2.6l0.1-1c0-0.3,0.1-0.7,0.1-1c0-0.3,0.1-0.7,0.1-1
		c0-0.4,0.1-0.7,0.2-1c0.1-0.3,0.2-0.6,0.2-0.9l0.1-0.4L199.8,333.5z M204.3,346.3v-0.2c0.1,0.3,0.1,0.4,0,0.3v0V346.3z"/>
	<path d="M257.9,346.3c0.1,0.1,0.2,0.3,0.1,0.6c0,0.2-0.1,0.3-0.2,0.4c-0.1,0.1-0.1,0.2-0.2,0.3c0,0,0,0,0,0.1c0,0,0,0.1-0.1,0.1
		c0,0.1-0.1,0.3-0.2,0.7c-0.1,0.3-0.2,0.6-0.3,0.7c0,0-0.1,0.1-0.1,0.2c-0.1,0.1-0.1,0.2-0.2,0.4s-0.1,0.3-0.2,0.4s-0.1,0.2-0.1,0.3
		l-0.3,0.6l-0.1,0.1c0,0,0,0,0,0.1s0,0,0,0.1c0,0.2-0.1,0.4-0.2,0.5c-0.1,0.2-0.2,0.3-0.3,0.5c0,0.1-0.1,0.1-0.1,0.2
		c0,0.1-0.1,0.2-0.2,0.3c-0.4,0.6-0.9,1.2-1.6,1.8c0,0.1,0,0.2-0.1,0.3c0,0-0.1,0.1-0.2,0.2c-0.1,0.1-0.2,0.2-0.2,0.3
		c-0.4,0.5-0.8,0.9-1.2,1.3c-0.4,0.3-0.8,0.7-1.4,1c-0.1,0.1-0.3,0.2-0.4,0.3c-0.1,0.1-0.3,0.2-0.5,0.3c-0.3,0.2-0.5,0.4-0.7,0.5
		c-0.2,0.2-0.4,0.3-0.7,0.4c-0.6,0.3-1.2,0.6-1.8,0.7c-0.6,0.1-1.2,0.2-1.7,0.2c0,0-0.1,0-0.2,0c-0.4,0-0.8,0-1.3-0.1
		c-0.5-0.1-0.9-0.2-1.4-0.4s-0.9-0.4-1.3-0.6s-0.8-0.5-1.1-0.7c-0.6-0.5-1.2-1.1-1.8-2c-0.3-0.5-0.5-0.9-0.7-1.3
		c-0.2-0.4-0.4-0.9-0.5-1.4c-0.3-0.8-0.4-1.7-0.5-2.7c0-0.1,0-0.1,0-0.2s0-0.1,0-0.2v-1.8c0-0.5,0-1,0-1.4s0.1-0.9,0.1-1.3l0.2-1.1
		l0.1-0.7c0-0.1,0-0.2,0-0.3c0-0.1,0.1-0.3,0.1-0.4c0-0.1,0.1-0.3,0.1-0.5l0.2-1.3c0.1-0.6,0.3-1.2,0.5-1.9s0.5-1.4,0.8-2.1
		c0.1-0.3,0.3-0.7,0.5-1.1c0.5-1,1-2.1,1.7-3.1c0.7-1,1.4-1.8,2.2-2.5l0.2-0.1c0.3-0.3,0.8-0.6,1.2-0.9c0.3-0.2,0.7-0.4,1.2-0.7
		c1.2-0.5,2.3-0.8,3.4-0.7c0.3-0.1,0.7-0.1,1.1-0.1c0.4,0,0.8,0.1,1.1,0.1c0.6,0.1,1.1,0.2,1.5,0.4c0.4,0.2,0.9,0.4,1.5,0.6
		c0.6,0.1,1,0.3,1.3,0.6c0.2,0.3,0.3,0.6,0.5,0.9c0.1,0.3,0.2,0.7,0.1,1.1c0,0.4-0.1,0.7-0.2,1.1c-0.1,0.4-0.3,0.7-0.5,1.1
		c-0.1,0.2-0.2,0.4-0.2,0.5c0,0.2-0.1,0.3-0.2,0.5l-0.1,0.1c-0.2,0.4-0.2,0.7-0.1,0.9c0,0.1-0.1,0.2-0.3,0.3
		c-0.1,0.1-0.3,0.1-0.4,0.2c-0.1,0-0.2,0.1-0.4,0.1c-0.1,0-0.2,0.1-0.2,0.1c-0.1,0-0.3,0-0.4-0.1c-0.1-0.1-0.2-0.2-0.4-0.3
		c-0.1-0.1-0.2-0.2-0.3-0.4c-0.1-0.1-0.2-0.2-0.2-0.3c0,0,0-0.1-0.1-0.2c0-0.1,0-0.2-0.1-0.3c-0.2-0.7-0.3-1.2-0.2-1.5
		c0.1-0.3,0.3-0.5,0.5-0.7c0.3-0.1,0.6-0.3,0.9-0.4c0.4-0.1,0.7-0.3,1-0.6c0.2-0.2,0.2-0.4,0-0.7c-0.2-0.3-0.4-0.5-0.7-0.7
		c-0.3-0.2-0.6-0.4-1-0.5c-0.4-0.1-0.7-0.2-1-0.1c-0.2,0-0.5-0.1-0.7-0.1c-0.2,0-0.4,0-0.6,0.1c-0.1,0.1-0.3,0.2-0.5,0.3
		c-0.2,0.2-0.3,0.3-0.5,0.5c-0.2,0.2-0.3,0.4-0.5,0.5c-0.2,0.2-0.3,0.3-0.5,0.4c-0.1,0.1-0.2,0.2-0.3,0.4c-0.1,0.1-0.2,0.3-0.2,0.4
		c-0.3,0.4-0.6,0.8-0.9,1.3c-0.1,0.2-0.2,0.4-0.3,0.5c-0.1,0.2-0.2,0.3-0.3,0.4c0,0.1-0.1,0.2-0.1,0.2c0,0.1-0.1,0.2-0.1,0.3
		c-0.1,0.2-0.2,0.4-0.4,0.6c-0.1,0.2-0.2,0.4-0.4,0.6c-0.3,0.5-0.6,1-0.9,1.6c-0.3,0.6-0.6,1.3-0.8,1.9c-0.2,0.5-0.4,1.1-0.6,1.7
		c-0.2,0.7-0.4,1.3-0.5,2c0,0.5,0,0.9-0.1,1.1c-0.1,0.6-0.2,1-0.3,1.4c-0.1,0.4-0.2,0.8-0.1,1.3c-0.1,0.7-0.1,1.4,0,2.2
		c0,0.2,0,0.4,0,0.6c0,0.2,0,0.5,0,0.8c0,0.3,0,0.6,0,0.8c0,0.3,0,0.5,0.1,0.7c0.1,0.5,0.2,0.9,0.4,1.3c0.2,0.4,0.3,0.8,0.5,1.1
		c0.2,0.4,0.4,0.7,0.6,0.9c0.3,0.3,0.6,0.6,1,0.8c0.1,0,0.2,0.1,0.4,0.1c0.2,0,0.3,0.1,0.5,0.1c0.1,0.1,0.2,0.1,0.3,0.1
		c0.1,0.1,0.3,0.2,0.6,0.4c0.2,0.2,0.5,0.3,0.7,0.2c0.4-0.1,0.8-0.3,1.2-0.5c0.4-0.3,0.8-0.5,1.1-0.7c0.7-0.2,1.3-0.6,1.8-1.1
		s1-1,1.5-1.4c0.1-0.1,0.2-0.3,0.4-0.5c0.1-0.2,0.3-0.4,0.5-0.6c0.3-0.4,0.6-0.7,0.8-1.1c0.3-0.4,0.5-0.7,0.7-1
		c0.4-0.7,0.7-1.4,1-1.9c0.3-0.6,0.5-1,0.6-1.4c0-0.5,0.1-0.8,0.3-1.1c0.1-0.3,0.3-0.5,0.4-0.6s0.3-0.2,0.4-0.2s0.2,0.1,0.2,0.2
		L257.9,346.3z"/>
	<path d="M260.3,333.5c0,0,0-0.1,0-0.3c0-0.2,0-0.3,0-0.3c0-0.1,0-0.2,0-0.4c0-0.2,0.1-0.4,0.1-0.6c0-0.2,0.1-0.4,0.1-0.6
		c0-0.2,0-0.4-0.1-0.5c-0.1-0.1-0.2-0.3-0.2-0.4c0-0.1,0-0.3,0.1-0.4c0-0.1,0.1-0.3,0.1-0.4c0-0.1,0-0.3,0-0.5
		c0-0.2-0.1-0.5-0.2-0.7c-0.1-0.3-0.1-0.5-0.1-0.6l0-0.3c0-0.1-0.1-0.2-0.1-0.3c0-0.1-0.1-0.2-0.1-0.2c0-0.1-0.1-0.1-0.1-0.2
		s0-0.1,0-0.2c0-0.1,0-0.2,0-0.3l0.2-0.1c0.2-0.2,0.4-0.2,0.6-0.2c0.1,0,0.2,0,0.2,0s0.1,0,0.1,0c0,0,0.1,0,0.2-0.1
		c0.1,0,0.2,0,0.4-0.1h0.7c0.1,0,0.2,0,0.2,0s0,0.1-0.1,0.2c0,0.1-0.1,0.1-0.1,0.2c0,0,0,0,0.1,0c0.2-0.1,0.4-0.1,0.6-0.1
		c0.2,0,0.4,0.1,0.6,0.2c0.1,0,0.3,0.1,0.5,0.3c0.1,0.1,0.2,0.2,0.4,0.4c0.1,0.2,0.3,0.3,0.4,0.5c0.1,0.2,0.2,0.4,0.3,0.7
		c0.1,0.3,0.1,0.6,0.2,0.9c0.1,0.3,0.1,0.6,0.2,0.9c0,0.3,0.1,0.5,0.1,0.6c0,0.1,0,0.2-0.1,0.3c-0.1,0.1-0.1,0.2-0.1,0.3
		c0.2,0.3,0.3,0.7,0.4,1.1c0.1,0.4,0.1,0.8,0.2,1.3l0.2-0.1c0.3-0.4,0.5-0.8,0.7-1.1c0.2-0.3,0.4-0.6,0.5-0.8
		c0.2-0.3,0.4-0.7,0.7-1.1c0.3-0.4,0.6-0.9,1.1-1.5c0.3-0.4,0.6-0.9,1-1.4l0.3-0.4l0.1-0.1l0.9-0.9c0.3-0.3,0.7-0.5,1.1-0.6
		c0.2-0.1,0.5-0.1,0.8,0c0.1,0,0.2,0.1,0.4,0.1s0.3,0.1,0.4,0.2l0.1,0.1c0.2,0.1,0.4,0.2,0.6,0.4s0.4,0.3,0.6,0.6
		c0.1,0.2,0.2,0.4,0.4,0.5s0.3,0.4,0.4,0.6s0.2,0.5,0.3,0.7c0.1,0.2,0.2,0.5,0.2,0.7c0,0.2,0.1,0.5,0.2,0.7c0.1,0.2,0.1,0.4,0.2,0.7
		c0,0.1,0,0.3,0,0.4s0,0.3,0,0.5c0,1.2,0,2.4,0,3.5c0,0.1,0,0.3,0,0.4c0,0.1,0,0.2,0,0.4c0,0.1-0.1,0.2-0.1,0.4c0,0.1,0,0.3-0.1,0.4
		c-0.1,0.5-0.2,0.8-0.2,1.1c0-0.1,0.1-0.2,0.2-0.3c0.1-0.1,0.1-0.2,0.2-0.4c0,0,0,0,0-0.1c0,0,0,0,0.1-0.1l0.3-0.7
		c0.2-0.3,0.4-0.5,0.5-0.8c0.2-0.3,0.4-0.6,0.5-1c0.1-0.1,0.1-0.2,0.2-0.4s0.1-0.3,0.2-0.4c0.1-0.1,0.1-0.2,0.2-0.3
		c0.1-0.1,0.1-0.2,0.2-0.3l0.4-0.7l1-1.4c0.1-0.1,0.2-0.2,0.2-0.3c0.1-0.1,0.1-0.2,0.2-0.3c0.6-0.7,1.1-1.3,1.6-1.8
		c0,0,0.1-0.1,0.1-0.1s0.1-0.1,0.1-0.1c0.3-0.3,0.6-0.6,1-0.8c0.4-0.2,0.8-0.4,1.2-0.4h0.2c0.1,0,0.1,0,0.2-0.1c0,0,0.1,0,0.1,0
		c0.3,0,0.5,0.1,0.6,0.1c0.2,0.1,0.4,0.1,0.5,0.2c0.2,0,0.3,0.1,0.3,0.1c0.1,0,0.1,0.1,0.2,0.2l0.1,0.2l0,0c0,0,0,0,0,0l0.3,0.3
		c0.3,0.3,0.5,0.6,0.5,0.7c0,0,0,0.1,0.1,0.2c0,0.1,0.1,0.2,0.1,0.3c0.1,0.2,0.2,0.4,0.3,0.6c0.1,0.2,0.2,0.4,0.3,0.6
		c0.1,1.1,0.1,2.2,0,3.4c0,0.5-0.1,1-0.1,1.5c0,0.5-0.1,1.1-0.2,1.6c0,0.3-0.1,0.5-0.1,0.8c0,0.3-0.1,0.6-0.1,0.8
		c0,0.3-0.1,0.5-0.1,0.7l-0.1,0.4c0,0.2-0.1,0.5-0.1,0.7c0,0.2-0.1,0.4-0.1,0.7l-0.3,1.5c-0.1,0.3-0.1,0.4-0.1,0.5c0,0,0,0,0,0.1
		c0,0,0,0.1-0.1,0.2c0,0.1-0.1,0.3-0.2,0.8l-0.3,1.1l-0.2,0.7l-0.4,0.6l0,1c0,0.2-0.1,0.3-0.1,0.3c0,0,0,0.1-0.1,0.2l-0.2,0.3
		c0,0,0.1,0.1,0.1,0.2c0.1,0.1,0.1,0.2,0.1,0.2c0,0.1-0.1,0.4-0.1,0.7c0,0.1,0,0.2,0,0.3c0,0.1,0,0.1,0,0.2l-0.1,0.3
		c0,0.1-0.1,0.2-0.2,0.4c-0.1,0.2-0.2,0.3-0.2,0.4c-0.1,0.4-0.1,0.7-0.2,1c0,0.3,0,0.6-0.1,0.9c-0.1,0.5-0.1,0.9-0.1,1.3
		c0,0.4,0,0.9,0,1.3c0,0.3,0,0.6,0,0.8c0,0.2,0,0.4,0.1,0.5c0.1,0.5,0.2,0.8,0.3,1l0.1,0.1c0,0.1,0,0.2,0.1,0.4
		c0.1,0.1,0.2,0.2,0.3,0.2c0.2,0,0.4,0,0.6-0.2c0.3-0.1,0.6-0.3,0.9-0.7s0.5-0.7,0.8-1l0.5-0.7l0.2-0.3c0.1-0.1,0.1-0.2,0.2-0.3
		c0.1-0.1,0.1-0.2,0.2-0.3l1.5-2.3l0.4-0.7c0.4-0.5,0.6-0.8,0.6-0.9l0.1-0.3l0.2-0.2c0.2-0.3,0.3-0.5,0.4-0.6
		c0.1-0.1,0.2-0.2,0.2-0.3c0.1-0.1,0.2-0.2,0.3-0.2c0.1,0.3,0.1,0.5,0.1,0.7c0,0,0,0,0,0.1c0,0,0,0,0,0.1c0,0.2-0.1,0.3-0.2,0.4
		s-0.1,0.3-0.2,0.4l-0.1,0.4l-0.3,0.6c0,0.1-0.1,0.2-0.1,0.2s-0.1,0.1-0.1,0.2c0,0.1-0.1,0.3-0.3,0.5c-0.1,0.2-0.2,0.5-0.5,0.8
		c-0.2,0.4-0.4,0.7-0.7,1.1c-0.3,0.4-0.5,0.8-0.7,1.2c-0.2,0.4-0.4,0.7-0.6,1l-0.7,0.8l-0.1,0.2c-0.2,0.3-0.4,0.5-0.6,0.8
		c-0.2,0.3-0.5,0.5-0.7,0.7l-0.3,0.3c-0.3,0.4-0.6,0.8-0.9,0.9c-0.3,0.2-0.5,0.3-0.7,0.3c-0.2,0-0.4,0-0.5,0.1l-0.2,0.1
		c0,0-0.1,0-0.1,0l-0.3,0.1c-0.3,0.1-0.6,0.2-0.8,0.1c-0.2,0-0.4-0.1-0.5-0.2c-0.2-0.1-0.3-0.2-0.5-0.3c-0.1,0-0.3,0-0.5-0.1
		c-0.4-0.3-0.7-0.6-1-1c-0.3-0.4-0.6-0.9-0.8-1.4l-0.3-0.7c-0.3-0.7-0.6-1.6-0.7-2.7c-0.1-1.1-0.1-2.3,0-3.7c0-0.1,0-0.1,0-0.2
		s0-0.2,0-0.2c0-0.4,0.1-0.9,0.1-1.3c0-0.4,0.1-0.8,0.1-1.2l0.1-0.7c0-0.3,0.1-0.5,0.1-0.6c0-0.1,0-0.1,0-0.2c0,0,0-0.1,0-0.1
		s0.1-0.2,0.1-0.5l0.1-0.3l0.4-1.5l0.1-0.4l0.3-1.3c0-0.1,0.1-0.3,0.1-0.4c0-0.1,0.1-0.3,0.1-0.4l0.2-0.8l0.4-1.7l0.5-1.7l0.8-2.6
		l0.1-0.6c0.1-0.4,0.2-0.7,0.3-0.9s0.1-0.3,0.1-0.4c0,0,0-0.1,0.1-0.3c0-0.1,0.1-0.3,0.1-0.5c0-0.2,0.1-0.4,0.2-0.6
		c0.1-0.2,0.1-0.4,0.1-0.5l0.1-0.3c0-0.1,0-0.3,0.1-0.4s0-0.2,0-0.2c-0.3-0.1-0.5,0-0.9,0.2l-0.2,0.1c-0.1,0-0.3,0.1-0.4,0.2
		c-0.1,0.1-0.2,0.2-0.3,0.4l-0.6,0.6c0,0-0.1,0.1-0.2,0.2c-0.1,0.1-0.2,0.2-0.3,0.3c-0.1,0.1-0.2,0.2-0.2,0.2l-0.1,0.1
		c-0.2,0.2-0.4,0.5-0.5,0.9c-0.2,0.4-0.4,0.8-0.6,1.3l-0.7,1.4l-0.2,0.4l-0.6,1.2c-0.1,0.1-0.1,0.2-0.2,0.4
		c-0.1,0.1-0.1,0.3-0.2,0.4l-0.1,0.3l-0.3,0.7l-0.2,0.6l-0.2,0.3c0,0.1-0.1,0.2-0.2,0.3c-0.1,0.1-0.1,0.2-0.2,0.3l-0.2,0.9
		c-0.1,0.3-0.2,0.5-0.2,0.8c-0.1,0.3-0.1,0.5-0.2,0.8l-0.1,0.5c-0.1,0.4-0.2,0.7-0.3,0.9s-0.2,0.4-0.3,0.6c-0.1,0.2-0.2,0.4-0.3,0.6
		c-0.1,0.2-0.1,0.3-0.2,0.4c0,0.1-0.1,0.2-0.1,0.3c0,0.1-0.1,0.2-0.1,0.4l-0.2,0.7c0,0.1-0.1,0.2-0.1,0.3c0,0.1-0.1,0.3-0.1,0.5
		c0,0.2-0.1,0.3-0.2,0.5l-0.2,0.3c-0.1,0.1-0.1,0.3-0.2,0.5c0,0.2-0.1,0.4-0.1,0.6c0,0.2-0.1,0.4-0.2,0.6s-0.2,0.3-0.3,0.4
		c-0.1,0-0.2,0.1-0.3,0c-0.1,0-0.3-0.1-0.4-0.1c-0.1,0-0.3-0.1-0.4-0.2c-0.1-0.1-0.2-0.1-0.3-0.1h-0.2c-0.6,0-1.1-0.3-1.3-0.8
		c0-0.1,0-0.2-0.1-0.4c0-0.1,0-0.3-0.1-0.4c-0.1,0-0.1-0.2-0.2-0.5c0-0.3,0-0.5,0-0.8l0-0.2c0-0.1,0.1-0.6,0.2-1.3
		c0.1-0.8,0.3-1.7,0.5-2.7l0.3-1.8l0.2-1.3c0.1-0.5,0.2-1,0.2-1.5c0-0.5,0.1-1,0.1-1.4l0.1-0.5l0.3-3.2c0-0.3,0-0.6,0.1-0.8
		c0-0.3,0-0.5,0-0.8l0-0.4v-1.7l-0.1-1.2c0-0.2,0-0.4-0.1-0.6v-0.1c0-0.3-0.1-0.5-0.3-0.6c-0.1,0-0.2,0-0.3,0.1
		c-0.1,0.1-0.3,0.2-0.4,0.4c-0.1,0.1-0.3,0.2-0.5,0.5l-0.5,0.6l-0.3,0.3l-0.3,0.5c0,0.1-0.1,0.2-0.1,0.3c0,0.1-0.1,0.1-0.1,0.2
		l-0.5,0.6c0,0-0.1,0-0.1,0.1c0,0,0,0-0.1,0.1c-0.1,0.1-0.1,0.2-0.2,0.3c-0.1,0.1-0.1,0.2-0.2,0.3l-0.1,0.2c0,0.1-0.1,0.2-0.2,0.3
		c-0.1,0.1-0.1,0.2-0.2,0.3l-0.5,0.9l-0.5,1.2c-0.1,0.3-0.2,0.5-0.3,0.7c-0.1,0.2-0.2,0.3-0.2,0.5c-0.1,0.2-0.2,0.3-0.2,0.6
		c0,0.1,0,0.2-0.1,0.3c0,0.1,0,0.2,0,0.3c0,0,0,0,0,0l-0.1,0.3c-0.1,0.4-0.2,0.8-0.3,1.2c-0.1,0.5-0.2,0.9-0.2,1.4
		c-0.1,0.6-0.2,1.2-0.3,1.8s-0.1,1-0.2,1.4c0,0.1,0,0.2,0,0.4c0,0.2,0,0.4,0,0.7c0,0.1,0,0.2,0,0.3s0,0.1,0,0.2c0,0.2,0,0.3,0,0.3
		s0,0.1,0,0.1v0c0,0.1,0,0.3,0,0.5c0,0.2,0,0.4,0,0.5c0,0.2,0,0.5-0.1,0.7c0,0.1,0,0.2,0,0.2c0,0,0,0.1,0,0.1c0,0,0,0,0,0.1
		l-0.1,0.6c0,0.1,0,0.3-0.1,0.5c0,0.2-0.1,0.5-0.1,0.7c0,0.3-0.1,0.5-0.1,0.8c0,0.3-0.1,0.5-0.1,0.6l-0.1,0.5c0,0.1-0.1,0.2-0.1,0.3
		c0,0.1-0.1,0.2-0.1,0.3c0,0,0,0,0,0v0.1c0,0.1,0,0.3-0.1,0.4c-0.1,0.2-0.2,0.3-0.3,0.5l-0.3,0.7l-0.2,0.6c0,0.1-0.1,0.2-0.2,0.3
		s-0.1,0.2-0.2,0.2l-0.3,0.5c0,0.1-0.1,0.2-0.2,0.3c-0.1,0.1-0.2,0.2-0.2,0.2c-0.1,0.1-0.3,0.1-0.5,0.1c-0.1,0-0.2,0-0.3,0.1
		c-0.1,0-0.2,0-0.3,0c-0.1,0-0.1,0-0.2-0.1s-0.1-0.1-0.2-0.2c-0.1-0.1-0.2-0.2-0.2-0.2c-0.1-0.1-0.2-0.1-0.2-0.1
		c-0.2,0-0.4-0.1-0.5-0.1l-0.3-0.1c-0.2-0.1-0.3-0.2-0.5-0.4c-0.1-0.2-0.3-0.4-0.3-0.6l-0.1-0.2c-0.2-0.2-0.3-0.5-0.3-0.7
		c-0.1-0.3-0.1-0.6-0.2-1.1v-0.4c0-0.1,0-0.3,0-0.4c0-0.1,0-0.3,0-0.4l0.1-0.8c0-0.2,0-0.3,0-0.4v-0.1l0-0.2l0.1-0.7l0.1-1.1
		l0.3-2.2l0-0.3l0-0.8l0-0.1l0-0.5c0.2-0.9,0.3-1.8,0.4-2.7c0.1-0.9,0.2-1.8,0.3-2.6l0.1-1c0-0.3,0.1-0.7,0.1-1c0-0.3,0.1-0.7,0.1-1
		c0-0.4,0.1-0.7,0.2-1c0.1-0.3,0.2-0.6,0.2-0.9l0.1-0.4L260.3,333.5z M264.8,346.3v-0.2c0.1,0.3,0.1,0.4,0,0.3v0V346.3z"/>
	<path d="M310.8,332c0.1-0.2,0.3-0.3,0.6-0.3c0,0,0.1,0,0.1,0.1c0,0.1,0.1,0.1,0.1,0.1c0.2,0,0.5,0.1,0.7,0.2
		c0.3,0.1,0.5,0.3,0.8,0.5c0.3,0.2,0.5,0.5,0.7,0.7c0.1,0.1,0.2,0.2,0.3,0.4c0.1,0.1,0.2,0.3,0.2,0.4c0.2,0.3,0.4,0.7,0.6,1.1
		c0,0.3,0.1,0.6,0,0.8c0,0.3-0.1,0.6-0.1,1.1c0,0.3-0.1,0.4-0.1,0.5c0,0.1-0.1,0.2-0.1,0.4c0,0.3-0.1,0.6-0.1,0.9
		c0,0.3-0.1,0.6-0.2,0.9c0,0.3,0.1,0.6,0.1,1c0,0.3,0.1,0.6,0.1,1l0.1,0.9c-0.1,0.5-0.2,1.1-0.3,1.6c-0.1,0.5-0.2,1.1-0.3,1.6
		c0,0.2-0.1,0.3-0.1,0.5c0,0.1,0,0.2,0,0.4c0.1,0,0.2,0,0.2,0c0,0,0,0,0.1,0c0,0,0,0,0.1,0c0,0,0.1,0,0.3-0.1l0.5-0.2l0.9-0.1
		c0.2,0,0.3,0.2,0.4,0.5c0.1,0.3,0.1,0.5,0.1,0.6c0,0.2-0.1,0.4-0.3,0.6c-0.2,0.1-0.6,0.3-1.1,0.4l-0.6,0.2l-0.5,0.6
		c-0.1,0.1-0.2,0.2-0.3,0.4c-0.1,0.2-0.2,0.5-0.2,0.9c-0.1,0.9-0.2,2.1-0.3,3.5c0,0.1,0,0.2,0,0.3c0,0.2,0,0.3-0.1,0.4
		c-0.1,0.3-0.1,0.6-0.2,0.8c0,0.3,0,0.5,0,0.8c0,0.2,0,0.5,0,0.7c0,0.2,0,0.4,0,0.7c0,0.1,0,0.3,0,0.5c0,0.1,0,0.3-0.1,0.4
		c0,0.1,0,0.3,0,0.5c0,0.3,0,0.5,0,0.7s0,0.5,0,0.7c0,0.1,0,0.2,0,0.3c0,0.1,0,0.2,0,0.3c0,0.4,0,0.8,0.1,1.1c0,0.3,0.1,0.6,0.1,0.9
		c0,0.1,0.1,0.2,0.1,0.4c0,0.1,0.1,0.3,0.1,0.5l0.1,0.6c0,0.3,0,0.6,0,0.9c0,0.3,0,0.5,0,0.7c0,0.2,0.1,0.4,0.2,0.6
		c0,0.2,0,0.3,0,0.4c0,0.3-0.1,0.6-0.1,0.9c0,0.2-0.1,0.5-0.1,0.8c0,0-0.1,0.1-0.3,0.1s-0.2,0.1-0.3,0.1c-0.1,0-0.2,0.1-0.2,0.1
		l-0.5,0.1c-0.1,0-0.3,0-0.4,0.1s-0.3,0-0.4,0c-0.4,0-0.7-0.1-1-0.3c-0.3-0.2-0.5-0.5-0.7-1.1c-0.1-0.1-0.2-0.2-0.3-0.4
		c-0.1-0.1-0.2-0.3-0.3-0.5l-0.5-0.8c-0.1-0.1-0.2-0.3-0.2-0.4c-0.1-0.1-0.1-0.2-0.2-0.3l-0.1-0.4c-0.1-0.3-0.1-0.5-0.2-0.7
		c0-0.2-0.1-0.5-0.1-0.7c0-0.3-0.1-0.6-0.1-1c0-0.3-0.1-0.6-0.1-1c0-0.2,0-0.4-0.1-0.6c0-0.2,0-0.4,0-0.6l-0.1-0.6
		c0-0.1-0.1-0.2-0.1-0.3c0-0.2,0-0.4,0.1-0.8c0.1-0.3,0.1-0.7,0.2-1c0-0.2,0-0.4,0.1-0.5c0-0.2,0-0.3,0-0.4c0-0.3,0-0.6,0.1-1
		c0-0.3,0-0.6,0.1-1c0.1-0.7,0.1-1.3,0.2-1.9c0.1-0.6,0.2-1,0.2-1.4c0.1-0.4,0.2-0.7,0.2-1s0.1-0.4,0.1-0.5c0,0-0.1-0.1-0.3-0.1
		c-0.1,0-0.2,0-0.3,0.1l-1.6,0.3l-1.3,0.3c-0.5,0-1,0-1.6,0.1c-0.6,0-1.1,0-1.6,0.1c-0.2,0.2-0.4,0.5-0.5,0.7
		c-0.2,0.2-0.3,0.5-0.5,0.7c-0.3,0.3-0.5,0.6-0.7,0.9c-0.2,0.3-0.4,0.6-0.6,0.9c-0.2,0.2-0.5,0.4-0.7,0.6c-0.2,0.2-0.4,0.4-0.5,0.5
		l-0.1,0.1c-0.3,0.3-0.6,0.7-0.9,1.1l-0.9,1.6l-0.1,0.1l-0.6,1c-0.1,0.2-0.2,0.3-0.3,0.5c-0.1,0.1-0.2,0.3-0.3,0.4
		c-0.2,0.2-0.3,0.5-0.5,0.7c-0.1,0.2-0.3,0.4-0.4,0.6l-0.3,0.6c-0.3,0.3-0.5,0.5-0.7,0.8c-0.1,0.1-0.2,0.2-0.3,0.3
		c-0.1,0.1-0.2,0.2-0.3,0.2h0l0,0c-0.4,0.3-0.7,0.4-0.8,0.4c-0.2,0-0.3-0.2-0.3-0.5c0,0,0,0,0-0.1c0-0.1,0-0.2,0.1-0.3
		c0-0.1,0.1-0.2,0.1-0.3c0,0,0,0,0,0s0,0,0,0c0,0,0-0.1,0-0.1c0,0,0-0.1,0.1-0.1l0.2-0.5l0.3-0.3c0.2-0.3,0.5-0.5,0.7-0.8
		c0.2-0.3,0.5-0.6,0.7-0.8l0.1-0.1l0.7-0.8l1-1.5c0.3-0.4,0.5-0.8,0.7-1.2c0.2-0.4,0.5-0.8,0.7-1.2l0.8-1.2c0.3-0.5,0.6-0.9,0.8-1.3
		c0.2-0.4,0.4-0.6,0.5-0.8c-0.2,0-0.3,0-0.5,0s-0.3,0-0.5,0c-0.4-0.1-0.7-0.3-0.7-0.5c-0.1-0.1-0.2-0.2-0.1-0.3
		c0-0.2,0.2-0.4,0.5-0.7c0.1-0.1,0.2-0.2,0.4-0.3s0.3-0.1,0.4-0.2c0.2,0,0.4,0,0.6,0c0.2,0,0.4-0.1,0.6-0.1c0.3,0,0.5,0,0.6-0.1
		c0.2,0,0.4-0.1,0.5-0.3c0.1-0.3,0.4-0.8,0.8-1.5c0.4-0.7,0.8-1.4,1.2-2.2c0.3-0.6,0.7-1.2,1-1.7c0.4-0.6,0.7-1.2,0.9-1.8l0.7-0.9
		c0.3-0.3,0.6-0.7,0.9-1c0.3-0.4,0.6-0.8,1-1.2c0.8-1.2,1.5-2.1,2.1-3c0.6-0.8,1.1-1.6,1.4-2.3c0-0.1,0.1-0.2,0.1-0.3
		c0-0.1,0.1-0.2,0.1-0.3L310.8,332z M292.2,362.9L292.2,362.9L292.2,362.9L292.2,362.9z M310.4,335.5c0,0-0.1-0.1-0.1-0.1
		c0,0-0.1-0.1-0.1-0.1c-0.2,0.3-0.3,0.5-0.6,0.8c-0.2,0.3-0.4,0.6-0.6,0.8c-0.1,0.1-0.2,0.3-0.3,0.5c-0.1,0.2-0.2,0.4-0.3,0.5
		c-0.1,0.1-0.2,0.3-0.4,0.4s-0.2,0.3-0.3,0.5l-0.4,0.8c-0.1,0.2-0.2,0.3-0.2,0.5c-0.1,0.2-0.2,0.3-0.2,0.5c-0.1,0.1-0.1,0.3-0.2,0.4
		s-0.2,0.3-0.3,0.4c-0.2,0.2-0.3,0.4-0.4,0.7c-0.1,0.4-0.3,0.7-0.6,1.1l-0.8,1.4c-0.3,0.6-0.6,1.1-0.9,1.8c-0.3,0.6-0.6,1.2-0.9,1.8
		c-0.2,0.4-0.3,0.7-0.3,0.9c0,0,0.1,0,0.2,0s0.1,0,0.3,0c0.3,0,0.6-0.1,1-0.2c0.4-0.1,0.7-0.2,0.9-0.2c0.1,0,0.2,0,0.2,0h0.4
		c0.3,0,0.5-0.1,0.7-0.1s0.4-0.1,0.6-0.1c0.2,0,0.3-0.1,0.5-0.1c0.1,0,0.3-0.1,0.5-0.1l0.8-0.2c0-0.2,0-0.4,0.1-0.6
		c0-0.2,0-0.4,0.1-0.7s0.1-0.4,0.1-0.6c0-0.2,0-0.3,0-0.2c0.1-0.5,0.2-1,0.3-1.6c0.1-0.6,0.2-1.1,0.3-1.7c0.1-0.6,0.2-1.1,0.3-1.6
		c0.1-0.5,0.2-1,0.3-1.5c0.1-0.3,0.1-0.6,0.2-0.9c0-0.3,0.1-0.5,0.1-0.7c0-0.4,0.1-0.8,0.1-1.1C310.4,336.2,310.4,335.8,310.4,335.5
		z"/>
	<path d="M345.5,343.8C345.5,343.9,345.5,343.9,345.5,343.8c0.2,0.2,0.2,0.3,0.2,0.4c0,0.1-0.1,0.2-0.1,0.2
		c-0.2,0.3-0.4,0.4-0.6,0.5c-0.2,0.3-0.4,0.5-0.6,0.6c-0.2,0.1-0.5,0.1-0.7,0c-0.3,0-0.5-0.1-0.8-0.1c-0.3,0-0.5,0.1-0.7,0.2
		c0,0.1-0.1,0.2-0.1,0.4c-0.1,0.2-0.1,0.6-0.2,1.3l-0.5,2.6c-0.1,0.3-0.1,0.7-0.2,1c-0.1,0.4-0.1,0.7-0.2,1
		c-0.1,0.3-0.1,0.6-0.1,0.7s0,0.2,0.1,0.3c0,0.5,0.1,1,0,1.5c0,0.5-0.1,1.1-0.1,1.7c-0.1,0.5-0.1,0.8-0.1,0.9
		c0.1,0.2,0.1,0.4,0.1,0.6c0,0.2-0.1,0.5-0.2,0.7l-0.2,0.3c0,0,0-0.1-0.1,0c0,0-0.1,0.1-0.1,0.2c0,0.1-0.1,0.3-0.1,0.6
		c-0.1,0.2-0.1,0.5-0.2,0.7c-0.1,0.2-0.2,0.5-0.3,0.8l-0.1,0.1c-0.1,0.1-0.1,0.2-0.1,0.3l-0.1,0.3c0,0,0.1,0,0.1,0.1s0,0.1,0,0.1
		c0,0.2-0.1,0.3-0.2,0.3c-0.2,0-0.3,0.1-0.3,0.1c-0.1,0-0.1,0.2-0.2,0.3c-0.1,0.1-0.1,0.2-0.2,0.4c-0.1,0.1-0.1,0.3-0.2,0.4
		c-0.1,0.3-0.2,0.5-0.4,0.7s-0.4,0.4-0.7,0.6c-0.1,0.1-0.2,0.2-0.2,0.3v0.1c-0.3,0.1-0.5,0.1-0.7,0.2c-0.2,0.1-0.4,0-0.7-0.2
		c-0.2-0.2-0.3-0.5-0.4-0.7c-0.2-0.4-0.2-0.7-0.2-1.1c0-0.3,0.1-0.7,0.1-1c0-0.4,0.1-0.8,0.2-1.3c0.1-0.5,0.1-1,0.2-1.6
		s0.1-1.4,0.2-2.3c0.1-0.6,0.2-1.3,0.3-2.1c0.1-0.8,0.2-1.5,0.4-2.4c0.2-1.3,0.5-2.5,0.7-3.7c0.2-1.2,0.5-2.2,0.6-3
		c0.1-0.5,0.1-0.7-0.2-0.8c-0.2,0.1-0.6,0.2-1.1,0.2c-0.5,0-0.9,0.1-1.2,0c-0.3,0-0.5,0-0.7,0c-0.2,0-0.4,0.1-0.6,0.2
		c-0.3,0-0.6,0.1-1.1,0.1c-0.5,0-1,0-1.5,0c-0.4,0-0.8,0-1.2,0c-0.4,0-0.8,0.1-1,0.2c0,0.2,0,0.5-0.1,0.7c0,0.1,0,0.3,0,0.5
		c0,0.4-0.1,0.8-0.1,1.2c0,0.4-0.1,0.9-0.2,1.3c-0.1,0.5-0.2,1-0.3,1.6s-0.2,1.2-0.4,1.9c-0.1,0.6-0.3,1-0.3,1.4
		c-0.1,0.4-0.2,0.7-0.3,1c-0.1,0.3-0.2,0.6-0.3,0.9c-0.1,0.3-0.2,0.6-0.3,0.9c-0.3,0.8-0.5,1.5-0.8,2c-0.3,0.5-0.6,1.1-1.1,1.7
		c0,0-0.1,0.1-0.1,0.2c0,0.1-0.1,0.1-0.1,0.2c0,0-0.1,0-0.1,0c0,0-0.1,0-0.1,0c0,0-0.1,0.1-0.3,0.2c-0.1,0.1-0.3,0.3-0.5,0.4
		c-0.2,0.2-0.4,0.3-0.6,0.4c-0.2,0.1-0.3,0.2-0.5,0.3c-0.4,0.3-0.9,0.5-1.4,0.7c-0.2,0-0.4,0.1-0.6,0.2l-0.4,0.1c-0.2,0-0.3,0-0.4,0
		s-0.2-0.1-0.2-0.2c-0.1,0-0.1-0.1-0.2-0.1c0,0-0.1,0-0.2,0c-0.1,0-0.2,0-0.2,0c-0.1,0-0.1,0-0.2,0l-0.2,0.1c-0.3,0.1-0.5,0.1-0.6,0
		c-0.1-0.1-0.2-0.2-0.3-0.4c-0.1-0.2-0.1-0.3-0.1-0.6c0-0.1,0.1-0.2,0.2-0.3c0.1-0.1,0.2-0.2,0.3-0.3c0.1,0,0.2-0.1,0.3-0.2
		s0.1-0.1,0-0.1c-0.1-0.1,0-0.2,0.2-0.2c0.1,0,0.2,0,0.2-0.1c0-0.1,0.1-0.2,0.1-0.4c0-0.2,0.1-0.4,0.2-0.7c0.1-0.3,0.2-0.5,0.3-0.7
		c0.1-0.3,0.2-0.7,0.4-1.1c0.1-0.4,0.3-0.9,0.5-1.5c0.2-0.8,0.5-1.8,0.8-2.9c0.3-1.1,0.6-2.4,1-3.9c0.1-0.2,0.2-0.6,0.3-1
		c0.1-0.4,0.2-0.9,0.3-1.3c0.1-0.4,0.2-0.8,0.2-1.1c0.1-0.3,0.1-0.5,0.1-0.5c-0.1,0-0.2,0.1-0.2,0c0,0-0.1,0-0.1,0c0,0-0.1,0-0.1,0
		c-0.2,0-0.4,0-0.6,0.1c-0.2,0-0.4,0.1-0.7,0.3c-0.5,0.2-0.8,0.3-1,0.3s-0.3,0-0.5-0.2c-0.1,0-0.3,0-0.4,0c-0.1,0-0.3,0-0.4,0
		c-0.1,0-0.2,0-0.2-0.1c0-0.2,0-0.4,0.1-0.5s0.2-0.4,0.2-0.6c0,0,0.1-0.1,0.1,0c0,0,0.1,0.1,0.1,0.1c0,0,0,0.1,0.1,0.1c0,0,0,0,0,0
		c0-0.1,0.1-0.1,0.4-0.1c0.1-0.1,0.2-0.2,0.3-0.3c0.1-0.1,0.3-0.2,0.5-0.3c0.1-0.2,0.2-0.2,0.2-0.2c0.1,0,0.1,0.1,0.1,0.1
		c0,0.1,0.1,0.1,0.1,0.1s0.1,0,0.2-0.1l0.8-0.3c0.1,0,0.2-0.1,0.4-0.1c0.2,0,0.3-0.1,0.5-0.1c0.1,0,0.3,0,0.4-0.1s0.2-0.1,0.2-0.1
		c0,0,0.1-0.2,0.1-0.6c0-0.4,0.1-0.8,0.1-1.3c0.1-0.5,0.1-1,0.2-1.5c0.1-0.5,0.1-0.9,0.2-1.2c0-0.3,0.1-0.7,0.2-1.2
		c0.1-0.5,0.2-1.1,0.2-1.6c0-0.2,0-0.5,0.1-0.9c0.1-0.6,0.2-1.3,0.3-2c0.1-0.7,0.2-1.4,0.3-2.1c0.1-0.8,0.2-1.5,0.3-2
		c0.1-0.5,0.1-0.9,0.2-1.3c0.1-0.3,0.1-0.6,0.1-0.8c0-0.2,0.1-0.4,0.1-0.7l0.1-0.3l0-0.1c0-0.2,0-0.3,0.1-0.5
		c0.2-0.4,0.5-0.6,0.9-0.6c0.2,0,0.4-0.1,0.6-0.1c0.2,0,0.4,0,0.6,0.1c0.3,0.1,0.7,0.3,1,0.7c0.3,0.3,0.6,0.8,0.8,1.4
		c0.2,0.3,0.3,0.5,0.4,0.8c0.1,0.3,0.1,0.8,0.1,1.5c0,0.3,0,0.7,0,1.1c0,0.4,0,0.7-0.1,1c0,0.1,0,0.3,0,0.6c0,0.3,0,0.6-0.1,0.9
		c0,0.3-0.1,0.6-0.1,1c0,0.3-0.1,0.6-0.1,0.8c0,0.3-0.1,0.5-0.1,0.6c0,0.1,0,0.2,0.1,0.3c0,0,0.1-0.1,0.1-0.3l0.1-0.3l0.1,0.1
		c0,0.1,0.1,0.2,0.1,0.3c0,0.1,0,0.2,0,0.2c0,0.1,0.1,0.2,0.1,0.4c0,0.1,0,0.2,0,0.3c0,0.5-0.1,1.1-0.2,1.7
		c-0.1,0.6-0.2,1.4-0.5,2.3c0,0,0,0.1,0.1,0.1c0,0.1,0.1,0.1,0.1,0.2s0,0.2,0,0.4c-0.1,0.1-0.1,0.2-0.2,0.3c0,0.1,0,0.1-0.1,0.2
		c0,0,0,0,0,0.1c0,0.1,0,0.1,0,0.1c0,0.2-0.1,0.4-0.1,0.6c0,0.2-0.1,0.4-0.2,0.6c0,0.2-0.1,0.3-0.1,0.4c0,0.1,0,0.2,0,0.3l0.6,0h1
		c0.2,0,0.4,0,0.6,0s0.4,0,0.7,0l1,0c0.3,0,0.7-0.1,1.1-0.1c0.4,0,0.7,0,1,0c0.2,0,0.4,0,0.6,0c0.2,0,0.4,0,0.5,0
		c0.4,0,0.7,0,0.9-0.1c0.2,0,0.4-0.1,0.5-0.1c0-0.3,0.1-0.5,0.2-0.9c0.1-0.3,0.2-0.7,0.2-1.1c0.1-0.3,0.2-0.7,0.3-1.2
		s0.2-0.9,0.4-1.3c0.2-0.8,0.4-1.7,0.6-2.6c0.2-0.9,0.5-1.8,0.7-2.6c0.1-0.5,0.2-1.1,0.4-1.6c0.1-0.5,0.3-1,0.4-1.3
		c0.3-0.5,0.5-1,0.6-1.5c0.1-0.5,0.2-0.9,0.3-1.1c0.1-0.3,0.3-0.6,0.6-0.9c0.3-0.3,0.6-0.5,1-0.6c0.2,0,0.3-0.1,0.5,0
		c0.2,0,0.3,0.1,0.4,0.1c0.1,0.1,0.2,0.3,0.2,0.5c0,0.2,0,0.6-0.2,1c-0.1,0.5-0.2,0.7-0.1,0.8c0,0.1,0.1,0.2,0.1,0.2
		c0.1,0.1,0.1,0.2,0.1,0.2l0,0c0,0.1,0,0.2,0,0.3c-0.1,0-0.2,0.1-0.3,0.2c-0.1,0-0.1,0-0.1,0c0,0.1-0.1,0.3-0.2,0.6
		c-0.1,0.2-0.1,0.3-0.1,0.4v0.1c0,0.1-0.1,0.2-0.1,0.4c-0.1,0.1-0.1,0.3-0.2,0.5l-0.1,0.7l0,0.9c0,0.1,0.1,0.2,0.1,0.3
		s0,0.2-0.1,0.4c-0.1,0.3-0.2,0.6-0.3,0.8c-0.1,0.3-0.1,0.5-0.1,0.5l-0.1,0.8l0,0.7c0,0-0.1,0.2-0.1,0.3c0,0.2-0.1,0.4-0.1,0.6
		l-0.1,0.5c0,0.2,0,0.3-0.1,0.4c0,0.1,0,0.2,0,0.3c0,0.2,0,0.5,0,0.9c0,0.4-0.1,0.9-0.1,1.5l-0.1,1.4l0.7,0c0.2,0,0.4,0.1,0.7,0.1
		c0.2,0,0.4,0.1,0.6,0.2c0.1,0.1,0.2,0.1,0.4,0.1c0.1,0,0.3,0,0.3-0.1c0.2,0,0.3,0,0.3,0c0,0,0,0,0,0.1
		C345.4,343.7,345.5,343.8,345.5,343.8C345.5,343.9,345.5,343.9,345.5,343.8z M340.5,359c0,0,0-0.1,0-0.2V359z M345.5,343.9
		C345.5,343.9,345.5,343.9,345.5,343.9L345.5,343.9z"/>
	<path d="M362.3,332c0.1-0.2,0.3-0.3,0.6-0.3c0,0,0.1,0,0.1,0.1c0,0.1,0.1,0.1,0.1,0.1c0.2,0,0.5,0.1,0.7,0.2
		c0.3,0.1,0.5,0.3,0.8,0.5c0.3,0.2,0.5,0.5,0.7,0.7c0.1,0.1,0.2,0.2,0.3,0.4c0.1,0.1,0.2,0.3,0.2,0.4c0.2,0.3,0.4,0.7,0.6,1.1
		c0,0.3,0.1,0.6,0,0.8c0,0.3-0.1,0.6-0.1,1.1c0,0.3-0.1,0.4-0.1,0.5c0,0.1-0.1,0.2-0.1,0.4c0,0.3-0.1,0.6-0.1,0.9
		c0,0.3-0.1,0.6-0.2,0.9c0,0.3,0.1,0.6,0.1,1c0,0.3,0.1,0.6,0.1,1l0.1,0.9c-0.1,0.5-0.2,1.1-0.3,1.6c-0.1,0.5-0.2,1.1-0.3,1.6
		c0,0.2-0.1,0.3-0.1,0.5c0,0.1,0,0.2,0,0.4c0.1,0,0.2,0,0.2,0c0,0,0,0,0.1,0c0,0,0,0,0.1,0c0,0,0.1,0,0.3-0.1l0.5-0.2l0.9-0.1
		c0.2,0,0.3,0.2,0.4,0.5c0.1,0.3,0.1,0.5,0.1,0.6c0,0.2-0.1,0.4-0.3,0.6c-0.2,0.1-0.6,0.3-1.1,0.4l-0.6,0.2l-0.5,0.6
		c-0.1,0.1-0.2,0.2-0.3,0.4c-0.1,0.2-0.2,0.5-0.2,0.9c-0.1,0.9-0.2,2.1-0.3,3.5c0,0.1,0,0.2,0,0.3c0,0.2,0,0.3-0.1,0.4
		c-0.1,0.3-0.1,0.6-0.2,0.8c0,0.3,0,0.5,0,0.8c0,0.2,0,0.5,0,0.7c0,0.2,0,0.4,0,0.7c0,0.1,0,0.3,0,0.5c0,0.1,0,0.3-0.1,0.4
		c0,0.1,0,0.3,0,0.5c0,0.3,0,0.5,0,0.7s0,0.5,0,0.7c0,0.1,0,0.2,0,0.3c0,0.1,0,0.2,0,0.3c0,0.4,0,0.8,0.1,1.1c0,0.3,0.1,0.6,0.1,0.9
		c0,0.1,0.1,0.2,0.1,0.4c0,0.1,0.1,0.3,0.1,0.5l0.1,0.6c0,0.3,0,0.6,0,0.9c0,0.3,0,0.5,0,0.7c0,0.2,0.1,0.4,0.2,0.6
		c0,0.2,0,0.3,0,0.4c0,0.3-0.1,0.6-0.1,0.9c0,0.2-0.1,0.5-0.1,0.8c0,0-0.1,0.1-0.3,0.1s-0.2,0.1-0.3,0.1c-0.1,0-0.2,0.1-0.2,0.1
		l-0.5,0.1c-0.1,0-0.3,0-0.4,0.1s-0.3,0-0.4,0c-0.4,0-0.7-0.1-1-0.3c-0.3-0.2-0.5-0.5-0.7-1.1c-0.1-0.1-0.2-0.2-0.3-0.4
		c-0.1-0.1-0.2-0.3-0.3-0.5l-0.5-0.8c-0.1-0.1-0.2-0.3-0.2-0.4c-0.1-0.1-0.1-0.2-0.2-0.3L359,365c-0.1-0.3-0.1-0.5-0.2-0.7
		c0-0.2-0.1-0.5-0.1-0.7c0-0.3-0.1-0.6-0.1-1c0-0.3-0.1-0.6-0.1-1c0-0.2,0-0.4-0.1-0.6c0-0.2,0-0.4,0-0.6l-0.1-0.6
		c0-0.1-0.1-0.2-0.1-0.3c0-0.2,0-0.4,0.1-0.8c0.1-0.3,0.1-0.7,0.2-1c0-0.2,0-0.4,0.1-0.5c0-0.2,0-0.3,0-0.4c0-0.3,0-0.6,0.1-1
		c0-0.3,0-0.6,0.1-1c0.1-0.7,0.1-1.3,0.2-1.9c0.1-0.6,0.2-1,0.2-1.4c0.1-0.4,0.2-0.7,0.2-1s0.1-0.4,0.1-0.5c0,0-0.1-0.1-0.3-0.1
		c-0.1,0-0.2,0-0.3,0.1l-1.6,0.3l-1.3,0.3c-0.5,0-1,0-1.6,0.1c-0.6,0-1.1,0-1.6,0.1c-0.2,0.2-0.4,0.5-0.5,0.7
		c-0.2,0.2-0.3,0.5-0.5,0.7c-0.3,0.3-0.5,0.6-0.7,0.9c-0.2,0.3-0.4,0.6-0.6,0.9c-0.2,0.2-0.5,0.4-0.7,0.6c-0.2,0.2-0.4,0.4-0.5,0.5
		l-0.1,0.1c-0.3,0.3-0.6,0.7-0.9,1.1l-0.9,1.6l-0.1,0.1l-0.6,1c-0.1,0.2-0.2,0.3-0.3,0.5c-0.1,0.1-0.2,0.3-0.3,0.4
		c-0.2,0.2-0.3,0.5-0.5,0.7c-0.1,0.2-0.3,0.4-0.4,0.6l-0.3,0.6c-0.3,0.3-0.5,0.5-0.7,0.8c-0.1,0.1-0.2,0.2-0.3,0.3
		c-0.1,0.1-0.2,0.2-0.3,0.2h0l0,0c-0.4,0.3-0.7,0.4-0.8,0.4c-0.2,0-0.3-0.2-0.3-0.5c0,0,0,0,0-0.1c0-0.1,0-0.2,0.1-0.3
		c0-0.1,0.1-0.2,0.1-0.3c0,0,0,0,0,0s0,0,0,0c0,0,0-0.1,0-0.1c0,0,0-0.1,0.1-0.1l0.2-0.5l0.3-0.3c0.2-0.3,0.5-0.5,0.7-0.8
		c0.2-0.3,0.5-0.6,0.7-0.8l0.1-0.1l0.7-0.8l1-1.5c0.3-0.4,0.5-0.8,0.7-1.2c0.2-0.4,0.5-0.8,0.7-1.2l0.8-1.2c0.3-0.5,0.6-0.9,0.8-1.3
		c0.2-0.4,0.4-0.6,0.5-0.8c-0.2,0-0.3,0-0.5,0s-0.3,0-0.5,0c-0.4-0.1-0.7-0.3-0.7-0.5c-0.1-0.1-0.2-0.2-0.1-0.3
		c0-0.2,0.2-0.4,0.5-0.7c0.1-0.1,0.2-0.2,0.4-0.3s0.3-0.1,0.4-0.2c0.2,0,0.4,0,0.6,0c0.2,0,0.4-0.1,0.6-0.1c0.3,0,0.5,0,0.6-0.1
		c0.2,0,0.4-0.1,0.5-0.3c0.1-0.3,0.4-0.8,0.8-1.5c0.4-0.7,0.8-1.4,1.2-2.2c0.3-0.6,0.7-1.2,1-1.7c0.4-0.6,0.7-1.2,0.9-1.8l0.7-0.9
		c0.3-0.3,0.6-0.7,0.9-1c0.3-0.4,0.6-0.8,1-1.2c0.8-1.2,1.5-2.1,2.1-3c0.6-0.8,1.1-1.6,1.4-2.3c0-0.1,0.1-0.2,0.1-0.3
		c0-0.1,0.1-0.2,0.1-0.3L362.3,332z M343.7,362.9L343.7,362.9L343.7,362.9L343.7,362.9z M361.9,335.5c0,0-0.1-0.1-0.1-0.1
		c0,0-0.1-0.1-0.1-0.1c-0.2,0.3-0.3,0.5-0.6,0.8c-0.2,0.3-0.4,0.6-0.6,0.8c-0.1,0.1-0.2,0.3-0.3,0.5c-0.1,0.2-0.2,0.4-0.3,0.5
		c-0.1,0.1-0.2,0.3-0.4,0.4s-0.2,0.3-0.3,0.5l-0.4,0.8c-0.1,0.2-0.2,0.3-0.2,0.5c-0.1,0.2-0.2,0.3-0.2,0.5c-0.1,0.1-0.1,0.3-0.2,0.4
		s-0.2,0.3-0.3,0.4c-0.2,0.2-0.3,0.4-0.4,0.7c-0.1,0.4-0.3,0.7-0.6,1.1l-0.8,1.4c-0.3,0.6-0.6,1.1-0.9,1.8c-0.3,0.6-0.6,1.2-0.9,1.8
		c-0.2,0.4-0.3,0.7-0.3,0.9c0,0,0.1,0,0.2,0s0.1,0,0.3,0c0.3,0,0.6-0.1,1-0.2c0.4-0.1,0.7-0.2,0.9-0.2c0.1,0,0.2,0,0.2,0h0.4
		c0.3,0,0.5-0.1,0.7-0.1s0.4-0.1,0.6-0.1c0.2,0,0.3-0.1,0.5-0.1c0.1,0,0.3-0.1,0.5-0.1l0.8-0.2c0-0.2,0-0.4,0.1-0.6
		c0-0.2,0-0.4,0.1-0.7s0.1-0.4,0.1-0.6c0-0.2,0-0.3,0-0.2c0.1-0.5,0.2-1,0.3-1.6c0.1-0.6,0.2-1.1,0.3-1.7c0.1-0.6,0.2-1.1,0.3-1.6
		c0.1-0.5,0.2-1,0.3-1.5c0.1-0.3,0.1-0.6,0.2-0.9c0-0.3,0.1-0.5,0.1-0.7c0-0.4,0.1-0.8,0.1-1.1C361.9,336.2,361.9,335.8,361.9,335.5
		z"/>
	<path d="M390.6,359.8c-0.1,0.1-0.2,0.3-0.4,0.5s-0.3,0.4-0.3,0.4c-0.1,0-0.1,0.1-0.2,0.2s-0.2,0.2-0.2,0.4
		c-0.1,0.1-0.2,0.3-0.3,0.4c-0.1,0.1-0.2,0.2-0.4,0.3c-0.2,0.3-0.4,0.6-0.6,0.7c-0.2,0.1-0.3,0.2-0.4,0.2c-0.1,0-0.2,0-0.3,0
		c-0.1,0-0.2,0-0.3,0c-0.1,0-0.1,0-0.2,0l-0.4,0.1c-0.4,0-0.8-0.2-1.1-0.4c-0.3-0.2-0.7-0.6-1.1-1c-0.2-0.1-0.3-0.2-0.4-0.4
		c-0.1-0.1-0.2-0.3-0.3-0.4c-0.3-0.5-0.5-1-0.7-1.5s-0.2-1.3-0.2-2.2c0-0.2,0-0.4,0-0.6c0-0.1,0-0.3,0-0.5c0-0.2,0-0.4,0-0.7
		c0-0.3,0-0.7,0.1-1.2c0-0.7,0.1-1.3,0.2-1.9c0.1-0.6,0.1-1.2,0.2-1.6c0-0.4,0.1-0.8,0.1-1.1c0-0.3,0.2-0.8,0.4-1.4
		c0.1-0.4,0.2-0.7,0.2-0.9c0.1-0.2,0.1-0.5,0.2-0.7c0.1-0.2,0.1-0.5,0.2-0.7s0.2-0.6,0.2-1c0.1-0.5,0.2-0.9,0.3-1.2
		c0.1-0.3,0.2-0.7,0.3-1c0.1-0.3,0.2-0.7,0.3-1.2s0.3-1,0.4-1.8l0.3-1.1c0.2-0.6,0.3-1.1,0.5-1.6c0.1-0.5,0.2-0.9,0.3-1.3
		c0-0.2,0.1-0.5,0.2-0.9s0.2-0.9,0.3-1.3c0.1-0.5,0.2-0.9,0.3-1.4c0.1-0.5,0.1-0.8,0.1-1.1c0-0.3-0.1-0.4-0.2-0.4s-0.3-0.1-0.5-0.1
		c-0.4,0-0.9,0.1-1.3,0.2c-0.4,0.2-0.9,0.5-1.4,1c-0.2,0.2-0.3,0.4-0.4,0.4c-0.1,0-0.1,0.1-0.1,0.1s0,0.1,0.1,0.1c0,0,0.1,0,0.1,0.1
		c0,0.1-0.1,0.2-0.2,0.3c-0.1,0.1-0.3,0.2-0.6,0.3c-0.1,0.1-0.3,0.4-0.7,0.7c-0.4,0.4-0.7,0.8-0.9,1.3c-0.2,0.2-0.3,0.4-0.4,0.6
		c-0.1,0.2-0.2,0.4-0.3,0.7l-0.7,1.2v0.1c0,0-0.1,0-0.1,0.1c0,0,0,0-0.1,0.1c-0.3,0.4-0.5,0.9-0.7,1.6s-0.4,1.3-0.6,1.9
		c-0.2,0.6-0.3,1.2-0.4,1.6c-0.1,0.5-0.1,0.7-0.1,0.8c0,0,0,0.1-0.1,0.2c0,0.1-0.1,0.2-0.1,0.2c0,0.4-0.1,0.8-0.2,1.1
		c-0.1,0.3-0.2,0.6-0.2,0.9c0,0.1,0,0.3,0.1,0.6c0,0.3,0.1,0.5,0.1,0.5c0,0.4-0.1,0.8-0.1,1.4c-0.1,0.5-0.1,1-0.2,1.6
		s-0.2,1-0.2,1.5c-0.1,0.5-0.2,0.8-0.2,1.1c-0.1,0.3-0.2,0.7-0.3,1.1c-0.1,0.4-0.2,0.8-0.2,1.1s-0.2,0.7-0.2,1
		c-0.1,0.3-0.2,0.5-0.2,0.7c-0.1,0.1-0.2,0.3-0.2,0.5c0,0.2-0.1,0.3-0.2,0.4v-0.1c-0.1,0.1-0.1,0.2-0.2,0.3c0,0.1-0.1,0.1-0.1,0.2
		v0.1c0,0,0,0,0,0.1c0,0,0,0,0,0.1c0,0,0,0,0,0.1c0,0-0.1,0-0.2-0.1c-0.1-0.1-0.2-0.1-0.2-0.1c-0.1,0-0.2,0-0.3,0.1
		c-0.1,0-0.2,0.1-0.2,0.1c-0.1,0-0.3-0.1-0.6-0.2c-0.1-0.1-0.3-0.2-0.3-0.2c-0.1,0-0.2,0-0.2,0.1c-0.1,0-0.2,0.1-0.3,0.1
		c-0.5-0.1-0.8-0.4-1.1-0.8c-0.3-0.4-0.4-0.9-0.4-1.4c0-0.1,0-0.2,0-0.3c0,0-0.1-0.1-0.1-0.1c0,0-0.1-0.1-0.1-0.1
		c-0.1-0.3-0.2-0.6-0.2-1c0-0.4,0.1-1.1,0.2-1.9c0.1-0.8,0.3-1.9,0.5-3.2c0.2-1.4,0.3-2.5,0.5-3.3c0.1-0.8,0.2-1.6,0.3-2.2
		c0.1-0.6,0.1-1.2,0.2-1.7c0.1-0.5,0.1-1.1,0.2-1.9l0.4-5.1l0.1-2.5c0-0.9,0.1-1.6,0.1-2.1c0-0.6,0-1,0.1-1.3c0-0.3,0-0.5,0-0.7
		c0-0.1,0-0.2,0-0.3c0.2-0.2,0.3-0.4,0.4-0.6c0.1-0.2,0.3-0.3,0.6-0.3c0.2,0,0.5,0,0.7,0.1c0.2,0.1,0.4,0.2,0.6,0.4s0.5,0.4,0.8,0.6
		s0.5,0.5,0.8,0.8c0.2,0.3,0.4,0.6,0.6,0.8c0.3,0.6,0.5,1.2,0.7,2s0.2,1.6,0.2,2.5c0,0.4,0,0.8,0,1.2c0,0.4,0,0.9-0.2,1.5l-0.1,1.2
		c0-0.1,0.1-0.2,0.1-0.3s0.1-0.2,0.2-0.4c0-0.1,0.1-0.3,0.2-0.6c0.1-0.3,0.3-0.7,0.5-1.1c0.2-0.4,0.4-0.8,0.7-1.2
		c0.2-0.4,0.5-0.8,0.7-1c0.1-0.1,0.2-0.3,0.3-0.5c0.2-0.2,0.3-0.4,0.5-0.6c0.3-0.5,0.6-1,1.1-1.4c0.1,0,0.2-0.1,0.3-0.2
		c0.1-0.1,0.2-0.2,0.2-0.2c0.7-0.7,1.4-1.3,2-1.7c0.6-0.4,1-0.7,1.3-1l0.2-0.1c0.2-0.1,0.4-0.1,0.6-0.2c0.2,0,0.5-0.1,0.8-0.1
		l0.5,0.1h0.1c0.4,0,0.8,0.2,1.2,0.5c0.4,0.3,0.7,0.7,1.1,1.2c0.3,0.5,0.6,1,0.8,1.6c0.2,0.6,0.4,1.2,0.5,1.8
		c0.1,0.5,0.2,0.9,0.3,1.2c0.1,0.3,0.1,0.7,0.1,1.2c0,0.3,0,0.5,0,0.8c0,0.3,0,0.5-0.1,0.7c0,0.3-0.1,0.7-0.1,1.2
		c-0.1,0.5-0.1,1-0.2,1.6c-0.1,0.5-0.1,1.1-0.2,1.5c-0.1,0.5-0.1,0.8-0.1,1c0,0,0,0,0,0v0c0,0,0,0,0-0.1c0,0,0,0,0-0.1
		c0,0,0,0,0-0.1c0,0,0,0,0-0.1c0,0,0-0.1,0.1-0.1c0,0.3,0,0.8-0.1,1.3c0,0.5-0.1,1.1-0.2,1.6c0,0.1-0.1,0.3-0.1,0.4s0,0.3,0,0.4
		c0,0.1,0,0.3,0,0.4c0,0.1,0,0.2,0,0.3c0,0-0.1,0.2-0.2,0.6c-0.1,0.3-0.2,0.7-0.2,1.2c0,0.3,0,0.5-0.1,0.9c-0.1,0.3-0.1,0.6-0.2,0.9
		v0.1c0,0.2-0.1,0.2-0.2,0.2c-0.1,0-0.2,0-0.2,0.1c0,0-0.1,0.1-0.1,0.1c-0.1,0.1-0.1,0.2-0.2,0.2c0,0-0.1,0.1-0.1,0.1
		c0,0,0,0.1-0.1,0.2c0,0.1,0,0.2,0,0.4c0,0.3,0.1,0.5,0.1,0.6c0.1-0.1,0.1-0.1,0.2-0.1c0.1,0,0.1,0.1,0.1,0.2c0,0.2,0,0.4-0.1,0.7
		c-0.1,0.3-0.2,0.6-0.2,0.8c-0.1,0.3-0.2,0.6-0.4,1c0-0.1,0-0.1-0.1-0.1c0,0-0.1,0.1-0.1,0.2c0,0.2,0,0.4,0,0.6c0,0.3,0,0.5,0.1,0.5
		c0,0.1,0.1,0.2,0.1,0.5c0,0.3,0,0.7,0,1.2c0,0.5-0.1,0.9-0.2,1.2l-0.1,0.4L390.6,359.8z"/>
</g>
</svg>
