<?xml version="1.0" encoding="utf-8"?>
<!-- Generator: Adobe Illustrator 22.1.0, SVG Export Plug-In . SVG Version: 6.00 Build 0)  -->
<svg version="1.1" id="Layer_1" xmlns="http://www.w3.org/2000/svg" xmlns:xlink="http://www.w3.org/1999/xlink" x="0px" y="0px"
	 viewBox="0 0 351 164.4" style="enable-background:new 0 0 351 164.4;" xml:space="preserve">
<style type="text/css">
	.st0{fill:none;stroke:#000000;stroke-width:0.5;stroke-miterlimit:10;}
	.st1{fill:#FFFFFF;}
	.st2{fill:#47372D;}
	.st3{fill:#F6F7F5;}
</style>
<path class="st0" d="M47.6,41.4h253.5v90.4H47.6L47.6,41.4z"/>
<path class="st1" d="M303.2,99.3c7.1,0.8,14.1-0.6,22.1,0.5c-3,1.4-5.1,0.6-7.1,0.8c-2,0.3-4.3-0.6-6,1.3c1,1,2.1,1.3,3.4,1.4
	c3,0.2,5.7,1.6,8.7,1.6c0.3,0,0.3,0.6-0.1,0.8c-0.3,0.3-1.5,0.4,0,0.9c2.5,0.8,2.8,2.1,1,3.5c-1.4,1.1-1.9,2.5-2.6,3.8
	c-0.8,1.6-2,2.2-3.8,2.2c-4.6-0.1-9.2,0-13.7,0c-18,0-36-0.1-53.9,0.1c-6.5,0.1-13,1-19.5,0.7c-6.1-0.3-12.3-0.3-18.5-0.5
	c-10.2-0.4-20.4-0.6-30.6,0.4c-9.1,0.9-18.2,1.4-27.4,1.5c-7.1,0-14-1.1-21.1-1.3c-7.2-0.1-14.4-0.2-21.6,0.9
	c-2.2,0.3-4.6,0.2-6.9,0.2c-16.6,0-33.1-0.1-49.7,0.1c-3.7,0.1-7.3,0.2-11-0.1c-0.9-0.1-1.8-0.2-2.6-0.5c-1.4-0.6-2-2.5-3.9-2.4
	c-1.6,0.1-3.2,0-5.6,0c3.5-2.8,7.1-2.4,10.2-3.5c-1.2-1.8-3-1.6-4.7-1.9c-1.5-0.2-4.2,1.2-4.3-1.4c-0.1-1.9,2.5-1.3,4-1.5
	c0.9-0.2,1.6-0.7,1.9-1.6c0.6-1.9,1.4-3.6,3.8-3.8c2-2.7,4.9-2.2,7.7-2.1c1.7,0,3.3-0.1,5.6-0.2c-1.9-1.7-3.6-1.7-5.4-1.8
	c-1.9-0.1-3.9-0.1-5.8-0.4c-1.8-0.2-3.4-0.7-4.4-2.5c-0.5-0.8-1.6-1.4-2.4-2c-0.5-0.4-1.3-0.8-1.1-1.6c0.1-1,1-0.7,1.6-0.7
	c0.5-0.1,1.1,0.1,1.5-0.1s0.9-0.6,1.1-1c0.5-1-0.4-1.1-1-1.4c-0.5-0.2-1-0.5-1.4-0.8c-0.6-0.5-0.9-1.2-0.6-1.8
	c0.2-0.7,0.8-1.2,1.5-1.3c2.8-0.2,5.6-0.4,8.4,0.1c2.8,0.6,5.6,0.7,8.4,0.8c2,0.1,3.8,0.3,5.7-0.7c0.7-0.4,1.7-0.3,2.6-0.3
	c4.2,0.4,8.5-0.1,12.6,0.8c1.3,0.3,2.8,0.1,4.2-0.2c1.7-0.4,3.5-0.6,5.2-0.4c5.3,0.6,10.5-0.3,15.8-0.1c5.3,0.1,10.6,0.2,15.9-0.1
	c5.2-0.2,10.4-0.4,15.7-0.1c9,0.5,18,0.2,26.9,0c5.6-0.2,11.2-1,16.9-0.8c0.7,0,1.5,0.1,2.1-0.2c3.8-1.7,7.6-0.9,11.4-0.4
	c1,0.1,2.1,0.3,3.1,0.3h32.2c4.2,0,8.3-1,12.6-0.9c4.4,0.1,8.6,1.3,13,1.1c1.4-0.1,2.8,0.2,4.2,0.2c12.5-0.1,25,0.1,37.5-0.6
	c7-0.4,14.1-0.1,21.1-1.2c2.2-0.3,4.2,0.2,5.9,1.6c0.3,0.3,0.6,1,0.5,1.4s-0.5,1-0.9,1.1c-0.8,0.3-1.7,0.3-2.6,0.4
	c-3.3,0.4-6.6,0.8-10.1,1.2c0.8,1.3,1.9,0.9,2.7,1c1.4,0.1,2.4,0.5,2.4,2.2c0,1.3,1,1.9,2.1,1.9c1.4,0,2.8-0.3,4.2-0.4
	c2.8-0.2,3.7,0.8,3.6,3.8c-0.1,2-0.8,2.7-2.6,2.1c-3.4-1.3-7-0.9-10.5-0.8c-1.4,0-2.8,0-3.8,1.3C306.2,99.2,304.4,98.2,303.2,99.3
	L303.2,99.3z M65.3,112.7c-2.8,0-5.7,0-8.7,0c-0.2,0-0.5,0.4-0.6,0.7c0,0.2,0.3,0.6,0.5,0.6C59.7,114.5,62.8,114.6,65.3,112.7
	L65.3,112.7z"/>
<path class="st1" d="M340.7,118.1c-0.1,1-0.2,2.2-1.2,3.1c-0.7,0.7-1.6,0.8-2.3,0.2c-0.8-0.6-1.4-1.4-1.6-2.3
	c-0.4-1.3,0.2-2.4,1.5-2.8c0.5-0.2,1.1-0.2,1.6-0.3C340.3,115.8,340.9,116.3,340.7,118.1L340.7,118.1z"/>
<path class="st1" d="M327.7,94.6c1.4,0,2,0.5,2.3,1.7c0.1,0.5,0,1.1-0.4,1.4c-0.6,0.5-1.5,0.7-2.1,0.3c-0.6-0.5-1.1-1-1.5-1.6
	c-0.5-0.8,0.1-1.8,1-1.8H327.7z"/>
<path class="st1" d="M295.2,133.4c2.7-1,5.3-1.3,8-0.8c0.2,0,0.4,0.3,0.4,0.4c0.1,0.3-0.1,0.6-0.4,0.7s-0.7,0.2-1,0.1
	C299.9,133.7,297.5,133.6,295.2,133.4L295.2,133.4z"/>
<path class="st2" d="M-279.1,448.2c-0.3,1.1-0.7,2.2-1.3,3.1C-280.3,450.1-280.2,448.9-279.1,448.2z"/>
<path class="st3" d="M-580.9,403.3c0.9-0.4,1.5-0.7,2.2-0.9c0.2-0.1,0.4,0,0.5,0.2v0.4c-0.1,0.3-0.4,0.6-0.8,0.6
	C-579.6,403.7-580.1,403.6-580.9,403.3L-580.9,403.3z"/>
<path class="st3" d="M90.4,113.8c-1.6,1.2-3.6,1.1-5.6,0.9c-0.1,0-0.3-0.3-0.3-0.4c0-0.2,0.2-0.5,0.4-0.5H90.4z"/>
<g>
	<path class="st1" d="M80,74.3l1.7-1.8c1.2,1.2,2.6,2.4,5,2.4c2.8,0,4.5-1.8,4.5-4.5V70c0-1.9-1-3.7-3.1-5.5l-3-2.7
		c-2.4-2.1-3.9-4.1-3.9-7v-0.3c0-3.6,2.6-5.9,6.1-5.9c2.5,0,3.8,0.6,5.3,1.8l-1.4,2c-1.1-0.9-2.1-1.5-3.9-1.5
		c-2.1,0-3.5,1.4-3.5,3.5v0.2c0,2.2,1.2,3.5,3.1,5.3l3,2.6c2.5,2.3,3.9,4.5,3.9,7.3v0.5c0,4.1-2.6,6.8-7.1,6.8
		C83.4,77.2,81.4,75.9,80,74.3L80,74.3z"/>
	<path class="st1" d="M112.3,70h-8l-2,6.9h-2.6l8.5-28.3h0.3l8.6,28.3h-2.7L112.3,70z M105,67.7h6.7l-2.4-8.4
		c-0.4-1.3-0.8-2.9-0.9-3.4l-0.9,3.4L105,67.7z"/>
	<path class="st1" d="M119.7,48.8h2.6l5,17c0.5,1.6,1,3.9,1.1,4.2c0-0.2,0.6-2.6,1.1-4.2l5-17h2.6l-8.5,28.3h-0.3L119.7,48.8z"/>
	<path class="st1" d="M152.4,70h-8l-2,6.9h-2.6l8.5-28.3h0.3l8.6,28.3h-2.7L152.4,70z M145,67.7h6.7l-2.4-8.4
		c-0.4-1.3-0.8-2.9-0.9-3.4l-0.9,3.4L145,67.7z"/>
	<path class="st1" d="M168.5,59.4c-0.7-1.1-1.6-2.8-1.7-3.1c0,0.1,0.1,2.4,0.1,3.7v16.9h-2.5V48.5h0.4l10.7,17.9
		c0.7,1.2,1.6,2.9,1.7,3.2c0-0.2-0.1-2.3-0.1-3.8v-17h2.5v28.4h-0.5L168.5,59.4z"/>
	<path class="st1" d="M193.1,59.4c-0.7-1.1-1.6-2.8-1.7-3.1c0,0.1,0.1,2.4,0.1,3.7v16.9H189V48.5h0.4l10.7,17.9
		c0.7,1.2,1.6,2.9,1.7,3.2c0-0.2-0.1-2.3-0.1-3.8v-17h2.5v28.4h-0.5L193.1,59.4z"/>
	<path class="st1" d="M224.2,70h-8l-2,6.9h-2.6l8.5-28.3h0.3l8.5,28.3h-2.7L224.2,70z M216.8,67.7h6.7l-2.4-8.4
		c-0.4-1.3-0.8-2.9-0.9-3.4l-0.9,3.4L216.8,67.7z"/>
	<path class="st1" d="M236.3,48.8h2.6v13h9.8v-13h2.6v28h-2.6V64.1h-9.8v12.8h-2.6V48.8z"/>
</g>
<path d="M81.7,91.4c0,0,0-0.1,0-0.3s0-0.3,0-0.3c0-0.1,0-0.2,0-0.4s0.1-0.4,0.1-0.6s0.1-0.4,0.1-0.6s0-0.4-0.1-0.5s-0.2-0.3-0.2-0.4
	s0-0.3,0.1-0.4c0-0.1,0.1-0.3,0.1-0.4s0-0.3,0-0.5s-0.1-0.5-0.2-0.7c-0.1-0.3-0.1-0.5-0.1-0.6v-0.3c0-0.1-0.1-0.2-0.1-0.3
	s-0.1-0.2-0.1-0.2c0-0.1-0.1-0.1-0.1-0.2s0-0.1,0-0.2s0-0.2,0-0.3l0.2-0.1c0.2-0.2,0.4-0.2,0.6-0.2h0.2h0.1c0,0,0.1,0,0.2-0.1
	c0.1,0,0.2,0,0.4-0.1h0.7h0.2c0,0,0,0.1-0.1,0.2c0,0.1-0.1,0.1-0.1,0.2h0.1c0.2-0.1,0.4-0.1,0.6-0.1s0.4,0.1,0.6,0.2
	c0.1,0,0.3,0.1,0.5,0.3l0.4,0.4c0.1,0.2,0.3,0.3,0.4,0.5s0.2,0.4,0.3,0.7s0.1,0.6,0.2,0.9s0.1,0.6,0.2,0.9c0,0.3,0.1,0.5,0.1,0.6
	s0,0.2-0.1,0.3s-0.1,0.2-0.1,0.3c0.2,0.3,0.3,0.7,0.4,1.1s0.1,0.8,0.2,1.3l0.2-0.1c0.3-0.4,0.5-0.8,0.7-1.1s0.4-0.6,0.5-0.8
	c0.2-0.3,0.4-0.7,0.7-1.1s0.6-0.9,1.1-1.5c0.3-0.4,0.6-0.9,1-1.4l0.3-0.4L92,85l0.9-0.9c0.3-0.3,0.7-0.5,1.1-0.6
	c0.2-0.1,0.5-0.1,0.8,0c0.1,0,0.2,0.1,0.4,0.1c0.1,0.1,0.3,0.1,0.4,0.2l0.1,0.1c0.2,0.1,0.4,0.2,0.6,0.4s0.4,0.3,0.6,0.6
	c0.1,0.2,0.2,0.4,0.4,0.5s0.3,0.4,0.4,0.6s0.2,0.5,0.3,0.7s0.2,0.5,0.2,0.7s0.1,0.5,0.2,0.7s0.1,0.4,0.2,0.7v0.4c0,0,0,0.3,0,0.5
	v3.5v0.4V94c0,0.1-0.1,0.2-0.1,0.4c0,0.1,0,0.3-0.1,0.4c-0.1,0.5-0.2,0.8-0.2,1.1c0-0.1,0.1-0.2,0.2-0.3s0.1-0.2,0.2-0.4
	c0,0,0,0,0-0.1c0,0,0,0,0.1-0.1l0.3-0.7c0.2-0.3,0.4-0.5,0.5-0.8c0.2-0.3,0.4-0.6,0.5-1c0.1-0.1,0.1-0.2,0.2-0.4
	c0.1-0.1,0.1-0.3,0.2-0.4s0.1-0.2,0.2-0.3s0.1-0.2,0.2-0.3l0.4-0.7l1-1.4c0.1-0.1,0.2-0.2,0.2-0.3c0.1-0.1,0.1-0.2,0.2-0.3
	c0.6-0.7,1.1-1.3,1.6-1.8l0.1-0.1l0.1-0.1c0.3-0.3,0.6-0.6,1-0.8s0.8-0.4,1.2-0.4h0.2c0.1,0,0.1,0,0.2-0.1h0.1
	c0.3,0,0.5,0.1,0.6,0.1c0.2,0.1,0.4,0.1,0.5,0.2c0.2,0,0.3,0.1,0.3,0.1c0.1,0,0.1,0.1,0.2,0.2l0.1,0.2l0.3,0.3
	c0.3,0.3,0.5,0.6,0.5,0.7c0,0,0,0.1,0.1,0.2c0,0.1,0.1,0.2,0.1,0.3l0.3,0.6l0.3,0.6c0.1,1.1,0.1,2.2,0,3.4c0,0.5-0.1,1-0.1,1.5
	s-0.1,1.1-0.2,1.6c0,0.3-0.1,0.5-0.1,0.8s-0.1,0.6-0.1,0.8c0,0.3-0.1,0.5-0.1,0.7l-0.1,0.4c0,0.2-0.1,0.5-0.1,0.7s-0.1,0.4-0.1,0.7
	l-0.3,1.5c-0.1,0.3-0.1,0.4-0.1,0.5v0.1c0,0,0,0.1-0.1,0.2c0,0.1-0.1,0.3-0.2,0.8l-0.3,1.1l-0.2,0.7l-0.4,0.6v1
	c0,0.2-0.1,0.3-0.1,0.3s0,0.1-0.1,0.2l-0.2,0.3c0,0,0.1,0.1,0.1,0.2c0.1,0.1,0.1,0.2,0.1,0.2c0,0.1-0.1,0.4-0.1,0.7v0.3v0.2
	l-0.1,0.3c0,0.1-0.1,0.2-0.2,0.4s-0.2,0.3-0.2,0.4c-0.1,0.4-0.1,0.7-0.2,1c0,0.3,0,0.6-0.1,0.9c-0.1,0.5-0.1,0.9-0.1,1.3v1.3v0.8
	c0,0,0,0.4,0.1,0.5c0.1,0.5,0.2,0.8,0.3,1l0.1,0.1c0,0.1,0,0.2,0.1,0.4c0.1,0.1,0.2,0.2,0.3,0.2c0.2,0,0.4,0,0.6-0.2
	c0.3-0.1,0.6-0.3,0.9-0.7c0.3-0.3,0.5-0.7,0.8-1l0.5-0.7l0.2-0.3c0.1-0.1,0.1-0.2,0.2-0.3s0.1-0.2,0.2-0.3l1.5-2.3l0.4-0.7
	c0.4-0.5,0.6-0.8,0.6-0.9l0.1-0.3l0.2-0.2c0.2-0.3,0.3-0.5,0.4-0.6s0.2-0.2,0.2-0.3c0.1-0.1,0.2-0.2,0.3-0.2
	c0.1,0.3,0.1,0.5,0.1,0.7v0.1v0.1c0,0.2-0.1,0.3-0.2,0.4s-0.1,0.3-0.2,0.4l-0.1,0.4l-0.3,0.6c0,0.1-0.1,0.2-0.1,0.2
	c0,0.1-0.1,0.1-0.1,0.2s-0.1,0.3-0.3,0.5c-0.1,0.2-0.2,0.5-0.5,0.8c-0.2,0.4-0.4,0.7-0.7,1.1s-0.5,0.8-0.7,1.2s-0.4,0.7-0.6,1
	l-0.7,0.8l-0.1,0.2c-0.2,0.3-0.4,0.5-0.6,0.8s-0.5,0.5-0.7,0.7l-0.3,0.3c-0.3,0.4-0.6,0.8-0.9,0.9c-0.3,0.2-0.5,0.3-0.7,0.3
	s-0.4,0-0.5,0.1l-0.2,0.1h-0.1l-0.3,0.1c-0.3,0.1-0.6,0.2-0.8,0.1c-0.2,0-0.4-0.1-0.5-0.2c-0.2-0.1-0.3-0.2-0.5-0.3
	c-0.1,0-0.3,0-0.5-0.1c-0.4-0.3-0.7-0.6-1-1s-0.6-0.9-0.8-1.4l-0.3-0.7c-0.3-0.7-0.6-1.6-0.7-2.7s-0.1-2.3,0-3.7c0-0.1,0-0.1,0-0.2
	s0-0.2,0-0.2c0-0.4,0.1-0.9,0.1-1.3s0.1-0.8,0.1-1.2l0.1-0.7c0-0.3,0.1-0.5,0.1-0.6s0-0.1,0-0.2v-0.1c0,0,0.1-0.2,0.1-0.5l0.1-0.3
	l0.4-1.5l0.1-0.4l0.3-1.3c0-0.1,0.1-0.3,0.1-0.4s0.1-0.3,0.1-0.4l0.2-0.8l0.4-1.7l0.5-1.7l0.8-2.6l0.1-0.6c0.1-0.4,0.2-0.7,0.3-0.9
	s0.1-0.3,0.1-0.4c0,0,0-0.1,0.1-0.3c0-0.1,0.1-0.3,0.1-0.5s0.1-0.4,0.2-0.6s0.1-0.4,0.1-0.5l0.1-0.3c0-0.1,0-0.3,0.1-0.4
	s0-0.2,0-0.2c-0.3-0.1-0.5,0-0.9,0.2l-0.2,0.1c-0.1,0-0.3,0.1-0.4,0.2s-0.2,0.2-0.3,0.4l-0.6,0.6c0,0-0.1,0.1-0.2,0.2
	s-0.2,0.2-0.3,0.3s-0.2,0.2-0.2,0.2l-0.1,0.1c-0.2,0.2-0.4,0.5-0.5,0.9c-0.2,0.4-0.4,0.8-0.6,1.3l-0.7,1.4l-0.2,0.4l-0.6,1.2
	c-0.1,0.1-0.1,0.2-0.2,0.4c-0.1,0.1-0.1,0.3-0.2,0.4l-0.1,0.3l-0.3,0.7l-0.2,0.6l-0.2,0.3c0,0.1-0.1,0.2-0.2,0.3s-0.1,0.2-0.2,0.3
	l-0.2,0.9c-0.1,0.3-0.2,0.5-0.2,0.8c-0.1,0.3-0.1,0.5-0.2,0.8l-0.1,0.5c-0.1,0.4-0.2,0.7-0.3,0.9s-0.2,0.4-0.3,0.6s-0.2,0.4-0.3,0.6
	s-0.1,0.3-0.2,0.4c0,0.1-0.1,0.2-0.1,0.3s-0.1,0.2-0.1,0.4l-0.2,0.7c0,0.1-0.1,0.2-0.1,0.3s-0.1,0.3-0.1,0.5s-0.1,0.3-0.2,0.5
	l-0.2,0.3c-0.1,0.1-0.1,0.3-0.2,0.5c0,0.2-0.1,0.4-0.1,0.6s-0.1,0.4-0.2,0.6s-0.2,0.3-0.3,0.4c-0.1,0-0.2,0.1-0.3,0
	s-0.3-0.1-0.4-0.1s-0.3-0.1-0.4-0.2s-0.2-0.1-0.3-0.1h-0.2c-0.6,0-1.1-0.3-1.3-0.8c0-0.1,0-0.2-0.1-0.4c0-0.1,0-0.3-0.1-0.4
	c-0.1,0-0.1-0.2-0.2-0.5c0-0.3,0-0.5,0-0.8v-0.2c0-0.1,0.1-0.6,0.2-1.3s0.3-1.7,0.5-2.7l0.3-1.8l0.2-1.3c0.1-0.5,0.2-1,0.2-1.5
	s0.1-1,0.1-1.4l0.1-0.5l0.3-3.2c0-0.3,0-0.6,0.1-0.8c0-0.3,0-0.5,0-0.8v-0.4v-1.7l-0.1-1.2c0-0.2,0-0.4-0.1-0.6v-0.1
	c0-0.3-0.1-0.5-0.3-0.6c-0.1,0-0.2,0-0.3,0.1s-0.3,0.2-0.4,0.4c-0.1,0.1-0.3,0.2-0.5,0.5L91,88.5l-0.3,0.3l-0.3,0.5
	c0,0.1-0.1,0.2-0.1,0.3s-0.1,0.1-0.1,0.2l-0.5,0.6c0,0-0.1,0-0.1,0.1c0,0,0,0-0.1,0.1s-0.1,0.2-0.2,0.3s-0.1,0.2-0.2,0.3L89,91.4
	c0,0.1-0.1,0.2-0.2,0.3s-0.1,0.2-0.2,0.3l-0.5,0.9l-0.5,1.2c-0.1,0.3-0.2,0.5-0.3,0.7s-0.2,0.3-0.2,0.5c-0.1,0.2-0.2,0.3-0.2,0.6
	c0,0.1,0,0.2-0.1,0.3v0.3l-0.1,0.3c-0.1,0.4-0.2,0.8-0.3,1.2c-0.1,0.5-0.2,0.9-0.2,1.4c-0.1,0.6-0.2,1.2-0.3,1.8s-0.1,1-0.2,1.4v0.4
	v0.7v0.3c0,0,0,0.1,0,0.2v0.3v0.1v0.5v0.5c0,0.2,0,0.5-0.1,0.7v0.2v0.1v0.1l-0.1,0.6c0,0.1,0,0.3-0.1,0.5c0,0.2-0.1,0.5-0.1,0.7
	c0,0.3-0.1,0.5-0.1,0.8s-0.1,0.5-0.1,0.6l-0.1,0.5c0,0.1-0.1,0.2-0.1,0.3s-0.1,0.2-0.1,0.3v0.1c0,0.1,0,0.3-0.1,0.4
	c-0.1,0.2-0.2,0.3-0.3,0.5l-0.3,0.7l-0.2,0.6c0,0.1-0.1,0.2-0.2,0.3s-0.1,0.2-0.2,0.2l-0.3,0.5c0,0.1-0.1,0.2-0.2,0.3
	s-0.2,0.2-0.2,0.2c-0.1,0.1-0.3,0.1-0.5,0.1c-0.1,0-0.2,0-0.3,0.1c-0.1,0-0.2,0-0.3,0s-0.1,0-0.2-0.1s-0.1-0.1-0.2-0.2
	s-0.2-0.2-0.2-0.2c-0.1-0.1-0.2-0.1-0.2-0.1c-0.2,0-0.4-0.1-0.5-0.1l-0.3-0.1c-0.2-0.1-0.3-0.2-0.5-0.4c-0.1-0.2-0.3-0.4-0.3-0.6
	l-0.1-0.2c-0.2-0.2-0.3-0.5-0.3-0.7c-0.1-0.3-0.1-0.6-0.2-1.1v-0.4c0-0.1,0-0.3,0-0.4s0-0.3,0-0.4l0.1-0.8c0-0.2,0-0.3,0-0.4v-0.1
	v-0.2l0.1-0.7l0.1-1.1l0.3-2.2v-0.3v-0.8v-0.1v-0.5c0.2-0.9,0.3-1.8,0.4-2.7s0.2-1.8,0.3-2.6l0.1-1c0-0.3,0.1-0.7,0.1-1
	s0.1-0.7,0.1-1c0-0.4,0.1-0.7,0.2-1s0.2-0.6,0.2-0.9l0.1-0.4L81.7,91.4z M86.2,104.2V104C86.3,104.3,86.3,104.4,86.2,104.2
	L86.2,104.2z"/>
<path d="M139.8,104.2c0.1,0.1,0.2,0.3,0.1,0.6c0,0.2-0.1,0.3-0.2,0.4s-0.1,0.2-0.2,0.3v0.1c0,0,0,0.1-0.1,0.1c0,0.1-0.1,0.3-0.2,0.7
	c-0.1,0.3-0.2,0.6-0.3,0.7c0,0-0.1,0.1-0.1,0.2c-0.1,0.1-0.1,0.2-0.2,0.4s-0.1,0.3-0.2,0.4s-0.1,0.2-0.1,0.3L138,109l-0.1,0.1v0.1
	c0,0,0,0,0,0.1c0,0.2-0.1,0.4-0.2,0.5c-0.1,0.2-0.2,0.3-0.3,0.5c0,0.1-0.1,0.1-0.1,0.2s-0.1,0.2-0.2,0.3c-0.4,0.6-0.9,1.2-1.6,1.8
	c0,0.1,0,0.2-0.1,0.3c0,0-0.1,0.1-0.2,0.2s-0.2,0.2-0.2,0.3c-0.4,0.5-0.8,0.9-1.2,1.3c-0.4,0.3-0.8,0.7-1.4,1
	c-0.1,0.1-0.3,0.2-0.4,0.3s-0.3,0.2-0.5,0.3c-0.3,0.2-0.5,0.4-0.7,0.5c-0.2,0.2-0.4,0.3-0.7,0.4c-0.6,0.3-1.2,0.6-1.8,0.7
	s-1.2,0.2-1.7,0.2c0,0-0.1,0-0.2,0c-0.4,0-0.8,0-1.3-0.1s-0.9-0.2-1.4-0.4s-0.9-0.4-1.3-0.6s-0.8-0.5-1.1-0.7
	c-0.6-0.5-1.2-1.1-1.8-2c-0.3-0.5-0.5-0.9-0.7-1.3s-0.4-0.9-0.5-1.4c-0.3-0.8-0.4-1.7-0.5-2.7c0-0.1,0-0.1,0-0.2s0-0.1,0-0.2v-1.8
	c0-0.5,0-1,0-1.4s0.1-0.9,0.1-1.3l0.2-1.1l0.1-0.7c0-0.1,0-0.2,0-0.3s0.1-0.3,0.1-0.4s0.1-0.3,0.1-0.5l0.2-1.3
	c0.1-0.6,0.3-1.2,0.5-1.9s0.5-1.4,0.8-2.1c0.1-0.3,0.3-0.7,0.5-1.1c0.5-1,1-2.1,1.7-3.1s1.4-1.8,2.2-2.5l0.2-0.1
	c0.3-0.3,0.8-0.6,1.2-0.9c0.3-0.2,0.7-0.4,1.2-0.7c1.2-0.5,2.3-0.8,3.4-0.7c0.3-0.1,0.7-0.1,1.1-0.1s0.8,0.1,1.1,0.1
	c0.6,0.1,1.1,0.2,1.5,0.4s0.9,0.4,1.5,0.6c0.6,0.1,1,0.3,1.3,0.6c0.2,0.3,0.3,0.6,0.5,0.9c0.1,0.3,0.2,0.7,0.1,1.1
	c0,0.4-0.1,0.7-0.2,1.1s-0.3,0.7-0.5,1.1c-0.1,0.2-0.2,0.4-0.2,0.5c0,0.2-0.1,0.3-0.2,0.5l-0.1,0.1c-0.2,0.4-0.2,0.7-0.1,0.9
	c0,0.1-0.1,0.2-0.3,0.3c-0.1,0.1-0.3,0.1-0.4,0.2c-0.1,0-0.2,0.1-0.4,0.1c-0.1,0-0.2,0.1-0.2,0.1c-0.1,0-0.3,0-0.4-0.1
	s-0.2-0.2-0.4-0.3c-0.1-0.1-0.2-0.2-0.3-0.4c-0.1-0.1-0.2-0.2-0.2-0.3c0,0,0-0.1-0.1-0.2c0-0.1,0-0.2-0.1-0.3
	c-0.2-0.7-0.3-1.2-0.2-1.5s0.3-0.5,0.5-0.7c0.3-0.1,0.6-0.3,0.9-0.4c0.4-0.1,0.7-0.3,1-0.6c0.2-0.2,0.2-0.4,0-0.7s-0.4-0.5-0.7-0.7
	s-0.6-0.4-1-0.5s-0.7-0.2-1-0.1c-0.2,0-0.5-0.1-0.7-0.1s-0.4,0-0.6,0.1c-0.1,0.1-0.3,0.2-0.5,0.3c-0.2,0.2-0.3,0.3-0.5,0.5
	s-0.3,0.4-0.5,0.5c-0.2,0.2-0.3,0.3-0.5,0.4c-0.1,0.1-0.2,0.2-0.3,0.4c-0.1,0.1-0.2,0.3-0.2,0.4c-0.3,0.4-0.6,0.8-0.9,1.3
	c-0.1,0.2-0.2,0.4-0.3,0.5c-0.1,0.2-0.2,0.3-0.3,0.4c0,0.1-0.1,0.2-0.1,0.2c0,0.1-0.1,0.2-0.1,0.3c-0.1,0.2-0.2,0.4-0.4,0.6
	c-0.1,0.2-0.2,0.4-0.4,0.6c-0.3,0.5-0.6,1-0.9,1.6s-0.6,1.3-0.8,1.9c-0.2,0.5-0.4,1.1-0.6,1.7c-0.2,0.7-0.4,1.3-0.5,2
	c0,0.5,0,0.9-0.1,1.1c-0.1,0.6-0.2,1-0.3,1.4s-0.2,0.8-0.1,1.3c-0.1,0.7-0.1,1.4,0,2.2v0.6v0.8v0.8c0,0.3,0,0.5,0.1,0.7
	c0.1,0.5,0.2,0.9,0.4,1.3s0.3,0.8,0.5,1.1c0.2,0.4,0.4,0.7,0.6,0.9c0.3,0.3,0.6,0.6,1,0.8c0.1,0,0.2,0.1,0.4,0.1s0.3,0.1,0.5,0.1
	c0.1,0.1,0.2,0.1,0.3,0.1c0.1,0.1,0.3,0.2,0.6,0.4c0.2,0.2,0.5,0.3,0.7,0.2c0.4-0.1,0.8-0.3,1.2-0.5c0.4-0.3,0.8-0.5,1.1-0.7
	c0.7-0.2,1.3-0.6,1.8-1.1s1-1,1.5-1.4c0.1-0.1,0.2-0.3,0.4-0.5c0.1-0.2,0.3-0.4,0.5-0.6c0.3-0.4,0.6-0.7,0.8-1.1
	c0.3-0.4,0.5-0.7,0.7-1c0.4-0.7,0.7-1.4,1-1.9c0.3-0.6,0.5-1,0.6-1.4c0-0.5,0.1-0.8,0.3-1.1c0.1-0.3,0.3-0.5,0.4-0.6
	s0.3-0.2,0.4-0.2s0.2,0.1,0.2,0.2L139.8,104.2z"/>
<path d="M142.2,91.4c0,0,0-0.1,0-0.3s0-0.3,0-0.3c0-0.1,0-0.2,0-0.4s0.1-0.4,0.1-0.6s0.1-0.4,0.1-0.6s0-0.4-0.1-0.5
	s-0.2-0.3-0.2-0.4s0-0.3,0.1-0.4c0-0.1,0.1-0.3,0.1-0.4s0-0.3,0-0.5s-0.1-0.5-0.2-0.7c-0.1-0.3-0.1-0.5-0.1-0.6v-0.3
	c0-0.1-0.1-0.2-0.1-0.3s-0.1-0.2-0.1-0.2c0-0.1-0.1-0.1-0.1-0.2s0-0.1,0-0.2s0-0.2,0-0.3l0.2-0.1c0.2-0.2,0.4-0.2,0.6-0.2h0.2h0.1
	c0,0,0.1,0,0.2-0.1c0.1,0,0.2,0,0.4-0.1h0.7h0.2c0,0,0,0.1-0.1,0.2c0,0.1-0.1,0.1-0.1,0.2h0.1c0.2-0.1,0.4-0.1,0.6-0.1
	s0.4,0.1,0.6,0.2c0.1,0,0.3,0.1,0.5,0.3l0.4,0.4c0.1,0.2,0.3,0.3,0.4,0.5s0.2,0.4,0.3,0.7s0.1,0.6,0.2,0.9s0.1,0.6,0.2,0.9
	c0,0.3,0.1,0.5,0.1,0.6s0,0.2-0.1,0.3s-0.1,0.2-0.1,0.3c0.2,0.3,0.3,0.7,0.4,1.1s0.1,0.8,0.2,1.3l0.2-0.1c0.3-0.4,0.5-0.8,0.7-1.1
	s0.4-0.6,0.5-0.8c0.2-0.3,0.4-0.7,0.7-1.1s0.6-0.9,1.1-1.5c0.3-0.4,0.6-0.9,1-1.4l0.3-0.4l0.1-0.1l0.9-0.9c0.3-0.3,0.7-0.5,1.1-0.6
	c0.2-0.1,0.5-0.1,0.8,0c0.1,0,0.2,0.1,0.4,0.1s0.3,0.1,0.4,0.2l0.1,0.1c0.2,0.1,0.4,0.2,0.6,0.4s0.4,0.3,0.6,0.6
	c0.1,0.2,0.2,0.4,0.4,0.5s0.3,0.4,0.4,0.6s0.2,0.5,0.3,0.7s0.2,0.5,0.2,0.7s0.1,0.5,0.2,0.7s0.1,0.4,0.2,0.7v0.4c0,0,0,0.3,0,0.5
	v3.5v0.4V94c0,0.1-0.1,0.2-0.1,0.4c0,0.1,0,0.3-0.1,0.4c-0.1,0.5-0.2,0.8-0.2,1.1c0-0.1,0.1-0.2,0.2-0.3s0.1-0.2,0.2-0.4
	c0,0,0,0,0-0.1c0,0,0,0,0.1-0.1l0.3-0.7c0.2-0.3,0.4-0.5,0.5-0.8c0.2-0.3,0.4-0.6,0.5-1c0.1-0.1,0.1-0.2,0.2-0.4s0.1-0.3,0.2-0.4
	s0.1-0.2,0.2-0.3s0.1-0.2,0.2-0.3l0.4-0.7l1-1.4c0.1-0.1,0.2-0.2,0.2-0.3c0.1-0.1,0.1-0.2,0.2-0.3c0.6-0.7,1.1-1.3,1.6-1.8l0.1-0.1
	l0.1-0.1c0.3-0.3,0.6-0.6,1-0.8s0.8-0.4,1.2-0.4h0.2c0.1,0,0.1,0,0.2-0.1h0.1c0.3,0,0.5,0.1,0.6,0.1c0.2,0.1,0.4,0.1,0.5,0.2
	c0.2,0,0.3,0.1,0.3,0.1c0.1,0,0.1,0.1,0.2,0.2l0.1,0.2l0.3,0.3c0.3,0.3,0.5,0.6,0.5,0.7c0,0,0,0.1,0.1,0.2c0,0.1,0.1,0.2,0.1,0.3
	c0.1,0.2,0.2,0.4,0.3,0.6s0.2,0.4,0.3,0.6c0.1,1.1,0.1,2.2,0,3.4c0,0.5-0.1,1-0.1,1.5s-0.1,1.1-0.2,1.6c0,0.3-0.1,0.5-0.1,0.8
	s-0.1,0.6-0.1,0.8c0,0.3-0.1,0.5-0.1,0.7l-0.1,0.4c0,0.2-0.1,0.5-0.1,0.7s-0.1,0.4-0.1,0.7l-0.3,1.5c-0.1,0.3-0.1,0.4-0.1,0.5v0.1
	c0,0,0,0.1-0.1,0.2c0,0.1-0.1,0.3-0.2,0.8l-0.3,1.1l-0.2,0.7l-0.4,0.6v1c0,0.2-0.1,0.3-0.1,0.3s0,0.1-0.1,0.2l-0.2,0.3
	c0,0,0.1,0.1,0.1,0.2c0.1,0.1,0.1,0.2,0.1,0.2c0,0.1-0.1,0.4-0.1,0.7v0.3v0.2l-0.1,0.3c0,0.1-0.1,0.2-0.2,0.4s-0.2,0.3-0.2,0.4
	c-0.1,0.4-0.1,0.7-0.2,1c0,0.3,0,0.6-0.1,0.9c-0.1,0.5-0.1,0.9-0.1,1.3v1.3v0.8c0,0.2,0,0.4,0.1,0.5c0.1,0.5,0.2,0.8,0.3,1l0.1,0.1
	c0,0.1,0,0.2,0.1,0.4c0.1,0.1,0.2,0.2,0.3,0.2c0.2,0,0.4,0,0.6-0.2c0.3-0.1,0.6-0.3,0.9-0.7s0.5-0.7,0.8-1l0.5-0.7l0.2-0.3
	c0.1-0.1,0.1-0.2,0.2-0.3s0.1-0.2,0.2-0.3l1.5-2.3l0.4-0.7c0.4-0.5,0.6-0.8,0.6-0.9l0.1-0.3l0.2-0.2c0.2-0.3,0.3-0.5,0.4-0.6
	s0.2-0.2,0.2-0.3c0.1-0.1,0.2-0.2,0.3-0.2c0.1,0.3,0.1,0.5,0.1,0.7v0.1v0.1c0,0.2-0.1,0.3-0.2,0.4s-0.1,0.3-0.2,0.4l-0.1,0.4
	l-0.3,0.6c0,0.1-0.1,0.2-0.1,0.2s-0.1,0.1-0.1,0.2s-0.1,0.3-0.3,0.5c-0.1,0.2-0.2,0.5-0.5,0.8c-0.2,0.4-0.4,0.7-0.7,1.1
	s-0.5,0.8-0.7,1.2s-0.4,0.7-0.6,1l-0.7,0.8l-0.1,0.2c-0.2,0.3-0.4,0.5-0.6,0.8s-0.5,0.5-0.7,0.7l-0.3,0.3c-0.3,0.4-0.6,0.8-0.9,0.9
	c-0.3,0.2-0.5,0.3-0.7,0.3s-0.4,0-0.5,0.1l-0.2,0.1h-0.1l-0.3,0.1c-0.3,0.1-0.6,0.2-0.8,0.1c-0.2,0-0.4-0.1-0.5-0.2
	c-0.2-0.1-0.3-0.2-0.5-0.3c-0.1,0-0.3,0-0.5-0.1c-0.4-0.3-0.7-0.6-1-1s-0.6-0.9-0.8-1.4l-0.3-0.7c-0.3-0.7-0.6-1.6-0.7-2.7
	s-0.1-2.3,0-3.7c0-0.1,0-0.1,0-0.2s0-0.2,0-0.2c0-0.4,0.1-0.9,0.1-1.3s0.1-0.8,0.1-1.2l0.1-0.7c0-0.3,0.1-0.5,0.1-0.6s0-0.1,0-0.2
	v-0.1c0,0,0.1-0.2,0.1-0.5l0.1-0.3l0.4-1.5l0.1-0.4l0.3-1.3c0-0.1,0.1-0.3,0.1-0.4s0.1-0.3,0.1-0.4l0.2-0.8l0.4-1.7l0.5-1.7l0.8-2.6
	l0.1-0.6c0.1-0.4,0.2-0.7,0.3-0.9s0.1-0.3,0.1-0.4c0,0,0-0.1,0.1-0.3c0-0.1,0.1-0.3,0.1-0.5s0.1-0.4,0.2-0.6s0.1-0.4,0.1-0.5
	l0.1-0.3c0-0.1,0-0.3,0.1-0.4s0-0.2,0-0.2c-0.3-0.1-0.5,0-0.9,0.2l-0.2,0.1c-0.1,0-0.3,0.1-0.4,0.2s-0.2,0.2-0.3,0.4l-0.6,0.6
	c0,0-0.1,0.1-0.2,0.2s-0.2,0.2-0.3,0.3s-0.2,0.2-0.2,0.2l-0.1,0.1c-0.2,0.2-0.4,0.5-0.5,0.9c-0.2,0.4-0.4,0.8-0.6,1.3l-0.7,1.4
	l-0.2,0.4l-0.6,1.2c-0.1,0.1-0.1,0.2-0.2,0.4c-0.1,0.1-0.1,0.3-0.2,0.4l-0.1,0.3l-0.3,0.7l-0.2,0.6l-0.2,0.3c0,0.1-0.1,0.2-0.2,0.3
	s-0.1,0.2-0.2,0.3l-0.2,0.9c-0.1,0.3-0.2,0.5-0.2,0.8c-0.1,0.3-0.1,0.5-0.2,0.8l-0.1,0.5c-0.1,0.4-0.2,0.7-0.3,0.9s-0.2,0.4-0.3,0.6
	s-0.2,0.4-0.3,0.6s-0.1,0.3-0.2,0.4c0,0.1-0.1,0.2-0.1,0.3s-0.1,0.2-0.1,0.4l-0.2,0.7c0,0.1-0.1,0.2-0.1,0.3s-0.1,0.3-0.1,0.5
	s-0.1,0.3-0.2,0.5l-0.2,0.3c-0.1,0.1-0.1,0.3-0.2,0.5c0,0.2-0.1,0.4-0.1,0.6s-0.1,0.4-0.2,0.6s-0.2,0.3-0.3,0.4
	c-0.1,0-0.2,0.1-0.3,0c-0.1,0-0.3-0.1-0.4-0.1s-0.3-0.1-0.4-0.2s-0.2-0.1-0.3-0.1h-0.2c-0.6,0-1.1-0.3-1.3-0.8c0-0.1,0-0.2-0.1-0.4
	c0-0.1,0-0.3-0.1-0.4c-0.1,0-0.1-0.2-0.2-0.5c0-0.3,0-0.5,0-0.8v-0.2c0-0.1,0.1-0.6,0.2-1.3c0.1-0.8,0.3-1.7,0.5-2.7l0.3-1.8
	l0.2-1.3c0.1-0.5,0.2-1,0.2-1.5s0.1-1,0.1-1.4l0.1-0.5l0.3-3.2c0-0.3,0-0.6,0.1-0.8c0-0.3,0-0.5,0-0.8v-0.4v-1.7l-0.1-1.2
	c0-0.2,0-0.4-0.1-0.6v-0.1c0-0.3-0.1-0.5-0.3-0.6c-0.1,0-0.2,0-0.3,0.1s-0.3,0.2-0.4,0.4c-0.1,0.1-0.3,0.2-0.5,0.5l-0.5,0.6
	l-0.3,0.3l-0.3,0.5c0,0.1-0.1,0.2-0.1,0.3s-0.1,0.1-0.1,0.2l-0.5,0.6c0,0-0.1,0-0.1,0.1c0,0,0,0-0.1,0.1s-0.1,0.2-0.2,0.3
	s-0.1,0.2-0.2,0.3l-0.1,0.2c0,0.1-0.1,0.2-0.2,0.3s-0.1,0.2-0.2,0.3l-0.5,0.9l-0.5,1.2c-0.1,0.3-0.2,0.5-0.3,0.7s-0.2,0.3-0.2,0.5
	c-0.1,0.2-0.2,0.3-0.2,0.6c0,0.1,0,0.2-0.1,0.3v0.3l-0.1,0.3c-0.1,0.4-0.2,0.8-0.3,1.2c-0.1,0.5-0.2,0.9-0.2,1.4
	c-0.1,0.6-0.2,1.2-0.3,1.8s-0.1,1-0.2,1.4v0.4v0.7v0.3c0,0,0,0.1,0,0.2v0.3v0.1v0.5v0.5c0,0.2,0,0.5-0.1,0.7v0.2v0.1v0.1l-0.1,0.6
	c0,0.1,0,0.3-0.1,0.5c0,0.2-0.1,0.5-0.1,0.7c0,0.3-0.1,0.5-0.1,0.8s-0.1,0.5-0.1,0.6l-0.1,0.5c0,0.1-0.1,0.2-0.1,0.3
	s-0.1,0.2-0.1,0.3v0.1c0,0.1,0,0.3-0.1,0.4c-0.1,0.2-0.2,0.3-0.3,0.5l-0.3,0.7l-0.2,0.6c0,0.1-0.1,0.2-0.2,0.3s-0.1,0.2-0.2,0.2
	l-0.3,0.5c0,0.1-0.1,0.2-0.2,0.3s-0.2,0.2-0.2,0.2c-0.1,0.1-0.3,0.1-0.5,0.1c-0.1,0-0.2,0-0.3,0.1c-0.1,0-0.2,0-0.3,0
	s-0.1,0-0.2-0.1s-0.1-0.1-0.2-0.2s-0.2-0.2-0.2-0.2c-0.1-0.1-0.2-0.1-0.2-0.1c-0.2,0-0.4-0.1-0.5-0.1l-0.3-0.1
	c-0.2-0.1-0.3-0.2-0.5-0.4c-0.1-0.2-0.3-0.4-0.3-0.6l-0.1-0.2c-0.2-0.2-0.3-0.5-0.3-0.7c-0.1-0.3-0.1-0.6-0.2-1.1v-0.4
	c0-0.1,0-0.3,0-0.4s0-0.3,0-0.4l0.1-0.8c0-0.2,0-0.3,0-0.4v-0.1v-0.2l0.1-0.7l0.1-1.1l0.3-2.2v-0.3v-0.8v-0.1v-0.5
	c0.2-0.9,0.3-1.8,0.4-2.7s0.2-1.8,0.3-2.6l0.1-1c0-0.3,0.1-0.7,0.1-1s0.1-0.7,0.1-1c0-0.4,0.1-0.7,0.2-1s0.2-0.6,0.2-0.9l0.1-0.4
	L142.2,91.4z M146.7,104.2V104C146.8,104.3,146.8,104.4,146.7,104.2L146.7,104.2z"/>
<path d="M192.7,89.9c0.1-0.2,0.3-0.3,0.6-0.3c0,0,0.1,0,0.1,0.1s0.1,0.1,0.1,0.1c0.2,0,0.5,0.1,0.7,0.2c0.3,0.1,0.5,0.3,0.8,0.5
	s0.5,0.5,0.7,0.7c0.1,0.1,0.2,0.2,0.3,0.4c0.1,0.1,0.2,0.3,0.2,0.4c0.2,0.3,0.4,0.7,0.6,1.1c0,0.3,0.1,0.6,0,0.8
	c0,0.3-0.1,0.6-0.1,1.1c0,0.3-0.1,0.4-0.1,0.5s-0.1,0.2-0.1,0.4c0,0.3-0.1,0.6-0.1,0.9s-0.1,0.6-0.2,0.9c0,0.3,0.1,0.6,0.1,1
	c0,0.3,0.1,0.6,0.1,1l0.1,0.9c-0.1,0.5-0.2,1.1-0.3,1.6s-0.2,1.1-0.3,1.6c0,0.2-0.1,0.3-0.1,0.5v0.4h0.2h0.1h0.1c0,0,0.1,0,0.3-0.1
	l0.5-0.2l0.9-0.1c0.2,0,0.3,0.2,0.4,0.5s0.1,0.5,0.1,0.6c0,0.2-0.1,0.4-0.3,0.6c-0.2,0.1-0.6,0.3-1.1,0.4l-0.6,0.2l-0.5,0.6
	c-0.1,0.1-0.2,0.2-0.3,0.4s-0.2,0.5-0.2,0.9c-0.1,0.9-0.2,2.1-0.3,3.5v0.3c0,0.2,0,0.3-0.1,0.4c-0.1,0.3-0.1,0.6-0.2,0.8v0.8v0.7
	v0.7v0.5c0,0.1,0,0.3-0.1,0.4v0.5v0.7c0,0,0,0.5,0,0.7v0.3v0.3c0,0.4,0,0.8,0.1,1.1c0,0.3,0.1,0.6,0.1,0.9c0,0.1,0.1,0.2,0.1,0.4
	c0,0.1,0.1,0.3,0.1,0.5l0.1,0.6v0.9v0.7c0,0.2,0.1,0.4,0.2,0.6v0.4c0,0.3-0.1,0.6-0.1,0.9c0,0.2-0.1,0.5-0.1,0.8
	c0,0-0.1,0.1-0.3,0.1s-0.2,0.1-0.3,0.1s-0.2,0.1-0.2,0.1l-0.5,0.1c-0.1,0-0.3,0-0.4,0.1s-0.3,0-0.4,0c-0.4,0-0.7-0.1-1-0.3
	s-0.5-0.5-0.7-1.1c-0.1-0.1-0.2-0.2-0.3-0.4c-0.1-0.1-0.2-0.3-0.3-0.5l-0.5-0.8c-0.1-0.1-0.2-0.3-0.2-0.4c-0.1-0.1-0.1-0.2-0.2-0.3
	l-0.1-0.4c-0.1-0.3-0.1-0.5-0.2-0.7c0-0.2-0.1-0.5-0.1-0.7c0-0.3-0.1-0.6-0.1-1c0-0.3-0.1-0.6-0.1-1c0-0.2,0-0.4-0.1-0.6
	c0-0.2,0-0.4,0-0.6l-0.1-0.6c0-0.1-0.1-0.2-0.1-0.3c0-0.2,0-0.4,0.1-0.8c0.1-0.3,0.1-0.7,0.2-1c0-0.2,0-0.4,0.1-0.5
	c0-0.2,0-0.3,0-0.4c0-0.3,0-0.6,0.1-1c0-0.3,0-0.6,0.1-1c0.1-0.7,0.1-1.3,0.2-1.9s0.2-1,0.2-1.4c0.1-0.4,0.2-0.7,0.2-1
	s0.1-0.4,0.1-0.5c0,0-0.1-0.1-0.3-0.1c-0.1,0-0.2,0-0.3,0.1l-1.6,0.3l-1.3,0.3c-0.5,0-1,0-1.6,0.1c-0.6,0-1.1,0-1.6,0.1
	c-0.2,0.2-0.4,0.5-0.5,0.7c-0.2,0.2-0.3,0.5-0.5,0.7c-0.3,0.3-0.5,0.6-0.7,0.9s-0.4,0.6-0.6,0.9c-0.2,0.2-0.5,0.4-0.7,0.6
	s-0.4,0.4-0.5,0.5l-0.1,0.1c-0.3,0.3-0.6,0.7-0.9,1.1l-0.9,1.6l-0.1,0.1l-0.6,1c-0.1,0.2-0.2,0.3-0.3,0.5c-0.1,0.1-0.2,0.3-0.3,0.4
	c-0.2,0.2-0.3,0.5-0.5,0.7c-0.1,0.2-0.3,0.4-0.4,0.6l-0.3,0.6c-0.3,0.3-0.5,0.5-0.7,0.8c-0.1,0.1-0.2,0.2-0.3,0.3s-0.2,0.2-0.3,0.2
	c-0.4,0.3-0.7,0.4-0.8,0.4c-0.2,0-0.3-0.2-0.3-0.5c0,0,0,0,0-0.1s0-0.2,0.1-0.3c0-0.1,0.1-0.2,0.1-0.3s0,0,0,0v-0.1
	c0,0,0-0.1,0.1-0.1l0.2-0.5l0.3-0.3c0.2-0.3,0.5-0.5,0.7-0.8s0.5-0.6,0.7-0.8l0.1-0.1l0.7-0.8l1-1.5c0.3-0.4,0.5-0.8,0.7-1.2
	s0.5-0.8,0.7-1.2l0.8-1.2c0.3-0.5,0.6-0.9,0.8-1.3s0.4-0.6,0.5-0.8c-0.2,0-0.3,0-0.5,0s-0.3,0-0.5,0c-0.4-0.1-0.7-0.3-0.7-0.5
	c-0.1-0.1-0.2-0.2-0.1-0.3c0-0.2,0.2-0.4,0.5-0.7c0.1-0.1,0.2-0.2,0.4-0.3s0.3-0.1,0.4-0.2h0.6c0.2,0,0.4-0.1,0.6-0.1
	c0.3,0,0.5,0,0.6-0.1c0.2,0,0.4-0.1,0.5-0.3c0.1-0.3,0.4-0.8,0.8-1.5s0.8-1.4,1.2-2.2c0.3-0.6,0.7-1.2,1-1.7
	c0.4-0.6,0.7-1.2,0.9-1.8l0.7-0.9c0.3-0.3,0.6-0.7,0.9-1c0.3-0.4,0.6-0.8,1-1.2c0.8-1.2,1.5-2.1,2.1-3c0.6-0.8,1.1-1.6,1.4-2.3
	c0-0.1,0.1-0.2,0.1-0.3s0.1-0.2,0.1-0.3L192.7,89.9z M192.3,93.4l-0.1-0.1l-0.1-0.1c-0.2,0.3-0.3,0.5-0.6,0.8
	c-0.2,0.3-0.4,0.6-0.6,0.8c-0.1,0.1-0.2,0.3-0.3,0.5s-0.2,0.4-0.3,0.5s-0.2,0.3-0.4,0.4s-0.2,0.3-0.3,0.5l-0.4,0.8
	c-0.1,0.2-0.2,0.3-0.2,0.5c-0.1,0.2-0.2,0.3-0.2,0.5c-0.1,0.1-0.1,0.3-0.2,0.4s-0.2,0.3-0.3,0.4c-0.2,0.2-0.3,0.4-0.4,0.7
	c-0.1,0.4-0.3,0.7-0.6,1.1l-0.8,1.4c-0.3,0.6-0.6,1.1-0.9,1.8c-0.3,0.6-0.6,1.2-0.9,1.8c-0.2,0.4-0.3,0.7-0.3,0.9h0.2
	c0,0,0.1,0,0.3,0c0.3,0,0.6-0.1,1-0.2s0.7-0.2,0.9-0.2h0.2h0.4c0.3,0,0.5-0.1,0.7-0.1s0.4-0.1,0.6-0.1s0.3-0.1,0.5-0.1
	c0.1,0,0.3-0.1,0.5-0.1l0.8-0.2c0-0.2,0-0.4,0.1-0.6c0-0.2,0-0.4,0.1-0.7s0.1-0.4,0.1-0.6s0-0.3,0-0.2c0.1-0.5,0.2-1,0.3-1.6
	s0.2-1.1,0.3-1.7s0.2-1.1,0.3-1.6s0.2-1,0.3-1.5c0.1-0.3,0.1-0.6,0.2-0.9c0-0.3,0.1-0.5,0.1-0.7c0-0.4,0.1-0.8,0.1-1.1
	C192.3,94.1,192.3,93.7,192.3,93.4L192.3,93.4z"/>
<path d="M227.4,101.7C227.4,101.8,227.4,101.8,227.4,101.7c0.2,0.2,0.2,0.3,0.2,0.4s-0.1,0.2-0.1,0.2c-0.2,0.3-0.4,0.4-0.6,0.5
	c-0.2,0.3-0.4,0.5-0.6,0.6s-0.5,0.1-0.7,0c-0.3,0-0.5-0.1-0.8-0.1s-0.5,0.1-0.7,0.2c0,0.1-0.1,0.2-0.1,0.4c-0.1,0.2-0.1,0.6-0.2,1.3
	l-0.5,2.6c-0.1,0.3-0.1,0.7-0.2,1c-0.1,0.4-0.1,0.7-0.2,1s-0.1,0.6-0.1,0.7s0,0.2,0.1,0.3c0,0.5,0.1,1,0,1.5c0,0.5-0.1,1.1-0.1,1.7
	c-0.1,0.5-0.1,0.8-0.1,0.9c0.1,0.2,0.1,0.4,0.1,0.6s-0.1,0.5-0.2,0.7l-0.2,0.3c0,0,0-0.1-0.1,0c0,0-0.1,0.1-0.1,0.2
	s-0.1,0.3-0.1,0.6c-0.1,0.2-0.1,0.5-0.2,0.7s-0.2,0.5-0.3,0.8l-0.1,0.1c-0.1,0.1-0.1,0.2-0.1,0.3l-0.1,0.3c0,0,0.1,0,0.1,0.1
	s0,0.1,0,0.1c0,0.2-0.1,0.3-0.2,0.3c-0.2,0-0.3,0.1-0.3,0.1c-0.1,0-0.1,0.2-0.2,0.3s-0.1,0.2-0.2,0.4c-0.1,0.1-0.1,0.3-0.2,0.4
	c-0.1,0.3-0.2,0.5-0.4,0.7s-0.4,0.4-0.7,0.6c-0.1,0.1-0.2,0.2-0.2,0.3v0.1c-0.3,0.1-0.5,0.1-0.7,0.2s-0.4,0-0.7-0.2
	c-0.2-0.2-0.3-0.5-0.4-0.7c-0.2-0.4-0.2-0.7-0.2-1.1c0-0.3,0.1-0.7,0.1-1c0-0.4,0.1-0.8,0.2-1.3s0.1-1,0.2-1.6s0.1-1.4,0.2-2.3
	c0.1-0.6,0.2-1.3,0.3-2.1s0.2-1.5,0.4-2.4c0.2-1.3,0.5-2.5,0.7-3.7s0.5-2.2,0.6-3c0.1-0.5,0.1-0.7-0.2-0.8c-0.2,0.1-0.6,0.2-1.1,0.2
	s-0.9,0.1-1.2,0c-0.3,0-0.5,0-0.7,0s-0.4,0.1-0.6,0.2c-0.3,0-0.6,0.1-1.1,0.1s-1,0-1.5,0c-0.4,0-0.8,0-1.2,0s-0.8,0.1-1,0.2
	c0,0.2,0,0.5-0.1,0.7v0.5c0,0.4-0.1,0.8-0.1,1.2s-0.1,0.9-0.2,1.3c-0.1,0.5-0.2,1-0.3,1.6s-0.2,1.2-0.4,1.9c-0.1,0.6-0.3,1-0.3,1.4
	c-0.1,0.4-0.2,0.7-0.3,1s-0.2,0.6-0.3,0.9s-0.2,0.6-0.3,0.9c-0.3,0.8-0.5,1.5-0.8,2s-0.6,1.1-1.1,1.7c0,0-0.1,0.1-0.1,0.2
	s-0.1,0.1-0.1,0.2h-0.1h-0.1c0,0-0.1,0.1-0.3,0.2c-0.1,0.1-0.3,0.3-0.5,0.4c-0.2,0.2-0.4,0.3-0.6,0.4s-0.3,0.2-0.5,0.3
	c-0.4,0.3-0.9,0.5-1.4,0.7c-0.2,0-0.4,0.1-0.6,0.2l-0.4,0.1c-0.2,0-0.3,0-0.4,0s-0.2-0.1-0.2-0.2c-0.1,0-0.1-0.1-0.2-0.1
	c0,0-0.1,0-0.2,0s-0.2,0-0.2,0c-0.1,0-0.1,0-0.2,0l-0.2,0.1c-0.3,0.1-0.5,0.1-0.6,0s-0.2-0.2-0.3-0.4s-0.1-0.3-0.1-0.6
	c0-0.1,0.1-0.2,0.2-0.3l0.3-0.3c0.1,0,0.2-0.1,0.3-0.2s0.1-0.1,0-0.1c-0.1-0.1,0-0.2,0.2-0.2c0.1,0,0.2,0,0.2-0.1s0.1-0.2,0.1-0.4
	s0.1-0.4,0.2-0.7s0.2-0.5,0.3-0.7c0.1-0.3,0.2-0.7,0.4-1.1c0.1-0.4,0.3-0.9,0.5-1.5c0.2-0.8,0.5-1.8,0.8-2.9s0.6-2.4,1-3.9
	c0.1-0.2,0.2-0.6,0.3-1s0.2-0.9,0.3-1.3s0.2-0.8,0.2-1.1c0.1-0.3,0.1-0.5,0.1-0.5c-0.1,0-0.2,0.1-0.2,0h-0.1h-0.1
	c-0.2,0-0.4,0-0.6,0.1c-0.2,0-0.4,0.1-0.7,0.3c-0.5,0.2-0.8,0.3-1,0.3s-0.3,0-0.5-0.2c-0.1,0-0.3,0-0.4,0s-0.3,0-0.4,0
	s-0.2,0-0.2-0.1c0-0.2,0-0.4,0.1-0.5s0.2-0.4,0.2-0.6c0,0,0.1-0.1,0.1,0l0.1,0.1c0,0,0,0.1,0.1,0.1c0-0.1,0.1-0.1,0.4-0.1
	c0.1-0.1,0.2-0.2,0.3-0.3s0.3-0.2,0.5-0.3c0.1-0.2,0.2-0.2,0.2-0.2c0.1,0,0.1,0.1,0.1,0.1c0,0.1,0.1,0.1,0.1,0.1s0.1,0,0.2-0.1
	l0.8-0.3c0.1,0,0.2-0.1,0.4-0.1s0.3-0.1,0.5-0.1c0.1,0,0.3,0,0.4-0.1s0.2-0.1,0.2-0.1s0.1-0.2,0.1-0.6s0.1-0.8,0.1-1.3
	c0.1-0.5,0.1-1,0.2-1.5s0.1-0.9,0.2-1.2c0-0.3,0.1-0.7,0.2-1.2s0.2-1.1,0.2-1.6c0-0.2,0-0.5,0.1-0.9c0.1-0.6,0.2-1.3,0.3-2
	s0.2-1.4,0.3-2.1c0.1-0.8,0.2-1.5,0.3-2s0.1-0.9,0.2-1.3c0.1-0.3,0.1-0.6,0.1-0.8s0.1-0.4,0.1-0.7l0.1-0.3v-0.1c0-0.2,0-0.3,0.1-0.5
	c0.2-0.4,0.5-0.6,0.9-0.6c0.2,0,0.4-0.1,0.6-0.1s0.4,0,0.6,0.1c0.3,0.1,0.7,0.3,1,0.7c0.3,0.3,0.6,0.8,0.8,1.4
	c0.2,0.3,0.3,0.5,0.4,0.8s0.1,0.8,0.1,1.5v1.1c0,0.4,0,0.7-0.1,1v0.6c0,0.3,0,0.6-0.1,0.9c0,0.3-0.1,0.6-0.1,1
	c0,0.3-0.1,0.6-0.1,0.8c0,0.3-0.1,0.5-0.1,0.6s0,0.2,0.1,0.3c0,0,0.1-0.1,0.1-0.3l0.1-0.3l0.1,0.1c0,0.1,0.1,0.2,0.1,0.3v0.2
	c0,0.1,0.1,0.2,0.1,0.4v0.3c0,0.5-0.1,1.1-0.2,1.7s-0.2,1.4-0.5,2.3c0,0,0,0.1,0.1,0.1c0,0.1,0.1,0.1,0.1,0.2s0,0.2,0,0.4
	c-0.1,0.1-0.1,0.2-0.2,0.3c0,0.1,0,0.1-0.1,0.2v0.1v0.1c0,0.2-0.1,0.4-0.1,0.6s-0.1,0.4-0.2,0.6c0,0.2-0.1,0.3-0.1,0.4v0.3h0.6h1
	h0.6c0,0,0.4,0,0.7,0h1c0.3,0,0.7-0.1,1.1-0.1h1h0.6h0.5c0.4,0,0.7,0,0.9-0.1c0.2,0,0.4-0.1,0.5-0.1c0-0.3,0.1-0.5,0.2-0.9
	c0.1-0.3,0.2-0.7,0.2-1.1c0.1-0.3,0.2-0.7,0.3-1.2s0.2-0.9,0.4-1.3c0.2-0.8,0.4-1.7,0.6-2.6s0.5-1.8,0.7-2.6
	c0.1-0.5,0.2-1.1,0.4-1.6c0.1-0.5,0.3-1,0.4-1.3c0.3-0.5,0.5-1,0.6-1.5s0.2-0.9,0.3-1.1c0.1-0.3,0.3-0.6,0.6-0.9s0.6-0.5,1-0.6
	c0.2,0,0.3-0.1,0.5,0c0.2,0,0.3,0.1,0.4,0.1c0.1,0.1,0.2,0.3,0.2,0.5s0,0.6-0.2,1c-0.1,0.5-0.2,0.7-0.1,0.8c0,0.1,0.1,0.2,0.1,0.2
	c0.1,0.1,0.1,0.2,0.1,0.2V88c-0.1,0-0.2,0.1-0.3,0.2c-0.1,0-0.1,0-0.1,0c0,0.1-0.1,0.3-0.2,0.6c-0.1,0.2-0.1,0.3-0.1,0.4v0.1
	c0,0.1-0.1,0.2-0.1,0.4c-0.1,0.1-0.1,0.3-0.2,0.5l-0.1,0.7v0.9c0,0.1,0.1,0.2,0.1,0.3s0,0.2-0.1,0.4c-0.1,0.3-0.2,0.6-0.3,0.8
	c-0.1,0.3-0.1,0.5-0.1,0.5l-0.1,0.8v0.7c0,0-0.1,0.2-0.1,0.3c0,0.2-0.1,0.4-0.1,0.6l-0.1,0.5c0,0.2,0,0.3-0.1,0.4v0.3v0.9
	c0,0.4-0.1,0.9-0.1,1.5l-0.1,1.4h0.7c0.2,0,0.4,0.1,0.7,0.1c0.2,0,0.4,0.1,0.6,0.2c0.1,0.1,0.2,0.1,0.4,0.1c0.1,0,0.3,0,0.3-0.1h0.3
	v0.1C227.3,101.6,227.4,101.7,227.4,101.7C227.4,101.8,227.4,101.8,227.4,101.7L227.4,101.7z M222.4,116.9c0,0,0-0.1,0-0.2V116.9z"
	/>
<path d="M244.2,89.9c0.1-0.2,0.3-0.3,0.6-0.3c0,0,0.1,0,0.1,0.1s0.1,0.1,0.1,0.1c0.2,0,0.5,0.1,0.7,0.2c0.3,0.1,0.5,0.3,0.8,0.5
	s0.5,0.5,0.7,0.7c0.1,0.1,0.2,0.2,0.3,0.4c0.1,0.1,0.2,0.3,0.2,0.4c0.2,0.3,0.4,0.7,0.6,1.1c0,0.3,0.1,0.6,0,0.8
	c0,0.3-0.1,0.6-0.1,1.1c0,0.3-0.1,0.4-0.1,0.5s-0.1,0.2-0.1,0.4c0,0.3-0.1,0.6-0.1,0.9s-0.1,0.6-0.2,0.9c0,0.3,0.1,0.6,0.1,1
	c0,0.3,0.1,0.6,0.1,1l0.1,0.9c-0.1,0.5-0.2,1.1-0.3,1.6s-0.2,1.1-0.3,1.6c0,0.2-0.1,0.3-0.1,0.5v0.4h0.2h0.1h0.1c0,0,0.1,0,0.3-0.1
	l0.5-0.2l0.9-0.1c0.2,0,0.3,0.2,0.4,0.5s0.1,0.5,0.1,0.6c0,0.2-0.1,0.4-0.3,0.6c-0.2,0.1-0.6,0.3-1.1,0.4l-0.6,0.2l-0.5,0.6
	c-0.1,0.1-0.2,0.2-0.3,0.4s-0.2,0.5-0.2,0.9c-0.1,0.9-0.2,2.1-0.3,3.5v0.3c0,0.2,0,0.3-0.1,0.4c-0.1,0.3-0.1,0.6-0.2,0.8v0.8v0.7
	v0.7v0.5c0,0.1,0,0.3-0.1,0.4v0.5v0.7c0,0,0,0.5,0,0.7v0.3v0.3c0,0.4,0,0.8,0.1,1.1c0,0.3,0.1,0.6,0.1,0.9c0,0.1,0.1,0.2,0.1,0.4
	c0,0.1,0.1,0.3,0.1,0.5l0.1,0.6v0.9v0.7c0,0.2,0.1,0.4,0.2,0.6v0.4c0,0.3-0.1,0.6-0.1,0.9c0,0.2-0.1,0.5-0.1,0.8
	c0,0-0.1,0.1-0.3,0.1s-0.2,0.1-0.3,0.1s-0.2,0.1-0.2,0.1l-0.5,0.1c-0.1,0-0.3,0-0.4,0.1s-0.3,0-0.4,0c-0.4,0-0.7-0.1-1-0.3
	s-0.5-0.5-0.7-1.1c-0.1-0.1-0.2-0.2-0.3-0.4c-0.1-0.1-0.2-0.3-0.3-0.5l-0.5-0.8c-0.1-0.1-0.2-0.3-0.2-0.4c-0.1-0.1-0.1-0.2-0.2-0.3
	l-0.5-0.7c-0.1-0.3-0.1-0.5-0.2-0.7c0-0.2-0.1-0.5-0.1-0.7c0-0.3-0.1-0.6-0.1-1c0-0.3-0.1-0.6-0.1-1c0-0.2,0-0.4-0.1-0.6
	c0-0.2,0-0.4,0-0.6l-0.1-0.6c0-0.1-0.1-0.2-0.1-0.3c0-0.2,0-0.4,0.1-0.8c0.1-0.3,0.1-0.7,0.2-1c0-0.2,0-0.4,0.1-0.5
	c0-0.2,0-0.3,0-0.4c0-0.3,0-0.6,0.1-1c0-0.3,0-0.6,0.1-1c0.1-0.7,0.1-1.3,0.2-1.9s0.2-1,0.2-1.4c0.1-0.4,0.2-0.7,0.2-1
	s0.1-0.4,0.1-0.5c0,0-0.1-0.1-0.3-0.1c-0.1,0-0.2,0-0.3,0.1l-1.6,0.3l-1.3,0.3c-0.5,0-1,0-1.6,0.1c-0.6,0-1.1,0-1.6,0.1
	c-0.2,0.2-0.4,0.5-0.5,0.7c-0.2,0.2-0.3,0.5-0.5,0.7c-0.3,0.3-0.5,0.6-0.7,0.9s-0.4,0.6-0.6,0.9c-0.2,0.2-0.5,0.4-0.7,0.6
	s-0.4,0.4-0.5,0.5l-0.1,0.1c-0.3,0.3-0.6,0.7-0.9,1.1l-0.9,1.6l-0.1,0.1l-0.6,1c-0.1,0.2-0.2,0.3-0.3,0.5c-0.1,0.1-0.2,0.3-0.3,0.4
	c-0.2,0.2-0.3,0.5-0.5,0.7c-0.1,0.2-0.3,0.4-0.4,0.6l-0.3,0.6c-0.3,0.3-0.5,0.5-0.7,0.8c-0.1,0.1-0.2,0.2-0.3,0.3s-0.2,0.2-0.3,0.2
	c-0.4,0.3-0.7,0.4-0.8,0.4c-0.2,0-0.3-0.2-0.3-0.5c0,0,0,0,0-0.1s0-0.2,0.1-0.3c0-0.1,0.1-0.2,0.1-0.3s0,0,0,0v-0.1
	c0,0,0-0.1,0.1-0.1l0.2-0.5l0.3-0.3c0.2-0.3,0.5-0.5,0.7-0.8s0.5-0.6,0.7-0.8l0.1-0.1l0.7-0.8l1-1.5c0.3-0.4,0.5-0.8,0.7-1.2
	s0.5-0.8,0.7-1.2l0.8-1.2c0.3-0.5,0.6-0.9,0.8-1.3s0.4-0.6,0.5-0.8c-0.2,0-0.3,0-0.5,0s-0.3,0-0.5,0c-0.4-0.1-0.7-0.3-0.7-0.5
	c-0.1-0.1-0.2-0.2-0.1-0.3c0-0.2,0.2-0.4,0.5-0.7c0.1-0.1,0.2-0.2,0.4-0.3s0.3-0.1,0.4-0.2h0.6c0.2,0,0.4-0.1,0.6-0.1
	c0.3,0,0.5,0,0.6-0.1c0.2,0,0.4-0.1,0.5-0.3c0.1-0.3,0.4-0.8,0.8-1.5s0.8-1.4,1.2-2.2c0.3-0.6,0.7-1.2,1-1.7
	c0.4-0.6,0.7-1.2,0.9-1.8l0.7-0.9c0.3-0.3,0.6-0.7,0.9-1c0.3-0.4,0.6-0.8,1-1.2c0.8-1.2,1.5-2.1,2.1-3c0.6-0.8,1.1-1.6,1.4-2.3
	c0-0.1,0.1-0.2,0.1-0.3s0.1-0.2,0.1-0.3L244.2,89.9z M243.8,93.4l-0.1-0.1l-0.1-0.1c-0.2,0.3-0.3,0.5-0.6,0.8
	c-0.2,0.3-0.4,0.6-0.6,0.8c-0.1,0.1-0.2,0.3-0.3,0.5s-0.2,0.4-0.3,0.5s-0.2,0.3-0.4,0.4s-0.2,0.3-0.3,0.5l-0.4,0.8
	c-0.1,0.2-0.2,0.3-0.2,0.5c-0.1,0.2-0.2,0.3-0.2,0.5c-0.1,0.1-0.1,0.3-0.2,0.4s-0.2,0.3-0.3,0.4c-0.2,0.2-0.3,0.4-0.4,0.7
	c-0.1,0.4-0.3,0.7-0.6,1.1l-0.8,1.4c-0.3,0.6-0.6,1.1-0.9,1.8c-0.3,0.6-0.6,1.2-0.9,1.8c-0.2,0.4-0.3,0.7-0.3,0.9h0.2
	c0,0,0.1,0,0.3,0c0.3,0,0.6-0.1,1-0.2s0.7-0.2,0.9-0.2h0.2h0.4c0.3,0,0.5-0.1,0.7-0.1s0.4-0.1,0.6-0.1s0.3-0.1,0.5-0.1
	c0.1,0,0.3-0.1,0.5-0.1l0.8-0.2c0-0.2,0-0.4,0.1-0.6c0-0.2,0-0.4,0.1-0.7s0.1-0.4,0.1-0.6s0-0.3,0-0.2c0.1-0.5,0.2-1,0.3-1.6
	s0.2-1.1,0.3-1.7s0.2-1.1,0.3-1.6s0.2-1,0.3-1.5c0.1-0.3,0.1-0.6,0.2-0.9c0-0.3,0.1-0.5,0.1-0.7c0-0.4,0.1-0.8,0.1-1.1
	C243.8,94.1,243.8,93.7,243.8,93.4L243.8,93.4z"/>
<path d="M272.5,117.7c-0.1,0.1-0.2,0.3-0.4,0.5s-0.3,0.4-0.3,0.4c-0.1,0-0.1,0.1-0.2,0.2s-0.2,0.2-0.2,0.4c-0.1,0.1-0.2,0.3-0.3,0.4
	s-0.2,0.2-0.4,0.3c-0.2,0.3-0.4,0.6-0.6,0.7s-0.3,0.2-0.4,0.2s-0.2,0-0.3,0s-0.2,0-0.3,0s-0.1,0-0.2,0l-0.4,0.1
	c-0.4,0-0.8-0.2-1.1-0.4s-0.7-0.6-1.1-1c-0.2-0.1-0.3-0.2-0.4-0.4c-0.1-0.1-0.2-0.3-0.3-0.4c-0.3-0.5-0.5-1-0.7-1.5
	s-0.2-1.3-0.2-2.2c0-0.2,0-0.4,0-0.6c0-0.1,0-0.3,0-0.5s0-0.4,0-0.7s0-0.7,0.1-1.2c0-0.7,0.1-1.3,0.2-1.9s0.1-1.2,0.2-1.6
	c0-0.4,0.1-0.8,0.1-1.1s0.2-0.8,0.4-1.4c0.1-0.4,0.2-0.7,0.2-0.9c0.1-0.2,0.1-0.5,0.2-0.7s0.1-0.5,0.2-0.7s0.2-0.6,0.2-1
	c0.1-0.5,0.2-0.9,0.3-1.2s0.2-0.7,0.3-1s0.2-0.7,0.3-1.2s0.3-1,0.4-1.8l0.3-1.1c0.2-0.6,0.3-1.1,0.5-1.6c0.1-0.5,0.2-0.9,0.3-1.3
	c0-0.2,0.1-0.5,0.2-0.9s0.2-0.9,0.3-1.3c0.1-0.5,0.2-0.9,0.3-1.4s0.1-0.8,0.1-1.1s-0.1-0.4-0.2-0.4s-0.3-0.1-0.5-0.1
	c-0.4,0-0.9,0.1-1.3,0.2c-0.4,0.2-0.9,0.5-1.4,1c-0.2,0.2-0.3,0.4-0.4,0.4s-0.1,0.1-0.1,0.1s0,0.1,0.1,0.1c0,0,0.1,0,0.1,0.1
	s-0.1,0.2-0.2,0.3s-0.3,0.2-0.6,0.3c-0.1,0.1-0.3,0.4-0.7,0.7c-0.4,0.4-0.7,0.8-0.9,1.3c-0.2,0.2-0.3,0.4-0.4,0.6s-0.2,0.4-0.3,0.7
	l-0.7,1.2v0.1c0,0-0.1,0-0.1,0.1c0,0,0,0-0.1,0.1c-0.3,0.4-0.5,0.9-0.7,1.6s-0.4,1.3-0.6,1.9s-0.3,1.2-0.4,1.6
	c-0.1,0.5-0.1,0.7-0.1,0.8c0,0,0,0.1-0.1,0.2c0,0.1-0.1,0.2-0.1,0.2c0,0.4-0.1,0.8-0.2,1.1s-0.2,0.6-0.2,0.9c0,0.1,0,0.3,0.1,0.6
	c0,0.3,0.1,0.5,0.1,0.5c0,0.4-0.1,0.8-0.1,1.4c-0.1,0.5-0.1,1-0.2,1.6s-0.2,1-0.2,1.5c-0.1,0.5-0.2,0.8-0.2,1.1
	c-0.1,0.3-0.2,0.7-0.3,1.1s-0.2,0.8-0.2,1.1s-0.2,0.7-0.2,1c-0.1,0.3-0.2,0.5-0.2,0.7c-0.1,0.1-0.2,0.3-0.2,0.5s-0.1,0.3-0.2,0.4
	v-0.1c-0.1,0.1-0.1,0.2-0.2,0.3c0,0.1-0.1,0.1-0.1,0.2v0.1v0.1v0.1v0.1c0,0-0.1,0-0.2-0.1s-0.2-0.1-0.2-0.1c-0.1,0-0.2,0-0.3,0.1
	c-0.1,0-0.2,0.1-0.2,0.1c-0.1,0-0.3-0.1-0.6-0.2c-0.1-0.1-0.3-0.2-0.3-0.2c-0.1,0-0.2,0-0.2,0.1c-0.1,0-0.2,0.1-0.3,0.1
	c-0.5-0.1-0.8-0.4-1.1-0.8s-0.4-0.9-0.4-1.4c0-0.1,0-0.2,0-0.3l-0.1-0.1l-0.1-0.1c-0.1-0.3-0.2-0.6-0.2-1s0.1-1.1,0.2-1.9
	s0.3-1.9,0.5-3.2c0.2-1.4,0.3-2.5,0.5-3.3c0.1-0.8,0.2-1.6,0.3-2.2s0.1-1.2,0.2-1.7s0.1-1.1,0.2-1.9l0.4-5.1l0.1-2.5
	c0-0.9,0.1-1.6,0.1-2.1c0-0.6,0-1,0.1-1.3c0-0.3,0-0.5,0-0.7c0-0.1,0-0.2,0-0.3c0.2-0.2,0.3-0.4,0.4-0.6s0.3-0.3,0.6-0.3
	c0.2,0,0.5,0,0.7,0.1s0.4,0.2,0.6,0.4s0.5,0.4,0.8,0.6s0.5,0.5,0.8,0.8c0.2,0.3,0.4,0.6,0.6,0.8c0.3,0.6,0.5,1.2,0.7,2
	s0.2,1.6,0.2,2.5v1.2c0,0.4,0,0.9-0.2,1.5l-0.1,1.2c0-0.1,0.1-0.2,0.1-0.3s0.1-0.2,0.2-0.4c0-0.1,0.1-0.3,0.2-0.6s0.3-0.7,0.5-1.1
	s0.4-0.8,0.7-1.2c0.2-0.4,0.5-0.8,0.7-1c0.1-0.1,0.2-0.3,0.3-0.5c0.2-0.2,0.3-0.4,0.5-0.6c0.3-0.5,0.6-1,1.1-1.4
	c0.1,0,0.2-0.1,0.3-0.2s0.2-0.2,0.2-0.2c0.7-0.7,1.4-1.3,2-1.7s1-0.7,1.3-1l0.2-0.1c0.2-0.1,0.4-0.1,0.6-0.2c0.2,0,0.5-0.1,0.8-0.1
	l0.5,0.1h0.1c0.4,0,0.8,0.2,1.2,0.5s0.7,0.7,1.1,1.2c0.3,0.5,0.6,1,0.8,1.6s0.4,1.2,0.5,1.8c0.1,0.5,0.2,0.9,0.3,1.2
	s0.1,0.7,0.1,1.2v0.8c0,0.3,0,0.5-0.1,0.7c0,0.3-0.1,0.7-0.1,1.2c-0.1,0.5-0.1,1-0.2,1.6c-0.1,0.5-0.1,1.1-0.2,1.5
	c-0.1,0.5-0.1,0.8-0.1,1s0,0,0-0.1c0,0,0,0,0-0.1c0,0,0,0,0-0.1c0,0,0,0,0-0.1c0,0,0-0.1,0.1-0.1c0,0.3,0,0.8-0.1,1.3
	c0,0.5-0.1,1.1-0.2,1.6c0,0.1-0.1,0.3-0.1,0.4s0,0.3,0,0.4v0.4v0.3c0,0-0.1,0.2-0.2,0.6c-0.1,0.3-0.2,0.7-0.2,1.2
	c0,0.3,0,0.5-0.1,0.9c-0.1,0.3-0.1,0.6-0.2,0.9v0.1c0,0.2-0.1,0.2-0.2,0.2s-0.2,0-0.2,0.1l-0.1,0.1c-0.1,0.1-0.1,0.2-0.2,0.2
	l-0.1,0.1c0,0,0,0.1-0.1,0.2v0.4c0,0.3,0.1,0.5,0.1,0.6c0.1-0.1,0.1-0.1,0.2-0.1s0.1,0.1,0.1,0.2c0,0.2,0,0.4-0.1,0.7
	s-0.2,0.6-0.2,0.8c-0.1,0.3-0.2,0.6-0.4,1c0-0.1,0-0.1-0.1-0.1c0,0-0.1,0.1-0.1,0.2v0.6c0,0.3,0,0.5,0.1,0.5c0,0.1,0.1,0.2,0.1,0.5
	v1.2c0,0.5-0.1,0.9-0.2,1.2l-0.1,0.4L272.5,117.7z"/>
</svg>
